<svg width="199" height="198" viewBox="0 0 199 198" fill="none" xmlns="http://www.w3.org/2000/svg">
<path d="M135.652 63.6678C135.638 63.6539 135.652 63.6678 135.652 63.6678L91.2789 128.838L64 95.9545C65.7067 96.9813 89.1629 107.165 90.9112 108.109" fill="#00005A"/>
<path d="M119.917 96.8285V135.29C119.917 141.741 114.208 147 107.187 147H79.5818C72.5539 147 66.8442 141.748 66.8442 135.29V107.311L71.7006 111.987V135.29C71.7006 139.285 75.2319 142.532 79.5818 142.532H107.187C111.53 142.532 115.061 139.285 115.061 135.29V102.503C119.806 96.8215 114.992 102.462 119.917 96.8215V96.8285Z" fill="#00005A"/>
<path d="M119.917 63.7302V72.4297C115.061 76.2314 120.16 72.3118 115.061 76.2314V63.7302C115.061 59.3873 111.53 55.8562 107.187 55.8562H79.5818C75.2319 55.8562 71.7006 59.3873 71.7006 63.7302V94.8653C66.9483 93.0893 71.7006 94.8653 66.8442 93.0477V63.7302C66.8442 56.7095 72.5539 51 79.5818 51H107.187C114.208 51 119.917 56.7095 119.917 63.7302Z" fill="#00005A"/>
<path fill-rule="evenodd" clip-rule="evenodd" d="M113.915 10.0619C104.777 12.9556 98.3524 14.4429 88.7446 11.485C86.6958 10.8538 76.7531 7.76178 74.654 8.75473C73.2695 9.40972 70.0776 12.9849 68.9611 14.1287C61.8558 21.4061 56.3541 26.1041 46.1155 28.4909C44.036 28.9755 34.2775 31.0773 32.8316 32.6498C31.4499 34.1539 29.4737 44.1169 28.9922 46.2257C26.5888 56.7362 22.3725 60.7862 14.8388 67.459C8.11864 73.4111 8.03211 77.1217 10.9253 85.4229C13.9637 94.143 14.8834 100.275 12.0684 109.424C11.4319 111.491 8.1647 121.109 8.60991 123.103C9.07607 125.188 16.4773 131.89 18.0362 133.351C25.711 140.541 28.1269 147.363 30.6446 157.22C31.0396 158.769 32.018 163.462 32.8888 164.722C34.2119 166.633 44.3668 168.93 46.4561 169.409C56.255 171.655 61.0742 176.156 67.5431 183.235C73.0043 189.211 76.774 190.525 84.5646 188.1C93.9881 185.168 100.281 183.443 110.253 186.514C112.301 187.145 122.245 190.237 124.344 189.244C125.727 188.591 128.92 185.014 130.037 183.87C137.141 176.594 142.644 171.895 152.882 169.508C154.962 169.024 164.72 166.922 166.166 165.349C167.548 163.846 169.524 153.881 170.007 151.773C172.246 141.981 176.254 137.408 183.484 131.132C190.641 124.92 191.14 121.376 188.052 112.516C185.022 103.829 184.128 97.6818 186.929 88.5763C187.566 86.5094 190.833 76.8913 190.388 74.8984C189.922 72.8134 182.521 66.1113 180.962 64.6505C173.288 57.461 170.871 50.6388 168.353 40.782C167.958 39.2332 166.98 34.5379 166.109 33.2797C164.787 31.3692 154.631 29.0732 152.542 28.5942C142.37 26.2634 137.783 21.6226 131.086 14.3675C125.551 8.37068 121.629 7.62212 113.914 10.0661M111.329 1.89205C105.594 3.70897 99.7997 5.92391 91.2638 3.29559C71.9074 -2.6691 71.0072 -0.230711 62.8342 8.13885C56.9905 14.1245 52.7184 18.1508 44.1728 20.1423C24.159 24.8081 24.995 25.2774 20.6405 44.3152C18.4745 53.802 13.7348 56.989 9.1612 61.0404C-0.28324 69.4072 -1.21415 76.6273 2.83746 88.2481C4.64763 93.4419 6.48153 98.4499 3.88141 106.902C-1.86313 125.565 -2.81916 125.556 12.1828 139.611C18.5875 145.61 20.2763 151.236 22.346 159.343C25.242 170.68 24.8024 173.243 44.5454 177.766C53.2515 179.76 57.1622 184.578 61.2208 189.021C68.9444 197.473 76.0943 199.716 87.1103 196.287C93.0293 194.445 98.9218 191.994 107.734 194.708C127.093 200.668 127.992 198.23 136.166 189.86C142.01 183.874 146.282 179.848 154.828 177.857C174.842 173.191 174.006 172.722 178.36 153.684C180.41 144.708 184.762 141.372 189.1 137.607C199.001 129.012 200.406 121.918 196.142 109.689C194.339 104.517 192.529 99.5155 195.119 91.0971C200.862 72.4335 201.82 72.4433 186.818 58.3897C180.413 52.3887 178.724 46.7648 176.655 38.6578C173.759 27.3192 174.198 24.7579 154.455 20.2344C145.466 18.1745 141.589 13.105 137.383 8.54804C129.555 0.0667555 122.243 -1.56861 111.331 1.88786L111.329 1.89205Z" fill="#00005A"/>
</svg>
