<svg width="49" height="33" viewBox="0 0 49 33" fill="none" xmlns="http://www.w3.org/2000/svg">
<g opacity="0.7">
<g style="mix-blend-mode:color-dodge">
<g style="mix-blend-mode:soft-light">
<path d="M12.7445 12.3501L12.6172 12.134L5.36153 16.2218C5.12286 15.9048 4.73966 15.6965 4.3074 15.6965C3.58607 15.6965 3 16.2684 3 16.9724C3 17.6763 3.58607 18.2483 4.3074 18.2483C5.02872 18.2483 5.61479 17.6763 5.61479 16.9724C5.61479 16.7808 5.56971 16.5984 5.49148 16.4353L12.7445 12.3488V12.3501ZM4.3074 18.0632C3.69215 18.0632 3.19094 17.5741 3.19094 16.9737C3.19094 16.3732 3.69215 15.8841 4.3074 15.8841C4.92264 15.8841 5.42385 16.3732 5.42385 16.9737C5.42385 17.5741 4.92264 18.0632 4.3074 18.0632Z" fill="white"/>
<path d="M4.30714 16.3643C3.96239 16.3643 3.68262 16.6373 3.68262 16.9737C3.68262 17.3102 3.96239 17.5832 4.30714 17.5832C4.65189 17.5832 4.93167 17.3102 4.93167 16.9737C4.93167 16.6373 4.65189 16.3643 4.30714 16.3643Z" fill="white"/>
</g>
<g style="mix-blend-mode:soft-light">
<path d="M20.6377 2.8584V7.4418L25.1367 9.97808V5.39338L21.6216 3.41353L20.6377 2.8584Z" fill="white"/>
<path d="M29.8266 2.53498L25.3276 0L20.8286 2.53498L25.3276 5.06995L29.8266 2.53498Z" fill="white"/>
<path d="M25.5186 9.97808L30.0189 7.4418V2.8584L29.0337 3.41353L25.5186 5.39338V9.97808Z" fill="white"/>
<path d="M29.0337 3.41357L25.5186 5.39342L29.0337 3.41357Z" fill="white"/>
</g>
<g style="mix-blend-mode:soft-light">
<path d="M20.6377 18.9768L25.1367 21.5118V16.9284L20.6377 14.3921V18.9768Z" fill="white"/>
</g>
<g style="mix-blend-mode:soft-light">
<path d="M29.8271 14.0697L25.3281 11.5334L20.8291 14.0697L25.3281 16.6047L29.8271 14.0697Z" fill="white"/>
</g>
<g style="mix-blend-mode:soft-light">
<path d="M30.0189 18.9768V14.3921L25.5186 16.9284V21.5118L30.0189 18.9768Z" fill="white"/>
</g>
<g style="mix-blend-mode:soft-light">
<path d="M10.5659 8.68555V13.269L15.0649 15.8039V11.2205L10.5659 8.68555Z" fill="white"/>
</g>
<g style="mix-blend-mode:soft-light">
<path d="M22.9754 6.43136L22.8455 6.21655L19.4404 8.18475L19.695 8.32709L22.9754 6.43136Z" fill="white"/>
</g>
<g style="mix-blend-mode:soft-light">
<path d="M28.062 6.18275L28.192 5.96924L31.597 7.93744L31.3424 8.07978L28.062 6.18275Z" fill="white"/>
</g>
<g style="mix-blend-mode:soft-light">
<path d="M17.6953 23.5756L17.8253 23.3608L21.2303 25.329L20.9771 25.4714L17.6953 23.5756Z" fill="white"/>
</g>
<g style="mix-blend-mode:soft-light">
<path d="M33.0604 12.1457L32.9305 11.9309L29.5254 13.8991L29.7786 14.0414L33.0604 12.1457Z" fill="white"/>
</g>
<g style="mix-blend-mode:soft-light">
<path d="M22.9979 17.9313L22.868 17.7178L19.4629 19.686L19.7161 19.8283L22.9979 17.9313Z" fill="white"/>
</g>
<g style="mix-blend-mode:soft-light">
<path d="M32.9574 23.5756L32.8274 23.3608L29.4224 25.329L29.6756 25.4714L32.9574 23.5756Z" fill="white"/>
</g>
<g style="mix-blend-mode:soft-light">
<path d="M19.6951 8.32694L19.4405 8.1846L15.2558 5.8269L10.7568 8.36188L15.2558 10.8969L19.7548 8.36188L19.6951 8.32694Z" fill="white"/>
</g>
<g style="mix-blend-mode:soft-light">
<path d="M19.9471 13.269V8.68555L15.4468 11.2205V15.8039L19.9471 13.269Z" fill="white"/>
</g>
<g style="mix-blend-mode:soft-light">
<path d="M32.0467 9.00892L31.0615 8.45508V13.0385L35.5605 15.5735V10.9901L32.0467 9.00892Z" fill="white"/>
</g>
<g style="mix-blend-mode:soft-light">
<path d="M40.2512 8.13166L35.7523 5.59668L31.252 8.13166L35.7523 10.6666L40.2512 8.13166Z" fill="white"/>
</g>
<g style="mix-blend-mode:soft-light">
<path d="M35.9434 15.5735L40.4423 13.0385V8.45508L39.4571 9.00892L35.9434 10.9901V15.5735Z" fill="white"/>
</g>
<g style="mix-blend-mode:soft-light">
<path d="M39.4571 9.00903L35.9434 10.9902L39.4571 9.00903Z" fill="white"/>
</g>
<g style="mix-blend-mode:soft-light">
<path d="M20.6377 30.4651L25.1367 33V28.4166L20.6377 25.8804V30.4651Z" fill="white"/>
</g>
<g style="mix-blend-mode:soft-light">
<path d="M29.8271 25.5582L25.3281 23.0232L20.8291 25.5582L25.3281 28.0931L29.8271 25.5582Z" fill="white"/>
</g>
<g style="mix-blend-mode:soft-light">
<path d="M30.0189 30.4651V25.8804L25.5186 28.4166V33L30.0189 30.4651Z" fill="white"/>
</g>
<g style="mix-blend-mode:soft-light">
<path d="M10.5659 24.7572L15.0649 27.2922V22.7088L10.5659 20.1738V24.7572Z" fill="white"/>
</g>
<g style="mix-blend-mode:soft-light">
<path d="M19.7548 19.8502L15.2558 17.3152L10.7568 19.8502L15.2558 22.3851L19.7548 19.8502Z" fill="white"/>
</g>
<g style="mix-blend-mode:soft-light">
<path d="M19.9471 24.7572V20.1738L15.4468 22.7088V27.2922L19.9471 24.7572Z" fill="white"/>
</g>
<g style="mix-blend-mode:soft-light">
<path d="M31.0615 24.5268L35.5605 27.0617V22.4783L31.0615 19.9434V24.5268Z" fill="white"/>
</g>
<g style="mix-blend-mode:soft-light">
<path d="M44.6125 15.5281C43.8912 15.5281 43.3051 16.1 43.3051 16.804C43.3051 16.9955 43.3502 17.1779 43.4285 17.341L39.8179 19.3752L40.0725 19.5188L43.5584 17.5545C43.7971 17.8715 44.1803 18.0799 44.6125 18.0799C45.3339 18.0799 45.9199 17.5079 45.9199 16.804C45.9199 16.1 45.3339 15.5281 44.6125 15.5281ZM44.6125 17.8935C43.9973 17.8935 43.4961 17.4044 43.4961 16.804C43.4961 16.2036 43.9973 15.7144 44.6125 15.7144C45.2278 15.7144 45.729 16.2036 45.729 16.804C45.729 17.4044 45.2278 17.8935 44.6125 17.8935Z" fill="white"/>
</g>
<g style="mix-blend-mode:soft-light">
<path d="M44.6128 16.1946C44.2681 16.1946 43.9883 16.4676 43.9883 16.8041C43.9883 17.1405 44.2681 17.4135 44.6128 17.4135C44.9576 17.4135 45.2373 17.1405 45.2373 16.8041C45.2373 16.4676 44.9576 16.1946 44.6128 16.1946Z" fill="white"/>
</g>
<g style="mix-blend-mode:soft-light">
<path d="M40.0722 19.519L39.8163 19.3754L35.7523 17.085L31.252 19.6199L35.7523 22.1549L40.2512 19.6199L40.0722 19.519Z" fill="white"/>
</g>
<g style="mix-blend-mode:soft-light">
<path d="M40.4423 24.5268V19.9434L35.9434 22.4783V27.0617L40.4423 24.5268Z" fill="white"/>
</g>
<g style="mix-blend-mode:color-dodge">
<path d="M44.8065 17.9217C45.4657 17.817 45.9132 17.2107 45.8059 16.5673C45.6987 15.924 45.0774 15.4873 44.4182 15.592C43.759 15.6967 43.3115 16.303 43.4188 16.9463C43.526 17.5896 44.1473 18.0263 44.8065 17.9217Z" fill="url(#paint0_radial_1_10498)" style="mix-blend-mode:color-dodge"/>
<path d="M44.8065 17.9217C45.4657 17.817 45.9132 17.2107 45.8059 16.5673C45.6987 15.924 45.0774 15.4873 44.4182 15.592C43.759 15.6967 43.3115 16.303 43.4188 16.9463C43.526 17.5896 44.1473 18.0263 44.8065 17.9217Z" stroke="black" stroke-width="6" stroke-miterlimit="10"/>
</g>
<g style="mix-blend-mode:color-dodge">
<path d="M44.8065 17.9217C45.4657 17.817 45.9132 17.2107 45.8059 16.5673C45.6987 15.924 45.0774 15.4873 44.4182 15.592C43.759 15.6967 43.3115 16.303 43.4188 16.9463C43.526 17.5896 44.1473 18.0263 44.8065 17.9217Z" fill="url(#paint1_radial_1_10498)" style="mix-blend-mode:color-dodge"/>
<path d="M44.8065 17.9217C45.4657 17.817 45.9132 17.2107 45.8059 16.5673C45.6987 15.924 45.0774 15.4873 44.4182 15.592C43.759 15.6967 43.3115 16.303 43.4188 16.9463C43.526 17.5896 44.1473 18.0263 44.8065 17.9217Z" stroke="black" stroke-width="6" stroke-miterlimit="10"/>
</g>
<g style="mix-blend-mode:color-dodge">
<path d="M4.30742 18.2067C4.97528 18.2067 5.51669 17.6784 5.51669 17.0266C5.51669 16.3748 4.97528 15.8464 4.30742 15.8464C3.63956 15.8464 3.09814 16.3748 3.09814 17.0266C3.09814 17.6784 3.63956 18.2067 4.30742 18.2067Z" fill="url(#paint2_radial_1_10498)" style="mix-blend-mode:color-dodge"/>
<path d="M4.30742 18.2067C4.97528 18.2067 5.51669 17.6784 5.51669 17.0266C5.51669 16.3748 4.97528 15.8464 4.30742 15.8464C3.63956 15.8464 3.09814 16.3748 3.09814 17.0266C3.09814 17.6784 3.63956 18.2067 4.30742 18.2067Z" stroke="black" stroke-width="6" stroke-miterlimit="10"/>
</g>
<g style="mix-blend-mode:color-dodge">
<path d="M4.30742 18.2067C4.97528 18.2067 5.51669 17.6784 5.51669 17.0266C5.51669 16.3748 4.97528 15.8464 4.30742 15.8464C3.63956 15.8464 3.09814 16.3748 3.09814 17.0266C3.09814 17.6784 3.63956 18.2067 4.30742 18.2067Z" fill="url(#paint3_radial_1_10498)" style="mix-blend-mode:color-dodge"/>
<path d="M4.30742 18.2067C4.97528 18.2067 5.51669 17.6784 5.51669 17.0266C5.51669 16.3748 4.97528 15.8464 4.30742 15.8464C3.63956 15.8464 3.09814 16.3748 3.09814 17.0266C3.09814 17.6784 3.63956 18.2067 4.30742 18.2067Z" stroke="black" stroke-width="6" stroke-miterlimit="10"/>
</g>
</g>
<g style="mix-blend-mode:color-dodge" opacity="0.5">
<g style="mix-blend-mode:soft-light">
<path d="M12.7445 12.3501L12.6172 12.134L5.36153 16.2218C5.12286 15.9048 4.73966 15.6965 4.3074 15.6965C3.58607 15.6965 3 16.2684 3 16.9724C3 17.6763 3.58607 18.2483 4.3074 18.2483C5.02872 18.2483 5.61479 17.6763 5.61479 16.9724C5.61479 16.7808 5.56971 16.5984 5.49148 16.4353L12.7445 12.3488V12.3501ZM4.3074 18.0632C3.69215 18.0632 3.19094 17.5741 3.19094 16.9737C3.19094 16.3732 3.69215 15.8841 4.3074 15.8841C4.92264 15.8841 5.42385 16.3732 5.42385 16.9737C5.42385 17.5741 4.92264 18.0632 4.3074 18.0632Z" fill="white"/>
<path d="M4.30714 16.3643C3.96239 16.3643 3.68262 16.6373 3.68262 16.9737C3.68262 17.3102 3.96239 17.5832 4.30714 17.5832C4.65189 17.5832 4.93167 17.3102 4.93167 16.9737C4.93167 16.6373 4.65189 16.3643 4.30714 16.3643Z" fill="white"/>
</g>
<g style="mix-blend-mode:soft-light">
<path d="M20.6377 2.8584V7.4418L25.1367 9.97808V5.39338L21.6216 3.41353L20.6377 2.8584Z" fill="white"/>
<path d="M29.8266 2.53498L25.3276 0L20.8286 2.53498L25.3276 5.06995L29.8266 2.53498Z" fill="white"/>
<path d="M25.5186 9.97808L30.0189 7.4418V2.8584L29.0337 3.41353L25.5186 5.39338V9.97808Z" fill="white"/>
<path d="M29.0337 3.41357L25.5186 5.39342L29.0337 3.41357Z" fill="white"/>
</g>
<g style="mix-blend-mode:soft-light">
<path d="M20.6377 18.9768L25.1367 21.5118V16.9284L20.6377 14.3921V18.9768Z" fill="white"/>
</g>
<g style="mix-blend-mode:soft-light">
<path d="M29.8271 14.0697L25.3281 11.5334L20.8291 14.0697L25.3281 16.6047L29.8271 14.0697Z" fill="white"/>
</g>
<g style="mix-blend-mode:soft-light">
<path d="M30.0189 18.9768V14.3921L25.5186 16.9284V21.5118L30.0189 18.9768Z" fill="white"/>
</g>
<g style="mix-blend-mode:soft-light">
<path d="M10.5659 8.68555V13.269L15.0649 15.8039V11.2205L10.5659 8.68555Z" fill="white"/>
</g>
<g style="mix-blend-mode:soft-light">
<path d="M22.9754 6.43136L22.8455 6.21655L19.4404 8.18475L19.695 8.32709L22.9754 6.43136Z" fill="white"/>
</g>
<g style="mix-blend-mode:soft-light">
<path d="M28.062 6.18275L28.192 5.96924L31.597 7.93744L31.3424 8.07978L28.062 6.18275Z" fill="white"/>
</g>
<g style="mix-blend-mode:soft-light">
<path d="M17.6953 23.5756L17.8253 23.3608L21.2303 25.329L20.9771 25.4714L17.6953 23.5756Z" fill="white"/>
</g>
<g style="mix-blend-mode:soft-light">
<path d="M33.0604 12.1457L32.9305 11.9309L29.5254 13.8991L29.7786 14.0414L33.0604 12.1457Z" fill="white"/>
</g>
<g style="mix-blend-mode:soft-light">
<path d="M22.9979 17.9313L22.868 17.7178L19.4629 19.686L19.7161 19.8283L22.9979 17.9313Z" fill="white"/>
</g>
<g style="mix-blend-mode:soft-light">
<path d="M32.9574 23.5756L32.8274 23.3608L29.4224 25.329L29.6756 25.4714L32.9574 23.5756Z" fill="white"/>
</g>
<g style="mix-blend-mode:soft-light">
<path d="M19.6951 8.32694L19.4405 8.1846L15.2558 5.8269L10.7568 8.36188L15.2558 10.8969L19.7548 8.36188L19.6951 8.32694Z" fill="white"/>
</g>
<g style="mix-blend-mode:soft-light">
<path d="M19.9471 13.269V8.68555L15.4468 11.2205V15.8039L19.9471 13.269Z" fill="white"/>
</g>
<g style="mix-blend-mode:soft-light">
<path d="M32.0467 9.00892L31.0615 8.45508V13.0385L35.5605 15.5735V10.9901L32.0467 9.00892Z" fill="white"/>
</g>
<g style="mix-blend-mode:soft-light">
<path d="M40.2512 8.13166L35.7523 5.59668L31.252 8.13166L35.7523 10.6666L40.2512 8.13166Z" fill="white"/>
</g>
<g style="mix-blend-mode:soft-light">
<path d="M35.9434 15.5735L40.4423 13.0385V8.45508L39.4571 9.00892L35.9434 10.9901V15.5735Z" fill="white"/>
</g>
<g style="mix-blend-mode:soft-light">
<path d="M39.4571 9.00903L35.9434 10.9902L39.4571 9.00903Z" fill="white"/>
</g>
<g style="mix-blend-mode:soft-light">
<path d="M20.6377 30.4651L25.1367 33V28.4166L20.6377 25.8804V30.4651Z" fill="white"/>
</g>
<g style="mix-blend-mode:soft-light">
<path d="M29.8271 25.5582L25.3281 23.0232L20.8291 25.5582L25.3281 28.0931L29.8271 25.5582Z" fill="white"/>
</g>
<g style="mix-blend-mode:soft-light">
<path d="M30.0189 30.4651V25.8804L25.5186 28.4166V33L30.0189 30.4651Z" fill="white"/>
</g>
<g style="mix-blend-mode:soft-light">
<path d="M10.5659 24.7572L15.0649 27.2922V22.7088L10.5659 20.1738V24.7572Z" fill="white"/>
</g>
<g style="mix-blend-mode:soft-light">
<path d="M19.7548 19.8502L15.2558 17.3152L10.7568 19.8502L15.2558 22.3851L19.7548 19.8502Z" fill="white"/>
</g>
<g style="mix-blend-mode:soft-light">
<path d="M19.9471 24.7572V20.1738L15.4468 22.7088V27.2922L19.9471 24.7572Z" fill="white"/>
</g>
<g style="mix-blend-mode:soft-light">
<path d="M31.0615 24.5268L35.5605 27.0617V22.4783L31.0615 19.9434V24.5268Z" fill="white"/>
</g>
<g style="mix-blend-mode:soft-light">
<path d="M44.6125 15.5281C43.8912 15.5281 43.3051 16.1 43.3051 16.804C43.3051 16.9955 43.3502 17.1779 43.4285 17.341L39.8179 19.3752L40.0725 19.5188L43.5584 17.5545C43.7971 17.8715 44.1803 18.0799 44.6125 18.0799C45.3339 18.0799 45.9199 17.5079 45.9199 16.804C45.9199 16.1 45.3339 15.5281 44.6125 15.5281ZM44.6125 17.8935C43.9973 17.8935 43.4961 17.4044 43.4961 16.804C43.4961 16.2036 43.9973 15.7144 44.6125 15.7144C45.2278 15.7144 45.729 16.2036 45.729 16.804C45.729 17.4044 45.2278 17.8935 44.6125 17.8935Z" fill="white"/>
</g>
<g style="mix-blend-mode:soft-light">
<path d="M44.6128 16.1946C44.2681 16.1946 43.9883 16.4676 43.9883 16.8041C43.9883 17.1405 44.2681 17.4135 44.6128 17.4135C44.9576 17.4135 45.2373 17.1405 45.2373 16.8041C45.2373 16.4676 44.9576 16.1946 44.6128 16.1946Z" fill="white"/>
</g>
<g style="mix-blend-mode:soft-light">
<path d="M40.0722 19.519L39.8163 19.3754L35.7523 17.085L31.252 19.6199L35.7523 22.1549L40.2512 19.6199L40.0722 19.519Z" fill="white"/>
</g>
<g style="mix-blend-mode:soft-light">
<path d="M40.4423 24.5268V19.9434L35.9434 22.4783V27.0617L40.4423 24.5268Z" fill="white"/>
</g>
<g style="mix-blend-mode:color-dodge">
<path d="M44.8065 17.9217C45.4657 17.817 45.9132 17.2107 45.8059 16.5673C45.6987 15.924 45.0774 15.4873 44.4182 15.592C43.759 15.6967 43.3115 16.303 43.4188 16.9463C43.526 17.5896 44.1473 18.0263 44.8065 17.9217Z" fill="url(#paint4_radial_1_10498)" style="mix-blend-mode:color-dodge"/>
<path d="M44.8065 17.9217C45.4657 17.817 45.9132 17.2107 45.8059 16.5673C45.6987 15.924 45.0774 15.4873 44.4182 15.592C43.759 15.6967 43.3115 16.303 43.4188 16.9463C43.526 17.5896 44.1473 18.0263 44.8065 17.9217Z" stroke="black" stroke-width="6" stroke-miterlimit="10"/>
</g>
<g style="mix-blend-mode:color-dodge">
<path d="M44.8065 17.9217C45.4657 17.817 45.9132 17.2107 45.8059 16.5673C45.6987 15.924 45.0774 15.4873 44.4182 15.592C43.759 15.6967 43.3115 16.303 43.4188 16.9463C43.526 17.5896 44.1473 18.0263 44.8065 17.9217Z" fill="url(#paint5_radial_1_10498)" style="mix-blend-mode:color-dodge"/>
<path d="M44.8065 17.9217C45.4657 17.817 45.9132 17.2107 45.8059 16.5673C45.6987 15.924 45.0774 15.4873 44.4182 15.592C43.759 15.6967 43.3115 16.303 43.4188 16.9463C43.526 17.5896 44.1473 18.0263 44.8065 17.9217Z" stroke="black" stroke-width="6" stroke-miterlimit="10"/>
</g>
<g style="mix-blend-mode:color-dodge">
<path d="M4.30742 18.2067C4.97528 18.2067 5.51669 17.6784 5.51669 17.0266C5.51669 16.3748 4.97528 15.8464 4.30742 15.8464C3.63956 15.8464 3.09814 16.3748 3.09814 17.0266C3.09814 17.6784 3.63956 18.2067 4.30742 18.2067Z" fill="url(#paint6_radial_1_10498)" style="mix-blend-mode:color-dodge"/>
<path d="M4.30742 18.2067C4.97528 18.2067 5.51669 17.6784 5.51669 17.0266C5.51669 16.3748 4.97528 15.8464 4.30742 15.8464C3.63956 15.8464 3.09814 16.3748 3.09814 17.0266C3.09814 17.6784 3.63956 18.2067 4.30742 18.2067Z" stroke="black" stroke-width="6" stroke-miterlimit="10"/>
</g>
<g style="mix-blend-mode:color-dodge">
<path d="M4.30742 18.2067C4.97528 18.2067 5.51669 17.6784 5.51669 17.0266C5.51669 16.3748 4.97528 15.8464 4.30742 15.8464C3.63956 15.8464 3.09814 16.3748 3.09814 17.0266C3.09814 17.6784 3.63956 18.2067 4.30742 18.2067Z" fill="url(#paint7_radial_1_10498)" style="mix-blend-mode:color-dodge"/>
<path d="M4.30742 18.2067C4.97528 18.2067 5.51669 17.6784 5.51669 17.0266C5.51669 16.3748 4.97528 15.8464 4.30742 15.8464C3.63956 15.8464 3.09814 16.3748 3.09814 17.0266C3.09814 17.6784 3.63956 18.2067 4.30742 18.2067Z" stroke="black" stroke-width="6" stroke-miterlimit="10"/>
</g>
</g>
</g>
<defs>
<radialGradient id="paint0_radial_1_10498" cx="0" cy="0" r="1" gradientUnits="userSpaceOnUse" gradientTransform="translate(44.6133 16.7547) scale(1.20927 1.18014)">
<stop stop-color="#818181"/>
<stop offset="0.34" stop-color="#545454"/>
<stop offset="1"/>
</radialGradient>
<radialGradient id="paint1_radial_1_10498" cx="0" cy="0" r="1" gradientUnits="userSpaceOnUse" gradientTransform="translate(44.6133 16.7547) scale(1.20927 1.18014)">
<stop stop-color="#818181"/>
<stop offset="0.34" stop-color="#545454"/>
<stop offset="1"/>
</radialGradient>
<radialGradient id="paint2_radial_1_10498" cx="0" cy="0" r="1" gradientUnits="userSpaceOnUse" gradientTransform="translate(4.30742 17.0266) scale(1.20927 1.18014)">
<stop stop-color="#818181"/>
<stop offset="0.34" stop-color="#545454"/>
<stop offset="1"/>
</radialGradient>
<radialGradient id="paint3_radial_1_10498" cx="0" cy="0" r="1" gradientUnits="userSpaceOnUse" gradientTransform="translate(4.30742 17.0266) scale(1.20927 1.18014)">
<stop stop-color="#818181"/>
<stop offset="0.34" stop-color="#545454"/>
<stop offset="1"/>
</radialGradient>
<radialGradient id="paint4_radial_1_10498" cx="0" cy="0" r="1" gradientUnits="userSpaceOnUse" gradientTransform="translate(44.6133 16.7547) scale(1.20927 1.18014)">
<stop stop-color="#818181"/>
<stop offset="0.34" stop-color="#545454"/>
<stop offset="1"/>
</radialGradient>
<radialGradient id="paint5_radial_1_10498" cx="0" cy="0" r="1" gradientUnits="userSpaceOnUse" gradientTransform="translate(44.6133 16.7547) scale(1.20927 1.18014)">
<stop stop-color="#818181"/>
<stop offset="0.34" stop-color="#545454"/>
<stop offset="1"/>
</radialGradient>
<radialGradient id="paint6_radial_1_10498" cx="0" cy="0" r="1" gradientUnits="userSpaceOnUse" gradientTransform="translate(4.30742 17.0266) scale(1.20927 1.18014)">
<stop stop-color="#818181"/>
<stop offset="0.34" stop-color="#545454"/>
<stop offset="1"/>
</radialGradient>
<radialGradient id="paint7_radial_1_10498" cx="0" cy="0" r="1" gradientUnits="userSpaceOnUse" gradientTransform="translate(4.30742 17.0266) scale(1.20927 1.18014)">
<stop stop-color="#818181"/>
<stop offset="0.34" stop-color="#545454"/>
<stop offset="1"/>
</radialGradient>
</defs>
</svg>
