<svg width="127" height="128" viewBox="0 0 127 128" fill="none" xmlns="http://www.w3.org/2000/svg">
<g opacity="0.73">
<path d="M12.6188 101.933C10.7052 99.9144 9.40672 97.4854 8.03987 95.0906C4.48606 88.7614 2.12825 82.0217 0.932256 74.8715C0.146318 70.2529 -0.195394 65.5659 0.112147 60.9131C0.693058 52.8049 2.43579 44.9705 5.95542 37.6149C8.55244 32.2437 11.662 27.283 15.5575 22.8013C20.9224 16.6432 27.2099 11.7167 34.4542 7.91921C40.3317 4.84016 46.5508 2.78746 53.0775 1.65847C57.5881 0.871603 62.2012 0.563698 66.7802 0.871603C74.7079 1.38478 82.3623 3.12957 89.6066 6.44811C95.2106 9.01398 100.336 12.2983 104.984 16.3353C111.134 21.7065 116.089 28.0015 119.848 35.2543C122.923 41.1387 125.008 47.3653 126.101 53.8997C126.853 58.3472 127.195 62.8632 126.887 67.3449C126.375 75.5557 124.632 83.4586 121.044 90.9167C119.267 94.6116 117.354 98.1696 114.859 101.454C114.722 101.659 114.483 101.796 114.312 101.967C113.151 100.564 95.4068 105.46 94.1424 104.126C78.1161 87.1228 76.9667 89.6221 53.9012 93.4196C41.4628 95.4723 34.2625 91.3752 25.1047 100.065C22.576 102.46 14.8741 99.2302 12.6188 101.933ZM63.5339 19.2433C49.9679 19.2433 38.9648 30.2252 38.9648 43.8073C38.9648 57.3893 49.9338 68.4055 63.4997 68.4055C77.0657 68.4055 88.0688 57.4235 88.0688 43.8415C88.0688 30.2936 77.0315 19.2433 63.5339 19.2433Z" fill="#113380" fill-opacity="0.5"/>
<path d="M12.8945 102.045C15.1384 99.3481 17.3823 96.6509 19.9662 94.2268C29.1118 85.5547 39.8212 79.8871 52.1967 77.8385C75.1456 74.0488 94.6266 80.9113 110.572 97.88C111.83 99.2115 112.918 100.645 114.108 102.045C113.156 103.923 111.694 105.425 110.334 106.962C100.44 117.819 88.3029 124.852 73.8196 126.935C49.2388 130.52 29.0438 122.292 13.4045 102.899C13.2005 102.66 12.9285 102.421 12.8945 102.045Z" fill="white"/>
<path d="M63.5187 19.4492C77.1981 19.4492 88.3212 30.4279 88.3212 43.9637C88.3212 57.4655 77.1981 68.4441 63.4842 68.4441C49.8048 68.4441 38.6816 57.4655 38.6816 43.9296C38.6816 30.4279 49.8048 19.4492 63.5187 19.4492Z" fill="white"/>
</g>
</svg>
