<svg width="235" height="193" viewBox="0 0 235 193" fill="none" xmlns="http://www.w3.org/2000/svg">
<path opacity="0.4" d="M189.575 53.908C189.166 53.739 188.896 53.3412 188.896 52.8963C188.896 23.6821 165.292 0 136.177 0C115.766 0 98.065 11.638 89.3041 28.6607C88.3838 30.449 86.4836 31.509 84.4841 31.3578C82.5162 31.209 80.5286 31.1334 78.5227 31.1334C34.985 31.1334 -0.277046 66.6855 0.0016406 110.435C0.278427 153.947 35.4518 188.867 78.8185 188.707C85.2878 188.683 91.5728 187.874 97.5836 186.37C110.652 183.1 124.417 183.728 137.034 188.456C144.776 191.357 153.149 192.959 161.889 192.999C201.542 193.178 233.999 160.958 234.222 121.172C234.393 90.8106 215.895 64.7631 189.576 53.9087L189.575 53.908Z" fill="url(#paint0_linear_1_18313)"/>
<g style="mix-blend-mode:multiply" opacity="0.12">
<path d="M158.374 64.2585C158.374 61.3384 156.008 58.9707 153.088 58.9707H77.2578C74.3391 58.9707 71.9725 61.3378 71.9725 64.2585V145.092C71.9725 148.013 74.3385 150.38 77.2578 150.38H153.089C156.008 150.38 158.374 148.013 158.374 145.092V64.2585H158.374Z" fill="#181B1F"/>
</g>
<path d="M131.459 51.7385H146.698C149.617 51.7385 151.984 54.1056 151.984 57.0263V137.86C151.984 140.78 149.618 143.148 146.698 143.148H70.8677C67.949 143.148 65.5824 140.781 65.5824 137.86V57.0263C65.5824 54.1062 67.9484 51.7385 70.8677 51.7385H131.46H131.459Z" fill="white"/>
<path d="M131.213 51.9663H146.394C149.302 51.9663 151.66 53.5787 151.66 55.5681V68.2073H65.5824V55.5681C65.5824 53.5791 67.9395 51.9663 70.8479 51.9663H131.213H131.213Z" fill="#113380"/>
<path d="M151.984 74.1206H65.5824" stroke="#5B3CC0" stroke-width="10" stroke-miterlimit="10"/>
<path d="M125.305 62.2202H92.2686" stroke="white" stroke-width="3" stroke-miterlimit="10" stroke-linecap="round"/>
<path d="M133.606 56.9626V48.7183" stroke="#525252" stroke-width="3" stroke-miterlimit="10" stroke-linecap="round"/>
<path d="M83.9491 56.9626V48.7183" stroke="#525252" stroke-width="3" stroke-miterlimit="10" stroke-linecap="round"/>
<path d="M95.3608 97.4414H102.397C102.723 97.4414 102.987 97.7062 102.987 98.032V105.071C102.987 105.397 102.723 105.662 102.397 105.662H95.3608C95.0351 105.662 94.7704 105.397 94.7704 105.071V98.032C94.7704 97.7062 95.0351 97.4414 95.3608 97.4414Z" fill="#7748FF" fill-opacity="0.12"/>
<path d="M114.803 97.4414H121.84C122.165 97.4414 122.43 97.7062 122.43 98.032V105.071C122.43 105.397 122.165 105.662 121.84 105.662H114.803C114.478 105.662 114.213 105.397 114.213 105.071V98.032C114.213 97.7062 114.478 97.4414 114.803 97.4414Z" fill="#7748FF" fill-opacity="0.12"/>
<path d="M134.243 97.4414H141.279C141.605 97.4414 141.87 97.7062 141.87 98.032V105.071C141.87 105.397 141.605 105.662 141.279 105.662H134.243C133.917 105.662 133.653 105.397 133.653 105.071V98.032C133.653 97.7062 133.917 97.4414 134.243 97.4414Z" fill="#7748FF" fill-opacity="0.12"/>
<path d="M75.9217 112.271H82.9579C83.2836 112.271 83.5483 112.536 83.5483 112.861V119.901C83.5483 120.227 83.2836 120.491 82.9579 120.491H75.9217C75.596 120.491 75.3314 120.227 75.3314 119.901V112.861C75.3314 112.536 75.596 112.271 75.9217 112.271Z" fill="#113380"/>
<path d="M95.3608 112.271H102.397C102.723 112.271 102.987 112.536 102.987 112.861V119.901C102.987 120.227 102.723 120.491 102.397 120.491H95.3608C95.0351 120.491 94.7704 120.227 94.7704 119.901V112.861C94.7704 112.536 95.0351 112.271 95.3608 112.271Z" fill="#7748FF" fill-opacity="0.12"/>
<path d="M114.803 112.271H121.84C122.165 112.271 122.43 112.536 122.43 112.861V119.901C122.43 120.227 122.165 120.491 121.84 120.491H114.803C114.478 120.491 114.213 120.227 114.213 119.901V112.861C114.213 112.536 114.478 112.271 114.803 112.271Z" fill="#7748FF" fill-opacity="0.12"/>
<path d="M134.243 112.271H141.279C141.605 112.271 141.87 112.536 141.87 112.861V119.901C141.87 120.227 141.605 120.491 141.279 120.491H134.243C133.917 120.491 133.653 120.227 133.653 119.901V112.861C133.653 112.536 133.917 112.271 134.243 112.271Z" fill="#7748FF" fill-opacity="0.12"/>
<path d="M75.9217 127.1H82.9579C83.2836 127.1 83.5483 127.364 83.5483 127.69V134.73C83.5483 135.056 83.2836 135.32 82.9579 135.32H75.9217C75.596 135.32 75.3314 135.056 75.3314 134.73V127.69C75.3314 127.364 75.596 127.1 75.9217 127.1Z" fill="#7748FF" fill-opacity="0.12"/>
<path d="M95.3608 127.1H102.397C102.723 127.1 102.987 127.364 102.987 127.69V134.73C102.987 135.056 102.723 135.32 102.397 135.32H95.3608C95.0351 135.32 94.7704 135.056 94.7704 134.73V127.69C94.7704 127.364 95.0351 127.1 95.3608 127.1Z" fill="#113380"/>
<path d="M114.803 127.1H121.84C122.165 127.1 122.43 127.364 122.43 127.69V134.73C122.43 135.056 122.165 135.32 121.84 135.32H114.803C114.478 135.32 114.213 135.056 114.213 134.73V127.69C114.213 127.364 114.478 127.1 114.803 127.1Z" fill="#7748FF" fill-opacity="0.12"/>
<g style="mix-blend-mode:multiply" opacity="0.12">
<path d="M159.903 155.909C191.377 155.909 216.892 154.833 216.892 153.506C216.892 152.178 191.377 151.102 159.903 151.102C128.428 151.102 102.913 152.178 102.913 153.506C102.913 154.833 128.428 155.909 159.903 155.909Z" fill="#181B1F"/>
</g>
<path d="M158.431 120.179C158.431 126.294 153.476 130.954 147.365 130.954C141.253 130.954 136.299 126.294 136.299 120.179C136.299 114.065 141.253 109.109 147.365 109.109C153.476 109.109 158.431 114.065 158.431 120.179Z" fill="#FFC30D"/>
<path d="M147.365 132.539C139.105 132.539 132.635 126.223 132.635 118.158C132.635 110.094 139.243 103.421 147.365 103.421C155.487 103.421 162.096 110.032 162.096 118.158C162.096 126.285 155.625 132.539 147.365 132.539Z" fill="#FFAB48"/>
<g style="mix-blend-mode:overlay">
<path d="M147.367 106.318C140.541 106.318 134.988 111.874 134.988 118.703C134.988 125.532 140.426 130.716 147.367 130.716C154.308 130.716 159.746 125.44 159.746 118.703C159.746 111.967 154.193 106.318 147.367 106.318Z" fill="white"/>
</g>
<path d="M147.467 105.649C140.641 105.649 135.088 111.205 135.088 118.034C135.088 124.863 140.526 130.047 147.467 130.047C154.408 130.047 159.846 124.77 159.846 118.034C159.846 111.297 154.293 105.649 147.467 105.649Z" fill="#F0A700"/>
<path d="M147.367 106.091C140.541 106.091 134.988 111.647 134.988 118.476C134.988 125.305 140.426 130.489 147.367 130.489C154.308 130.489 159.746 125.212 159.746 118.476C159.746 111.739 154.193 106.091 147.367 106.091Z" fill="#FFC000"/>
<path d="M151.878 110.76L150.948 109.748L139.913 121.736L140.844 122.747L151.878 110.76Z" fill="#FFAB48"/>
<path d="M154.629 113.841L152.444 111.467L140.531 124.409L142.716 126.783L154.629 113.841Z" fill="#FFAB48"/>
<path d="M103.523 147.44H132.252C132.347 147.44 132.423 147.517 132.423 147.611V153.313C132.423 153.407 132.347 153.483 132.252 153.483H103.523C103.429 153.483 103.352 153.407 103.352 153.313V147.611C103.352 147.517 103.429 147.44 103.523 147.44Z" fill="#FFAB48"/>
<path d="M103.523 146.485H132.252C132.347 146.485 132.423 146.562 132.423 146.656V153.021C132.423 153.115 132.347 153.192 132.252 153.192H103.523C103.429 153.192 103.352 153.115 103.352 153.021V146.656C103.352 146.562 103.429 146.485 103.523 146.485Z" fill="#FFC000"/>
<path d="M105.039 153.192H111.166V146.484H105.039V153.192Z" fill="#FFAF00"/>
<path d="M126.597 153.192H128.743V146.484H126.597V153.192Z" fill="#FFAB48"/>
<g opacity="0.6">
<path d="M104.735 152.748C104.604 152.748 104.496 152.641 104.496 152.509V147.257C104.496 147.126 104.604 147.019 104.735 147.019C104.866 147.019 104.974 147.126 104.974 147.257V152.509C104.974 152.641 104.866 152.748 104.735 152.748Z" fill="#FFAB48"/>
<path d="M106.613 152.748C106.482 152.748 106.374 152.641 106.374 152.509V147.257C106.374 147.126 106.481 147.019 106.613 147.019C106.745 147.019 106.851 147.126 106.851 147.257V152.509C106.851 152.641 106.745 152.748 106.613 152.748Z" fill="#FFAB48"/>
<path d="M108.49 152.748C108.359 152.748 108.251 152.641 108.251 152.509V147.257C108.251 147.126 108.358 147.019 108.49 147.019C108.622 147.019 108.729 147.126 108.729 147.257V152.509C108.729 152.641 108.621 152.748 108.49 152.748Z" fill="#FFAB48"/>
<path d="M110.374 152.748C110.243 152.748 110.135 152.641 110.135 152.509V147.257C110.135 147.126 110.242 147.019 110.374 147.019C110.506 147.019 110.613 147.126 110.613 147.257V152.509C110.613 152.641 110.506 152.748 110.374 152.748Z" fill="#FFAB48"/>
<path d="M112.247 152.748C112.116 152.748 112.009 152.641 112.009 152.509V147.257C112.009 147.126 112.116 147.019 112.247 147.019C112.379 147.019 112.486 147.126 112.486 147.257V152.509C112.486 152.641 112.379 152.748 112.247 152.748Z" fill="#FFAB48"/>
<path d="M114.126 152.748C113.995 152.748 113.887 152.641 113.887 152.509V147.257C113.887 147.126 113.994 147.019 114.126 147.019C114.258 147.019 114.365 147.126 114.365 147.257V152.509C114.365 152.641 114.258 152.748 114.126 152.748Z" fill="#FFAB48"/>
<path d="M116.011 152.748C115.879 152.748 115.772 152.641 115.772 152.509V147.257C115.772 147.126 115.879 147.019 116.011 147.019C116.142 147.019 116.249 147.126 116.249 147.257V152.509C116.249 152.641 116.142 152.748 116.011 152.748Z" fill="#FFAB48"/>
<path d="M117.89 152.748C117.759 152.748 117.651 152.641 117.651 152.509V147.257C117.651 147.126 117.758 147.019 117.89 147.019C118.022 147.019 118.129 147.126 118.129 147.257V152.509C118.129 152.641 118.022 152.748 117.89 152.748Z" fill="#FFAB48"/>
<path d="M119.766 152.748C119.635 152.748 119.528 152.641 119.528 152.509V147.257C119.528 147.126 119.635 147.019 119.766 147.019C119.898 147.019 120.005 147.126 120.005 147.257V152.509C120.005 152.641 119.898 152.748 119.766 152.748Z" fill="#FFAB48"/>
<path d="M121.647 152.748C121.516 152.748 121.409 152.641 121.409 152.509V147.257C121.409 147.126 121.515 147.019 121.647 147.019C121.779 147.019 121.886 147.126 121.886 147.257V152.509C121.886 152.641 121.779 152.748 121.647 152.748Z" fill="#FFAB48"/>
<path d="M123.527 152.748C123.396 152.748 123.288 152.641 123.288 152.509V147.257C123.288 147.126 123.395 147.019 123.527 147.019C123.659 147.019 123.766 147.126 123.766 147.257V152.509C123.766 152.641 123.659 152.748 123.527 152.748Z" fill="#FFAB48"/>
<path d="M125.402 152.748C125.271 152.748 125.164 152.641 125.164 152.509V147.257C125.164 147.126 125.271 147.019 125.402 147.019C125.534 147.019 125.641 147.126 125.641 147.257V152.509C125.641 152.641 125.534 152.748 125.402 152.748Z" fill="#FFAB48"/>
<path d="M127.279 152.748C127.148 152.748 127.04 152.641 127.04 152.509V147.257C127.04 147.126 127.147 147.019 127.279 147.019C127.411 147.019 127.518 147.126 127.518 147.257V152.509C127.518 152.641 127.411 152.748 127.279 152.748Z" fill="#FFAB48"/>
<path d="M129.162 152.748C129.03 152.748 128.923 152.641 128.923 152.509V147.257C128.923 147.126 129.03 147.019 129.162 147.019C129.293 147.019 129.4 147.126 129.4 147.257V152.509C129.4 152.641 129.294 152.748 129.162 152.748Z" fill="#FFAB48"/>
<path d="M131.04 152.748C130.908 152.748 130.801 152.641 130.801 152.509V147.257C130.801 147.126 130.908 147.019 131.04 147.019C131.171 147.019 131.278 147.126 131.278 147.257V152.509C131.278 152.641 131.171 152.748 131.04 152.748Z" fill="#FFAB48"/>
</g>
<path d="M134.552 147.44H163.282C163.376 147.44 163.452 147.517 163.452 147.611V153.313C163.452 153.407 163.376 153.483 163.282 153.483H134.551C134.457 153.483 134.381 153.407 134.381 153.313V147.611C134.381 147.517 134.457 147.44 134.551 147.44H134.552Z" fill="#FFAB48"/>
<path d="M134.552 146.485H163.281C163.375 146.485 163.452 146.562 163.452 146.656V153.021C163.452 153.116 163.375 153.192 163.281 153.192H134.551C134.457 153.192 134.38 153.116 134.38 153.021V146.656C134.38 146.562 134.457 146.485 134.551 146.485H134.552Z" fill="#FFC000"/>
<path d="M134.38 153.192H140.506V146.484H134.38V153.192Z" fill="#FFAF00"/>
<g style="mix-blend-mode:multiply" opacity="0.21">
<path d="M134.378 153.192H136.234V146.484H134.378V153.192Z" fill="#A20012"/>
</g>
<path d="M157.624 153.192H159.769V146.484H157.624V153.192Z" fill="#FFAB48"/>
<g opacity="0.6">
<path d="M135.768 152.748C135.637 152.748 135.53 152.641 135.53 152.509V147.257C135.53 147.126 135.637 147.019 135.768 147.019C135.9 147.019 136.007 147.126 136.007 147.257V152.509C136.007 152.641 135.9 152.748 135.768 152.748Z" fill="#FFAB48"/>
<path d="M137.646 152.748C137.515 152.748 137.408 152.641 137.408 152.509V147.258C137.408 147.126 137.515 147.019 137.646 147.019C137.778 147.019 137.885 147.126 137.885 147.258V152.509C137.885 152.641 137.778 152.748 137.646 152.748Z" fill="#FFAB48"/>
<path d="M139.526 152.748C139.395 152.748 139.287 152.641 139.287 152.509V147.258C139.287 147.126 139.394 147.019 139.526 147.019C139.658 147.019 139.764 147.126 139.764 147.258V152.509C139.764 152.641 139.658 152.748 139.526 152.748Z" fill="#FFAB48"/>
<path d="M141.406 152.748C141.274 152.748 141.167 152.641 141.167 152.509V147.258C141.167 147.126 141.274 147.019 141.406 147.019C141.537 147.019 141.644 147.126 141.644 147.258V152.509C141.644 152.641 141.537 152.748 141.406 152.748Z" fill="#FFAB48"/>
<path d="M143.281 152.748C143.15 152.748 143.042 152.641 143.042 152.509V147.258C143.042 147.126 143.149 147.019 143.281 147.019C143.413 147.019 143.52 147.126 143.52 147.258V152.509C143.52 152.641 143.413 152.748 143.281 152.748Z" fill="#FFAB48"/>
<path d="M145.157 152.748C145.026 152.748 144.918 152.641 144.918 152.509V147.258C144.918 147.126 145.025 147.019 145.157 147.019C145.289 147.019 145.396 147.126 145.396 147.258V152.509C145.396 152.641 145.288 152.748 145.157 152.748Z" fill="#FFAB48"/>
<path d="M147.04 152.748C146.909 152.748 146.802 152.641 146.802 152.509V147.258C146.802 147.126 146.908 147.019 147.04 147.019C147.172 147.019 147.279 147.126 147.279 147.258V152.509C147.279 152.641 147.172 152.748 147.04 152.748Z" fill="#FFAB48"/>
<path d="M148.919 152.748C148.787 152.748 148.68 152.641 148.68 152.509V147.258C148.68 147.126 148.787 147.019 148.919 147.019C149.05 147.019 149.157 147.126 149.157 147.258V152.509C149.157 152.641 149.05 152.748 148.919 152.748Z" fill="#FFAB48"/>
<path d="M150.795 152.748C150.664 152.748 150.556 152.641 150.556 152.509V147.258C150.556 147.126 150.663 147.019 150.795 147.019C150.927 147.019 151.034 147.126 151.034 147.258V152.509C151.034 152.641 150.927 152.748 150.795 152.748Z" fill="#FFAB48"/>
<path d="M152.678 152.748C152.547 152.748 152.439 152.641 152.439 152.509V147.258C152.439 147.126 152.546 147.019 152.678 147.019C152.81 147.019 152.917 147.126 152.917 147.258V152.509C152.917 152.641 152.809 152.748 152.678 152.748Z" fill="#FFAB48"/>
<path d="M154.557 152.748C154.426 152.748 154.318 152.641 154.318 152.509V147.258C154.318 147.126 154.425 147.019 154.557 147.019C154.689 147.019 154.795 147.126 154.795 147.258V152.509C154.795 152.641 154.689 152.748 154.557 152.748Z" fill="#FFAB48"/>
<path d="M156.432 152.748C156.3 152.748 156.193 152.641 156.193 152.509V147.258C156.193 147.126 156.3 147.019 156.432 147.019C156.563 147.019 156.67 147.126 156.67 147.258V152.509C156.67 152.641 156.563 152.748 156.432 152.748Z" fill="#FFAB48"/>
<path d="M158.31 152.748C158.178 152.748 158.071 152.641 158.071 152.509V147.258C158.071 147.126 158.178 147.019 158.31 147.019C158.441 147.019 158.548 147.126 158.548 147.258V152.509C158.548 152.641 158.441 152.748 158.31 152.748Z" fill="#FFAB48"/>
<path d="M160.192 152.748C160.061 152.748 159.954 152.641 159.954 152.509V147.258C159.954 147.126 160.061 147.019 160.192 147.019C160.324 147.019 160.431 147.126 160.431 147.258V152.509C160.431 152.641 160.324 152.748 160.192 152.748Z" fill="#FFAB48"/>
<path d="M162.07 152.748C161.939 152.748 161.832 152.641 161.832 152.509V147.258C161.832 147.126 161.939 147.019 162.07 147.019C162.201 147.019 162.309 147.126 162.309 147.258V152.509C162.309 152.641 162.202 152.748 162.07 152.748Z" fill="#FFAB48"/>
</g>
<path d="M168.52 147.44H197.249C197.343 147.44 197.42 147.517 197.42 147.611V153.313C197.42 153.407 197.343 153.484 197.249 153.484H168.52C168.425 153.484 168.349 153.407 168.349 153.313V147.611C168.349 147.517 168.425 147.44 168.52 147.44Z" fill="#FFAB48"/>
<path d="M168.52 146.486H197.25C197.344 146.486 197.421 146.563 197.421 146.657V153.022C197.421 153.116 197.344 153.193 197.25 153.193H168.52C168.426 153.193 168.35 153.116 168.35 153.022V146.657C168.35 146.563 168.426 146.486 168.52 146.486Z" fill="#FFC000"/>
<path d="M168.349 153.192H174.474V146.485H168.349V153.192Z" fill="#FFAF00"/>
<g style="mix-blend-mode:multiply" opacity="0.21">
<path d="M168.35 153.192H170.206V146.485H168.35V153.192Z" fill="#A20012"/>
</g>
<path d="M191.593 153.192H193.738V146.485H191.593V153.192Z" fill="#FFAB48"/>
<g opacity="0.6">
<path d="M169.728 152.749C169.597 152.749 169.49 152.642 169.49 152.51V147.258C169.49 147.126 169.597 147.02 169.728 147.02C169.86 147.02 169.967 147.126 169.967 147.258V152.51C169.967 152.642 169.86 152.749 169.728 152.749Z" fill="#FFAB48"/>
<path d="M171.606 152.749C171.475 152.749 171.368 152.642 171.368 152.51V147.258C171.368 147.126 171.475 147.02 171.606 147.02C171.738 147.02 171.845 147.126 171.845 147.258V152.51C171.845 152.642 171.738 152.749 171.606 152.749Z" fill="#FFAB48"/>
<path d="M173.489 152.749C173.358 152.749 173.25 152.642 173.25 152.51V147.258C173.25 147.126 173.358 147.02 173.489 147.02C173.62 147.02 173.728 147.126 173.728 147.258V152.51C173.728 152.642 173.62 152.749 173.489 152.749Z" fill="#FFAB48"/>
<path d="M175.366 152.749C175.235 152.749 175.127 152.642 175.127 152.51V147.258C175.127 147.126 175.234 147.02 175.366 147.02C175.498 147.02 175.605 147.126 175.605 147.258V152.51C175.605 152.642 175.498 152.749 175.366 152.749Z" fill="#FFAB48"/>
<path d="M177.241 152.749C177.11 152.749 177.002 152.642 177.002 152.51V147.258C177.002 147.126 177.11 147.02 177.241 147.02C177.372 147.02 177.48 147.126 177.48 147.258V152.51C177.48 152.642 177.372 152.749 177.241 152.749Z" fill="#FFAB48"/>
<path d="M179.119 152.749C178.988 152.749 178.88 152.642 178.88 152.51V147.258C178.88 147.126 178.987 147.02 179.119 147.02C179.251 147.02 179.358 147.126 179.358 147.258V152.51C179.358 152.642 179.251 152.749 179.119 152.749Z" fill="#FFAB48"/>
<path d="M181.002 152.749C180.871 152.749 180.763 152.642 180.763 152.51V147.258C180.763 147.126 180.87 147.02 181.002 147.02C181.134 147.02 181.24 147.126 181.24 147.258V152.51C181.24 152.642 181.133 152.749 181.002 152.749Z" fill="#FFAB48"/>
<path d="M182.882 152.749C182.75 152.749 182.643 152.642 182.643 152.51V147.258C182.643 147.126 182.75 147.02 182.882 147.02C183.013 147.02 183.12 147.126 183.12 147.258V152.51C183.12 152.642 183.013 152.749 182.882 152.749Z" fill="#FFAB48"/>
<path d="M184.755 152.749C184.623 152.749 184.516 152.642 184.516 152.51V147.258C184.516 147.126 184.623 147.02 184.755 147.02C184.886 147.02 184.993 147.126 184.993 147.258V152.51C184.993 152.642 184.886 152.749 184.755 152.749Z" fill="#FFAB48"/>
<path d="M186.641 152.749C186.51 152.749 186.403 152.642 186.403 152.51V147.258C186.403 147.126 186.51 147.02 186.641 147.02C186.773 147.02 186.88 147.126 186.88 147.258V152.51C186.88 152.642 186.773 152.749 186.641 152.749Z" fill="#FFAB48"/>
<path d="M188.515 152.749C188.384 152.749 188.277 152.642 188.277 152.51V147.258C188.277 147.126 188.383 147.02 188.515 147.02C188.647 147.02 188.754 147.126 188.754 147.258V152.51C188.754 152.642 188.646 152.749 188.515 152.749Z" fill="#FFAB48"/>
<path d="M190.389 152.749C190.258 152.749 190.151 152.642 190.151 152.51V147.258C190.151 147.126 190.257 147.02 190.389 147.02C190.521 147.02 190.628 147.126 190.628 147.258V152.51C190.628 152.642 190.521 152.749 190.389 152.749Z" fill="#FFAB48"/>
<path d="M192.273 152.749C192.142 152.749 192.034 152.642 192.034 152.51V147.258C192.034 147.126 192.141 147.02 192.273 147.02C192.405 147.02 192.512 147.126 192.512 147.258V152.51C192.512 152.642 192.404 152.749 192.273 152.749Z" fill="#FFAB48"/>
<path d="M194.152 152.749C194.021 152.749 193.913 152.642 193.913 152.51V147.258C193.913 147.126 194.02 147.02 194.152 147.02C194.284 147.02 194.391 147.126 194.391 147.258V152.51C194.391 152.642 194.284 152.749 194.152 152.749Z" fill="#FFAB48"/>
<path d="M196.03 152.749C195.899 152.749 195.791 152.642 195.791 152.51V147.258C195.791 147.126 195.898 147.02 196.03 147.02C196.162 147.02 196.269 147.126 196.269 147.258V152.51C196.269 152.642 196.161 152.749 196.03 152.749Z" fill="#FFAB48"/>
</g>
<path d="M158.977 140.438H187.707C187.801 140.438 187.877 140.515 187.877 140.609V146.311C187.877 146.405 187.801 146.482 187.707 146.482H158.976C158.882 146.482 158.806 146.405 158.806 146.311V140.609C158.806 140.515 158.882 140.438 158.976 140.438H158.977Z" fill="#FFAB48"/>
<path d="M158.977 139.484H187.707C187.801 139.484 187.877 139.56 187.877 139.655V146.02C187.877 146.114 187.801 146.191 187.707 146.191H158.976C158.882 146.191 158.806 146.114 158.806 146.02V139.655C158.806 139.56 158.882 139.484 158.976 139.484H158.977Z" fill="#FFC000"/>
<g style="mix-blend-mode:multiply" opacity="0.15">
<path d="M158.808 146.192H187.879V139.485H158.808V146.192Z" fill="#A20012"/>
</g>
<g style="mix-blend-mode:multiply" opacity="0.21">
<path d="M158.824 146.192H161.497V139.485H158.824V146.192Z" fill="#A20012"/>
</g>
<path opacity="0.25" d="M182.052 146.192H184.197V139.485H182.052V146.192Z" fill="#FFAB48"/>
<g opacity="0.6">
<path d="M160.188 145.746C160.056 145.746 159.949 145.639 159.949 145.507V140.256C159.949 140.124 160.056 140.017 160.188 140.017C160.319 140.017 160.426 140.124 160.426 140.256V145.507C160.426 145.639 160.319 145.746 160.188 145.746Z" fill="#FFAB48"/>
<path d="M162.064 145.747C161.932 145.747 161.825 145.64 161.825 145.508V140.256C161.825 140.125 161.932 140.018 162.064 140.018C162.195 140.018 162.302 140.125 162.302 140.256V145.508C162.302 145.64 162.195 145.747 162.064 145.747Z" fill="#FFAB48"/>
<path d="M163.948 145.747C163.817 145.747 163.71 145.64 163.71 145.508V140.256C163.71 140.125 163.817 140.018 163.948 140.018C164.08 140.018 164.187 140.125 164.187 140.256V145.508C164.187 145.64 164.08 145.747 163.948 145.747Z" fill="#FFAB48"/>
<path d="M165.825 145.747C165.694 145.747 165.587 145.64 165.587 145.508V140.256C165.587 140.125 165.693 140.018 165.825 140.018C165.957 140.018 166.064 140.125 166.064 140.256V145.508C166.064 145.64 165.957 145.747 165.825 145.747Z" fill="#FFAB48"/>
<path d="M167.701 145.747C167.57 145.747 167.462 145.64 167.462 145.508V140.256C167.462 140.125 167.57 140.018 167.701 140.018C167.832 140.018 167.94 140.125 167.94 140.256V145.508C167.94 145.64 167.833 145.747 167.701 145.747Z" fill="#FFAB48"/>
<path d="M169.576 145.747C169.445 145.747 169.337 145.64 169.337 145.508V140.256C169.337 140.125 169.444 140.018 169.576 140.018C169.708 140.018 169.815 140.125 169.815 140.256V145.508C169.815 145.64 169.708 145.747 169.576 145.747Z" fill="#FFAB48"/>
<path d="M171.462 145.747C171.331 145.747 171.223 145.64 171.223 145.508V140.256C171.223 140.125 171.331 140.018 171.462 140.018C171.593 140.018 171.701 140.125 171.701 140.256V145.508C171.701 145.64 171.594 145.747 171.462 145.747Z" fill="#FFAB48"/>
<path d="M173.338 145.747C173.207 145.747 173.099 145.64 173.099 145.508V140.256C173.099 140.125 173.206 140.018 173.338 140.018C173.47 140.018 173.577 140.125 173.577 140.256V145.508C173.577 145.64 173.47 145.747 173.338 145.747Z" fill="#FFAB48"/>
<path d="M175.216 145.747C175.085 145.747 174.977 145.64 174.977 145.508V140.256C174.977 140.125 175.085 140.018 175.216 140.018C175.347 140.018 175.454 140.125 175.454 140.256V145.508C175.454 145.64 175.348 145.747 175.216 145.747Z" fill="#FFAB48"/>
<path d="M177.1 145.747C176.969 145.747 176.862 145.64 176.862 145.508V140.256C176.862 140.125 176.969 140.018 177.1 140.018C177.232 140.018 177.339 140.125 177.339 140.256V145.508C177.339 145.64 177.232 145.747 177.1 145.747Z" fill="#FFAB48"/>
<path d="M178.974 145.747C178.843 145.747 178.736 145.64 178.736 145.508V140.256C178.736 140.125 178.843 140.018 178.974 140.018C179.106 140.018 179.213 140.125 179.213 140.256V145.508C179.213 145.64 179.106 145.747 178.974 145.747Z" fill="#FFAB48"/>
<path d="M180.85 145.747C180.719 145.747 180.612 145.64 180.612 145.508V140.256C180.612 140.125 180.719 140.018 180.85 140.018C180.982 140.018 181.089 140.125 181.089 140.256V145.508C181.089 145.64 180.982 145.747 180.85 145.747Z" fill="#FFAB48"/>
<path d="M182.73 145.747C182.599 145.747 182.492 145.64 182.492 145.508V140.256C182.492 140.125 182.599 140.018 182.73 140.018C182.861 140.018 182.969 140.125 182.969 140.256V145.508C182.969 145.64 182.862 145.747 182.73 145.747Z" fill="#FFAB48"/>
<path d="M184.612 145.747C184.481 145.747 184.373 145.64 184.373 145.508V140.256C184.373 140.125 184.48 140.018 184.612 140.018C184.744 140.018 184.851 140.125 184.851 140.256V145.508C184.851 145.64 184.744 145.747 184.612 145.747Z" fill="#FFAB48"/>
<path d="M186.489 145.747C186.358 145.747 186.25 145.64 186.25 145.508V140.256C186.25 140.125 186.358 140.018 186.489 140.018C186.62 140.018 186.728 140.125 186.728 140.256V145.508C186.728 145.64 186.62 145.747 186.489 145.747Z" fill="#FFAB48"/>
</g>
<path d="M128.433 140.438H157.162C157.257 140.438 157.333 140.515 157.333 140.609V146.311C157.333 146.405 157.257 146.482 157.162 146.482H128.432C128.338 146.482 128.262 146.405 128.262 146.311V140.609C128.262 140.515 128.338 140.438 128.432 140.438H128.433Z" fill="#FFAB48"/>
<path d="M128.434 139.484H157.165C157.259 139.484 157.335 139.56 157.335 139.655V146.02C157.335 146.114 157.259 146.191 157.165 146.191H128.434C128.34 146.191 128.264 146.114 128.264 146.02V139.655C128.264 139.56 128.34 139.484 128.434 139.484Z" fill="#FFC000"/>
<path d="M128.26 146.192H141.826V139.485H128.26V146.192Z" fill="#FFAF00"/>
<g style="mix-blend-mode:multiply" opacity="0.21">
<path d="M128.262 146.192H130.117V139.485H128.262V146.192Z" fill="#A20012"/>
</g>
<path d="M151.509 146.192H153.654V139.485H151.509V146.192Z" fill="#FFAB48"/>
<g opacity="0.6">
<path d="M129.652 145.746C129.521 145.746 129.414 145.639 129.414 145.507V140.256C129.414 140.124 129.52 140.017 129.652 140.017C129.784 140.017 129.891 140.124 129.891 140.256V145.507C129.891 145.639 129.784 145.746 129.652 145.746Z" fill="#FFAB48"/>
<path d="M131.53 145.747C131.399 145.747 131.291 145.64 131.291 145.508V140.256C131.291 140.125 131.399 140.018 131.53 140.018C131.661 140.018 131.768 140.125 131.768 140.256V145.508C131.768 145.64 131.661 145.747 131.53 145.747Z" fill="#FFAB48"/>
<path d="M133.412 145.747C133.28 145.747 133.173 145.64 133.173 145.508V140.256C133.173 140.125 133.28 140.018 133.412 140.018C133.543 140.018 133.65 140.125 133.65 140.256V145.508C133.65 145.64 133.543 145.747 133.412 145.747Z" fill="#FFAB48"/>
<path d="M135.289 145.747C135.158 145.747 135.05 145.64 135.05 145.508V140.256C135.05 140.125 135.158 140.018 135.289 140.018C135.42 140.018 135.528 140.125 135.528 140.256V145.508C135.528 145.64 135.42 145.747 135.289 145.747Z" fill="#FFAB48"/>
<path d="M137.165 145.747C137.034 145.747 136.926 145.64 136.926 145.508V140.256C136.926 140.125 137.033 140.018 137.165 140.018C137.297 140.018 137.404 140.125 137.404 140.256V145.508C137.404 145.64 137.297 145.747 137.165 145.747Z" fill="#FFAB48"/>
<path d="M139.043 145.747C138.912 145.747 138.805 145.64 138.805 145.508V140.256C138.805 140.125 138.912 140.018 139.043 140.018C139.174 140.018 139.282 140.125 139.282 140.256V145.508C139.282 145.64 139.174 145.747 139.043 145.747Z" fill="#FFAB48"/>
<path d="M140.924 145.747C140.793 145.747 140.685 145.64 140.685 145.508V140.256C140.685 140.125 140.792 140.018 140.924 140.018C141.056 140.018 141.163 140.125 141.163 140.256V145.508C141.163 145.64 141.056 145.747 140.924 145.747Z" fill="#FFAB48"/>
<path d="M142.802 145.747C142.671 145.747 142.563 145.64 142.563 145.508V140.256C142.563 140.125 142.67 140.018 142.802 140.018C142.934 140.018 143.041 140.125 143.041 140.256V145.508C143.041 145.64 142.933 145.747 142.802 145.747Z" fill="#FFAB48"/>
<path d="M144.679 145.747C144.548 145.747 144.441 145.64 144.441 145.508V140.256C144.441 140.125 144.548 140.018 144.679 140.018C144.811 140.018 144.918 140.125 144.918 140.256V145.508C144.918 145.64 144.811 145.747 144.679 145.747Z" fill="#FFAB48"/>
<path d="M146.561 145.747C146.43 145.747 146.323 145.64 146.323 145.508V140.256C146.323 140.125 146.429 140.018 146.561 140.018C146.693 140.018 146.8 140.125 146.8 140.256V145.508C146.8 145.64 146.692 145.747 146.561 145.747Z" fill="#FFAB48"/>
<path d="M148.44 145.747C148.308 145.747 148.201 145.64 148.201 145.508V140.256C148.201 140.125 148.308 140.018 148.44 140.018C148.571 140.018 148.678 140.125 148.678 140.256V145.508C148.678 145.64 148.571 145.747 148.44 145.747Z" fill="#FFAB48"/>
<path d="M150.318 145.747C150.187 145.747 150.08 145.64 150.08 145.508V140.256C150.08 140.125 150.187 140.018 150.318 140.018C150.45 140.018 150.557 140.125 150.557 140.256V145.508C150.557 145.64 150.45 145.747 150.318 145.747Z" fill="#FFAB48"/>
<path d="M152.201 145.747C152.07 145.747 151.962 145.64 151.962 145.508V140.256C151.962 140.125 152.069 140.018 152.201 140.018C152.333 140.018 152.44 140.125 152.44 140.256V145.508C152.44 145.64 152.333 145.747 152.201 145.747Z" fill="#FFAB48"/>
<path d="M154.079 145.747C153.948 145.747 153.84 145.64 153.84 145.508V140.256C153.84 140.125 153.947 140.018 154.079 140.018C154.211 140.018 154.317 140.125 154.317 140.256V145.508C154.317 145.64 154.21 145.747 154.079 145.747Z" fill="#FFAB48"/>
<path d="M155.958 145.747C155.826 145.747 155.719 145.64 155.719 145.508V140.256C155.719 140.125 155.826 140.018 155.958 140.018C156.089 140.018 156.196 140.125 156.196 140.256V145.508C156.196 145.64 156.089 145.747 155.958 145.747Z" fill="#FFAB48"/>
</g>
<path d="M125.347 133.396H154.076C154.17 133.396 154.247 133.473 154.247 133.567V139.269C154.247 139.363 154.17 139.439 154.076 139.439H125.346C125.252 139.439 125.175 139.363 125.175 139.269V133.567C125.175 133.473 125.252 133.396 125.346 133.396H125.347Z" fill="#FFAB48"/>
<path d="M125.347 132.441H154.077C154.171 132.441 154.247 132.518 154.247 132.612V138.977C154.247 139.072 154.171 139.148 154.077 139.148H125.347C125.252 139.148 125.176 139.072 125.176 138.977V132.612C125.176 132.518 125.252 132.441 125.347 132.441H125.347Z" fill="#FFC000"/>
<path d="M125.179 139.149H139.76V132.442H125.179V139.149Z" fill="#FFAF00"/>
<g style="mix-blend-mode:multiply" opacity="0.21">
<path d="M125.175 139.149H127.031V132.442H125.175V139.149Z" fill="#A20012"/>
</g>
<path d="M148.42 139.149H150.565V132.442H148.42V139.149Z" fill="#FFAB48"/>
<g opacity="0.6">
<path d="M126.56 138.704C126.429 138.704 126.321 138.597 126.321 138.465V133.214C126.321 133.082 126.428 132.975 126.56 132.975C126.692 132.975 126.799 133.082 126.799 133.214V138.465C126.799 138.597 126.692 138.704 126.56 138.704Z" fill="#FFAB48"/>
<path d="M128.439 138.704C128.308 138.704 128.201 138.597 128.201 138.465V133.214C128.201 133.082 128.308 132.975 128.439 132.975C128.57 132.975 128.678 133.082 128.678 133.214V138.465C128.678 138.597 128.57 138.704 128.439 138.704Z" fill="#FFAB48"/>
<path d="M130.322 138.704C130.19 138.704 130.083 138.597 130.083 138.465V133.214C130.083 133.082 130.19 132.975 130.322 132.975C130.453 132.975 130.56 133.082 130.56 133.214V138.465C130.56 138.597 130.453 138.704 130.322 138.704Z" fill="#FFAB48"/>
<path d="M132.199 138.704C132.067 138.704 131.96 138.597 131.96 138.465V133.214C131.96 133.082 132.067 132.975 132.199 132.975C132.33 132.975 132.437 133.082 132.437 133.214V138.465C132.437 138.597 132.33 138.704 132.199 138.704Z" fill="#FFAB48"/>
<path d="M134.075 138.704C133.944 138.704 133.836 138.597 133.836 138.465V133.214C133.836 133.082 133.943 132.975 134.075 132.975C134.207 132.975 134.314 133.082 134.314 133.214V138.465C134.314 138.597 134.207 138.704 134.075 138.704Z" fill="#FFAB48"/>
<path d="M135.952 138.704C135.821 138.704 135.713 138.597 135.713 138.465V133.214C135.713 133.082 135.821 132.975 135.952 132.975C136.083 132.975 136.191 133.082 136.191 133.214V138.465C136.191 138.597 136.083 138.704 135.952 138.704Z" fill="#FFAB48"/>
<path d="M137.834 138.704C137.702 138.704 137.595 138.597 137.595 138.465V133.214C137.595 133.082 137.702 132.975 137.834 132.975C137.966 132.975 138.072 133.082 138.072 133.214V138.465C138.072 138.597 137.966 138.704 137.834 138.704Z" fill="#FFAB48"/>
<path d="M139.71 138.704C139.579 138.704 139.471 138.597 139.471 138.465V133.214C139.471 133.082 139.578 132.975 139.71 132.975C139.842 132.975 139.949 133.082 139.949 133.214V138.465C139.949 138.597 139.841 138.704 139.71 138.704Z" fill="#FFAB48"/>
<path d="M141.587 138.704C141.456 138.704 141.349 138.597 141.349 138.465V133.214C141.349 133.082 141.456 132.975 141.587 132.975C141.719 132.975 141.826 133.082 141.826 133.214V138.465C141.826 138.597 141.719 138.704 141.587 138.704Z" fill="#FFAB48"/>
<path d="M143.471 138.704C143.34 138.704 143.233 138.597 143.233 138.465V133.214C143.233 133.082 143.339 132.975 143.471 132.975C143.603 132.975 143.71 133.082 143.71 133.214V138.465C143.71 138.597 143.602 138.704 143.471 138.704Z" fill="#FFAB48"/>
<path d="M145.348 138.704C145.217 138.704 145.109 138.597 145.109 138.465V133.214C145.109 133.082 145.216 132.975 145.348 132.975C145.48 132.975 145.587 133.082 145.587 133.214V138.465C145.587 138.597 145.48 138.704 145.348 138.704Z" fill="#FFAB48"/>
<path d="M147.223 138.704C147.091 138.704 146.984 138.597 146.984 138.465V133.214C146.984 133.082 147.091 132.975 147.223 132.975C147.354 132.975 147.461 133.082 147.461 133.214V138.465C147.461 138.597 147.354 138.704 147.223 138.704Z" fill="#FFAB48"/>
<path d="M149.105 138.704C148.974 138.704 148.867 138.597 148.867 138.465V133.214C148.867 133.082 148.974 132.975 149.105 132.975C149.237 132.975 149.344 133.082 149.344 133.214V138.465C149.344 138.597 149.237 138.704 149.105 138.704Z" fill="#FFAB48"/>
<path d="M150.983 138.704C150.852 138.704 150.745 138.597 150.745 138.465V133.214C150.745 133.082 150.852 132.975 150.983 132.975C151.115 132.975 151.222 133.082 151.222 133.214V138.465C151.222 138.597 151.115 138.704 150.983 138.704Z" fill="#FFAB48"/>
<path d="M152.862 138.704C152.731 138.704 152.623 138.597 152.623 138.465V133.214C152.623 133.082 152.73 132.975 152.862 132.975C152.994 132.975 153.1 133.082 153.1 133.214V138.465C153.1 138.597 152.994 138.704 152.862 138.704Z" fill="#FFAB48"/>
</g>
<path d="M160.566 133.396H189.297C189.391 133.396 189.467 133.473 189.467 133.567V139.268C189.467 139.363 189.391 139.439 189.297 139.439H160.567C160.473 139.439 160.396 139.363 160.396 139.268V133.567C160.396 133.473 160.473 133.396 160.567 133.396H160.566Z" fill="#FFAB48"/>
<path d="M160.568 132.442H189.299C189.393 132.442 189.469 132.518 189.469 132.612V138.978C189.469 139.072 189.393 139.148 189.299 139.148H160.569C160.475 139.148 160.398 139.072 160.398 138.978V132.612C160.398 132.518 160.475 132.442 160.569 132.442H160.568Z" fill="#FFC000"/>
<path d="M160.401 139.149H174.988V132.442H160.401V139.149Z" fill="#FFAF00"/>
<g style="mix-blend-mode:multiply" opacity="0.21">
<path d="M160.397 139.149H162.253V132.442H160.397V139.149Z" fill="#A20012"/>
</g>
<path d="M183.642 139.149H185.788V132.442H183.642V139.149Z" fill="#FFAB48"/>
<g opacity="0.6">
<path d="M161.785 138.704C161.653 138.704 161.546 138.597 161.546 138.465V133.214C161.546 133.082 161.653 132.975 161.785 132.975C161.916 132.975 162.023 133.082 162.023 133.214V138.465C162.023 138.597 161.916 138.704 161.785 138.704Z" fill="#FFAB48"/>
<path d="M163.663 138.704C163.531 138.704 163.424 138.597 163.424 138.465V133.214C163.424 133.082 163.531 132.975 163.663 132.975C163.794 132.975 163.901 133.082 163.901 133.214V138.465C163.901 138.597 163.794 138.704 163.663 138.704Z" fill="#FFAB48"/>
<path d="M165.541 138.704C165.41 138.704 165.303 138.597 165.303 138.465V133.214C165.303 133.082 165.41 132.975 165.541 132.975C165.673 132.975 165.78 133.082 165.78 133.214V138.465C165.78 138.597 165.673 138.704 165.541 138.704Z" fill="#FFAB48"/>
<path d="M167.42 138.704C167.289 138.704 167.182 138.597 167.182 138.465V133.214C167.182 133.082 167.288 132.975 167.42 132.975C167.552 132.975 167.659 133.082 167.659 133.214V138.465C167.659 138.597 167.552 138.704 167.42 138.704Z" fill="#FFAB48"/>
<path d="M169.295 138.704C169.164 138.704 169.057 138.597 169.057 138.465V133.214C169.057 133.082 169.164 132.975 169.295 132.975C169.426 132.975 169.534 133.082 169.534 133.214V138.465C169.534 138.597 169.427 138.704 169.295 138.704Z" fill="#FFAB48"/>
<path d="M171.175 138.704C171.044 138.704 170.936 138.597 170.936 138.465V133.214C170.936 133.082 171.043 132.975 171.175 132.975C171.307 132.975 171.414 133.082 171.414 133.214V138.465C171.414 138.597 171.307 138.704 171.175 138.704Z" fill="#FFAB48"/>
<path d="M173.056 138.704C172.925 138.704 172.817 138.597 172.817 138.465V133.214C172.817 133.082 172.925 132.975 173.056 132.975C173.187 132.975 173.295 133.082 173.295 133.214V138.465C173.295 138.597 173.187 138.704 173.056 138.704Z" fill="#FFAB48"/>
<path d="M174.936 138.704C174.805 138.704 174.697 138.597 174.697 138.465V133.214C174.697 133.082 174.804 132.975 174.936 132.975C175.068 132.975 175.175 133.082 175.175 133.214V138.465C175.175 138.597 175.068 138.704 174.936 138.704Z" fill="#FFAB48"/>
<path d="M176.814 138.704C176.683 138.704 176.575 138.597 176.575 138.465V133.214C176.575 133.082 176.683 132.975 176.814 132.975C176.945 132.975 177.052 133.082 177.052 133.214V138.465C177.052 138.597 176.945 138.704 176.814 138.704Z" fill="#FFAB48"/>
<path d="M178.692 138.704C178.56 138.704 178.453 138.597 178.453 138.465V133.214C178.453 133.082 178.56 132.975 178.692 132.975C178.823 132.975 178.93 133.082 178.93 133.214V138.465C178.93 138.597 178.823 138.704 178.692 138.704Z" fill="#FFAB48"/>
<path d="M180.57 138.704C180.438 138.704 180.331 138.597 180.331 138.465V133.214C180.331 133.082 180.438 132.975 180.57 132.975C180.701 132.975 180.808 133.082 180.808 133.214V138.465C180.808 138.597 180.701 138.704 180.57 138.704Z" fill="#FFAB48"/>
<path d="M182.445 138.704C182.314 138.704 182.207 138.597 182.207 138.465V133.214C182.207 133.082 182.314 132.975 182.445 132.975C182.577 132.975 182.684 133.082 182.684 133.214V138.465C182.684 138.597 182.577 138.704 182.445 138.704Z" fill="#FFAB48"/>
<path d="M184.327 138.704C184.196 138.704 184.089 138.597 184.089 138.465V133.214C184.089 133.082 184.195 132.975 184.327 132.975C184.459 132.975 184.566 133.082 184.566 133.214V138.465C184.566 138.597 184.458 138.704 184.327 138.704Z" fill="#FFAB48"/>
<path d="M186.208 138.704C186.077 138.704 185.969 138.597 185.969 138.465V133.214C185.969 133.082 186.076 132.975 186.208 132.975C186.34 132.975 186.447 133.082 186.447 133.214V138.465C186.447 138.597 186.34 138.704 186.208 138.704Z" fill="#FFAB48"/>
<path d="M188.086 138.704C187.955 138.704 187.847 138.597 187.847 138.465V133.214C187.847 133.082 187.954 132.975 188.086 132.975C188.218 132.975 188.325 133.082 188.325 133.214V138.465C188.325 138.597 188.217 138.704 188.086 138.704Z" fill="#FFAB48"/>
</g>
<path d="M160.574 126.475H189.303C189.398 126.475 189.474 126.551 189.474 126.645V132.347C189.474 132.441 189.398 132.518 189.303 132.518H160.574C160.48 132.518 160.403 132.441 160.403 132.347V126.645C160.403 126.551 160.48 126.475 160.574 126.475Z" fill="#FFAB48"/>
<path d="M160.575 125.52H189.304C189.399 125.52 189.475 125.597 189.475 125.691V132.056C189.475 132.15 189.399 132.227 189.304 132.227H160.575C160.481 132.227 160.404 132.15 160.404 132.056V125.691C160.404 125.597 160.481 125.52 160.575 125.52Z" fill="#FABC00"/>
<path d="M160.403 132.226H174.751V125.519H160.403V132.226Z" fill="#FFAF00"/>
<g style="mix-blend-mode:multiply" opacity="0.11">
<path d="M160.402 132.226H189.474V125.519H160.402V132.226Z" fill="#A20012"/>
</g>
<path opacity="0.59" d="M183.65 132.226H185.796V125.519H183.65V132.226Z" fill="#FFAB48"/>
<g opacity="0.6">
<path d="M161.786 131.782C161.654 131.782 161.547 131.675 161.547 131.543V126.292C161.547 126.16 161.654 126.053 161.786 126.053C161.917 126.053 162.024 126.16 162.024 126.292V131.543C162.024 131.675 161.917 131.782 161.786 131.782Z" fill="#FFAB48"/>
<path d="M163.664 131.782C163.532 131.782 163.425 131.675 163.425 131.543V126.292C163.425 126.16 163.532 126.053 163.664 126.053C163.795 126.053 163.902 126.16 163.902 126.292V131.543C163.902 131.675 163.795 131.782 163.664 131.782Z" fill="#FFAB48"/>
<path d="M165.544 131.782C165.413 131.782 165.306 131.675 165.306 131.543V126.292C165.306 126.16 165.413 126.053 165.544 126.053C165.676 126.053 165.783 126.16 165.783 126.292V131.543C165.783 131.675 165.676 131.782 165.544 131.782Z" fill="#FFAB48"/>
<path d="M167.423 131.782C167.292 131.782 167.185 131.675 167.185 131.543V126.292C167.185 126.16 167.291 126.053 167.423 126.053C167.555 126.053 167.662 126.16 167.662 126.292V131.543C167.662 131.675 167.555 131.782 167.423 131.782Z" fill="#FFAB48"/>
<path d="M169.298 131.782C169.167 131.782 169.06 131.675 169.06 131.543V126.292C169.06 126.16 169.167 126.053 169.298 126.053C169.43 126.053 169.537 126.16 169.537 126.292V131.543C169.537 131.675 169.43 131.782 169.298 131.782Z" fill="#FFAB48"/>
<path d="M171.176 131.782C171.045 131.782 170.937 131.675 170.937 131.543V126.292C170.937 126.16 171.044 126.053 171.176 126.053C171.308 126.053 171.415 126.16 171.415 126.292V131.543C171.415 131.675 171.308 131.782 171.176 131.782Z" fill="#FFAB48"/>
<path d="M173.057 131.782C172.926 131.782 172.818 131.675 172.818 131.543V126.292C172.818 126.16 172.926 126.053 173.057 126.053C173.188 126.053 173.296 126.16 173.296 126.292V131.543C173.296 131.675 173.188 131.782 173.057 131.782Z" fill="#FFAB48"/>
<path d="M174.938 131.782C174.807 131.782 174.699 131.675 174.699 131.543V126.292C174.699 126.16 174.806 126.053 174.938 126.053C175.07 126.053 175.177 126.16 175.177 126.292V131.543C175.177 131.675 175.07 131.782 174.938 131.782Z" fill="#FFAB48"/>
<path d="M176.815 131.782C176.684 131.782 176.576 131.675 176.576 131.543V126.292C176.576 126.16 176.684 126.053 176.815 126.053C176.946 126.053 177.053 126.16 177.053 126.292V131.543C177.053 131.675 176.946 131.782 176.815 131.782Z" fill="#FFAB48"/>
<path d="M178.695 131.782C178.563 131.782 178.456 131.675 178.456 131.543V126.292C178.456 126.16 178.563 126.053 178.695 126.053C178.826 126.053 178.933 126.16 178.933 126.292V131.543C178.933 131.675 178.826 131.782 178.695 131.782Z" fill="#FFAB48"/>
<path d="M180.574 131.782C180.443 131.782 180.336 131.675 180.336 131.543V126.292C180.336 126.16 180.443 126.053 180.574 126.053C180.706 126.053 180.813 126.16 180.813 126.292V131.543C180.813 131.675 180.706 131.782 180.574 131.782Z" fill="#FFAB48"/>
<path d="M182.448 131.782C182.317 131.782 182.21 131.675 182.21 131.543V126.292C182.21 126.16 182.317 126.053 182.448 126.053C182.58 126.053 182.687 126.16 182.687 126.292V131.543C182.687 131.675 182.58 131.782 182.448 131.782Z" fill="#FFAB48"/>
<path d="M184.328 131.782C184.197 131.782 184.09 131.675 184.09 131.543V126.292C184.09 126.16 184.197 126.053 184.328 126.053C184.46 126.053 184.567 126.16 184.567 126.292V131.543C184.567 131.675 184.46 131.782 184.328 131.782Z" fill="#FFAB48"/>
<path d="M186.209 131.782C186.078 131.782 185.97 131.675 185.97 131.543V126.292C185.97 126.16 186.077 126.053 186.209 126.053C186.341 126.053 186.448 126.16 186.448 126.292V131.543C186.448 131.675 186.341 131.782 186.209 131.782Z" fill="#FFAB48"/>
<path d="M188.087 131.782C187.956 131.782 187.848 131.675 187.848 131.543V126.292C187.848 126.16 187.955 126.053 188.087 126.053C188.219 126.053 188.326 126.16 188.326 126.292V131.543C188.326 131.675 188.218 131.782 188.087 131.782Z" fill="#FFAB48"/>
</g>
<path d="M162.261 119.473H190.991C191.085 119.473 191.161 119.549 191.161 119.643V125.345C191.161 125.439 191.085 125.516 190.991 125.516H162.26C162.166 125.516 162.09 125.439 162.09 125.345V119.643C162.09 119.549 162.166 119.473 162.26 119.473H162.261Z" fill="#FFAB48"/>
<path d="M162.261 118.518H190.991C191.085 118.518 191.161 118.595 191.161 118.689V125.054C191.161 125.148 191.085 125.225 190.991 125.225H162.26C162.166 125.225 162.09 125.148 162.09 125.054V118.689C162.09 118.595 162.166 118.518 162.26 118.518H162.261Z" fill="#FFC000"/>
<path d="M162.091 125.225H176.576V118.518H162.091V125.225Z" fill="#FFAF00"/>
<g style="mix-blend-mode:multiply" opacity="0.21">
<path d="M162.09 125.225H163.946V118.518H162.09V125.225Z" fill="#A20012"/>
</g>
<g style="mix-blend-mode:multiply" opacity="0.21">
<path d="M160.399 132.271H162.255V125.564H160.399V132.271Z" fill="#A20012"/>
</g>
<path d="M185.335 125.225H187.48V118.518H185.335V125.225Z" fill="#FFAB48"/>
<g opacity="0.6">
<path d="M163.476 124.78C163.345 124.78 163.237 124.673 163.237 124.541V119.29C163.237 119.158 163.344 119.051 163.476 119.051C163.608 119.051 163.715 119.158 163.715 119.29V124.541C163.715 124.673 163.608 124.78 163.476 124.78Z" fill="#FFAB48"/>
<path d="M165.353 124.78C165.222 124.78 165.114 124.673 165.114 124.541V119.29C165.114 119.158 165.222 119.051 165.353 119.051C165.484 119.051 165.592 119.158 165.592 119.29V124.541C165.592 124.673 165.484 124.78 165.353 124.78Z" fill="#FFAB48"/>
<path d="M167.235 124.78C167.104 124.78 166.996 124.673 166.996 124.541V119.29C166.996 119.158 167.103 119.051 167.235 119.051C167.367 119.051 167.474 119.158 167.474 119.29V124.541C167.474 124.673 167.367 124.78 167.235 124.78Z" fill="#FFAB48"/>
<path d="M169.113 124.78C168.981 124.78 168.874 124.673 168.874 124.541V119.29C168.874 119.158 168.981 119.051 169.113 119.051C169.244 119.051 169.351 119.158 169.351 119.29V124.541C169.351 124.673 169.244 124.78 169.113 124.78Z" fill="#FFAB48"/>
<path d="M170.989 124.78C170.857 124.78 170.75 124.673 170.75 124.541V119.29C170.75 119.158 170.857 119.051 170.989 119.051C171.12 119.051 171.227 119.158 171.227 119.29V124.541C171.227 124.673 171.12 124.78 170.989 124.78Z" fill="#FFAB48"/>
<path d="M172.867 124.78C172.735 124.78 172.628 124.673 172.628 124.541V119.29C172.628 119.158 172.735 119.051 172.867 119.051C172.998 119.051 173.105 119.158 173.105 119.29V124.541C173.105 124.673 172.998 124.78 172.867 124.78Z" fill="#FFAB48"/>
<path d="M174.749 124.78C174.618 124.78 174.511 124.673 174.511 124.541V119.29C174.511 119.158 174.617 119.051 174.749 119.051C174.881 119.051 174.988 119.158 174.988 119.29V124.541C174.988 124.673 174.881 124.78 174.749 124.78Z" fill="#FFAB48"/>
<path d="M176.624 124.78C176.493 124.78 176.386 124.673 176.386 124.541V119.29C176.386 119.158 176.492 119.051 176.624 119.051C176.756 119.051 176.863 119.158 176.863 119.29V124.541C176.863 124.673 176.755 124.78 176.624 124.78Z" fill="#FFAB48"/>
<path d="M178.503 124.78C178.372 124.78 178.264 124.673 178.264 124.541V119.29C178.264 119.158 178.371 119.051 178.503 119.051C178.635 119.051 178.742 119.158 178.742 119.29V124.541C178.742 124.673 178.635 124.78 178.503 124.78Z" fill="#FFAB48"/>
<path d="M180.385 124.78C180.254 124.78 180.146 124.673 180.146 124.541V119.29C180.146 119.158 180.253 119.051 180.385 119.051C180.517 119.051 180.624 119.158 180.624 119.29V124.541C180.624 124.673 180.516 124.78 180.385 124.78Z" fill="#FFAB48"/>
<path d="M182.264 124.78C182.133 124.78 182.025 124.673 182.025 124.541V119.29C182.025 119.158 182.132 119.051 182.264 119.051C182.396 119.051 182.503 119.158 182.503 119.29V124.541C182.503 124.673 182.396 124.78 182.264 124.78Z" fill="#FFAB48"/>
<path d="M184.14 124.78C184.009 124.78 183.901 124.673 183.901 124.541V119.29C183.901 119.158 184.008 119.051 184.14 119.051C184.272 119.051 184.379 119.158 184.379 119.29V124.541C184.379 124.673 184.271 124.78 184.14 124.78Z" fill="#FFAB48"/>
<path d="M186.021 124.78C185.889 124.78 185.782 124.673 185.782 124.541V119.29C185.782 119.158 185.889 119.051 186.021 119.051C186.152 119.051 186.259 119.158 186.259 119.29V124.541C186.259 124.673 186.152 124.78 186.021 124.78Z" fill="#FFAB48"/>
<path d="M187.899 124.78C187.768 124.78 187.661 124.673 187.661 124.541V119.29C187.661 119.158 187.768 119.051 187.899 119.051C188.031 119.051 188.138 119.158 188.138 119.29V124.541C188.138 124.673 188.031 124.78 187.899 124.78Z" fill="#FFAB48"/>
<path d="M189.777 124.78C189.646 124.78 189.539 124.673 189.539 124.541V119.29C189.539 119.158 189.646 119.051 189.777 119.051C189.909 119.051 190.016 119.158 190.016 119.29V124.541C190.016 124.673 189.909 124.78 189.777 124.78Z" fill="#FFAB48"/>
</g>
<g style="mix-blend-mode:multiply" opacity="0.21">
<path d="M154.303 139.149V132.54H151.51L146.833 139.149H154.303Z" fill="#A20012"/>
</g>
<g style="mix-blend-mode:multiply" opacity="0.21">
<path d="M157.351 146.142V139.689C157.351 139.604 157.281 139.534 157.195 139.534H154.558L156.39 146.142H157.351Z" fill="#A20012"/>
</g>
<g style="mix-blend-mode:multiply" opacity="0.21">
<path d="M163.468 153.143V146.534H156.671L159.063 153.143H163.468Z" fill="#A20012"/>
</g>
<g style="mix-blend-mode:multiply" opacity="0.21">
<path d="M132.56 153.143V146.534H128.266L129.887 153.143H132.56Z" fill="#A20012"/>
</g>
<g style="mix-blend-mode:multiply" opacity="0.21">
<path d="M181.243 153.143L182.734 146.534H168.348V153.143H181.243Z" fill="#A20012"/>
</g>
<g style="mix-blend-mode:multiply" opacity="0.21">
<path d="M162.2 118.518L152.147 131.826L158.167 131.651L160.68 125.52L161.936 122.889L162.2 118.518Z" fill="#A20012"/>
</g>
<g style="mix-blend-mode:overlay">
<path d="M185.616 132.583C185.616 132.505 182.258 132.442 178.117 132.442C173.975 132.442 170.617 132.505 170.617 132.583C170.617 132.66 173.975 132.724 178.117 132.724C182.258 132.724 185.616 132.66 185.616 132.583Z" fill="white"/>
</g>
<g style="mix-blend-mode:overlay">
<path d="M193.444 146.623C193.444 146.546 190.522 146.482 186.918 146.482C183.313 146.482 180.392 146.546 180.392 146.623C180.392 146.701 183.313 146.764 186.918 146.764C190.522 146.764 193.444 146.701 193.444 146.623Z" fill="white"/>
</g>
<g style="mix-blend-mode:overlay">
<path d="M187.311 118.586C187.311 118.508 183.954 118.445 179.812 118.445C175.67 118.445 172.313 118.508 172.313 118.586C172.313 118.663 175.67 118.727 179.812 118.727C183.954 118.727 187.311 118.663 187.311 118.586Z" fill="white"/>
</g>
<g style="mix-blend-mode:overlay">
<path d="M150.737 139.533C150.737 139.455 148.041 139.392 144.718 139.392C141.394 139.392 138.698 139.455 138.698 139.533C138.698 139.611 141.394 139.674 144.718 139.674C148.041 139.674 150.737 139.611 150.737 139.533Z" fill="white"/>
</g>
<g style="mix-blend-mode:overlay">
<path d="M122.067 146.578C122.067 146.5 117.884 146.437 112.722 146.437C107.561 146.437 103.377 146.5 103.377 146.578C103.377 146.656 107.561 146.719 112.722 146.719C117.884 146.719 122.067 146.656 122.067 146.578Z" fill="white"/>
</g>
<g style="mix-blend-mode:overlay">
<path d="M150.531 132.54C150.531 132.462 147.836 132.399 144.511 132.399C141.187 132.399 138.492 132.462 138.492 132.54C138.492 132.618 141.188 132.681 144.511 132.681C147.835 132.681 150.531 132.618 150.531 132.54Z" fill="white"/>
</g>
<g style="mix-blend-mode:overlay">
<path d="M153.113 146.578C153.113 146.5 150.664 146.437 147.643 146.437C144.623 146.437 142.174 146.5 142.174 146.578C142.174 146.656 144.623 146.719 147.643 146.719C150.664 146.719 153.113 146.656 153.113 146.578Z" fill="white"/>
</g>
<path d="M49.6022 87.3314L56.217 107.465L54.2793 106.235L69.5687 105.168L70.9576 105.072L71.2272 107.756L69.8473 107.937L54.6507 109.933C53.8132 110.043 53.0348 109.554 52.748 108.797L52.7131 108.704L45.1984 88.8888L44.3698 86.7044L48.8728 85.1121L49.6022 87.3314Z" fill="#FFEEE0"/>
<path d="M79.2422 105.777C79.2784 106.733 77.3262 108.004 74.5116 108.397C71.917 108.759 70.0799 107.847 69.9641 106.887C69.7053 104.743 79.1856 104.298 79.2422 105.777Z" fill="#FFEEE0"/>
<path d="M75.0388 104.132C74.8627 103.749 73.711 103.693 72.3432 104.173C71.0815 104.617 70.4246 105.387 70.5652 105.789C70.8793 106.685 75.3117 104.722 75.0388 104.132Z" fill="#FFEEE0"/>
<path d="M63.5471 104.599L64.0946 113.113C64.0946 113.113 54.5119 112.549 51.3978 108.775C47.0291 103.481 41.3402 88.4284 46.128 86.1423C51.4455 83.603 51.7476 96.6006 55.689 102.464C57.3787 104.977 63.5471 104.6 63.5471 104.6V104.599Z" fill="#F4EFEF"/>
<path d="M51.5979 67.0023C47.4161 64.0052 42.3809 66.0478 41.7119 70.3759C40.8439 75.9923 41.9408 80.5156 40.545 84.2414C38.3816 90.0169 38.9812 95.6918 38.9812 95.6918C44.6873 87.9132 50.5849 91.1335 53.8408 83.3187C54.8869 80.8081 55.6042 69.8735 51.5979 67.0023Z" fill="#03053E"/>
<path d="M49.9347 85.9234H44.9421V76.3726H47.9932L49.9347 85.9234Z" fill="#EEBB8F"/>
<path d="M53.6214 71.5376C54.4653 75.4581 53.8414 79.4116 51.4746 80.2688C49.2546 81.0732 45.4015 78.9461 43.6388 75.0702C41.7831 70.9895 42.6893 67.9402 45.9764 66.8045C49.4682 65.5981 52.6962 67.2401 53.6208 71.5376H53.6214Z" fill="#F3C9AA"/>
<path d="M60.243 167.015L56.8872 142.71L53.3477 118.433L52.7073 114.04L43.4598 116.035L44.6877 120.302L51.4685 143.861L58.1336 167.456L58.4268 168.496L60.3911 168.085L60.243 167.015Z" fill="#EEBB8F"/>
<path d="M39.9518 114.039L39.7979 118.475L38.9019 144.272L27.6322 161.073L27.03 161.971L28.5905 163.203L29.3237 162.408L43.7216 146.821C43.9817 146.54 44.1642 146.184 44.2316 145.779L44.2933 145.406L48.6131 119.355L49.3393 114.976L39.9518 114.039V114.039Z" fill="#EEBB8F"/>
<path d="M41.6501 113.221H54.7463L60.3958 158.793L52.7755 159.901L41.6501 113.221Z" fill="url(#paint1_linear_1_18313)"/>
<path d="M38.0559 113.221H50.6382C50.6382 113.221 48.333 142.349 46.4558 145.773C44.2052 149.877 35.2941 159.404 35.2941 159.404L29.2421 154.73C29.2421 154.73 35.6159 145.705 37.1567 141.468C38.6975 137.231 38.0553 113.221 38.0553 113.221H38.0559Z" fill="url(#paint2_linear_1_18313)"/>
<path d="M44.8217 85.1113C44.8217 85.1113 47.5135 87.4712 50.206 85.898C50.206 85.898 51.1268 95.7318 52.3312 99.7438C53.5357 103.756 56.6625 113.96 56.6625 113.96L37.5073 114.298C36.9846 105.32 40.3766 95.122 44.8217 85.1113Z" fill="#76D2F3"/>
<path d="M46.7572 91.5851C45.5031 93.9284 44.2917 96.371 43.1858 98.8059C42.6339 100.028 42.1067 101.255 41.6285 102.487C41.1528 103.716 40.7185 104.959 40.4202 106.157C40.3471 106.457 40.2873 106.742 40.2352 107.034L40.0864 107.999C40.0005 108.653 39.9185 109.311 39.8511 109.978C39.7144 111.311 39.6082 112.658 39.5179 114.009C39.3449 116.711 39.2279 119.44 39.1611 122.147L39.1287 123.457L36.5844 123.478L36.5418 122.168C36.4521 119.405 36.4139 116.662 36.433 113.896C36.4464 112.513 36.4763 111.127 36.5392 109.732C36.5697 109.034 36.6162 108.331 36.6689 107.624L36.772 106.553C36.8184 106.168 36.8794 105.78 36.9494 105.411C37.2381 103.936 37.6451 102.569 38.0864 101.222C38.5296 99.8775 39.0161 98.5643 39.5242 97.2638C40.5493 94.6597 41.6418 92.1364 42.8399 89.5896L43.776 87.5991L47.795 89.6461L46.7578 91.5844L46.7572 91.5851Z" fill="#F3C9AA"/>
<path d="M44.1464 83.966C44.1464 83.966 34.7933 97.9543 36.6972 112.875C36.6972 112.875 35.8934 115.806 46.5069 115.406C57.1198 115.007 57.7271 113.541 57.7271 113.541C54.3675 105.534 51.7577 96.4707 50.4611 85.5589C50.4611 85.5589 46.4929 85.7046 44.1457 83.9653L44.1464 83.966Z" fill="white"/>
<path d="M43.1385 116.034L34.9612 117.046C34.9612 117.046 35.2849 107.748 36.4976 102.424C38.0219 95.7325 40.8651 85.7626 45.995 87.1203C52.6982 88.8945 42.9738 102.326 42.2717 106.009C41.7045 108.984 43.1385 116.034 43.1385 116.034Z" fill="#F4EFEF"/>
<path d="M36.3999 130.892C35.5268 130.672 34.8966 128.571 35.2889 125.925C35.6508 123.486 36.9608 122.069 37.8587 122.219C39.8637 122.554 37.7506 131.233 36.3999 130.892V130.892Z" fill="#F3C9AA"/>
<path d="M38.999 127.535C39.3908 127.477 39.7475 126.453 39.6763 125.089C39.6102 123.833 39.0893 123.034 38.6894 123.055C37.7965 123.101 38.393 127.624 38.999 127.535Z" fill="#F3C9AA"/>
<path d="M67.9127 169.364L66.3681 169.089L60.7205 166.903V166.949C60.7205 166.949 60.6524 167.917 59.4792 168.099C58.615 168.233 58.0547 168.003 57.8188 167.872C57.7628 167.821 57.7164 167.792 57.691 167.792C57.3139 167.792 57.008 168.409 57.008 169.17C57.008 169.42 57.0417 169.653 57.0989 169.855V170.912H68.349V169.842C68.349 169.594 68.1595 169.387 67.9121 169.364L67.9127 169.364Z" fill="#03053E"/>
<path d="M33.398 169.223L32.441 167.98L29.7364 162.562L29.7059 162.596C29.7059 162.596 29.0038 163.265 28.0137 162.61C27.2843 162.128 27.0249 161.58 26.939 161.325C26.932 161.249 26.918 161.197 26.8989 161.179C26.6198 160.926 25.9788 161.176 25.4662 161.738C25.2983 161.924 25.1654 162.119 25.0719 162.307L24.3604 163.089L32.6788 170.662L33.3993 169.871C33.5666 169.687 33.5659 169.406 33.398 169.224V169.223Z" fill="#03053E"/>
<path d="M47.112 65.7356C45.9769 65.7356 45.1992 65.8373 44.2319 66.3384C42.6777 67.1435 40.6275 69.0678 40.2199 73.4283C39.8403 77.4937 41.4682 79.4835 37.9948 83.3188C34.0878 86.2853 27.1244 85.7791 27.9289 92.4359C28.7333 99.0927 37.5611 98.2247 39.659 94.8963C41.7576 91.5679 41.5216 88.6013 42.6886 86.5028C43.8555 84.4043 45.8815 85.6348 46.8945 83.3194C48.0824 81.1414 46.0201 76.2556 45.6488 75.4143C45.8974 74.5952 46.2179 73.696 47.5457 73.3342C50.394 72.5571 52.7552 69.8608 52.7552 68.9928C52.7552 68.1247 50.1504 65.7369 47.1114 65.7369L47.112 65.7356Z" fill="#03053E"/>
<path d="M47.0191 73.9745C47.3136 74.6307 47.1082 75.362 46.5613 75.6069C46.0144 75.8523 45.332 75.5185 45.0382 74.8622C44.7438 74.2059 44.9492 73.4753 45.4961 73.2298C46.043 72.9843 46.7253 73.3182 47.0191 73.9745Z" fill="#F3C9AA"/>
<path d="M185.8 86.9951H191.006V77.0366H187.825L185.8 86.9951Z" fill="#EEBB8F"/>
<path d="M181.96 71.995C181.079 76.0827 181.73 80.2047 184.198 81.0988C186.513 81.9376 190.53 79.7195 192.368 75.6782C194.303 71.4233 193.358 68.2437 189.93 67.0596C186.289 65.8018 182.924 67.5143 181.96 71.995Z" fill="#F3C9AA"/>
<path d="M189.222 65.6151C193.007 65.9114 195.101 69.3428 194.858 72.7367C194.631 75.9055 191.243 77.5977 191.243 77.5977C191.243 77.5977 190.126 74.3806 188.294 73.868C185.739 73.1533 186.843 70.869 185.65 70.6229C184.405 70.366 181.7 69.3778 181.745 67.5674C183.497 67.6284 184.969 65.2825 189.222 65.6151Z" fill="#03053E"/>
<path d="M190.92 75.4729C191.226 74.7884 191.013 74.0261 190.442 73.7704C189.872 73.5146 189.161 73.8622 188.854 74.5467C188.547 75.2312 188.761 75.9935 189.331 76.2492C189.901 76.505 190.613 76.1574 190.92 75.4729Z" fill="#F3C9AA"/>
<path d="M189.218 73.8059C189.218 73.8059 188.933 78.2243 188.089 79.9031C187.354 81.3651 184.147 82.8735 182.399 79.4058C182.399 79.4058 184.168 79.7753 183.967 79.0262C183.732 78.1448 181.912 78.1352 181.912 78.1352C181.912 78.1352 181.555 78.1181 181.492 77.7912C181.398 77.3054 181.634 76.5175 181.634 76.5175C181.634 76.5175 184.043 77.376 185.08 77.376C186.257 77.376 187.325 76.5461 188.32 73.8065H189.218V73.8059Z" fill="#03053E"/>
<path d="M174.016 171.215L178.8 144.45L182.051 131.261L185.323 118.046L186.435 113.553L195.82 116.547L194.123 120.854L189.178 133.399C187.534 137.587 185.863 141.774 184.237 145.978L176.198 171.75L175.863 172.824L173.817 172.325L174.015 171.217L174.016 171.215Z" fill="#EEBB8F"/>
<path d="M191.307 113.663L191.681 118.276L193.798 144.411L213.561 153.674L214.581 154.152L213.835 156.099L212.756 155.772L190.095 148.923C189.259 148.668 188.579 147.978 188.384 147.062L188.304 146.686L182.541 119.614L181.577 115.088L191.306 113.664L191.307 113.663Z" fill="#EEBB8F"/>
<path d="M197.195 110.81L179.651 114.217L174.167 166.653L180.051 167.46L197.195 110.81Z" fill="url(#paint3_linear_1_18313)"/>
<path d="M198.054 114.309L180.354 111.836C180.354 111.836 183.067 144.664 188.362 148.85C191.308 151.179 207.678 155.1 207.678 155.1L209.44 150.073C209.44 150.073 197.116 145.085 196.086 143.542C194.964 141.865 198.054 114.309 198.054 114.309Z" fill="url(#paint4_linear_1_18313)"/>
<path d="M187.418 87.4639L172.21 100.813L174.4 100.742L162.344 92.4464L161.249 91.6928L159.724 93.7697L160.771 94.5881L172.3 103.603C172.935 104.1 173.813 104.075 174.417 103.591L174.49 103.532L190.284 90.8814L192.025 89.4868L189.095 85.9924L187.419 87.4639H187.418Z" fill="#FFEEE0"/>
<path d="M192.496 92.1396C189.778 96.0747 179.612 103.804 173.149 104.08C169.311 104.244 162.876 96.8944 162.876 96.8944L164.863 93.6734C164.863 93.6734 169.795 99.026 173.696 96.7939C177.597 94.5624 185.559 86.3101 188.546 86.4761C191.178 86.6224 193.717 90.3717 192.496 92.1396Z" fill="#F4EFEF"/>
<path d="M190.651 84.8914C190.651 84.8914 187.919 87.2856 185.189 85.6894C185.189 85.6894 184.255 95.6657 183.032 99.7363C181.811 103.807 178.453 114.288 178.453 114.288L198.071 114.502C198.602 105.393 195.161 95.0476 190.651 84.8914Z" fill="#DAC5AE"/>
<path d="M191.6 84.0725C191.6 84.0725 201.089 98.2637 199.156 113.402C199.156 113.402 199.972 116.375 189.205 115.97C178.438 115.564 177.822 114.077 177.822 114.077C181.23 105.954 183.878 96.7591 185.193 85.689C185.193 85.689 189.219 85.8372 191.6 84.0725H191.6Z" fill="white"/>
<path d="M188.507 91.1053C189.858 93.4391 191.169 95.8747 192.372 98.3064C192.972 99.5261 193.549 100.754 194.075 101.987C194.598 103.217 195.08 104.463 195.424 105.667C195.508 105.969 195.578 106.255 195.64 106.55L195.824 107.523C195.933 108.184 196.038 108.848 196.129 109.522C196.312 110.868 196.465 112.23 196.602 113.598C196.868 116.332 197.079 119.094 197.238 121.837L197.315 123.164L199.895 123.1L199.894 121.771C199.892 118.966 199.839 116.183 199.726 113.379C199.666 111.978 199.589 110.574 199.478 109.161C199.424 108.455 199.353 107.743 199.276 107.029L199.135 105.946C199.075 105.557 199.001 105.165 198.917 104.794C198.575 103.308 198.115 101.936 197.623 100.584C197.129 99.2361 196.591 97.9204 196.032 96.6193C194.905 94.014 193.713 91.4919 192.412 88.9495L191.396 86.9629L187.39 89.174L188.507 91.1046V91.1053Z" fill="#F3C9AA"/>
<path d="M193.187 86.5673C196.61 89.9084 198.579 97.495 200.035 103.798C201.492 110.1 200.308 119.67 200.308 119.67L196.384 119.843C196.384 119.843 196.16 110.103 194.616 105.883C193.072 101.662 186.275 92.426 186.94 89.5097C187.526 86.94 191.65 85.0666 193.187 86.5673Z" fill="#F4EFEF"/>
<path d="M155.691 89.343C155.192 90.1086 155.833 91.8644 157.472 93.2214C158.983 94.4723 160.631 94.4074 161.183 93.6678C162.416 92.0164 156.462 88.1589 155.691 89.343Z" fill="#FFEEE0"/>
<path d="M198.641 130.91C199.552 130.84 200.543 128.847 200.604 126.135C200.662 123.634 199.594 121.992 198.671 121.988C196.609 121.979 197.232 131.02 198.641 130.91V130.91Z" fill="#F3C9AA"/>
<path d="M196.618 127.106C196.236 126.981 196.055 125.896 196.361 124.545C196.642 123.3 197.301 122.591 197.697 122.68C198.582 122.88 197.208 127.3 196.618 127.106H196.618Z" fill="#F3C9AA"/>
<path d="M166.177 174.152C166.177 174.152 167.531 173.794 167.905 173.659C169.402 173.121 173.276 171.534 173.276 171.534C173.276 171.534 173.753 172.304 174.949 172.453C175.831 172.563 176.479 172.245 176.505 172.245C176.888 172.233 177.218 172.85 177.241 173.623C177.248 173.876 177.222 174.114 177.169 174.321L177.201 175.394L165.781 175.737L165.749 174.65C165.741 174.398 165.928 174.182 166.177 174.152V174.152Z" fill="#03053E"/>
<path d="M213.116 164.074C213.116 164.074 213.169 162.675 213.149 162.277C213.07 160.689 212.681 156.521 212.681 156.521C212.681 156.521 213.557 156.288 214.048 155.188C214.41 154.376 214.295 153.664 214.302 153.639C214.402 153.269 215.088 153.134 215.834 153.337C216.078 153.404 216.298 153.499 216.481 153.61L217.516 153.891L214.515 164.915L213.467 164.629C213.224 164.563 213.071 164.322 213.115 164.074L213.116 164.074Z" fill="#03053E"/>
<path d="M158.342 88.939C158.673 88.7101 159.647 89.222 160.539 90.2815C161.361 91.2582 161.528 92.2109 161.217 92.4722C160.524 93.0573 157.831 89.292 158.342 88.9384V88.939Z" fill="#FFEEE0"/>
<defs>
<linearGradient id="paint0_linear_1_18313" x1="-0.000259535" y1="96.4996" x2="234.223" y2="96.4996" gradientUnits="userSpaceOnUse">
<stop stop-color="#7748FF"/>
<stop offset="1" stop-color="#48DEFF" stop-opacity="0.6"/>
</linearGradient>
<linearGradient id="paint1_linear_1_18313" x1="67.195" y1="134.574" x2="48.7584" y2="136.407" gradientUnits="userSpaceOnUse">
<stop stop-color="#435AC1"/>
<stop offset="1" stop-color="#0F24A3"/>
</linearGradient>
<linearGradient id="paint2_linear_1_18313" x1="48.7616" y1="137.59" x2="35.1466" y2="134.589" gradientUnits="userSpaceOnUse">
<stop stop-color="#435AC1"/>
<stop offset="1" stop-color="#0F24A3"/>
</linearGradient>
<linearGradient id="paint3_linear_1_18313" x1="168.513" y1="139.035" x2="188.467" y2="139.134" gradientUnits="userSpaceOnUse">
<stop stop-color="#435AC1"/>
<stop offset="1" stop-color="#0F24A3"/>
</linearGradient>
<linearGradient id="paint4_linear_1_18313" x1="183.671" y1="136.953" x2="202.235" y2="130.699" gradientUnits="userSpaceOnUse">
<stop stop-color="#435AC1"/>
<stop offset="1" stop-color="#0F24A3"/>
</linearGradient>
</defs>
</svg>
