<svg width="13" height="17" viewBox="0 0 13 17" fill="none" xmlns="http://www.w3.org/2000/svg">
<path d="M12.3152 2.17733C12.3128 2.17494 12.3152 2.17733 12.3152 2.17733L4.68856 13.3785L0 7.72662C0.293333 7.90309 4.32488 9.65349 4.62537 9.81565" fill="white"/>
<path d="M9.61023 7.87668V14.4872C9.61023 15.5961 8.62888 16.4999 7.42216 16.4999H2.67755C1.46964 16.4999 0.488281 15.5973 0.488281 14.4872V9.67835L1.32297 10.482V14.4872C1.32297 15.174 1.92991 15.732 2.67755 15.732H7.42216C8.16861 15.732 8.77555 15.174 8.77555 14.4872V8.85204C9.59115 7.87549 8.76362 8.84489 9.61023 7.87549V7.87668Z" fill="white"/>
<path d="M9.61023 2.188V3.68323C8.77555 4.33665 9.65197 3.66296 8.77555 4.33665V2.188C8.77555 1.44158 8.16861 0.834659 7.42216 0.834659H2.67755C1.92991 0.834659 1.32297 1.44158 1.32297 2.188V7.53936C0.506167 7.23411 1.32297 7.53936 0.488281 7.22696V2.188C0.488281 0.981321 1.46964 0 2.67755 0H7.42216C8.62888 0 9.61023 0.981321 9.61023 2.188Z" fill="white"/>
</svg>
