<svg width="69" height="69" viewBox="0 0 69 69" fill="none" xmlns="http://www.w3.org/2000/svg">
<path d="M-1.54393e-06 33.6789C-2.01812e-06 22.8308 4.81275 12.7864 12.9168 6.12574C13.1465 5.93599 13.4121 5.79437 13.6976 5.70932C13.9832 5.62427 14.283 5.59753 14.5791 5.63068C14.8753 5.66382 15.1617 5.75619 15.4214 5.90227C15.6811 6.04836 15.9087 6.24518 16.0908 6.48102C16.4672 6.96114 16.6417 7.56898 16.5773 8.1756C16.5129 8.78222 16.2146 9.33988 15.7458 9.73028C12.2172 12.6428 9.37927 16.3021 7.43671 20.4441C5.49415 24.5861 4.49543 29.1076 4.5126 33.6824C4.5126 50.6358 17.94 64.3814 34.5 64.3814C51.06 64.3814 64.4874 50.6358 64.4874 33.6824C64.5051 29.0417 63.4776 24.4566 61.481 20.2672C59.4844 16.0778 56.5701 12.3915 52.954 9.48194C52.4804 9.0981 52.1748 8.54496 52.102 7.93973C52.0293 7.33449 52.195 6.72471 52.5642 6.23957C52.7432 6.00166 52.9681 5.80214 53.2257 5.65286C53.4833 5.50358 53.7683 5.40759 54.0637 5.37058C54.3591 5.33358 54.659 5.35632 54.9455 5.43746C55.2319 5.5186 55.4992 5.65648 55.7313 5.8429C64.0458 12.4932 69 22.6721 69 33.6789C69 53.1918 53.5544 69 34.5 69C15.4457 69 -6.91151e-07 53.1883 -1.54393e-06 33.6789ZM24.702 10.0235L34.0411 0.689612C34.9416 -0.214113 36.3872 -0.231355 37.2703 0.648222L46.3887 9.76822C46.8122 10.201 47.0466 10.7842 47.0401 11.3897C47.0336 11.9951 46.7869 12.5732 46.3542 12.9968C46.1446 13.2117 45.8946 13.3833 45.6186 13.5015C45.3426 13.6198 45.046 13.6825 44.7457 13.686C44.4455 13.6895 44.1475 13.6338 43.8688 13.5221C43.5901 13.4103 43.3362 13.2447 43.1215 13.0347L37.7844 7.69864L37.7844 43.2612C37.788 43.561 37.7326 43.8587 37.6212 44.1371C37.5097 44.4156 37.3445 44.6693 37.135 44.8839C36.9255 45.0985 36.6758 45.2698 36.4 45.3879C36.1243 45.506 35.828 45.5686 35.5281 45.5722C34.2792 45.5722 33.2683 44.5374 33.2683 43.2612L33.2683 7.84006L27.8932 13.2141C27.47 13.6472 26.8921 13.8945 26.2865 13.9016C25.6809 13.9087 25.0973 13.6751 24.664 13.252C24.2409 12.8188 24.0073 12.2353 24.0144 11.6299C24.0215 11.0245 24.2688 10.4466 24.702 10.0235Z" fill="#113380"/>
</svg>
