<svg width="263" height="216" viewBox="0 0 263 216" fill="none" xmlns="http://www.w3.org/2000/svg">
<path opacity="0.4" d="M212.167 60.3323C211.709 60.1431 211.407 59.6979 211.407 59.2C211.407 26.5043 184.99 0 152.405 0C129.562 0 109.751 13.0249 99.9465 32.0762C98.9165 34.0776 96.79 35.264 94.5521 35.0947C92.3497 34.9283 90.1253 34.8436 87.8803 34.8436C39.1542 34.8436 -0.310061 74.6325 0.00183611 123.596C0.311607 172.293 39.6766 211.375 88.2114 211.195C95.4517 211.168 102.486 210.263 109.213 208.58C123.839 204.92 139.243 205.623 153.365 210.915C162.029 214.161 171.399 215.954 181.182 215.999C225.56 216.2 261.884 180.139 262.135 135.612C262.325 101.633 241.624 72.481 212.168 60.333L212.167 60.3323Z" fill="url(#paint0_linear_1_19241)"/>
<g clip-path="url(#clip0_1_19241)">
<path d="M46.9355 132.944C49.6268 121.448 58.4282 112.424 69.6321 109.664C77.335 107.766 84.7254 108.785 90.9721 111.859C93.044 112.879 95.5058 111.725 96.0801 109.442C101.602 87.4803 121.036 71.2561 144.164 71.2561C171.589 71.2561 193.82 94.0675 193.82 122.207C193.82 122.954 193.806 123.975 193.793 124.954C193.89 127.058 194.785 127.952 196.122 128.176C206.867 129.323 215.312 138.412 215.78 149.622C216.319 162.494 206.108 173.159 193.552 173.159H77.4076C57.5256 173.159 41.9582 154.203 46.9355 132.944Z" fill="#13267D"/>
<path opacity="0.21" d="M55.9311 137.252C58.3343 126.987 66.1922 118.93 76.1964 116.466C83.0741 114.772 89.6724 115.681 95.2496 118.426C97.0994 119.337 99.2976 118.306 99.8102 116.268C104.741 96.6587 122.092 82.1726 142.743 82.1726C167.229 82.1726 187.08 102.541 187.08 127.665C187.08 128.332 187.066 129.243 187.055 130.117C187.142 131.996 187.941 132.794 189.135 132.994C198.728 134.019 206.268 142.134 206.687 152.143C207.167 163.636 198.051 173.158 186.84 173.158H83.1382C65.386 173.158 51.4865 156.233 55.9305 137.252H55.9311Z" fill="#435AC1"/>
<path d="M69.4158 186.929C69.4158 187.871 70.1866 188.642 71.1288 188.642H163.767C164.71 188.642 165.48 187.871 165.48 186.929L166.251 133.654C166.251 132.712 165.142 130.872 163.109 131.011L72.5727 128.666C71.3906 128.636 70.2476 129.091 69.4103 129.926C68.573 130.761 68.1153 131.903 68.1428 133.085L69.4152 186.929H69.4158Z" fill="url(#paint1_linear_1_19241)"/>
<path d="M71.107 185.286C71.107 186.178 71.8362 186.908 72.7279 186.908H161.533C162.425 186.908 163.154 186.178 163.154 185.286L163.882 136.922C163.796 134.011 161.246 132.966 159.701 133.028L72.9299 130.698C72.0993 130.675 71.2962 130.996 70.7079 131.583C70.1196 132.169 69.7961 132.973 69.8169 133.804L71.1076 185.286H71.107Z" fill="#7D97F4"/>
<path d="M162.194 162.309H162.192C162.059 162.308 161.954 162.2 161.957 162.068L162.014 158.146C162.016 158.016 162.122 157.912 162.251 157.912H162.254C162.386 157.914 162.491 158.022 162.489 158.154L162.431 162.076C162.43 162.206 162.323 162.309 162.194 162.309Z" fill="white"/>
<path d="M162.335 152.698H162.331C162.2 152.696 162.095 152.588 162.098 152.457L162.318 137.434C162.314 136.542 162.043 135.829 161.514 135.322C160.525 134.374 158.955 134.422 158.889 134.425L131.155 133.681C131.024 133.678 130.921 133.568 130.924 133.437C130.928 133.306 131.028 133.194 131.168 133.206L158.885 133.951C159.058 133.941 160.73 133.912 161.843 134.979C162.469 135.58 162.789 136.407 162.793 137.438L162.573 152.465C162.571 152.595 162.465 152.699 162.336 152.699L162.335 152.698Z" fill="white"/>
<path d="M62.2453 193.064H170.773C170.963 193.064 171.118 192.91 171.118 192.719V188.728C171.118 188.538 170.963 188.383 170.773 188.383H62.2453C62.0549 188.383 61.9005 188.538 61.9005 188.728V192.719C61.9005 192.91 62.0549 193.064 62.2453 193.064Z" fill="url(#paint2_linear_1_19241)"/>
<path d="M109.634 184.549H75.4421C74.1813 184.549 73.1597 183.526 73.1597 182.265V137.601C73.1597 136.305 74.2356 135.268 75.53 135.318L109.722 136.627C110.948 136.674 111.917 137.683 111.917 138.91V182.265C111.917 183.526 110.895 184.549 109.635 184.549H109.634Z" fill="#91B3FA"/>
<path opacity="0.51" d="M102.834 152.839H80.1851C80.0055 152.839 79.8599 152.984 79.8599 153.164V155.525C79.8599 155.705 80.0055 155.851 80.1851 155.851H102.834C103.014 155.851 103.159 155.705 103.159 155.525V153.164C103.159 152.984 103.014 152.839 102.834 152.839Z" fill="white"/>
<path opacity="0.51" d="M102.88 157.649H80.231C80.0514 157.649 79.9058 157.794 79.9058 157.974V160.335C79.9058 160.515 80.0514 160.661 80.231 160.661H102.88C103.06 160.661 103.205 160.515 103.205 160.335V157.974C103.205 157.794 103.06 157.649 102.88 157.649Z" fill="white"/>
<path opacity="0.51" d="M103.016 162.56H80.3668C80.1871 162.56 80.0415 162.706 80.0415 162.886V165.247C80.0415 165.426 80.1871 165.572 80.3668 165.572H103.016C103.195 165.572 103.341 165.426 103.341 165.247V162.886C103.341 162.706 103.195 162.56 103.016 162.56Z" fill="white"/>
<path opacity="0.51" d="M103.062 167.37H80.4132C80.2335 167.37 80.0879 167.516 80.0879 167.695V170.056C80.0879 170.236 80.2335 170.382 80.4132 170.382H103.062C103.242 170.382 103.387 170.236 103.387 170.056V167.695C103.387 167.516 103.242 167.37 103.062 167.37Z" fill="white"/>
<path opacity="0.51" d="M152.504 152.835H119.657C119.477 152.835 119.332 152.981 119.332 153.16V155.521C119.332 155.701 119.477 155.847 119.657 155.847H152.504C152.684 155.847 152.829 155.701 152.829 155.521V153.16C152.829 152.981 152.684 152.835 152.504 152.835Z" fill="white"/>
<path opacity="0.51" d="M152.608 157.649H119.76C119.581 157.649 119.435 157.794 119.435 157.974V160.335C119.435 160.515 119.581 160.661 119.76 160.661H152.608C152.787 160.661 152.933 160.515 152.933 160.335V157.974C152.933 157.794 152.787 157.649 152.608 157.649Z" fill="white"/>
<path opacity="0.51" d="M138.959 162.56H119.76C119.581 162.56 119.435 162.706 119.435 162.886V165.247C119.435 165.426 119.581 165.572 119.76 165.572H138.959C139.138 165.572 139.284 165.426 139.284 165.247V162.886C139.284 162.706 139.138 162.56 138.959 162.56Z" fill="white"/>
<g opacity="0.51">
<path d="M137.114 141.609H136.604C136.351 141.609 136.145 141.403 136.145 141.15V139.404C136.145 138.779 135.639 138.273 135.015 138.273H131.853C131.229 138.273 130.723 138.779 130.723 139.404V141.15C130.723 141.403 130.517 141.609 130.264 141.609H129.754C129.501 141.609 129.295 141.403 129.295 141.15V139.404C129.295 137.99 130.44 136.844 131.853 136.844H135.015C136.428 136.844 137.573 137.99 137.573 139.404V141.15C137.573 141.403 137.368 141.609 137.114 141.609Z" fill="white"/>
<path d="M137.747 142.021H129.121C128.592 142.021 128.164 142.449 128.164 142.978V149.603C128.164 150.131 128.592 150.56 129.121 150.56H137.747C138.275 150.56 138.703 150.131 138.703 149.603V142.978C138.703 142.449 138.275 142.021 137.747 142.021ZM134.668 148.423C134.721 148.646 134.552 148.861 134.323 148.861H132.545C132.315 148.861 132.146 148.647 132.2 148.423L132.615 146.694C132.125 146.401 131.804 145.853 131.837 145.233C131.879 144.43 132.53 143.773 133.332 143.723C134.261 143.665 135.033 144.402 135.033 145.32C135.033 145.904 134.72 146.415 134.253 146.694L134.668 148.423Z" fill="white"/>
</g>
<path d="M162.222 64.2728C162.188 64.2728 162.154 64.2649 162.122 64.2472C162.023 64.1922 161.988 64.067 162.042 63.9675C162.175 63.7293 162.303 63.4899 162.428 63.2481C162.479 63.1473 162.603 63.1082 162.705 63.1595C162.805 63.2114 162.845 63.3354 162.793 63.4368C162.667 63.6817 162.537 63.9253 162.403 64.1666C162.365 64.2344 162.295 64.2722 162.222 64.2722L162.222 64.2728Z" fill="#7F90DA"/>
<path d="M138.188 78.4292C138.067 78.4292 137.946 78.4286 137.824 78.4267C137.711 78.4249 137.621 78.3321 137.622 78.2185C137.624 78.1061 137.715 78.0157 137.827 78.0157H137.83C138.362 78.023 138.898 78.0139 139.429 77.9901C139.535 77.9827 139.639 78.0725 139.644 78.1861C139.649 78.2997 139.561 78.3956 139.448 78.4005C139.03 78.4194 138.607 78.4292 138.189 78.4292H138.188ZM135.215 78.2686C135.208 78.2686 135.2 78.2686 135.193 78.2673C134.656 78.2093 134.115 78.1348 133.585 78.0456C133.474 78.0267 133.398 77.9204 133.417 77.8087C133.436 77.6969 133.542 77.6206 133.654 77.6401C134.176 77.7281 134.709 77.8014 135.238 77.8588C135.351 77.871 135.433 77.9724 135.42 78.0853C135.409 78.191 135.32 78.2686 135.217 78.2686H135.215ZM142.044 78.1586C141.943 78.1586 141.855 78.0841 141.841 77.9815C141.825 77.8691 141.903 77.7653 142.015 77.7494C142.541 77.6755 143.071 77.5846 143.591 77.4795C143.702 77.4575 143.811 77.5296 143.834 77.6407C143.856 77.7519 143.784 77.8606 143.673 77.8832C143.145 77.9895 142.606 78.0817 142.072 78.1568C142.063 78.158 142.053 78.1586 142.044 78.1586ZM131.061 77.4942C131.044 77.4942 131.026 77.4917 131.008 77.4868C130.488 77.3476 129.965 77.1913 129.453 77.0221C129.345 76.9867 129.287 76.87 129.323 76.7625C129.358 76.655 129.474 76.5964 129.582 76.6318C130.086 76.7986 130.601 76.9525 131.114 77.0899C131.224 77.1192 131.288 77.2316 131.259 77.3415C131.235 77.4337 131.152 77.4942 131.061 77.4942H131.061ZM146.17 77.2481C146.082 77.2481 146.001 77.1906 145.974 77.1021C145.941 76.9934 146.003 76.8786 146.111 76.8456C146.62 76.6911 147.13 76.5201 147.628 76.3369C147.734 76.2978 147.852 76.3521 147.891 76.459C147.93 76.5659 147.876 76.6837 147.769 76.7228C147.265 76.9091 146.747 77.0825 146.23 77.2395C146.21 77.2456 146.191 77.2481 146.17 77.2481ZM127.075 76.092C127.048 76.092 127.02 76.0865 126.993 76.0743C126.499 75.8562 126.006 75.6211 125.528 75.3756C125.427 75.3237 125.388 75.1997 125.439 75.0989C125.491 74.9982 125.614 74.9585 125.715 75.0098C126.186 75.2516 126.672 75.4831 127.158 75.6981C127.262 75.7439 127.309 75.8654 127.263 75.9692C127.229 76.0462 127.154 76.092 127.075 76.092ZM150.108 75.7127C150.032 75.7127 149.958 75.67 149.922 75.5961C149.873 75.4941 149.916 75.3707 150.018 75.3219C150.496 75.0916 150.974 74.8437 151.438 74.5847C151.538 74.5298 151.662 74.5652 151.718 74.6647C151.773 74.7637 151.737 74.8895 151.638 74.9444C151.167 75.207 150.682 75.4587 150.196 75.6926C150.168 75.7066 150.137 75.7127 150.107 75.7127H150.108ZM123.354 74.0925C123.316 74.0925 123.277 74.0821 123.243 74.0601C122.79 73.7688 122.339 73.4604 121.904 73.1434C121.812 73.0769 121.792 72.948 121.858 72.8564C121.926 72.7648 122.054 72.7446 122.145 72.8112C122.574 73.1233 123.017 73.4268 123.465 73.7138C123.56 73.7749 123.588 73.9026 123.527 73.9978C123.488 74.0589 123.421 74.0925 123.354 74.0925ZM153.762 73.5868C153.696 73.5868 153.632 73.5557 153.593 73.4983C153.528 73.4048 153.552 73.2766 153.645 73.2125C154.082 72.9108 154.516 72.592 154.935 72.2652C155.025 72.1956 155.154 72.2115 155.224 72.3013C155.293 72.391 155.277 72.5199 155.188 72.5901C154.762 72.9218 154.322 73.2448 153.879 73.5514C153.843 73.5758 153.802 73.588 153.762 73.588L153.762 73.5868ZM119.986 71.5428C119.937 71.5428 119.888 71.5257 119.849 71.4915C119.447 71.1354 119.049 70.7617 118.666 70.38C118.586 70.3 118.586 70.1699 118.665 70.0893C118.745 70.0086 118.875 70.0086 118.956 70.0886C119.333 70.4642 119.726 70.8325 120.122 71.1837C120.207 71.2588 120.215 71.3889 120.14 71.4737C120.099 71.5195 120.043 71.5428 119.986 71.5428H119.986ZM157.049 70.9253C156.994 70.9253 156.939 70.9033 156.899 70.8606C156.821 70.7781 156.825 70.6481 156.908 70.5699C157.294 70.2047 157.675 69.8242 158.038 69.4388C158.116 69.3564 158.246 69.3527 158.329 69.4303C158.411 69.5085 158.415 69.6386 158.337 69.721C157.968 70.1125 157.582 70.4984 157.189 70.8691C157.15 70.9064 157.099 70.9253 157.049 70.9253ZM117.043 68.5069C116.984 68.5069 116.926 68.4819 116.885 68.433C116.541 68.0195 116.204 67.5896 115.883 67.1554C115.816 67.0638 115.835 66.9355 115.927 66.8677C116.019 66.8006 116.147 66.8201 116.214 66.9111C116.53 67.3392 116.862 67.7624 117.201 68.1704C117.274 68.2577 117.262 68.3872 117.175 68.4599C117.137 68.4916 117.09 68.5075 117.044 68.5075L117.043 68.5069ZM159.892 67.7985C159.848 67.7985 159.804 67.7844 159.767 67.7551C159.677 67.6855 159.661 67.556 159.731 67.4669C160.058 67.0461 160.376 66.6118 160.675 66.1758C160.74 66.0824 160.868 66.0585 160.961 66.1227C161.054 66.1874 161.078 66.315 161.014 66.4085C160.71 66.8513 160.387 67.2922 160.055 67.7191C160.014 67.771 159.953 67.7985 159.892 67.7985ZM114.596 65.06C114.526 65.06 114.458 65.0246 114.419 64.9605C114.141 64.4963 113.874 64.02 113.625 63.5436C113.572 63.4429 113.611 63.3189 113.712 63.2664C113.812 63.2138 113.937 63.2529 113.989 63.3537C114.234 63.8227 114.497 64.2917 114.771 64.7492C114.83 64.8463 114.798 64.9727 114.701 65.0313C114.668 65.0515 114.632 65.0606 114.596 65.0606V65.06ZM112.707 61.2773C112.626 61.2773 112.549 61.229 112.516 61.149C112.313 60.6482 112.123 60.1358 111.951 59.6265C111.915 59.519 111.972 59.4024 112.079 59.3657C112.186 59.3291 112.303 59.3871 112.34 59.4946C112.51 59.996 112.697 60.5004 112.898 60.9939C112.941 61.0989 112.89 61.2192 112.785 61.262C112.76 61.2724 112.734 61.2773 112.707 61.2773H112.707Z" fill="#7F90DA"/>
<path d="M111.42 57.238C111.327 57.238 111.243 57.1739 111.221 57.0793C111.158 56.8099 111.099 56.5406 111.044 56.2701C111.021 56.1589 111.093 56.0502 111.204 56.0276C111.315 56.005 111.424 56.0765 111.446 56.1882C111.501 56.4545 111.559 56.7202 111.621 56.9852C111.647 57.0957 111.578 57.2063 111.468 57.2325C111.452 57.2362 111.436 57.238 111.421 57.238H111.42Z" fill="#7F90DA"/>
<path d="M114.904 36.2717C114.866 36.2717 114.829 36.2613 114.794 36.2399C114.699 36.1794 114.67 36.0524 114.73 35.9565C114.877 35.7238 115.028 35.4924 115.181 35.2628C115.245 35.1687 115.372 35.1431 115.466 35.2066C115.561 35.2701 115.585 35.3977 115.523 35.4918C115.371 35.7183 115.222 35.9461 115.078 36.1758C115.039 36.2381 114.972 36.2717 114.904 36.2717Z" fill="#7F90DA"/>
<path d="M164.559 43.1592C164.47 43.1592 164.389 43.1012 164.362 43.0114C164.205 42.4758 164.03 41.9378 163.84 41.4125C163.801 41.3057 163.856 41.1878 163.963 41.1493C164.069 41.1102 164.188 41.1658 164.226 41.2727C164.419 41.8058 164.597 42.3518 164.757 42.896C164.789 43.0053 164.727 43.1195 164.618 43.1512C164.598 43.1567 164.58 43.1592 164.56 43.1592H164.559ZM162.967 39.0094C162.89 39.0094 162.817 38.9666 162.782 38.8927C162.539 38.3883 162.279 37.8863 162.007 37.3995C161.951 37.3006 161.987 37.1754 162.086 37.1198C162.185 37.0649 162.311 37.0997 162.366 37.1992C162.641 37.6927 162.906 38.2026 163.152 38.715C163.202 38.8176 163.158 38.9404 163.056 38.9892C163.028 39.0033 162.997 39.0094 162.967 39.0094ZM160.723 35.1723C160.659 35.1723 160.595 35.1417 160.555 35.0843C160.235 34.6275 159.897 34.1738 159.549 33.7365C159.478 33.6473 159.493 33.5185 159.582 33.4476C159.671 33.3768 159.8 33.3914 159.871 33.4806C160.224 33.9252 160.568 34.3851 160.892 34.8492C160.957 34.942 160.934 35.0703 160.841 35.1356C160.805 35.1607 160.764 35.1729 160.723 35.1729V35.1723ZM117 33.378C116.954 33.378 116.908 33.3627 116.869 33.3304C116.782 33.2577 116.77 33.1282 116.842 33.0409C117.203 32.6067 117.583 32.1755 117.972 31.7608C118.049 31.6778 118.179 31.6741 118.262 31.7517C118.345 31.8298 118.349 31.9599 118.272 32.0424C117.888 32.4509 117.514 32.8754 117.158 33.3035C117.118 33.3523 117.06 33.378 117 33.378ZM157.892 31.7468C157.839 31.7468 157.785 31.726 157.745 31.6845C157.358 31.2851 156.952 30.8912 156.538 30.5144C156.454 30.438 156.448 30.3079 156.525 30.2236C156.601 30.1394 156.731 30.1333 156.815 30.2102C157.235 30.5931 157.647 30.9932 158.039 31.3981C158.119 31.4793 158.116 31.61 158.035 31.6888C157.995 31.7272 157.943 31.7468 157.892 31.7468ZM120.102 30.1962C120.045 30.1962 119.988 30.1724 119.948 30.1259C119.874 30.0404 119.882 29.9104 119.968 29.8358C120.395 29.4621 120.839 29.0975 121.287 28.7512C121.377 28.6822 121.506 28.6987 121.575 28.7885C121.644 28.8782 121.627 29.0077 121.538 29.0767C121.097 29.4175 120.659 29.7766 120.238 30.1449C120.199 30.1791 120.151 30.1956 120.102 30.1956V30.1962ZM154.553 28.8172C154.511 28.8172 154.468 28.8037 154.431 28.7769C153.983 28.444 153.519 28.121 153.052 27.8162C152.956 27.7545 152.93 27.6269 152.992 27.5316C153.053 27.4363 153.18 27.4095 153.276 27.4718C153.75 27.7808 154.221 28.1087 154.676 28.4471C154.767 28.5149 154.786 28.6437 154.718 28.7347C154.678 28.7891 154.616 28.8178 154.553 28.8178L154.553 28.8172ZM123.673 27.5487C123.604 27.5487 123.537 27.5145 123.498 27.4516C123.438 27.3551 123.467 27.2287 123.564 27.1682C124.044 26.869 124.541 26.5801 125.04 26.3102C125.14 26.2558 125.265 26.2937 125.318 26.3933C125.372 26.4934 125.335 26.618 125.235 26.6717C124.744 26.9374 124.254 27.222 123.781 27.5164C123.747 27.5377 123.709 27.5475 123.672 27.5475L123.673 27.5487ZM150.786 26.4659C150.754 26.4659 150.722 26.4586 150.692 26.4433C150.196 26.1874 149.686 25.9444 149.175 25.719C149.071 25.6732 149.024 25.5523 149.07 25.4479C149.115 25.344 149.236 25.2964 149.34 25.3422C149.859 25.57 150.377 25.8173 150.88 26.0769C150.981 26.1288 151.021 26.2528 150.969 26.3536C150.932 26.4244 150.86 26.4647 150.786 26.4647V26.4659ZM127.623 25.5126C127.542 25.5126 127.466 25.465 127.433 25.3862C127.39 25.2811 127.439 25.1608 127.544 25.1175C128.066 24.9007 128.603 24.6961 129.14 24.511C129.248 24.4744 129.365 24.5312 129.401 24.6381C129.438 24.7455 129.381 24.8628 129.274 24.8994C128.745 25.082 128.217 25.283 127.702 25.4967C127.676 25.5071 127.65 25.5126 127.623 25.5126H127.623ZM146.686 24.7559C146.666 24.7559 146.644 24.7529 146.623 24.7462C146.093 24.5739 145.549 24.4164 145.009 24.2771C144.899 24.249 144.832 24.1367 144.861 24.0267C144.889 23.9168 145.003 23.8508 145.111 23.8789C145.66 24.0206 146.212 24.1806 146.75 24.3553C146.858 24.3901 146.917 24.5061 146.882 24.6142C146.854 24.701 146.773 24.7565 146.686 24.7565V24.7559ZM131.85 24.1452C131.756 24.1452 131.672 24.0811 131.65 23.987C131.624 23.8765 131.693 23.766 131.803 23.7397C132.355 23.6096 132.919 23.4948 133.476 23.3995C133.59 23.3812 133.694 23.4557 133.713 23.5675C133.733 23.6792 133.657 23.7855 133.545 23.805C132.996 23.8991 132.442 24.0121 131.898 24.1403C131.882 24.144 131.866 24.1458 131.85 24.1458L131.85 24.1452ZM142.365 23.7305C142.355 23.7305 142.344 23.7299 142.334 23.7281C141.782 23.6432 141.221 23.5748 140.665 23.5241C140.552 23.5137 140.468 23.4136 140.479 23.3006C140.489 23.1876 140.587 23.1039 140.702 23.1143C141.266 23.1656 141.836 23.2352 142.396 23.3214C142.508 23.3385 142.585 23.4435 142.568 23.5559C142.552 23.6579 142.465 23.7305 142.365 23.7305ZM136.242 23.4783C136.135 23.4783 136.045 23.3953 136.037 23.2872C136.029 23.1736 136.115 23.0752 136.228 23.0679C136.792 23.0282 137.365 23.0056 137.933 23.0007H137.935C138.047 23.0007 138.139 23.0917 138.14 23.2047C138.141 23.3183 138.05 23.4111 137.936 23.4124C137.377 23.4172 136.812 23.4392 136.257 23.4783C136.252 23.4783 136.247 23.4783 136.242 23.4783H136.242Z" fill="#7F90DA"/>
<path d="M165.341 46.6598C165.241 46.6598 165.154 46.5871 165.138 46.4857C165.097 46.217 165.051 45.9495 165 45.6814C164.979 45.5697 165.053 45.4622 165.164 45.4414C165.275 45.4219 165.383 45.4945 165.404 45.6057C165.455 45.8775 165.501 46.1492 165.544 46.4216C165.562 46.534 165.485 46.639 165.372 46.6567C165.361 46.6586 165.351 46.6592 165.341 46.6592V46.6598Z" fill="#7F90DA"/>
<path d="M159.288 50.1C159.299 49.9595 159.22 49.8276 159.091 49.7714L155.408 48.1701C155.123 46.3154 154.541 44.4924 153.654 42.7769L155.686 39.3142C155.757 39.1926 155.744 39.0394 155.653 38.9325L152.522 35.2694C152.43 35.1625 152.281 35.1253 152.15 35.1766L148.417 36.6496C146.861 35.507 145.152 34.6489 143.365 34.0804L142.355 30.1913C142.319 30.0551 142.202 29.9562 142.061 29.9452L137.259 29.5708C137.119 29.5598 136.987 29.6392 136.931 29.7687L135.33 33.4544C133.477 33.739 131.655 34.3216 129.941 35.2096L126.481 33.1753C126.359 33.1038 126.206 33.1173 126.1 33.2089L122.439 36.3424C122.332 36.434 122.295 36.5837 122.347 36.7144L123.819 40.4501C122.677 42.0074 121.82 43.7174 121.252 45.5062L117.365 46.5169C117.229 46.5524 117.13 46.6702 117.119 46.8107L116.745 51.6164C116.734 51.7569 116.813 51.8888 116.942 51.945L120.625 53.5463C120.91 55.401 121.492 57.224 122.379 58.9395L120.346 62.4022C120.275 62.5238 120.289 62.677 120.38 62.7839L123.511 66.447C123.603 66.5539 123.752 66.5911 123.883 66.5392L127.616 65.0662C129.172 66.2088 130.882 67.0669 132.668 67.6354L133.678 71.5245C133.714 71.6607 133.832 71.7596 133.972 71.7706L138.774 72.145C138.915 72.1559 139.046 72.0765 139.103 71.9471L140.703 68.2614C142.556 67.9768 144.378 67.3942 146.092 66.5062L149.552 68.5405C149.674 68.612 149.827 68.5985 149.934 68.5069L153.594 65.3734C153.701 65.2817 153.738 65.1327 153.687 65.0014L152.215 61.2657C153.357 59.7084 154.213 57.9978 154.782 56.2096L158.668 55.1989C158.805 55.1634 158.903 55.0456 158.914 54.9051L159.288 50.0994V50.1Z" fill="#7F90DA"/>
<path opacity="0.7" d="M138.007 55.4481C137.067 55.4481 136.151 55.1587 135.368 54.6041C133.304 53.1427 132.814 50.2736 134.274 48.2081C134.981 47.2078 136.036 46.5427 137.243 46.3363C138.45 46.1299 139.666 46.4059 140.665 47.1137C141.664 47.8221 142.329 48.8768 142.535 50.0848C142.742 51.2928 142.466 52.5094 141.758 53.5097C141.051 54.5101 139.996 55.1751 138.789 55.3816C138.528 55.4261 138.266 55.4481 138.006 55.4481H138.007ZM138.025 46.8859C137.8 46.8859 137.574 46.9055 137.347 46.9439C136.302 47.1229 135.389 47.6982 134.777 48.5642C133.513 50.3517 133.938 52.8355 135.724 54.1003C136.589 54.7134 137.641 54.9516 138.686 54.7733C139.731 54.5944 140.643 54.0191 141.256 53.1531C141.869 52.2871 142.107 51.2342 141.929 50.1887C141.75 49.1431 141.174 48.2295 140.309 47.6169C139.631 47.1369 138.839 46.8859 138.025 46.8859Z" fill="white"/>
<path opacity="0.7" d="M137.933 62.7991C137.619 62.7991 137.304 62.7869 136.987 62.7625C133.81 62.5152 130.919 61.0439 128.848 58.62C126.983 56.4379 125.983 53.719 125.983 50.8786C125.983 50.5641 125.995 50.2484 126.02 49.932C126.267 46.7526 127.737 43.8597 130.159 41.7869C132.581 39.7141 135.664 38.7089 138.841 38.9562C142.018 39.2036 144.909 40.6748 146.981 43.0987C147.533 43.7455 148.017 44.4508 148.419 45.1935L147.877 45.4866C147.497 44.7818 147.037 44.1131 146.512 43.4993C144.548 41.2012 141.807 39.8057 138.794 39.5712C135.781 39.3386 132.856 40.29 130.56 42.2553C128.263 44.2212 126.87 46.9645 126.635 49.9796C126.611 50.2801 126.6 50.5794 126.6 50.8774C126.6 53.5712 127.548 56.1497 129.317 58.2194C131.282 60.5175 134.023 61.9124 137.036 62.1475C140.051 62.3826 142.973 61.4293 145.27 59.4634C146.829 58.129 147.995 56.4007 148.642 54.4647L149.227 54.6608C148.544 56.7024 147.314 58.5254 145.67 59.9324C143.49 61.7988 140.773 62.7998 137.934 62.7998L137.933 62.7991Z" fill="white"/>
<path d="M185.396 71.0216C185.361 71.0216 185.325 71.0125 185.292 70.9929C185.194 70.9349 185.162 70.8091 185.22 70.7114C185.358 70.4781 185.49 70.2399 185.612 70.0029C185.664 69.9022 185.788 69.8631 185.889 69.9144C185.99 69.9663 186.03 70.0903 185.978 70.1917C185.852 70.4353 185.716 70.6808 185.574 70.9208C185.535 70.9856 185.467 71.0216 185.397 71.0216H185.396Z" fill="#7F90DA"/>
<path d="M172.136 77.9032C172.131 77.9032 172.125 77.9032 172.12 77.9032C171.562 77.8592 171.002 77.7823 170.456 77.6742C170.345 77.6522 170.272 77.5441 170.294 77.4324C170.316 77.3212 170.425 77.2485 170.535 77.2705C171.067 77.3756 171.611 77.4507 172.152 77.4934C172.265 77.5026 172.35 77.6015 172.341 77.7145C172.332 77.8226 172.242 77.9038 172.136 77.9038V77.9032ZM174.823 77.8599C174.72 77.8599 174.631 77.7823 174.619 77.6772C174.606 77.5643 174.688 77.4629 174.801 77.4501C175.341 77.3896 175.883 77.2968 176.409 77.174C176.518 77.1471 176.63 77.2168 176.655 77.3279C176.681 77.4385 176.612 77.549 176.501 77.5746C175.959 77.7011 175.402 77.7963 174.846 77.8592C174.838 77.8599 174.83 77.8605 174.822 77.8605L174.823 77.8599ZM167.92 76.9078C167.894 76.9078 167.868 76.9029 167.842 76.8925C167.326 76.6824 166.816 76.4393 166.326 76.1694C166.227 76.1144 166.191 75.9892 166.246 75.8903C166.301 75.7908 166.425 75.7547 166.525 75.8097C167 76.0717 167.496 76.308 167.997 76.512C168.102 76.5548 168.153 76.6751 168.11 76.7801C168.078 76.8601 168.001 76.9084 167.92 76.9084V76.9078ZM179.003 76.7233C178.925 76.7233 178.85 76.6781 178.816 76.6018C178.769 76.498 178.816 76.3764 178.919 76.33C179.415 76.1083 179.902 75.8549 180.367 75.577C180.464 75.5184 180.591 75.5507 180.649 75.6478C180.707 75.7456 180.676 75.8714 180.579 75.93C180.1 76.2164 179.597 76.4772 179.088 76.7056C179.06 76.7178 179.032 76.7233 179.004 76.7233H179.003ZM164.208 74.6768C164.162 74.6768 164.115 74.6609 164.077 74.6292C163.65 74.2725 163.238 73.8853 162.853 73.4786C162.775 73.3961 162.778 73.2661 162.86 73.1879C162.942 73.1097 163.073 73.1134 163.15 73.1952C163.525 73.5903 163.925 73.9659 164.34 74.3128C164.427 74.3855 164.439 74.515 164.366 74.6023C164.326 74.6512 164.267 74.6762 164.208 74.6762V74.6768ZM182.639 74.3666C182.583 74.3666 182.527 74.3434 182.486 74.2982C182.411 74.2133 182.418 74.0832 182.503 74.0081L182.624 73.8988C182.985 73.569 183.333 73.2166 183.657 72.8526C183.732 72.7671 183.862 72.7598 183.947 72.8355C184.031 72.9112 184.039 73.0407 183.964 73.1256C183.631 73.5006 183.273 73.8633 182.901 74.2029L182.777 74.3147C182.738 74.3495 182.689 74.3666 182.64 74.3666H182.639ZM161.343 71.4254C161.276 71.4254 161.209 71.3918 161.17 71.3307C160.869 70.8605 160.593 70.367 160.349 69.8638C160.299 69.7618 160.342 69.6384 160.444 69.5889C160.546 69.5395 160.669 69.5822 160.719 69.6842C160.955 70.1728 161.224 70.6522 161.516 71.109C161.577 71.2043 161.55 71.3319 161.454 71.393C161.42 71.415 161.381 71.4254 161.343 71.4254Z" fill="#7F90DA"/>
<path d="M159.596 67.4496C159.505 67.4496 159.422 67.3885 159.398 67.2963C159.327 67.0288 159.263 66.7558 159.208 66.4847C159.186 66.3735 159.257 66.2648 159.369 66.2422C159.48 66.2196 159.588 66.2911 159.611 66.4028C159.665 66.666 159.727 66.9317 159.795 67.1913C159.825 67.3012 159.759 67.4136 159.649 67.4429C159.632 67.4478 159.614 67.4496 159.597 67.4496H159.596Z" fill="#7F90DA"/>
<path d="M161.288 56.2914C161.251 56.2914 161.213 56.281 161.179 56.2596C161.083 56.1991 161.055 56.0721 161.115 55.9762C161.263 55.7417 161.419 55.509 161.58 55.2837C161.645 55.1915 161.774 55.1701 161.866 55.2361C161.959 55.302 161.979 55.4303 161.913 55.5225C161.757 55.7411 161.605 55.9677 161.462 56.1955C161.423 56.2578 161.356 56.2914 161.288 56.2914H161.288Z" fill="#7F90DA"/>
<path d="M186.246 58.2908C186.166 58.2908 186.09 58.2438 186.056 58.1656C185.848 57.6746 185.609 57.1903 185.344 56.7262C185.288 56.6278 185.322 56.502 185.421 56.4458C185.519 56.3896 185.645 56.4238 185.701 56.5228C185.973 57.0004 186.22 57.4993 186.435 58.005C186.479 58.1094 186.431 58.2303 186.326 58.2749C186.299 58.2859 186.273 58.2914 186.245 58.2914L186.246 58.2908ZM184.004 54.6632C183.946 54.6632 183.888 54.6387 183.848 54.5911C183.743 54.4677 183.636 54.3462 183.526 54.2253C183.275 53.9505 183.011 53.6824 182.739 53.4283C182.656 53.3507 182.652 53.2207 182.729 53.1376C182.807 53.0545 182.937 53.0503 183.02 53.1278C183.299 53.3892 183.571 53.6646 183.829 53.948C183.942 54.072 184.053 54.1972 184.16 54.3242C184.234 54.4109 184.223 54.5404 184.137 54.6143C184.099 54.6473 184.051 54.6632 184.004 54.6632ZM163.479 53.6085C163.425 53.6085 163.371 53.5871 163.331 53.5449C163.252 53.4625 163.256 53.3324 163.337 53.2542C163.42 53.1748 163.505 53.0961 163.59 53.0185C163.911 52.7254 164.249 52.4438 164.594 52.1812C164.685 52.1122 164.814 52.1299 164.882 52.2203C164.951 52.3107 164.933 52.4395 164.843 52.5079C164.507 52.7632 164.179 53.0368 163.867 53.3214C163.784 53.3971 163.702 53.4741 163.621 53.551C163.581 53.5889 163.53 53.6078 163.479 53.6078V53.6085ZM180.787 51.8649C180.75 51.8649 180.712 51.8545 180.678 51.8331C180.227 51.5479 179.754 51.2859 179.274 51.0551C179.171 51.0056 179.129 50.8834 179.177 50.7808C179.226 50.6782 179.348 50.6349 179.452 50.6844C179.946 50.9219 180.432 51.1912 180.897 51.485C180.992 51.5461 181.021 51.6725 180.961 51.769C180.922 51.8307 180.855 51.8649 180.787 51.8649H180.787ZM166.965 51.1546C166.89 51.1546 166.817 51.1131 166.781 51.0404C166.73 50.9384 166.772 50.815 166.874 50.765C167.365 50.5207 167.876 50.3027 168.394 50.1158C168.501 50.0779 168.619 50.1329 168.657 50.2398C168.695 50.3466 168.64 50.4645 168.533 50.503C168.03 50.6844 167.533 50.8963 167.056 51.1332C167.027 51.1479 166.996 51.1546 166.965 51.1546H166.965ZM176.883 50.1591C176.865 50.1591 176.847 50.1567 176.83 50.1524C176.315 50.0156 175.786 49.9069 175.257 49.83C175.145 49.8135 175.067 49.709 175.083 49.5973C175.1 49.4849 175.203 49.4043 175.316 49.4232C175.859 49.5026 176.404 49.6138 176.935 49.7548C177.045 49.7842 177.11 49.8965 177.081 50.0065C177.056 50.0987 176.973 50.1591 176.882 50.1591H176.883ZM171.025 49.8581C170.925 49.8581 170.838 49.786 170.822 49.6846C170.805 49.5722 170.881 49.4672 170.993 49.4495C171.534 49.364 172.087 49.3084 172.638 49.2852C172.751 49.2828 172.847 49.3683 172.851 49.4819C172.856 49.5955 172.768 49.6913 172.655 49.6956C172.12 49.7182 171.583 49.7719 171.057 49.855C171.046 49.8568 171.035 49.8574 171.025 49.8574V49.8581Z" fill="#7F90DA"/>
<path d="M187.197 61.6278C187.097 61.6278 187.01 61.5551 186.994 61.4537C186.953 61.1881 186.903 60.92 186.846 60.6573C186.823 60.5462 186.893 60.4369 187.004 60.4131C187.117 60.3892 187.224 60.4601 187.248 60.5706C187.306 60.8412 187.357 61.1172 187.4 61.3902C187.418 61.5026 187.341 61.6076 187.228 61.6253C187.217 61.6272 187.207 61.6278 187.197 61.6278Z" fill="#7F90DA"/>
<path d="M184.088 63.295C184.094 63.2229 184.054 63.1551 183.987 63.1264L182.095 62.3038C181.949 61.3511 181.65 60.4142 181.195 59.5336L182.239 57.7546C182.275 57.6923 182.269 57.6135 182.222 57.5585L180.614 55.6769C180.567 55.6219 180.49 55.603 180.423 55.6293L178.505 56.386C177.706 55.7991 176.828 55.3581 175.91 55.0662L175.391 53.0686C175.373 52.9983 175.312 52.9476 175.24 52.9421L172.773 52.7498C172.701 52.7443 172.634 52.7852 172.605 52.8511L171.783 54.7444C170.831 54.8903 169.895 55.1902 169.015 55.6458L167.237 54.6008C167.175 54.5642 167.096 54.5709 167.041 54.6179L165.161 56.2278C165.106 56.2748 165.087 56.3518 165.113 56.4189L165.869 58.3378C165.283 59.1378 164.842 60.016 164.551 60.9352L162.554 61.4543C162.484 61.4726 162.434 61.5331 162.428 61.6051L162.236 64.0736C162.23 64.1457 162.271 64.2135 162.337 64.2422L164.229 65.0648C164.375 66.0175 164.674 66.9544 165.13 67.835L164.086 69.614C164.049 69.6763 164.056 69.7551 164.103 69.8101L165.711 71.6917C165.758 71.7466 165.835 71.7656 165.902 71.7393L167.82 70.9826C168.619 71.5695 169.497 72.0105 170.415 72.3024L170.934 74.3C170.952 74.3703 171.013 74.421 171.085 74.4265L173.551 74.6188C173.624 74.6243 173.691 74.5834 173.72 74.5175L174.542 72.6242C175.494 72.4777 176.43 72.1784 177.31 71.7228L179.088 72.7678C179.15 72.8044 179.229 72.7977 179.284 72.7507L181.164 71.1414C181.219 71.0944 181.238 71.0174 181.212 70.9503L180.455 69.0314C181.042 68.2314 181.483 67.3526 181.774 66.434L183.77 65.9149C183.841 65.8966 183.891 65.8361 183.897 65.7641L184.089 63.2956L184.088 63.295Z" fill="#7F90DA"/>
<path opacity="0.7" d="M173.156 66.1921C172.642 66.1921 172.142 66.0339 171.714 65.731C170.586 64.9322 170.318 63.3645 171.116 62.2365C171.503 61.6899 172.079 61.3266 172.738 61.2136C173.398 61.1006 174.062 61.2514 174.608 61.638C175.154 62.0252 175.517 62.6011 175.63 63.2613C175.743 63.9215 175.592 64.5859 175.206 65.1325C174.819 65.6791 174.244 66.0425 173.584 66.1555C173.441 66.1799 173.298 66.1921 173.156 66.1921ZM173.164 61.795C172.571 61.795 171.987 62.0728 171.619 62.5926C171.018 63.4433 171.22 64.6256 172.07 65.2272C172.482 65.5191 172.983 65.6327 173.48 65.5472C173.977 65.4623 174.411 65.1881 174.703 64.7765C174.994 64.3642 175.108 63.8629 175.022 63.3657C174.937 62.868 174.663 62.4332 174.252 62.1419C173.921 61.9073 173.541 61.795 173.163 61.795H173.164Z" fill="white"/>
<path opacity="0.7" d="M173.119 69.9683C172.954 69.9683 172.788 69.9615 172.621 69.9487C170.949 69.8186 169.428 69.0443 168.338 67.7691C167.327 66.5874 166.833 65.1351 166.833 63.6889C166.833 61.9148 167.578 60.151 169.028 58.9101C171.658 56.6577 175.63 56.9674 177.88 59.6002C177.898 59.6209 177.915 59.6417 177.933 59.6625C178.177 59.9556 178.394 60.2701 178.579 60.5993C178.58 60.6005 178.581 60.6017 178.582 60.603C178.585 60.6078 178.587 60.6127 178.59 60.6176C178.595 60.6262 178.6 60.6347 178.604 60.6433C178.607 60.6482 178.61 60.653 178.612 60.6573C178.62 60.672 178.629 60.6872 178.637 60.7019L178.095 60.995C177.904 60.6427 177.675 60.308 177.412 60.0002C175.975 58.3195 173.76 57.6892 171.747 58.1845C170.917 58.3891 170.122 58.7849 169.428 59.3779C168.121 60.4973 167.45 62.0876 167.449 63.6877C167.449 64.9916 167.895 66.3015 168.806 67.3672C170.835 69.7411 174.417 70.0208 176.789 67.9895C177.569 67.322 178.153 66.4567 178.477 65.4881L179.062 65.6841C178.702 66.759 178.055 67.7178 177.19 68.458C176.042 69.44 174.613 69.967 173.119 69.967L173.119 69.9683Z" fill="white"/>
<path d="M133.111 92.0266C133.618 91.5521 134.302 91.3158 134.994 91.378C142.388 92.0437 156.185 88.479 165.203 79.2462C165.829 78.605 166.97 78.9677 167.688 79.5039C177.716 87.0047 194.34 88.5578 200.11 88.8753C201.303 88.9413 202.272 89.8677 202.395 91.058C207.643 141.78 174.642 160.16 167.798 163.405C167.05 163.76 166.169 163.708 165.466 163.27C131.354 142.006 132.813 114.354 132.341 93.8643C132.325 93.1699 132.605 92.5011 133.111 92.0266Z" fill="#FFAB48"/>
<path opacity="0.61" d="M166.875 159.721C166.723 159.721 166.571 159.678 166.438 159.593C153.359 151.227 144.836 141.225 140.38 129.016C136.399 118.111 136.205 107.008 136.033 97.2121L136.009 95.9058C136.005 95.6878 136.088 95.4826 136.24 95.3268C136.393 95.1705 136.6 95.0838 136.82 95.0838C144.919 95.0838 157.075 91.505 165.991 83.5101C166.265 83.2646 166.67 83.2353 166.978 83.4387C176.774 89.9434 190.748 91.8378 198.206 92.3881C198.603 92.4174 198.916 92.727 198.952 93.1246C200.685 112.916 196.572 129.651 186.725 142.867C179.372 152.736 170.651 157.879 167.244 159.632C167.128 159.691 167.002 159.721 166.876 159.721H166.875ZM167.091 159.336L167.167 159.484L167.091 159.336C170.478 157.594 179.146 152.482 186.459 142.668C196.255 129.52 200.347 112.861 198.62 93.1539C198.599 92.92 198.415 92.7374 198.182 92.7197C190.692 92.167 176.653 90.2628 166.794 83.7159C166.613 83.5956 166.374 83.6133 166.213 83.7581C157.232 91.8116 144.982 95.4166 136.827 95.4166C136.689 95.4166 136.567 95.4673 136.476 95.5601C136.387 95.6511 136.339 95.7721 136.341 95.8997L136.365 97.206C136.536 106.976 136.73 118.05 140.691 128.902C145.122 141.04 153.602 150.987 166.616 159.313C166.759 159.404 166.941 159.413 167.091 159.336V159.336Z" fill="white"/>
<path opacity="0.61" d="M178.799 111.174H177.257C176.491 111.174 175.869 110.553 175.869 109.786V104.509C175.869 102.62 174.34 101.089 172.452 101.089H162.893C161.006 101.089 159.476 102.62 159.476 104.509V109.786C159.476 110.552 158.855 111.174 158.089 111.174H156.546C155.78 111.174 155.159 110.553 155.159 109.786V104.509C155.159 100.235 158.621 96.7695 162.893 96.7695H172.451C176.723 96.7695 180.185 100.235 180.185 104.509V109.786C180.185 110.552 179.564 111.174 178.798 111.174H178.799Z" fill="white"/>
<path opacity="0.61" d="M180.711 112.419H154.635C153.037 112.419 151.742 113.716 151.742 115.315V135.342C151.742 136.941 153.037 138.237 154.635 138.237H180.711C182.309 138.237 183.605 136.941 183.605 135.342V115.315C183.605 113.716 182.309 112.419 180.711 112.419ZM171.404 131.776C171.566 132.451 171.055 133.099 170.362 133.099H164.985C164.291 133.099 163.781 132.451 163.942 131.776L165.197 126.549C163.716 125.663 162.747 124.007 162.847 122.133C162.975 119.705 164.941 117.718 167.365 117.568C170.174 117.393 172.507 119.621 172.507 122.395C172.507 124.161 171.561 125.705 170.149 126.549L171.404 131.776V131.776Z" fill="white"/>
<path d="M67.7182 105.872C67.7182 105.872 69.8303 105.984 70.0891 110.332C70.0891 110.332 65.1917 114.726 58.5763 115.771C58.0796 115.85 59.2708 112.379 59.4496 111.908C60.3016 109.671 62.9843 108.23 67.7182 105.872Z" fill="url(#paint3_linear_1_19241)"/>
<path d="M91.5035 100.76H87.0467C87.0467 100.76 73.3674 85.6414 64.3958 84.1165C64.3958 84.1165 58.1509 92.0942 64.7284 107C65.2575 108.199 66.7374 108.732 67.8414 108.026C68.1716 107.815 68.409 107.532 68.5524 107.178L68.0233 94.4503C68.0233 94.4503 79.6917 104.663 81.7196 106.633C83.7475 108.604 94.0568 107.403 91.5029 100.759L91.5035 100.76Z" fill="#7D97F4"/>
<path d="M48.4158 132.501C50.2833 130.863 53.259 129.025 57.5553 128.499L59.0083 129.388C59.0083 129.388 58.0819 130.756 56.3896 132.2C54.8341 133.104 52.4326 134.328 50.4413 134.594C48.5056 134.852 48.2199 133.682 48.4165 132.501H48.4158Z" fill="url(#paint4_linear_1_19241)"/>
<path d="M59.4501 111.908C60.6005 112.281 61.107 113.912 64.0266 112.834C66.8509 111.79 68.9508 110.444 70.031 109.668C70.0548 109.878 70.0756 110.098 70.0896 110.332C70.0896 110.332 64.9261 115.247 58.3108 116.293C57.814 116.372 57.4204 115.875 57.5998 115.405C57.9208 114.561 58.4999 113.281 59.4508 111.908L59.4501 111.908Z" fill="#91B3FA"/>
<path d="M47.0086 133.9C47.3766 133.481 47.8465 133 48.4153 132.501C48.2188 133.682 48.5038 134.852 50.4402 134.594C52.4315 134.328 54.8335 133.104 56.3885 132.2C54.4393 133.864 51.4727 135.63 47.7287 135.526C46.8969 135.503 46.4588 134.524 47.008 133.9H47.0086Z" fill="#91B3FA"/>
<path d="M91.3406 103.987L70.4699 104.213C70.4699 104.213 58.5513 114.081 56.3891 129.128C56.3891 129.128 56.0303 130.235 58.1845 130.424C58.1845 130.424 65.3906 125.714 70.0891 117.387C75.85 107.177 87.2639 111.773 87.2639 111.773C92.7472 112.984 97.1119 112.533 100.305 107.614L91.3399 103.986L91.3406 103.987Z" fill="#7D97F4"/>
<path d="M90.8476 87.1616C90.8476 87.1616 88.6006 98.4299 77.5925 102.888L73.6764 102.426L72.7524 103.9L81.9376 104.193C81.9376 104.193 89.7894 101.081 93.949 92.6013C94.0863 92.3209 96.3773 87.5879 90.847 87.1622L90.8476 87.1616Z" fill="url(#paint5_linear_1_19241)"/>
<path d="M89.6435 103.802C89.6435 103.802 92.1987 96.8524 92.7473 90.0991C92.7473 90.0991 90.8781 88.4917 89.71 87.798C89.3316 87.5732 89.1888 87.0981 89.3798 86.7017C90.2391 84.9209 95.4331 77.9294 95.8225 77.8317C97.9377 77.3035 106.611 73.1763 112.72 81.5388C115.342 85.1273 112.2 96.1745 100.306 107.616C96.4791 108.239 92.9005 107.136 89.6441 103.802H89.6435Z" fill="white"/>
<path d="M99.4881 91.6216C99.4881 91.6216 92.3894 100.033 83.3141 101.262C83.3141 101.262 80.9688 99.1224 79.2247 99.8864C77.4805 100.65 75.0889 104.023 75.0889 104.023H86.742C86.742 104.023 97.7604 103.634 103.266 96.9482C102.823 94.6086 101.497 93.2113 99.4881 91.6222V91.6216Z" fill="url(#paint6_linear_1_19241)"/>
<path d="M103.63 71.9327L105.183 77.1165C105.254 77.3541 105.166 77.6112 104.962 77.7516C104.214 78.264 102.26 79.2833 99.5786 78.2927C99.2723 78.1797 99.0617 77.8927 99.0355 77.5666L98.6675 73.0503L103.63 71.9321L103.63 71.9327Z" fill="url(#paint7_linear_1_19241)"/>
<path d="M94.5352 67.734C94.5352 67.734 95.2986 73.1077 97.3613 74.7603C99.424 76.4129 103.443 75.1683 104.801 71.1174L102.096 64.1907L94.5352 67.734Z" fill="url(#paint8_linear_1_19241)"/>
<path d="M102.401 68.6734C102.244 68.7241 102.08 68.6233 102.055 68.4603C101.981 67.9644 101.795 66.9823 101.419 66.3136C101.419 66.3136 101.616 65.6088 99.638 66.6739C97.6607 67.739 94.6906 69.3037 92.9421 68.3717C91.2376 67.4636 89.5106 62.8924 94.0162 63.7388C94.1877 63.7712 94.3451 63.6344 94.3323 63.4604C94.2768 62.7092 94.3512 60.9809 96.1003 60.4257C97.737 59.9066 98.6329 60.6462 99.0021 61.092C99.1107 61.2233 99.3121 61.2209 99.4159 61.0853C99.9059 60.4446 101.238 59.0815 103.198 59.9457C104.813 60.6578 105.063 61.6532 105.036 62.2731C105.028 62.474 105.232 62.6102 105.414 62.526C105.909 62.2982 106.704 62.1797 107.466 63.1348C108.519 64.4558 107.014 65.6009 106.563 65.9014C106.489 65.9508 106.443 66.0321 106.442 66.1212C106.438 66.8083 106.331 69.8038 104.83 71.4943C104.7 71.6409 104.46 71.5975 104.385 71.4173L103.229 68.6624C103.176 68.5348 103.034 68.4688 102.901 68.5116L102.399 68.6734H102.401Z" fill="url(#paint9_linear_1_19241)"/>
<path d="M102.376 69.2329C102.376 69.2329 103.082 66.3577 104.154 67.2908C105.225 68.224 103.874 70.2791 102.647 70.6711L102.376 69.2329Z" fill="url(#paint10_linear_1_19241)"/>
<path d="M75.6761 104.676L70.4442 87.214C70.2306 86.5019 69.5984 85.9963 68.8569 85.9456L61.793 85.4619C61.0747 85.413 60.5407 86.1147 60.7793 86.7945L66.6282 103.47C66.8167 104.007 67.2983 104.387 67.8646 104.444L74.8211 105.217L75.6767 104.676L75.6761 104.676Z" fill="url(#paint11_linear_1_19241)"/>
<path d="M66.0266 93.1324C66.4172 93.9215 67.0922 94.3838 67.5334 94.1652C67.9746 93.9465 68.0161 93.1294 67.6256 92.3404C67.235 91.5513 66.5606 91.089 66.1188 91.3076C65.6776 91.5263 65.6361 92.3434 66.0266 93.1324Z" fill="#91B3FA"/>
<path d="M74.8203 105.217C74.8319 105.217 74.8429 105.217 74.8545 105.215L89.6768 104.465C90.0429 104.447 90.3255 104.135 90.3066 103.768C90.2883 103.401 89.9746 103.113 89.6096 103.138L74.7874 103.888C74.4212 103.906 74.1393 104.219 74.1576 104.585C74.1753 104.941 74.4688 105.217 74.8203 105.217Z" fill="url(#paint12_linear_1_19241)"/>
<path d="M92.7471 90.2016C92.6904 90.2016 92.6446 90.1558 92.6446 90.099C92.6342 86.9678 93.8383 82.8235 93.8505 82.782C93.8664 82.7277 93.9231 82.6965 93.978 82.7124C94.0324 82.7283 94.0635 82.7857 94.0476 82.84C94.0354 82.881 92.8399 86.9972 92.8503 90.0984C92.8503 90.1552 92.8045 90.2016 92.7477 90.2016H92.7471Z" fill="white"/>
<path d="M99.4882 91.7248C99.4662 91.7248 99.4437 91.7174 99.4247 91.7028C99.3802 91.6674 99.3729 91.6032 99.4077 91.5586C99.44 91.5177 102.662 87.4186 103.764 84.6228C103.785 84.5702 103.844 84.5428 103.897 84.5648C103.95 84.5855 103.976 84.6454 103.955 84.6979C102.842 87.5224 99.6011 91.6448 99.5688 91.6857C99.5486 91.7113 99.5181 91.7248 99.4882 91.7248Z" fill="white"/>
<path d="M104.056 98.0267L103.47 97.1973C103.437 97.1509 103.448 97.0868 103.494 97.0538C103.54 97.0208 103.605 97.0318 103.638 97.0782L104.128 97.772C108.699 95.7664 111.53 90.2932 111.558 90.2382C111.583 90.1876 111.645 90.1674 111.696 90.1937C111.746 90.2193 111.766 90.2816 111.74 90.3323C111.711 90.3885 108.818 95.9869 104.132 97.9949L104.056 98.0279V98.0267Z" fill="white"/>
</g>
<defs>
<linearGradient id="paint0_linear_1_19241" x1="-0.000290465" y1="108" x2="262.135" y2="108" gradientUnits="userSpaceOnUse">
<stop stop-color="#7748FF"/>
<stop offset="1" stop-color="#48DEFF" stop-opacity="0.6"/>
</linearGradient>
<linearGradient id="paint1_linear_1_19241" x1="125.91" y1="184.546" x2="104.002" y2="118.87" gradientUnits="userSpaceOnUse">
<stop stop-color="#09005D"/>
<stop offset="1" stop-color="#1A0F91"/>
</linearGradient>
<linearGradient id="paint2_linear_1_19241" x1="75.0036" y1="180.621" x2="172.432" y2="204.302" gradientUnits="userSpaceOnUse">
<stop stop-color="#09005D"/>
<stop offset="1" stop-color="#1A0F91"/>
</linearGradient>
<linearGradient id="paint3_linear_1_19241" x1="65.5841" y1="110.005" x2="57.9224" y2="118.002" gradientUnits="userSpaceOnUse">
<stop stop-color="#09005D"/>
<stop offset="1" stop-color="#1A0F91"/>
</linearGradient>
<linearGradient id="paint4_linear_1_19241" x1="55.4279" y1="130.091" x2="40.9381" y2="140.718" gradientUnits="userSpaceOnUse">
<stop stop-color="#09005D"/>
<stop offset="1" stop-color="#1A0F91"/>
</linearGradient>
<linearGradient id="paint5_linear_1_19241" x1="78.8259" y1="90.7795" x2="88.6657" y2="102.473" gradientUnits="userSpaceOnUse">
<stop stop-color="#FEBBBA"/>
<stop offset="1" stop-color="#FF928E"/>
</linearGradient>
<linearGradient id="paint6_linear_1_19241" x1="90.2895" y1="101.425" x2="70.6183" y2="74.534" gradientUnits="userSpaceOnUse">
<stop stop-color="#FEBBBA"/>
<stop offset="1" stop-color="#FF928E"/>
</linearGradient>
<linearGradient id="paint7_linear_1_19241" x1="102.312" y1="79.1294" x2="101.587" y2="72.6095" gradientUnits="userSpaceOnUse">
<stop stop-color="#FEBBBA"/>
<stop offset="1" stop-color="#FF928E"/>
</linearGradient>
<linearGradient id="paint8_linear_1_19241" x1="98.4513" y1="73.4418" x2="101.647" y2="62.9119" gradientUnits="userSpaceOnUse">
<stop stop-color="#FEBBBA"/>
<stop offset="1" stop-color="#FF928E"/>
</linearGradient>
<linearGradient id="paint9_linear_1_19241" x1="101.33" y1="54.1048" x2="98.3596" y2="71.0361" gradientUnits="userSpaceOnUse">
<stop stop-color="#09005D"/>
<stop offset="1" stop-color="#1A0F91"/>
</linearGradient>
<linearGradient id="paint10_linear_1_19241" x1="101.756" y1="74.4447" x2="104.951" y2="63.9149" gradientUnits="userSpaceOnUse">
<stop stop-color="#FEBBBA"/>
<stop offset="1" stop-color="#FF928E"/>
</linearGradient>
<linearGradient id="paint11_linear_1_19241" x1="75.6761" y1="95.3384" x2="60.7214" y2="95.3384" gradientUnits="userSpaceOnUse">
<stop stop-color="#09005D"/>
<stop offset="1" stop-color="#1A0F91"/>
</linearGradient>
<linearGradient id="paint12_linear_1_19241" x1="73.861" y1="101.88" x2="85.8199" y2="105.155" gradientUnits="userSpaceOnUse">
<stop stop-color="#09005D"/>
<stop offset="1" stop-color="#1A0F91"/>
</linearGradient>
<clipPath id="clip0_1_19241">
<rect width="169.8" height="171" fill="white" transform="translate(46 23)"/>
</clipPath>
</defs>
</svg>
