<svg width="235" height="193" viewBox="0 0 235 193" fill="none" xmlns="http://www.w3.org/2000/svg">
<path opacity="0.4" d="M189.575 53.908C189.166 53.739 188.896 53.3412 188.896 52.8963C188.896 23.6821 165.292 0 136.177 0C115.766 0 98.065 11.638 89.3041 28.6607C88.3838 30.449 86.4836 31.509 84.4841 31.3578C82.5162 31.209 80.5286 31.1334 78.5227 31.1334C34.985 31.1334 -0.277046 66.6855 0.0016406 110.435C0.278427 153.947 35.4518 188.867 78.8185 188.707C85.2878 188.683 91.5728 187.874 97.5836 186.37C110.652 183.1 124.417 183.728 137.034 188.456C144.776 191.357 153.149 192.959 161.889 192.999C201.542 193.178 233.999 160.958 234.222 121.172C234.393 90.8106 215.895 64.7631 189.576 53.9087L189.575 53.908Z" fill="url(#paint0_linear_1_18675)"/>
<path d="M117.965 166.098C128.628 166.098 137.271 157.455 137.271 146.792C137.271 136.13 128.628 127.486 117.965 127.486C107.303 127.486 98.6594 136.13 98.6594 146.792C98.6594 157.455 107.303 166.098 117.965 166.098Z" fill="url(#paint1_linear_1_18675)"/>
<path d="M125.702 38.1893C129.975 33.9163 129.975 26.9885 125.702 22.7155C121.429 18.4425 114.501 18.4425 110.228 22.7155C105.955 26.9885 105.955 33.9163 110.228 38.1893C114.501 42.4623 121.429 42.4623 125.702 38.1893Z" fill="url(#paint2_linear_1_18675)"/>
<path d="M176.739 147.389L168.591 131.095C165.247 124.407 163.678 116.97 164.036 109.501L165.5 78.8932C166.799 51.7484 145.141 29.0295 117.965 29.0295C90.7892 29.0295 69.131 51.7484 70.4302 78.8932L71.8947 109.501C72.2521 116.97 70.6833 124.407 67.339 131.095L59.1916 147.389C58.2104 149.352 59.6374 151.661 61.832 151.661H174.098C176.293 151.661 177.72 149.352 176.739 147.389Z" fill="url(#paint3_linear_1_18675)"/>
<path d="M163.084 56.2939C168.86 50.5177 168.86 41.1527 163.084 35.3765C157.308 29.6003 147.943 29.6003 142.167 35.3765C136.391 41.1527 136.391 50.5177 142.167 56.2939C147.943 62.0701 157.308 62.0701 163.084 56.2939Z" fill="#113380"/>
<path d="M146.592 43.6385V40.1613C149.512 39.3034 150.573 38.1569 151.464 36.7209H155.179V50.7773H158.656V54.1375H147.371V50.7779H151.294V41.6474C149.282 42.8684 147.737 43.339 146.592 43.6385Z" fill="white"/>
<path d="M185.616 90.5732H190.822V80.6147H187.641L185.616 90.5732Z" fill="#EEBB8F"/>
<path d="M181.771 75.5731C180.891 79.6608 181.542 83.7828 184.01 84.6769C186.324 85.5157 190.342 83.2976 192.179 79.2564C194.115 75.0014 193.17 71.8218 189.742 70.6378C186.101 69.3799 182.735 71.0924 181.771 75.5731Z" fill="#F3C9AA"/>
<path d="M189.035 69.193C192.82 69.4893 194.914 72.9207 194.671 76.3146C194.444 79.4834 191.056 81.1756 191.056 81.1756C191.056 81.1756 189.939 77.9585 188.107 77.4459C185.552 76.7311 186.656 74.4469 185.463 74.2008C184.218 73.9439 181.513 72.9557 181.558 71.1452C183.31 71.2063 184.782 68.8604 189.035 69.193Z" fill="#03053E"/>
<path d="M190.734 79.051C191.04 78.3665 190.827 77.6043 190.256 77.3485C189.686 77.0927 188.975 77.4403 188.668 78.1248C188.361 78.8094 188.574 79.5716 189.145 79.8274C189.715 80.0831 190.427 79.7356 190.734 79.051Z" fill="#F3C9AA"/>
<path d="M189.035 77.3835C189.035 77.3835 188.75 81.8019 187.906 83.4807C187.171 84.9427 183.964 86.4511 182.216 82.9834C182.216 82.9834 183.985 83.3529 183.784 82.6038C183.548 81.7224 181.728 81.7129 181.728 81.7129C181.728 81.7129 181.372 81.6957 181.309 81.3689C181.215 80.883 181.451 80.0951 181.451 80.0951C181.451 80.0951 183.86 80.9536 184.897 80.9536C186.074 80.9536 187.142 80.1237 188.137 77.3842H189.035V77.3835Z" fill="#03053E"/>
<path d="M173.83 174.794L178.614 148.028L181.864 134.839L185.137 121.624L186.249 117.132L195.634 120.125L193.937 124.432L188.992 136.977C187.348 141.166 185.677 145.352 184.051 149.556L176.012 175.328L175.677 176.402L173.63 175.903L173.829 174.795L173.83 174.794Z" fill="#EEBB8F"/>
<path d="M191.119 117.241L191.493 121.854L193.611 147.989L213.373 157.252L214.393 157.73L213.647 159.677L212.569 159.35L189.908 152.501C189.072 152.246 188.392 151.556 188.197 150.64L188.117 150.264L182.353 123.192L181.389 118.666L191.119 117.242L191.119 117.241Z" fill="#EEBB8F"/>
<path d="M197.01 114.388L179.466 117.795L173.982 170.231L179.866 171.038L197.01 114.388Z" fill="url(#paint4_linear_1_18675)"/>
<path d="M197.869 117.887L180.169 115.414C180.169 115.414 182.882 148.242 188.177 152.428C191.123 154.757 207.493 158.678 207.493 158.678L209.255 153.651C209.255 153.651 196.931 148.663 195.901 147.12C194.779 145.443 197.869 117.887 197.869 117.887Z" fill="url(#paint5_linear_1_18675)"/>
<path d="M187.23 91.0421L172.023 104.391L174.213 104.32L162.156 96.0245L161.061 95.2709L159.537 97.3478L160.584 98.1663L172.113 107.181C172.748 107.678 173.626 107.653 174.229 107.17L174.303 107.11L190.097 94.4595L191.838 93.0649L188.907 89.5706L187.231 91.0421H187.23Z" fill="#FFEEE0"/>
<path d="M192.31 95.7177C189.591 99.6528 179.425 107.382 172.962 107.658C169.125 107.822 162.69 100.472 162.69 100.472L164.676 97.2516C164.676 97.2516 169.608 102.604 173.509 100.372C177.41 98.1406 185.372 89.8883 188.359 90.0542C190.991 90.2005 193.53 93.9499 192.31 95.7177Z" fill="#F4EFEF"/>
<path d="M190.467 88.4695C190.467 88.4695 187.735 90.8637 185.005 89.2676C185.005 89.2676 184.071 99.2439 182.848 103.314C181.627 107.385 178.269 117.866 178.269 117.866L197.887 118.08C198.418 108.972 194.977 98.6257 190.467 88.4695Z" fill="#DAC5AE"/>
<path d="M191.412 87.6506C191.412 87.6506 200.901 101.842 198.969 116.98C198.969 116.98 199.784 119.953 189.017 119.548C178.25 119.142 177.634 117.655 177.634 117.655C181.043 109.532 183.69 100.337 185.006 89.2671C185.006 89.2671 189.031 89.4153 191.413 87.6506H191.412Z" fill="white"/>
<path d="M188.322 94.6831C189.672 97.017 190.983 99.4525 192.186 101.884C192.787 103.104 193.363 104.332 193.889 105.565C194.413 106.795 194.895 108.041 195.238 109.244C195.323 109.546 195.393 109.833 195.455 110.128L195.638 111.101C195.747 111.761 195.852 112.426 195.943 113.1C196.126 114.446 196.28 115.808 196.416 117.176C196.683 119.909 196.893 122.672 197.052 125.415L197.129 126.742L199.71 126.678L199.709 125.348C199.706 122.543 199.653 119.761 199.541 116.957C199.48 115.556 199.403 114.152 199.293 112.739C199.239 112.033 199.167 111.321 199.09 110.607L198.95 109.524C198.889 109.135 198.815 108.743 198.731 108.372C198.389 106.886 197.93 105.513 197.438 104.162C196.943 102.814 196.406 101.498 195.847 100.197C194.72 97.5918 193.527 95.0698 192.226 92.5274L191.21 90.5408L187.204 92.7519L188.322 94.6825V94.6831Z" fill="#F3C9AA"/>
<path d="M193.003 90.1452C196.426 93.4863 198.395 101.073 199.852 107.375C201.308 113.678 200.124 123.248 200.124 123.248L196.2 123.421C196.2 123.421 195.976 113.681 194.432 109.461C192.888 105.24 186.091 96.0039 186.756 93.0876C187.342 90.5179 191.466 88.6444 193.003 90.1452Z" fill="#F4EFEF"/>
<path d="M155.504 92.9211C155.006 93.6867 155.647 95.4425 157.285 96.7996C158.796 98.0504 160.445 97.9855 160.997 97.246C162.23 95.5945 156.275 91.737 155.504 92.9211Z" fill="#FFEEE0"/>
<path d="M198.455 134.489C199.366 134.418 200.357 132.426 200.418 129.713C200.475 127.212 199.408 125.57 198.485 125.566C196.423 125.557 197.046 134.598 198.455 134.488V134.489Z" fill="#F3C9AA"/>
<path d="M196.432 130.684C196.051 130.559 195.869 129.474 196.175 128.123C196.457 126.878 197.115 126.169 197.511 126.258C198.396 126.458 197.023 130.878 196.433 130.684H196.432Z" fill="#F3C9AA"/>
<path d="M165.99 177.73C165.99 177.73 167.343 177.372 167.717 177.238C169.214 176.7 173.088 175.112 173.088 175.112C173.088 175.112 173.565 175.882 174.761 176.031C175.643 176.141 176.292 175.823 176.318 175.823C176.7 175.811 177.03 176.428 177.053 177.201C177.06 177.454 177.034 177.692 176.981 177.9L177.013 178.972L165.593 179.315L165.561 178.228C165.553 177.976 165.74 177.76 165.99 177.73V177.73Z" fill="#03053E"/>
<path d="M212.928 167.652C212.928 167.652 212.981 166.253 212.961 165.855C212.882 164.267 212.493 160.099 212.493 160.099C212.493 160.099 213.369 159.866 213.86 158.766C214.222 157.955 214.107 157.242 214.114 157.217C214.214 156.847 214.9 156.712 215.646 156.915C215.89 156.982 216.11 157.077 216.293 157.188L217.328 157.469L214.327 168.493L213.279 168.208C213.036 168.141 212.883 167.9 212.927 167.652L212.928 167.652Z" fill="#03053E"/>
<path d="M158.159 92.5172C158.49 92.2882 159.464 92.8002 160.355 93.8596C161.178 94.8364 161.345 95.789 161.034 96.0503C160.34 96.6354 157.648 92.8701 158.159 92.5165V92.5172Z" fill="#FFEEE0"/>
<path d="M55.8648 93.694L62.4796 113.827L60.542 112.598L75.8314 111.531L77.2202 111.434L77.4898 114.118L76.1099 114.3L60.9134 116.296C60.0758 116.406 59.2975 115.917 59.0107 115.159L58.9757 115.067L51.4611 95.2513L50.6324 93.067L55.1354 91.4746L55.8648 93.694Z" fill="#FFEEE0"/>
<path d="M85.5029 112.139C85.5391 113.096 83.5868 114.367 80.7723 114.759C78.1777 115.121 76.3405 114.21 76.2248 113.25C75.966 111.105 85.4463 110.661 85.5029 112.139Z" fill="#FFEEE0"/>
<path d="M81.3011 110.494C81.125 110.112 79.9733 110.056 78.6055 110.536C77.3438 110.979 76.6869 111.75 76.8274 112.151C77.1416 113.048 81.5739 111.085 81.3011 110.494Z" fill="#FFEEE0"/>
<path d="M69.8085 110.962L70.356 119.475C70.356 119.475 60.7734 118.911 57.6593 115.138C53.2905 109.844 47.6016 94.7909 52.3894 92.5048C57.707 89.9656 58.009 102.963 61.9504 108.826C63.6401 111.339 69.8085 110.962 69.8085 110.962V110.962Z" fill="#F4EFEF"/>
<path d="M57.8595 73.3649C53.6777 70.3678 48.6425 72.4103 47.9735 76.7384C47.1055 82.3548 48.2025 86.8781 46.8066 90.604C44.6432 96.3794 45.2429 102.054 45.2429 102.054C50.949 94.2758 56.8465 97.4961 60.1024 89.6813C61.1485 87.1707 61.8658 76.236 57.8595 73.3649Z" fill="#03053E"/>
<path d="M56.196 92.286H51.2034V82.7351H54.2545L56.196 92.286Z" fill="#EEBB8F"/>
<path d="M59.8835 77.9002C60.7274 81.8206 60.1035 85.7741 57.7366 86.6313C55.5166 87.4358 51.6636 85.3086 49.9008 81.4327C48.0452 77.352 48.9514 74.3028 52.2385 73.167C55.7303 71.9607 58.9582 73.6026 59.8829 77.9002H59.8835Z" fill="#F3C9AA"/>
<path d="M66.5044 173.378L63.1486 149.073L59.6091 124.796L58.9687 120.403L49.7212 122.397L50.9492 126.664L57.73 150.224L64.395 173.819L64.6882 174.859L66.6525 174.448L66.5044 173.378Z" fill="#EEBB8F"/>
<path d="M46.2145 120.402L46.0606 124.838L45.1646 150.635L33.8948 167.436L33.2926 168.334L34.8532 169.565L35.5864 168.771L49.9842 153.183C50.2443 152.903 50.4268 152.547 50.4942 152.142L50.5559 151.768L54.8757 125.717L55.6019 121.338L46.2145 120.401V120.402Z" fill="#EEBB8F"/>
<path d="M47.9115 119.584H61.0076L66.6571 165.156L59.0369 166.264L47.9115 119.584Z" fill="url(#paint6_linear_1_18675)"/>
<path d="M44.317 119.584H56.8993C56.8993 119.584 54.5941 148.712 52.7169 152.136C50.4663 156.24 41.5552 165.767 41.5552 165.767L35.5032 161.092C35.5032 161.092 41.877 152.067 43.4178 147.831C44.9587 143.594 44.3164 119.584 44.3164 119.584H44.317Z" fill="url(#paint7_linear_1_18675)"/>
<path d="M51.0813 91.4739C51.0813 91.4739 53.7732 93.8338 56.4656 92.2605C56.4656 92.2605 57.3865 102.094 58.5909 106.106C59.7953 110.118 62.9221 120.323 62.9221 120.323L43.767 120.661C43.2443 111.683 46.6362 101.485 51.0813 91.4739Z" fill="#76D2F3"/>
<path d="M53.0197 97.9476C51.7657 100.291 50.5543 102.734 49.4484 105.168C48.8964 106.39 48.3693 107.618 47.8911 108.85C47.4154 110.079 46.9811 111.322 46.6828 112.519C46.6097 112.819 46.5499 113.104 46.4978 113.397L46.3489 114.361C46.2631 115.016 46.1811 115.674 46.1137 116.341C45.9769 117.673 45.8707 119.021 45.7804 120.371C45.6075 123.073 45.4905 125.802 45.4237 128.509L45.3913 129.819L42.8469 129.84L42.8043 128.531C42.7147 125.767 42.6765 123.024 42.6956 120.258C42.7089 118.876 42.7388 117.49 42.8018 116.094C42.8323 115.397 42.8787 114.693 42.9315 113.987L43.0345 112.915C43.081 112.531 43.142 112.143 43.212 111.774C43.5007 110.298 43.9077 108.931 44.349 107.584C44.7922 106.24 45.2787 104.927 45.7868 103.626C46.8119 101.022 47.9044 98.499 49.1025 95.9521L50.0386 93.9617L54.0576 96.0087L53.0204 97.947L53.0197 97.9476Z" fill="#F3C9AA"/>
<path d="M50.4085 90.3288C50.4085 90.3288 41.0554 104.317 42.9593 119.238C42.9593 119.238 42.1555 122.169 52.769 121.769C63.3819 121.37 63.9892 119.904 63.9892 119.904C60.6296 111.897 58.0198 102.833 56.7231 91.9217C56.7231 91.9217 52.755 92.0674 50.4078 90.3281L50.4085 90.3288Z" fill="white"/>
<path d="M49.4005 122.397L41.2233 123.409C41.2233 123.409 41.5469 114.111 42.7596 108.787C44.2839 102.095 47.1271 92.1251 52.2571 93.4828C58.9603 95.257 49.2358 108.689 48.5338 112.372C47.9666 115.346 49.4005 122.397 49.4005 122.397Z" fill="#F4EFEF"/>
<path d="M42.6601 137.255C41.787 137.034 41.1568 134.934 41.5492 132.288C41.911 129.849 43.221 128.432 44.1189 128.582C46.124 128.917 44.0108 137.596 42.6601 137.254V137.255Z" fill="#F3C9AA"/>
<path d="M45.261 133.897C45.6527 133.84 46.0095 132.815 45.9383 131.452C45.8721 130.195 45.3513 129.397 44.9513 129.417C44.0585 129.463 44.655 133.986 45.261 133.897Z" fill="#F3C9AA"/>
<path d="M74.1743 175.726L72.6296 175.452L66.982 173.266V173.312C66.982 173.312 66.914 174.28 65.7407 174.461C64.8765 174.596 64.3163 174.365 64.0803 174.235C64.0244 174.183 63.9779 174.154 63.9525 174.154C63.5754 174.154 63.2695 174.771 63.2695 175.532C63.2695 175.782 63.3032 176.016 63.3605 176.218V177.275H74.6105V176.204C74.6105 175.956 74.421 175.749 74.1736 175.727L74.1743 175.726Z" fill="#03053E"/>
<path d="M39.6588 175.586L38.7017 174.343L35.9972 168.925L35.9666 168.958C35.9666 168.958 35.2646 169.628 34.2744 168.973C33.545 168.49 33.2856 167.943 33.1997 167.688C33.1927 167.612 33.1788 167.559 33.1597 167.542C32.8805 167.288 32.2395 167.538 31.727 168.101C31.5591 168.286 31.4262 168.481 31.3327 168.67L30.6211 169.451L38.9395 177.025L39.66 176.233C39.8273 176.049 39.8267 175.769 39.6588 175.586V175.586Z" fill="#03053E"/>
<path d="M53.3743 72.0981C52.2392 72.0981 51.4614 72.1999 50.4942 72.701C48.94 73.5061 46.8898 75.4304 46.4822 79.7909C46.1025 83.8563 47.7305 85.8461 44.2571 89.6813C40.35 92.6479 33.3867 92.1417 34.1911 98.7985C34.9956 105.455 43.8234 104.587 45.9213 101.259C48.0198 97.9304 47.7839 94.9639 48.9508 92.8653C50.1177 90.7668 52.1438 91.9973 53.1568 89.6819C54.3447 87.5039 52.2824 82.6181 51.911 81.7768C52.1597 80.9578 52.4802 80.0586 53.808 79.6967C56.6563 78.9196 59.0174 76.2233 59.0174 75.3553C59.0174 74.4873 56.4127 72.0994 53.3736 72.0994L53.3743 72.0981Z" fill="#03053E"/>
<path d="M53.2785 80.337C53.573 80.9933 53.3676 81.7246 52.8207 81.9694C52.2738 82.2149 51.5914 81.881 51.2976 81.2248C51.0032 80.5685 51.2086 79.8378 51.7555 79.5924C52.3024 79.3469 52.9847 79.6807 53.2785 80.337Z" fill="#F3C9AA"/>
<defs>
<linearGradient id="paint0_linear_1_18675" x1="-0.000259535" y1="96.4996" x2="234.223" y2="96.4996" gradientUnits="userSpaceOnUse">
<stop stop-color="#7748FF"/>
<stop offset="1" stop-color="#48DEFF" stop-opacity="0.6"/>
</linearGradient>
<linearGradient id="paint1_linear_1_18675" x1="98.6594" y1="146.792" x2="137.271" y2="146.792" gradientUnits="userSpaceOnUse">
<stop stop-color="#FFAB48"/>
<stop offset="1" stop-color="#FFAB48"/>
</linearGradient>
<linearGradient id="paint2_linear_1_18675" x1="107.023" y1="30.4523" x2="128.907" y2="30.4523" gradientUnits="userSpaceOnUse">
<stop stop-color="#FFAB48"/>
<stop offset="1" stop-color="#FFAB48"/>
</linearGradient>
<linearGradient id="paint3_linear_1_18675" x1="58.8762" y1="90.3448" x2="177.054" y2="90.3448" gradientUnits="userSpaceOnUse">
<stop stop-color="#FFAB48"/>
<stop offset="1" stop-color="#FFC27A"/>
</linearGradient>
<linearGradient id="paint4_linear_1_18675" x1="168.327" y1="142.613" x2="188.282" y2="142.712" gradientUnits="userSpaceOnUse">
<stop stop-color="#435AC1"/>
<stop offset="1" stop-color="#0F24A3"/>
</linearGradient>
<linearGradient id="paint5_linear_1_18675" x1="183.486" y1="140.531" x2="202.05" y2="134.277" gradientUnits="userSpaceOnUse">
<stop stop-color="#435AC1"/>
<stop offset="1" stop-color="#0F24A3"/>
</linearGradient>
<linearGradient id="paint6_linear_1_18675" x1="73.4564" y1="140.937" x2="55.0198" y2="142.77" gradientUnits="userSpaceOnUse">
<stop stop-color="#435AC1"/>
<stop offset="1" stop-color="#0F24A3"/>
</linearGradient>
<linearGradient id="paint7_linear_1_18675" x1="55.0227" y1="143.953" x2="41.4077" y2="140.951" gradientUnits="userSpaceOnUse">
<stop stop-color="#435AC1"/>
<stop offset="1" stop-color="#0F24A3"/>
</linearGradient>
</defs>
</svg>
