<svg width="235" height="193" viewBox="0 0 235 193" fill="none" xmlns="http://www.w3.org/2000/svg">
<path opacity="0.4" d="M189.575 53.908C189.166 53.739 188.896 53.3412 188.896 52.8963C188.896 23.6821 165.292 0 136.177 0C115.766 0 98.065 11.638 89.3041 28.6607C88.3838 30.449 86.4836 31.509 84.4841 31.3578C82.5162 31.209 80.5286 31.1334 78.5227 31.1334C34.985 31.1334 -0.277046 66.6855 0.0016406 110.435C0.278427 153.947 35.4518 188.867 78.8185 188.707C85.2878 188.683 91.5728 187.874 97.5836 186.37C110.652 183.1 124.417 183.728 137.034 188.456C144.776 191.357 153.149 192.959 161.889 192.999C201.542 193.178 233.999 160.958 234.222 121.172C234.393 90.8106 215.895 64.7631 189.576 53.9087L189.575 53.908Z" fill="url(#paint0_linear_1_12512)"/>
<path d="M161.033 128.172L176.937 164.199L152.931 158.384L140.793 179.883L120.543 135.144L161.033 128.172Z" fill="#FFAB48"/>
<path d="M84.3995 128.172L68.4957 164.199L92.4918 158.384L104.64 179.883L124.88 135.144L84.3995 128.172Z" fill="#FFAB48"/>
<path d="M184.458 89.0139C184.458 95.3247 177.518 100.459 175.669 106.157C173.82 111.855 176.308 120.305 172.746 125.216C169.145 130.175 160.539 130.272 155.593 133.889C150.647 137.506 147.965 145.684 142.09 147.6C136.214 149.515 129.429 144.478 123.137 144.478C116.845 144.478 109.856 149.457 104.184 147.6C98.5115 145.742 95.5689 137.468 90.6806 133.889C85.7923 130.311 77.129 130.184 73.5281 125.216C69.9272 120.247 72.5117 112.059 70.6048 106.157C68.6979 100.255 61.835 95.3247 61.835 89.0139C61.835 82.7032 68.7753 77.569 70.6242 71.8709C72.473 66.1727 69.9853 57.7228 73.5475 52.8123C77.1096 47.9018 85.7536 47.7559 90.7 44.1387C95.6463 40.5214 98.3179 32.3437 104.194 30.4184C110.069 28.4931 116.855 33.5397 123.146 33.5397C129.438 33.5397 136.427 28.5709 142.099 30.4184C147.772 32.2659 150.714 40.5506 155.603 44.1289C160.491 47.7073 169.154 47.8337 172.755 52.8025C176.356 57.7714 173.772 65.9588 175.678 71.8612C177.585 77.7635 184.468 82.6935 184.468 89.0042L184.458 89.0139Z" fill="#13267D"/>
<path d="M123.146 134.88C97.9691 134.88 77.4868 114.305 77.4868 89.0134C77.4868 63.7218 97.9691 43.156 123.146 43.156C148.323 43.156 168.806 63.7315 168.806 89.0231C168.806 114.315 148.323 134.89 123.146 134.89V134.88ZM123.146 49.9627C101.705 49.9627 84.2626 67.4849 84.2626 89.0231C84.2626 110.561 101.705 128.083 123.146 128.083C144.587 128.083 162.03 110.561 162.03 89.0231C162.03 67.4849 144.587 49.9627 123.146 49.9627Z" fill="#FFAB48"/>
<path d="M109.656 89.4412H106.254V92.9332H103.878V89.4412H100.476V87.2452H103.878V83.7532H106.254V87.2452H109.656V89.4412ZM112.119 85.0852C112.179 83.8852 112.599 82.9612 113.379 82.3132C114.171 81.6532 115.209 81.3232 116.493 81.3232C117.369 81.3232 118.119 81.4792 118.743 81.7912C119.367 82.0912 119.835 82.5052 120.147 83.0332C120.471 83.5492 120.633 84.1372 120.633 84.7972C120.633 85.5532 120.435 86.1952 120.039 86.7232C119.655 87.2392 119.193 87.5872 118.653 87.7672V87.8392C119.349 88.0552 119.889 88.4392 120.273 88.9912C120.669 89.5432 120.867 90.2512 120.867 91.1152C120.867 91.8352 120.699 92.4772 120.363 93.0412C120.039 93.6052 119.553 94.0492 118.905 94.3732C118.269 94.6852 117.501 94.8412 116.601 94.8412C115.245 94.8412 114.141 94.4992 113.289 93.8152C112.437 93.1312 111.987 92.1232 111.939 90.7912H114.387C114.411 91.3792 114.609 91.8532 114.981 92.2132C115.365 92.5612 115.887 92.7352 116.547 92.7352C117.159 92.7352 117.627 92.5672 117.951 92.2312C118.287 91.8832 118.455 91.4392 118.455 90.8992C118.455 90.1792 118.227 89.6632 117.771 89.3512C117.315 89.0392 116.607 88.8832 115.647 88.8832H115.125V86.8132H115.647C117.351 86.8132 118.203 86.2432 118.203 85.1032C118.203 84.5872 118.047 84.1852 117.735 83.8972C117.435 83.6092 116.997 83.4652 116.421 83.4652C115.857 83.4652 115.419 83.6212 115.107 83.9332C114.807 84.2332 114.633 84.6172 114.585 85.0852H112.119ZM122.858 88.0192C122.858 85.9432 123.23 84.3172 123.974 83.1412C124.73 81.9652 125.978 81.3772 127.718 81.3772C129.458 81.3772 130.7 81.9652 131.444 83.1412C132.2 84.3172 132.578 85.9432 132.578 88.0192C132.578 90.1072 132.2 91.7452 131.444 92.9332C130.7 94.1212 129.458 94.7152 127.718 94.7152C125.978 94.7152 124.73 94.1212 123.974 92.9332C123.23 91.7452 122.858 90.1072 122.858 88.0192ZM130.094 88.0192C130.094 87.1312 130.034 86.3872 129.914 85.7872C129.806 85.1752 129.578 84.6772 129.23 84.2932C128.894 83.9092 128.39 83.7172 127.718 83.7172C127.046 83.7172 126.536 83.9092 126.188 84.2932C125.852 84.6772 125.624 85.1752 125.504 85.7872C125.396 86.3872 125.342 87.1312 125.342 88.0192C125.342 88.9312 125.396 89.6992 125.504 90.3232C125.612 90.9352 125.84 91.4332 126.188 91.8172C126.536 92.1892 127.046 92.3752 127.718 92.3752C128.39 92.3752 128.9 92.1892 129.248 91.8172C129.596 91.4332 129.824 90.9352 129.932 90.3232C130.04 89.6992 130.094 88.9312 130.094 88.0192ZM134.495 88.0192C134.495 85.9432 134.867 84.3172 135.611 83.1412C136.367 81.9652 137.615 81.3772 139.355 81.3772C141.095 81.3772 142.337 81.9652 143.081 83.1412C143.837 84.3172 144.215 85.9432 144.215 88.0192C144.215 90.1072 143.837 91.7452 143.081 92.9332C142.337 94.1212 141.095 94.7152 139.355 94.7152C137.615 94.7152 136.367 94.1212 135.611 92.9332C134.867 91.7452 134.495 90.1072 134.495 88.0192ZM141.731 88.0192C141.731 87.1312 141.671 86.3872 141.551 85.7872C141.443 85.1752 141.215 84.6772 140.867 84.2932C140.531 83.9092 140.027 83.7172 139.355 83.7172C138.683 83.7172 138.173 83.9092 137.825 84.2932C137.489 84.6772 137.261 85.1752 137.141 85.7872C137.033 86.3872 136.979 87.1312 136.979 88.0192C136.979 88.9312 137.033 89.6992 137.141 90.3232C137.249 90.9352 137.477 91.4332 137.825 91.8172C138.173 92.1892 138.683 92.3752 139.355 92.3752C140.027 92.3752 140.537 92.1892 140.885 91.8172C141.233 91.4332 141.461 90.9352 141.569 90.3232C141.677 89.6992 141.731 88.9312 141.731 88.0192Z" fill="white"/>
<path d="M55.2236 79.8363L61.8384 99.9695L59.9008 98.7403L75.1902 97.6732L76.579 97.5765L76.8486 100.261L75.4687 100.442L60.2721 102.438C59.4346 102.548 58.6563 102.059 58.3695 101.302L58.3345 101.209L50.8198 81.3937L49.9912 79.2093L54.4942 77.6169L55.2236 79.8363Z" fill="#FFEEE0"/>
<path d="M84.8634 98.2817C84.8997 99.2381 82.9474 100.509 80.1328 100.902C77.5383 101.264 75.7011 100.352 75.5853 99.392C75.3265 97.2477 84.8068 96.8032 84.8634 98.2817Z" fill="#FFEEE0"/>
<path d="M80.6609 96.6364C80.4847 96.2542 79.3331 96.1976 77.9652 96.6783C76.7035 97.1216 76.0466 97.8923 76.1872 98.2936C76.5013 99.1902 80.9337 97.2272 80.6609 96.6364Z" fill="#FFEEE0"/>
<path d="M69.1681 97.1041L69.7156 105.618C69.7156 105.618 60.133 105.054 57.0189 101.28C52.6501 95.9861 46.9612 80.9333 51.749 78.6471C57.0666 76.1079 57.3686 89.1055 61.3101 94.9686C62.9997 97.4818 69.1681 97.1047 69.1681 97.1047V97.1041Z" fill="#F4EFEF"/>
<path d="M57.2193 59.5072C53.0374 56.5101 48.0022 58.5527 47.3333 62.8807C46.4652 68.4972 47.5622 73.0205 46.1663 76.7463C44.0029 82.5217 44.6026 88.1967 44.6026 88.1967C50.3087 80.4181 56.2062 83.6384 59.4621 75.8236C60.5082 73.313 61.2255 62.3784 57.2193 59.5072Z" fill="#03053E"/>
<path d="M55.5557 78.4283H50.5631V68.8774H53.6142L55.5557 78.4283Z" fill="#EEBB8F"/>
<path d="M59.2423 64.0425C60.0862 67.9629 59.4623 71.9165 57.0954 72.7737C54.8754 73.5781 51.0224 71.451 49.2596 67.575C47.404 63.4943 48.3102 60.4451 51.5973 59.3094C55.0891 58.103 58.317 59.745 59.2417 64.0425H59.2423Z" fill="#F3C9AA"/>
<path d="M65.864 159.52L62.5083 135.215L58.9688 110.938L58.3284 106.545L49.0809 108.54L50.3088 112.807L57.0896 136.366L63.7547 159.961L64.0479 161.001L66.0122 160.59L65.864 159.52Z" fill="#EEBB8F"/>
<path d="M45.5733 106.544L45.4194 110.98L44.5234 136.777L33.2536 153.578L32.6514 154.476L34.2119 155.708L34.9452 154.913L49.343 139.326C49.6031 139.045 49.7856 138.689 49.853 138.284L49.9147 137.911L54.2345 111.86L54.9607 107.481L45.5733 106.543V106.544Z" fill="#EEBB8F"/>
<path d="M47.2711 105.726H60.3673L66.0168 151.298L58.3966 152.407L47.2711 105.726Z" fill="url(#paint1_linear_1_12512)"/>
<path d="M43.6766 105.726H56.2589C56.2589 105.726 53.9537 134.854 52.0765 138.278C49.826 142.383 40.9148 151.909 40.9148 151.909L34.8628 147.235C34.8628 147.235 41.2366 138.21 42.7774 133.973C44.3183 129.736 43.676 105.726 43.676 105.726H43.6766Z" fill="url(#paint2_linear_1_12512)"/>
<path d="M50.4419 77.6162C50.4419 77.6162 53.1338 79.9761 55.8262 78.4028C55.8262 78.4028 56.7471 88.2367 57.9515 92.2487C59.1559 96.2607 62.2827 106.465 62.2827 106.465L43.1276 106.803C42.6048 97.8251 45.9968 87.6268 50.4419 77.6162Z" fill="#76D2F3"/>
<path d="M52.3795 84.0899C51.1254 86.4333 49.914 88.8759 48.8082 91.3108C48.2562 92.5324 47.729 93.7604 47.2508 94.9921C46.7751 96.2214 46.3408 97.464 46.0425 98.6614C45.9694 98.9615 45.9096 99.2464 45.8575 99.539L45.7087 100.504C45.6228 101.158 45.5408 101.816 45.4734 102.483C45.3367 103.816 45.2305 105.163 45.1402 106.514C44.9672 109.216 44.8502 111.944 44.7834 114.652L44.751 115.962L42.2067 115.983L42.1641 114.673C42.0744 111.909 42.0363 109.167 42.0553 106.401C42.0687 105.018 42.0986 103.632 42.1615 102.237C42.1921 101.539 42.2385 100.836 42.2913 100.129L42.3943 99.0576C42.4407 98.6728 42.5017 98.2849 42.5717 97.9161C42.8604 96.4408 43.2674 95.0735 43.7087 93.7267C44.152 92.3823 44.6384 91.0692 45.1465 89.7687C46.1716 87.1646 47.2641 84.6413 48.4622 82.0944L49.3983 80.104L53.4173 82.151L52.3801 84.0893L52.3795 84.0899Z" fill="#F3C9AA"/>
<path d="M49.7682 76.4711C49.7682 76.4711 40.4151 90.4594 42.319 105.381C42.319 105.381 41.5152 108.312 52.1287 107.912C62.7416 107.512 63.3489 106.046 63.3489 106.046C59.9893 98.0389 57.3795 88.9758 56.0829 78.0641C56.0829 78.0641 52.1147 78.2097 49.7675 76.4705L49.7682 76.4711Z" fill="white"/>
<path d="M48.7593 108.539L40.5821 109.551C40.5821 109.551 40.9057 100.253 42.1184 94.9292C43.6427 88.2374 46.4859 78.2675 51.6159 79.6251C58.3191 81.3994 48.5946 94.8312 47.8926 98.5138C47.3253 101.489 48.7593 108.539 48.7593 108.539Z" fill="#F4EFEF"/>
<path d="M42.0207 123.397C41.1476 123.177 40.5174 121.076 40.9098 118.43C41.2716 115.991 42.5816 114.574 43.4795 114.724C45.4846 115.059 43.3714 123.738 42.0207 123.397V123.397Z" fill="#F3C9AA"/>
<path d="M44.6207 120.04C45.0124 119.982 45.3691 118.957 45.2979 117.594C45.2318 116.337 44.711 115.539 44.311 115.56C43.4181 115.605 44.0146 120.129 44.6207 120.04Z" fill="#F3C9AA"/>
<path d="M73.534 161.869L71.9893 161.594L66.3417 159.408V159.454C66.3417 159.454 66.2737 160.422 65.1004 160.604C64.2362 160.738 63.676 160.508 63.44 160.377C63.3841 160.326 63.3377 160.297 63.3122 160.297C62.9351 160.297 62.6292 160.913 62.6292 161.675C62.6292 161.925 62.6629 162.158 62.7202 162.36V163.417H73.9702V162.347C73.9702 162.099 73.7807 161.891 73.5333 161.869L73.534 161.869Z" fill="#03053E"/>
<path d="M39.0184 161.728L38.0613 160.485L35.3568 155.067L35.3262 155.1C35.3262 155.1 34.6242 155.77 33.6341 155.115C32.9047 154.632 32.6452 154.085 32.5594 153.83C32.5524 153.754 32.5384 153.701 32.5193 153.684C32.2401 153.43 31.5991 153.68 31.0866 154.243C30.9187 154.428 30.7858 154.623 30.6923 154.812L29.9807 155.593L38.2992 163.167L39.0197 162.375C39.1869 162.191 39.1863 161.911 39.0184 161.728V161.728Z" fill="#03053E"/>
<path d="M52.7339 58.2405C51.5988 58.2405 50.8211 58.3422 49.8539 58.8433C48.2997 59.6484 46.2495 61.5727 45.8418 65.9332C45.4622 69.9986 47.0901 71.9884 43.6168 75.8236C39.7097 78.7902 32.7464 78.284 33.5508 84.9408C34.3552 91.5976 43.1831 90.7296 45.281 87.4012C47.3795 84.0728 47.1436 81.1062 48.3105 79.0077C49.4774 76.9091 51.5034 78.1397 52.5164 75.8243C53.7043 73.6463 51.6421 68.7605 51.2707 67.9192C51.5193 67.1001 51.8398 66.2009 53.1676 65.8391C56.0159 65.062 58.3771 62.3657 58.3771 61.4977C58.3771 60.6296 55.7724 58.2418 52.7333 58.2418L52.7339 58.2405Z" fill="#03053E"/>
<path d="M52.6391 66.4793C52.9335 67.1356 52.7281 67.8669 52.1812 68.1118C51.6343 68.3572 50.952 68.0234 50.6582 67.3671C50.3637 66.7108 50.5692 65.9802 51.116 65.7347C51.6629 65.4892 52.3453 65.8231 52.6391 66.4793Z" fill="#F3C9AA"/>
<path d="M191.423 79.5H196.629V69.5415H193.448L191.423 79.5Z" fill="#EEBB8F"/>
<path d="M187.578 64.4999C186.698 68.5876 187.348 72.7096 189.816 73.6037C192.131 74.4425 196.148 72.2244 197.986 68.1831C199.921 63.9282 198.976 60.7486 195.549 59.5645C191.907 58.3067 188.542 60.0192 187.578 64.4999Z" fill="#F3C9AA"/>
<path d="M194.841 58.1197C198.627 58.4161 200.72 61.8475 200.477 65.2414C200.251 68.4102 196.863 70.1023 196.863 70.1023C196.863 70.1023 195.745 66.8852 193.913 66.3727C191.358 65.6579 192.463 63.3737 191.269 63.1276C190.025 62.8707 187.32 61.8825 187.365 60.072C189.117 60.133 190.589 57.7871 194.841 58.1197Z" fill="#03053E"/>
<path d="M196.54 67.9778C196.847 67.2933 196.633 66.531 196.063 66.2752C195.493 66.0195 194.781 66.3671 194.474 67.0516C194.168 67.7361 194.381 68.4984 194.952 68.7541C195.522 69.0099 196.233 68.6623 196.54 67.9778Z" fill="#F3C9AA"/>
<path d="M194.84 66.3103C194.84 66.3103 194.555 70.7287 193.712 72.4075C192.976 73.8695 189.769 75.3779 188.022 71.9102C188.022 71.9102 189.79 72.2797 189.59 71.5306C189.354 70.6492 187.534 70.6396 187.534 70.6396C187.534 70.6396 187.178 70.6225 187.115 70.2956C187.02 69.8098 187.257 69.0219 187.257 69.0219C187.257 69.0219 189.666 69.8804 190.703 69.8804C191.879 69.8804 192.948 69.0505 193.942 66.3109H194.84V66.3103Z" fill="#03053E"/>
<path d="M179.635 163.72L184.42 136.955L187.67 123.766L190.943 110.551L192.055 106.058L201.44 109.052L199.742 113.359L194.797 125.904C193.154 130.092 191.482 134.279 189.856 138.483L181.818 164.254L181.483 165.329L179.436 164.83L179.635 163.722L179.635 163.72Z" fill="#EEBB8F"/>
<path d="M196.926 106.168L197.3 110.781L199.418 136.916L219.18 146.179L220.2 146.657L219.454 148.603L218.376 148.277L195.715 141.428C194.878 141.173 194.199 140.483 194.003 139.567L193.923 139.191L188.16 112.119L187.196 107.592L196.925 106.169L196.926 106.168Z" fill="#EEBB8F"/>
<path d="M202.816 103.315L185.273 106.722L179.788 159.158L185.673 159.965L202.816 103.315Z" fill="url(#paint3_linear_1_12512)"/>
<path d="M203.675 106.813L185.975 104.341C185.975 104.341 188.689 137.169 193.984 141.355C196.93 143.684 213.299 147.604 213.299 147.604L215.062 142.578C215.062 142.578 202.738 137.59 201.707 136.047C200.586 134.37 203.675 106.813 203.675 106.813Z" fill="url(#paint4_linear_1_12512)"/>
<path d="M193.036 79.9686L177.828 93.3172L180.018 93.2466L167.962 84.951L166.867 84.1974L165.343 86.2744L166.389 87.0928L177.918 96.1076C178.554 96.6042 179.431 96.5794 180.035 96.0961L180.109 96.0363L195.902 83.386L197.643 81.9914L194.713 78.4971L193.037 79.9686H193.036Z" fill="#FFEEE0"/>
<path d="M198.116 84.6445C195.398 88.5795 185.232 96.3091 178.769 96.5851C174.931 96.7486 168.496 89.3992 168.496 89.3992L170.483 86.1783C170.483 86.1783 175.415 91.5308 179.316 89.2988C183.217 87.0673 191.179 78.815 194.166 78.981C196.798 79.1272 199.337 82.8766 198.116 84.6445Z" fill="#F4EFEF"/>
<path d="M196.273 77.3962C196.273 77.3962 193.542 79.7905 190.811 78.1943C190.811 78.1943 189.877 88.1706 188.655 92.2411C187.433 96.3117 184.076 106.793 184.076 106.793L203.694 107.007C204.224 97.8983 200.783 87.5525 196.273 77.3962Z" fill="#DAC5AE"/>
<path d="M197.218 76.5774C197.218 76.5774 206.707 90.7686 204.774 105.907C204.774 105.907 205.59 108.88 194.823 108.474C184.056 108.069 183.44 106.582 183.44 106.582C186.848 98.4587 189.496 89.264 190.812 78.1939C190.812 78.1939 194.837 78.3421 197.218 76.5774H197.218Z" fill="white"/>
<path d="M194.127 83.6099C195.478 85.9437 196.789 88.3793 197.992 90.8111C198.592 92.0307 199.169 93.2587 199.695 94.4918C200.218 95.7216 200.7 96.9674 201.044 98.1712C201.128 98.4732 201.198 98.76 201.261 99.0545L201.444 100.027C201.553 100.688 201.658 101.353 201.749 102.027C201.932 103.373 202.085 104.735 202.222 106.102C202.489 108.836 202.699 111.599 202.858 114.342L202.935 115.669L205.516 115.604L205.514 114.275C205.512 111.47 205.459 108.687 205.346 105.884C205.286 104.483 205.209 103.079 205.098 101.666C205.044 100.96 204.973 100.247 204.896 99.5333L204.756 98.4503C204.695 98.0618 204.621 97.6701 204.537 97.2987C204.195 95.8126 203.736 94.4402 203.243 93.0889C202.749 91.7408 202.211 90.425 201.652 89.124C200.525 86.5186 199.333 83.9965 198.032 81.4541L197.016 79.4675L193.01 81.6786L194.127 83.6093V83.6099Z" fill="#F3C9AA"/>
<path d="M198.811 79.072C202.233 82.4131 204.203 89.9996 205.659 96.3022C207.115 102.605 205.932 112.175 205.932 112.175L202.008 112.348C202.008 112.348 201.783 102.608 200.239 98.3874C198.695 94.1668 191.898 84.9307 192.564 82.0144C193.15 79.4446 197.273 77.5712 198.811 79.072Z" fill="#F4EFEF"/>
<path d="M161.311 81.8478C160.812 82.6135 161.453 84.3693 163.092 85.7263C164.603 86.9772 166.251 86.9123 166.803 86.1727C168.036 84.5212 162.082 80.6638 161.311 81.8478Z" fill="#FFEEE0"/>
<path d="M204.262 123.415C205.173 123.345 206.163 121.352 206.225 118.64C206.282 116.138 205.215 114.497 204.292 114.493C202.229 114.484 202.853 123.525 204.262 123.415V123.415Z" fill="#F3C9AA"/>
<path d="M202.239 119.611C201.857 119.486 201.676 118.4 201.982 117.05C202.264 115.804 202.922 115.096 203.318 115.185C204.203 115.385 202.83 119.805 202.239 119.611H202.239Z" fill="#F3C9AA"/>
<path d="M171.796 166.657C171.796 166.657 173.149 166.299 173.524 166.164C175.02 165.626 178.894 164.039 178.894 164.039C178.894 164.039 179.372 164.809 180.568 164.958C181.449 165.068 182.098 164.75 182.124 164.749C182.507 164.738 182.836 165.355 182.859 166.127C182.867 166.381 182.84 166.619 182.787 166.826L182.82 167.899L171.4 168.242L171.368 167.155C171.36 166.903 171.546 166.687 171.796 166.657V166.657Z" fill="#03053E"/>
<path d="M218.735 156.578C218.735 156.578 218.788 155.179 218.768 154.782C218.689 153.194 218.3 149.026 218.3 149.026C218.3 149.026 219.176 148.793 219.666 147.693C220.028 146.881 219.914 146.168 219.92 146.144C220.021 145.774 220.707 145.639 221.452 145.842C221.697 145.909 221.917 146.004 222.1 146.114L223.135 146.396L220.134 157.42L219.085 157.134C218.842 157.068 218.69 156.827 218.734 156.579L218.735 156.578Z" fill="#03053E"/>
<path d="M163.966 81.4439C164.296 81.215 165.271 81.7269 166.162 82.7864C166.984 83.7631 167.152 84.7157 166.841 84.9771C166.147 85.5621 163.454 81.7969 163.966 81.4433V81.4439Z" fill="#FFEEE0"/>
<defs>
<linearGradient id="paint0_linear_1_12512" x1="-0.000259535" y1="96.4996" x2="234.223" y2="96.4996" gradientUnits="userSpaceOnUse">
<stop stop-color="#7748FF"/>
<stop offset="1" stop-color="#48DEFF" stop-opacity="0.6"/>
</linearGradient>
<linearGradient id="paint1_linear_1_12512" x1="72.816" y1="127.079" x2="54.3794" y2="128.913" gradientUnits="userSpaceOnUse">
<stop stop-color="#435AC1"/>
<stop offset="1" stop-color="#0F24A3"/>
</linearGradient>
<linearGradient id="paint2_linear_1_12512" x1="54.3823" y1="130.095" x2="40.7673" y2="127.094" gradientUnits="userSpaceOnUse">
<stop stop-color="#435AC1"/>
<stop offset="1" stop-color="#0F24A3"/>
</linearGradient>
<linearGradient id="paint3_linear_1_12512" x1="174.134" y1="131.54" x2="194.088" y2="131.639" gradientUnits="userSpaceOnUse">
<stop stop-color="#435AC1"/>
<stop offset="1" stop-color="#0F24A3"/>
</linearGradient>
<linearGradient id="paint4_linear_1_12512" x1="189.292" y1="129.458" x2="207.857" y2="123.203" gradientUnits="userSpaceOnUse">
<stop stop-color="#435AC1"/>
<stop offset="1" stop-color="#0F24A3"/>
</linearGradient>
</defs>
</svg>
