<svg width="235" height="193" viewBox="0 0 235 193" fill="none" xmlns="http://www.w3.org/2000/svg">
<path opacity="0.4" d="M189.575 53.908C189.166 53.739 188.896 53.3412 188.896 52.8963C188.896 23.6821 165.292 0 136.177 0C115.766 0 98.065 11.638 89.3041 28.6607C88.3838 30.449 86.4836 31.509 84.4841 31.3578C82.5162 31.209 80.5286 31.1334 78.5227 31.1334C34.985 31.1334 -0.277046 66.6855 0.0016406 110.435C0.278427 153.947 35.4518 188.867 78.8185 188.707C85.2878 188.683 91.5728 187.874 97.5836 186.37C110.652 183.1 124.417 183.728 137.034 188.456C144.776 191.357 153.149 192.959 161.889 192.999C201.542 193.178 233.999 160.958 234.222 121.172C234.393 90.8106 215.895 64.7631 189.576 53.9087L189.575 53.908Z" fill="url(#paint0_linear_1_12605)"/>
<path d="M149.138 65.0192L113.698 59.9248L103.452 131.198L138.893 136.292L149.138 65.0192Z" fill="#2AB5D3"/>
<path d="M145.545 68.3396L116.206 64.1223L107.042 127.877L136.38 132.095L145.545 68.3396Z" fill="#48DEFF"/>
<path d="M139.135 99.9547C139.894 94.6782 134.761 89.5745 127.671 88.5553C120.58 87.5361 114.218 90.9873 113.459 96.2639C112.701 101.54 117.834 106.644 124.924 107.663C132.014 108.682 138.377 105.231 139.135 99.9547Z" fill="#00D1FF" fill-opacity="0.6"/>
<path d="M129.281 83.4714C132.669 83.4714 135.415 80.725 135.415 77.3371C135.415 73.9493 132.669 71.2029 129.281 71.2029C125.893 71.2029 123.147 73.9493 123.147 77.3371C123.147 80.725 125.893 83.4714 129.281 83.4714Z" fill="#30BFDE" fill-opacity="0.6"/>
<path d="M146.591 73.4719C148.643 71.4204 148.643 68.0942 146.591 66.0427C144.54 63.9912 141.213 63.9912 139.162 66.0427C137.11 68.0942 137.11 71.4204 139.162 73.4719C141.213 75.5235 144.54 75.5235 146.591 73.4719Z" fill="#30BFDE" fill-opacity="0.6"/>
<path d="M137.832 133.663C139.883 131.611 139.883 128.285 137.832 126.233C135.78 124.182 132.454 124.182 130.403 126.233C128.351 128.285 128.351 131.611 130.403 133.663C132.454 135.714 135.78 135.714 137.832 133.663Z" fill="#00D1FF" fill-opacity="0.6"/>
<path d="M113.438 130.259C115.489 128.208 115.489 124.882 113.438 122.83C111.386 120.779 108.06 120.779 106.008 122.83C103.957 124.882 103.957 128.208 106.008 130.259C108.06 132.311 111.386 132.311 113.438 130.259Z" fill="#00D1FF" fill-opacity="0.6"/>
<path d="M122.063 69.898C124.114 67.8464 124.114 64.5203 122.063 62.4687C120.011 60.4172 116.685 60.4172 114.634 62.4687C112.582 64.5203 112.582 67.8464 114.634 69.898C116.685 71.9495 120.011 71.9495 122.063 69.898Z" fill="#30BFDE" fill-opacity="0.6"/>
<path d="M123.325 124.925C126.713 124.925 129.46 122.178 129.46 118.79C129.46 115.402 126.713 112.656 123.325 112.656C119.938 112.656 117.191 115.402 117.191 118.79C117.191 122.178 119.938 124.925 123.325 124.925Z" fill="#00D1FF" fill-opacity="0.6"/>
<path d="M110.308 45.1938L74.9075 50.5603L85.6997 121.753L121.1 116.386L110.308 45.1938Z" fill="#2AB5D3"/>
<path d="M107.831 49.4103L78.5254 53.8528L88.1792 117.535L117.485 113.093L107.831 49.4103Z" fill="#48DEFF"/>
<path d="M99.4534 93.0152C106.536 91.9416 111.629 86.7986 110.83 81.5281C110.031 76.2575 103.642 72.8552 96.5601 73.9288C89.4779 75.0025 84.3843 80.1454 85.1832 85.416C85.9822 90.6865 92.3712 94.0888 99.4534 93.0152Z" fill="#30BFDE" fill-opacity="0.6"/>
<path d="M99.1995 67.0632C101.595 64.6676 101.595 60.7836 99.1995 58.388C96.8039 55.9924 92.9199 55.9924 90.5243 58.388C88.1288 60.7836 88.1288 64.6676 90.5243 67.0632C92.9199 69.4587 96.8039 69.4587 99.1995 67.0632Z" fill="#30BFDE" fill-opacity="0.6"/>
<path d="M109.401 55.2547C111.452 53.2031 111.452 49.8769 109.401 47.8254C107.349 45.7739 104.023 45.7739 101.972 47.8254C99.9202 49.8769 99.9202 53.2031 101.972 55.2547C104.023 57.3062 107.349 57.3062 109.401 55.2547Z" fill="#30BFDE" fill-opacity="0.6"/>
<path d="M119.731 113.198C120.56 110.417 118.979 107.491 116.198 106.662C113.418 105.832 110.492 107.414 109.663 110.194C108.833 112.974 110.415 115.901 113.195 116.73C115.975 117.559 118.901 115.978 119.731 113.198Z" fill="#00D1FF" fill-opacity="0.6"/>
<path d="M95.5108 116.515C96.0783 113.67 94.2319 110.903 91.3866 110.336C88.5413 109.768 85.7748 111.615 85.2072 114.46C84.6397 117.305 86.4862 120.072 89.3315 120.639C92.1767 121.207 94.9433 119.36 95.5108 116.515Z" fill="#00D1FF" fill-opacity="0.6"/>
<path d="M84.8883 58.9212C86.9398 56.8696 86.9398 53.5435 84.8883 51.4919C82.8367 49.4404 79.5105 49.4404 77.459 51.4919C75.4075 53.5434 75.4075 56.8696 77.459 58.9212C79.5105 60.9727 82.8367 60.9727 84.8883 58.9212Z" fill="#30BFDE" fill-opacity="0.6"/>
<path d="M105.477 108.47C107.872 106.074 107.872 102.19 105.477 99.7945C103.081 97.3989 99.197 97.3989 96.8014 99.7945C94.4059 102.19 94.4059 106.074 96.8014 108.47C99.197 110.865 103.081 110.865 105.477 108.47Z" fill="#00D1FF" fill-opacity="0.6"/>
<path opacity="0.16" d="M127.068 167.356C163.52 167.356 193.07 162.912 193.07 157.43C193.07 151.947 163.52 147.503 127.068 147.503C90.616 147.503 61.0659 151.947 61.0659 157.43C61.0659 162.912 90.616 167.356 127.068 167.356Z" fill="#8D8A8A"/>
<path d="M149.747 96.7704C153.193 93.3246 153.193 87.7379 149.747 84.2921C146.301 80.8464 140.714 80.8464 137.269 84.2921C133.823 87.7379 133.823 93.3246 137.269 96.7704C140.714 100.216 146.301 100.216 149.747 96.7704Z" fill="#FF932B"/>
<path d="M140.089 93.7475C140.647 94.2179 141.498 94.6682 142.443 94.8106C143.845 95.0216 144.776 94.4044 144.937 93.3331C145.087 92.3406 144.605 91.6875 143.254 90.9207C141.613 90.0452 140.677 88.9858 140.902 87.4892C141.151 85.8349 142.707 84.812 144.77 85.1225C145.857 85.2862 146.607 85.6566 147.04 85.9959L146.493 87.058C146.175 86.8165 145.513 86.3951 144.552 86.2504C143.103 86.0323 142.421 86.816 142.312 87.5409C142.162 88.5334 142.735 89.119 144.115 89.907C145.807 90.8707 146.591 91.8746 146.356 93.4348C146.11 95.0733 144.683 96.3088 142.177 95.932C141.153 95.7781 140.079 95.3104 139.569 94.8465L140.089 93.7486V93.7475Z" fill="#FFB52B"/>
<path d="M120.747 102.239C124.192 98.7931 124.192 93.2064 120.747 89.7607C117.301 86.3149 111.714 86.3149 108.268 89.7607C104.823 93.2064 104.823 98.7931 108.268 102.239C111.714 105.685 117.301 105.685 120.747 102.239Z" fill="#FF932B"/>
<path d="M113.175 100.499C113.894 100.625 114.856 100.586 115.744 100.232C117.063 99.7084 117.556 98.7067 117.156 97.6995C116.785 96.7663 116.04 96.4455 114.487 96.4623C112.628 96.5319 111.286 96.0882 110.727 94.6813C110.109 93.1266 110.938 91.4598 112.878 90.6886C113.9 90.283 114.735 90.2253 115.279 90.3009L115.341 91.4935C114.945 91.4451 114.161 91.4135 113.258 91.7725C111.895 92.3136 111.701 93.3343 111.971 94.0152C112.342 94.9484 113.131 95.1659 114.72 95.1517C116.667 95.1327 117.849 95.6058 118.432 97.072C119.044 98.612 118.433 100.398 116.078 101.333C115.116 101.716 113.953 101.852 113.278 101.709L113.174 100.498L113.175 100.499Z" fill="#FFB52B"/>
<path d="M88.4998 96.2633C92.2802 92.4829 92.2802 86.3535 88.4998 82.5731C84.7193 78.7926 78.59 78.7926 74.8095 82.5731C71.029 86.3535 71.029 92.4829 74.8095 96.2633C78.59 100.044 84.7193 100.044 88.4998 96.2633Z" fill="#FF932B"/>
<path d="M80.1937 94.3543C80.9822 94.4925 82.0372 94.4495 83.0123 94.0623C84.4583 93.488 84.9999 92.3884 84.5611 91.2839C84.1543 90.2605 83.3369 89.9081 81.6326 89.9266C79.5938 90.0033 78.1212 89.516 77.5078 87.9721C76.8302 86.2661 77.74 84.4373 79.8685 83.5917C80.9893 83.1463 81.9051 83.0837 82.5022 83.1658L82.5707 84.4743C82.1356 84.4215 81.2753 84.3867 80.2845 84.7804C78.7895 85.3743 78.5764 86.494 78.8733 87.2412C79.2801 88.2647 80.1464 88.504 81.8893 88.4882C84.0254 88.467 85.323 88.9863 85.9619 90.5949C86.633 92.2846 85.963 94.2439 83.3799 95.2701C82.3238 95.6899 81.0475 95.8395 80.3079 95.6818L80.1942 94.3538L80.1937 94.3543Z" fill="#FFB52B"/>
<path d="M141.633 158.285L76.5125 156.857L71.7644 92.4443H145.828L141.633 158.285Z" fill="#113380"/>
<path d="M145.828 92.4443L156.977 95.2912L152.437 151.759L141.634 158.285L145.828 92.4443Z" fill="#113380"/>
<path opacity="0.1" d="M156.977 95.2918L152.437 151.759L149.148 153.746L146.544 155.319L141.634 158.285L145.828 92.4443L151.049 93.7778L154.069 94.5494L156.977 95.2918Z" fill="black"/>
<path opacity="0.1" d="M145.758 93.532L156.905 96.3397L156.976 95.2912L145.828 92.4443L145.758 93.532Z" fill="black"/>
<path opacity="0.07" d="M102.97 92.5226L116.211 92.4443L116.204 157.716L102.832 157.466L102.97 92.5226Z" fill="black"/>
<path d="M115.662 92.4443V157.716L102.427 157.466V92.4443H115.662Z" fill="#FFAB48"/>
<path d="M154.07 94.549L149.148 153.746L149.138 153.869L146.545 155.318L151.05 93.7773L154.07 94.549Z" fill="#FFAB48"/>
<path opacity="0.69" d="M104.441 92.8875V156.831C104.441 156.908 104.368 156.969 104.281 156.966L103.578 156.942C103.496 156.939 103.43 156.88 103.43 156.808L102.973 92.8897C102.986 92.7646 103.007 92.6146 103.043 92.4443H104.425C104.424 92.6113 104.431 92.7598 104.441 92.887V92.8875Z" fill="white"/>
<path d="M183.422 149.841L174.053 152.614L163.217 123.939L159.249 113.439L158.803 112.26L158.536 111.554L147.696 82.8691L155.887 78.4419L167.276 107.974L167.523 108.616L168.001 109.855L172.039 120.325L183.422 149.841Z" fill="#113380"/>
<path d="M200.494 122.991C200.446 114.755 172.773 115.427 172.773 115.427C172.773 115.427 170.773 116.418 171.647 118.682C172.521 120.946 187.522 138.623 191.645 138.244C195.767 137.865 200.54 131.227 200.494 122.992V122.991ZM179.466 123.509C174.915 119.823 175.059 119.643 174.098 119.288C173.645 119.121 172.355 118.692 172.319 118.015C172.297 117.588 172.781 117.242 172.93 117.136C173.188 116.951 173.486 116.833 173.816 116.77C175.278 116.491 177.384 117.274 179.665 117.951C183.706 119.15 183.321 118.537 188.158 119.988C192.807 121.384 193.523 122.057 193.974 122.742C195.381 124.882 194.596 127.605 194.433 128.17C194.153 129.142 193.549 131.235 192.008 131.739C191.031 132.059 190.033 131.62 186.075 128.675C183.298 126.608 180.955 124.717 179.787 123.769C179.667 123.672 179.56 123.585 179.466 123.509Z" fill="#FFAB48"/>
<path d="M190.798 96.707C191.976 92.9601 184.484 84.5516 177.614 84.5929C169.689 84.6397 167.549 108.677 167.549 108.677C167.549 108.677 170.303 113.296 171.762 112.744C173.221 112.193 189.62 100.454 190.798 96.707ZM171.62 110.852C170.945 110.844 170.192 110.491 169.784 109.895C169.334 109.238 169.406 108.48 169.788 107.422C170.252 106.132 171.176 104.397 172.171 101.86C173.962 97.2949 173.719 95.9081 175.713 93.4468C176.759 92.1558 177.872 90.8229 179.585 90.7451C181.574 90.6549 183.634 92.2896 183.996 94.1489C184.151 94.9434 183.994 95.8108 181.93 98.8208C180.189 101.36 179.288 102.216 178.127 103.543C177.597 104.147 177.015 104.849 176.274 105.851C173.951 108.992 173.193 110.871 171.62 110.852H171.62Z" fill="#FFAB48"/>
<path opacity="0.07" d="M169.787 107.422C169.553 106.418 170.202 104.268 171.271 100.726C171.967 98.4211 172.636 96.1594 174.183 93.6121C175.753 91.0263 177.09 88.8233 179.257 88.6291C181.013 88.472 182.5 89.7064 183.521 90.5542C184.601 91.4505 186.035 92.6409 186.152 94.3947C186.255 95.9511 185.27 97.1872 183.704 99.1514C182.845 100.23 182.01 100.95 181.709 101.203C181.133 101.684 180.638 102.018 180.233 102.291C179.408 102.845 178.677 103.256 178.125 103.543C179.287 102.216 180.188 101.359 181.929 98.8208C183.993 95.8108 184.15 94.9434 183.995 94.1489C183.632 92.2896 181.573 90.6554 179.584 90.7451C177.871 90.8229 176.758 92.1558 175.712 93.4468C173.718 95.9081 173.961 97.2949 172.17 101.86C171.174 104.397 170.251 106.132 169.786 107.422H169.787Z" fill="black"/>
<path opacity="0.07" d="M190.581 134.046C187.728 134.063 185.623 131.603 183.345 128.94C182.368 127.798 181.052 126.084 179.787 123.769C180.954 124.716 183.298 126.608 186.075 128.675C190.033 131.62 191.031 132.058 192.009 131.739C193.549 131.235 194.153 129.142 194.433 128.169C194.595 127.605 195.381 124.883 193.974 122.742C193.524 122.056 192.807 121.383 188.158 119.988C183.321 118.536 183.707 119.15 179.665 117.951C177.385 117.274 175.278 116.49 173.816 116.77C173.672 116.443 173.681 116.253 173.764 116.142C174.108 115.681 175.656 116.32 177.561 116.829C178.509 117.083 179.576 117.252 181.71 117.59C185.606 118.208 186.698 117.971 189.722 118.756C191.168 119.132 191.842 119.43 192.12 119.552C193.402 120.116 194.935 120.79 196.039 122.433C197.529 124.653 197.732 128.034 196.195 130.569C195.321 132.01 194.132 132.806 193.469 133.182C192.838 133.561 191.829 134.039 190.582 134.046L190.581 134.046Z" fill="black"/>
<path d="M167.549 108.677C167.549 108.677 173.384 108.19 174.664 114.073C175.944 119.956 173.203 120.688 172.228 121.057L167.549 108.677Z" fill="#FFAB48"/>
<path opacity="0.69" d="M184.894 87.591C184.94 87.5089 183.319 86.2494 181.102 85.5653C179.963 85.214 178.994 85.115 178.557 85.0726C177.806 84.9997 177.43 84.9633 176.974 85.0421C175.842 85.2379 175.103 85.959 174.43 86.6323C173.403 87.6617 172.886 88.6792 172.193 90.0719C171.552 91.3607 171.194 92.3875 171.227 92.4022C171.273 92.4228 171.863 90.3144 173.566 88.2953C174.353 87.3621 175.604 85.9188 177.563 85.6006C178.322 85.4772 178.88 85.5729 179.876 85.7535C182.919 86.3049 184.844 87.6797 184.894 87.591Z" fill="white"/>
<path opacity="0.69" d="M185.854 116.234C185.867 116.16 188.514 116.456 191.545 117.149C192.793 117.434 193.814 117.779 195.856 118.468C196.794 118.784 197.529 119.052 198.325 119.672C198.751 120.002 199.431 120.545 199.874 121.508C200.259 122.346 200.274 123.089 200.284 123.633C200.303 124.619 200.106 125.64 199.98 125.635C199.887 125.63 200.166 124.392 199.74 122.817C199.621 122.374 199.421 121.663 198.883 120.95C198.274 120.143 197.537 119.739 197.026 119.48C194.689 118.297 192.28 117.726 191.974 117.656C187.311 116.577 185.846 116.29 185.855 116.234L185.854 116.234Z" fill="white"/>
<path d="M167.276 107.974L158.537 111.554L158.804 112.26L159.249 113.439L163.217 123.939L172.04 120.326L168.001 109.854L167.524 108.616L167.276 107.974Z" fill="#FFAB48"/>
<path opacity="0.69" d="M168.001 109.855L159.249 113.439L158.804 112.26L167.524 108.615L168.001 109.855Z" fill="white"/>
<path d="M153.933 43.0768C157.379 39.631 157.379 34.0443 153.933 30.5985C150.487 27.1528 144.9 27.1528 141.455 30.5985C138.009 34.0443 138.009 39.631 141.455 43.0768C144.9 46.5225 150.487 46.5225 153.933 43.0768Z" fill="#FF932B"/>
<path d="M145.129 40.7663C145.782 41.0926 146.715 41.3308 147.667 41.2471C149.08 41.1231 149.839 40.3041 149.745 39.2252C149.657 38.2251 149.035 37.7041 147.542 37.275C145.741 36.8095 144.582 35.9998 144.45 34.4918C144.303 32.825 145.575 31.4654 147.655 31.2827C148.75 31.1864 149.566 31.3708 150.066 31.5987L149.784 32.7592C149.418 32.5993 148.676 32.3448 147.708 32.4296C146.248 32.558 145.769 33.4797 145.833 34.2101C145.921 35.2102 146.615 35.6452 148.142 36.0868C150.012 36.6263 151.01 37.418 151.148 38.9897C151.293 40.6407 150.196 42.1764 147.672 42.3983C146.641 42.4891 145.487 42.2863 144.882 41.9557L145.129 40.7663Z" fill="#FFB52B"/>
<path d="M69.3069 75.9957C72.7527 72.5499 72.7527 66.9632 69.3069 63.5175C65.8612 60.0717 60.2745 60.0717 56.8287 63.5175C53.3829 66.9632 53.3829 72.5499 56.8287 75.9957C60.2745 79.4415 65.8612 79.4415 69.3069 75.9957Z" fill="#FF932B"/>
<path d="M59.4432 72.7369C59.968 73.2437 60.787 73.75 61.7207 73.9556C63.1058 74.2601 64.076 73.7065 64.3088 72.6483C64.5241 71.6677 64.0874 70.9842 62.7904 70.1282C61.2117 69.145 60.3487 68.0253 60.6739 66.5466C61.0334 64.9125 62.6539 63.9961 64.6927 64.4442C65.7667 64.6802 66.49 65.1006 66.899 65.4677L66.2823 66.4906C65.981 66.2285 65.3491 65.7635 64.3996 65.5547C62.9677 65.2398 62.2352 65.9762 62.0775 66.6924C61.8621 67.6729 62.394 68.2955 63.7182 69.1738C65.342 70.2484 66.0566 71.3028 65.7178 72.8435C65.3621 74.4619 63.8558 75.5995 61.3814 75.0552C60.3699 74.8328 59.3296 74.2944 58.8516 73.7973L59.4438 72.7363L59.4432 72.7369Z" fill="#FFB52B"/>
<path d="M53.351 83.5839L59.9658 103.717L58.0282 102.488L73.3176 101.421L74.7064 101.324L74.976 104.008L73.5961 104.19L58.3996 106.186C57.5621 106.296 56.7837 105.807 56.4969 105.049L56.4619 104.956L48.9473 85.1412L48.1187 82.9568L52.6216 81.3645L53.351 83.5839Z" fill="#FFEEE0"/>
<path d="M82.9881 102.029C83.0243 102.986 81.0721 104.257 78.2575 104.649C75.6629 105.011 73.8258 104.1 73.71 103.14C73.4512 100.995 82.9315 100.551 82.9881 102.029Z" fill="#FFEEE0"/>
<path d="M78.7868 100.384C78.6107 100.002 77.459 99.9452 76.0912 100.426C74.8295 100.869 74.1726 101.64 74.3131 102.041C74.6273 102.938 79.0596 100.975 78.7868 100.384Z" fill="#FFEEE0"/>
<path d="M67.2936 100.852L67.8411 109.365C67.8411 109.365 58.2585 108.801 55.1444 105.028C50.7756 99.7337 45.0867 84.6808 49.8745 82.3947C55.1921 79.8555 55.4941 92.853 59.4355 98.7162C61.1252 101.229 67.2936 100.852 67.2936 100.852V100.852Z" fill="#F4EFEF"/>
<path d="M55.3457 63.2548C51.1639 60.2577 46.1287 62.3002 45.4597 66.6283C44.5917 72.2447 45.6887 76.768 44.2928 80.4939C42.1294 86.2693 42.7291 91.9442 42.7291 91.9442C48.4352 84.1657 54.3327 87.386 57.5886 79.5712C58.6347 77.0605 59.352 66.1259 55.3457 63.2548Z" fill="#03053E"/>
<path d="M53.6825 82.1759H48.6899V72.625H51.7411L53.6825 82.1759Z" fill="#EEBB8F"/>
<path d="M57.3704 67.7901C58.2143 71.7105 57.5905 75.664 55.2236 76.5212C53.0036 77.3257 49.1505 75.1985 47.3878 71.3226C45.5322 67.2419 46.4384 64.1927 49.7254 63.0569C53.2173 61.8506 56.4452 63.4925 57.3698 67.7901H57.3704Z" fill="#F3C9AA"/>
<path d="M63.9914 163.267L60.6357 138.963L57.0962 114.686L56.4558 110.292L47.2083 112.287L48.4362 116.554L55.217 140.114L61.8821 163.709L62.1752 164.749L64.1396 164.338L63.9914 163.267Z" fill="#EEBB8F"/>
<path d="M43.7007 110.292L43.5468 114.728L42.6508 140.525L31.381 157.325L30.7788 158.223L32.3394 159.455L33.0726 158.661L47.4704 143.073C47.7305 142.793 47.913 142.437 47.9804 142.032L48.0421 141.658L52.3619 115.607L53.0881 111.228L43.7007 110.291V110.292Z" fill="#EEBB8F"/>
<path d="M45.3965 109.474H58.4926L64.1421 155.046L56.5219 156.154L45.3965 109.474Z" fill="url(#paint1_linear_1_12605)"/>
<path d="M41.8028 109.474H54.3851C54.3851 109.474 52.0799 138.602 50.2027 142.026C47.9522 146.13 39.0411 155.657 39.0411 155.657L32.989 150.982C32.989 150.982 39.3628 141.957 40.9037 137.721C42.4445 133.484 41.8022 109.474 41.8022 109.474H41.8028Z" fill="url(#paint2_linear_1_12605)"/>
<path d="M48.5661 81.3638C48.5661 81.3638 51.2579 83.7237 53.9504 82.1504C53.9504 82.1504 54.8712 91.9843 56.0756 95.9963C57.2801 100.008 60.4069 110.213 60.4069 110.213L41.2517 110.551C40.729 101.573 44.121 91.3744 48.5661 81.3638Z" fill="#76D2F3"/>
<path d="M50.5062 87.8375C49.2522 90.1809 48.0407 92.6234 46.9349 95.0584C46.3829 96.28 45.8557 97.5079 45.3775 98.7397C44.9018 99.9689 44.4675 101.212 44.1693 102.409C44.0961 102.709 44.0363 102.994 43.9842 103.287L43.8354 104.251C43.7495 104.906 43.6675 105.564 43.6001 106.231C43.4634 107.563 43.3572 108.911 43.2669 110.261C43.0939 112.963 42.9769 115.692 42.9101 118.399L42.8777 119.709L40.3334 119.73L40.2908 118.421C40.2011 115.657 40.163 112.914 40.182 110.148C40.1954 108.766 40.2253 107.38 40.2882 105.984C40.3188 105.286 40.3652 104.583 40.418 103.877L40.521 102.805C40.5674 102.42 40.6285 102.032 40.6984 101.664C40.9871 100.188 41.3941 98.8211 41.8354 97.4742C42.2787 96.1299 42.7651 94.8167 43.2732 93.5163C44.2983 90.9122 45.3909 88.3888 46.5889 85.842L47.525 83.8516L51.544 85.8986L50.5068 87.8369L50.5062 87.8375Z" fill="#F3C9AA"/>
<path d="M47.8948 80.2184C47.8948 80.2184 38.5417 94.2067 40.4456 109.128C40.4456 109.128 39.6418 112.059 50.2553 111.659C60.8682 111.26 61.4755 109.794 61.4755 109.794C58.1159 101.786 55.5061 92.7231 54.2095 81.8114C54.2095 81.8114 50.2413 81.957 47.8942 80.2178L47.8948 80.2184Z" fill="white"/>
<path d="M46.8875 112.287L38.7102 113.298C38.7102 113.298 39.0339 104.001 40.2466 98.6767C41.7709 91.9849 44.6141 82.015 49.744 83.3727C56.4473 85.1469 46.7228 98.5788 46.0207 102.261C45.4535 105.236 46.8875 112.287 46.8875 112.287Z" fill="#F4EFEF"/>
<path d="M40.1473 127.145C39.2742 126.924 38.644 124.824 39.0364 122.178C39.3982 119.739 40.7082 118.321 41.6061 118.472C43.6112 118.807 41.498 127.486 40.1473 127.144V127.145Z" fill="#F3C9AA"/>
<path d="M42.7455 123.787C43.1372 123.729 43.494 122.705 43.4228 121.341C43.3566 120.085 42.8358 119.287 42.4358 119.307C41.543 119.353 42.1395 123.876 42.7455 123.787Z" fill="#F3C9AA"/>
<path d="M71.6611 165.616L70.1164 165.341L64.4688 163.156V163.202C64.4688 163.202 64.4008 164.169 63.2275 164.351C62.3633 164.485 61.8031 164.255 61.5671 164.125C61.5112 164.073 61.4648 164.044 61.4393 164.044C61.0622 164.044 60.7563 164.661 60.7563 165.422C60.7563 165.672 60.7901 165.905 60.8473 166.108V167.165H72.0973V166.094C72.0973 165.846 71.9078 165.639 71.6605 165.617L71.6611 165.616Z" fill="#03053E"/>
<path d="M37.1446 165.475L36.1876 164.232L33.483 158.814L33.4525 158.848C33.4525 158.848 32.7504 159.517 31.7603 158.862C31.0309 158.38 30.7714 157.832 30.6856 157.577C30.6786 157.502 30.6646 157.449 30.6455 157.432C30.3664 157.178 29.7253 157.428 29.2128 157.991C29.0449 158.176 28.912 158.371 28.8185 158.559L28.1069 159.341L36.4254 166.915L37.1459 166.123C37.3131 165.939 37.3125 165.659 37.1446 165.476V165.475Z" fill="#03053E"/>
<path d="M50.8585 61.988C49.7234 61.988 48.9457 62.0898 47.9785 62.5909C46.4243 63.396 44.3741 65.3203 43.9664 69.6807C43.5868 73.7462 45.2147 75.736 41.7414 79.5712C37.8343 82.5378 30.871 82.0316 31.6754 88.6884C32.4798 95.3452 41.3077 94.4771 43.4056 91.1487C45.5041 87.8203 45.2682 84.8538 46.4351 82.7552C47.602 80.6567 49.628 81.8872 50.641 79.5718C51.8289 77.3938 49.7667 72.508 49.3953 71.6667C49.6439 70.8477 49.9644 69.9485 51.2922 69.5866C54.1405 68.8095 56.5017 66.1132 56.5017 65.2452C56.5017 64.3772 53.897 61.9893 50.8579 61.9893L50.8585 61.988Z" fill="#03053E"/>
<path d="M50.7645 70.2269C51.0589 70.8832 50.8535 71.6145 50.3066 71.8593C49.7597 72.1048 49.0774 71.7709 48.7836 71.1147C48.4892 70.4584 48.6946 69.7277 49.2415 69.4822C49.7884 69.2368 50.4707 69.5706 50.7645 70.2269Z" fill="#F3C9AA"/>
<path d="M189.547 83.2473H194.753V73.2888H191.572L189.547 83.2473Z" fill="#EEBB8F"/>
<path d="M185.705 68.2474C184.825 72.3351 185.475 76.4572 187.943 77.3513C190.258 78.19 194.275 75.9719 196.113 71.9307C198.048 67.6757 197.103 64.4962 193.675 63.3121C190.034 62.0542 186.669 63.7668 185.705 68.2474Z" fill="#F3C9AA"/>
<path d="M192.967 61.8673C196.753 62.1636 198.846 65.595 198.603 68.9889C198.377 72.1577 194.989 73.8499 194.989 73.8499C194.989 73.8499 193.871 70.6328 192.039 70.1202C189.484 69.4055 190.589 67.1212 189.395 66.8751C188.151 66.6182 185.445 65.63 185.491 63.8195C187.243 63.8806 188.715 61.5347 192.967 61.8673Z" fill="#03053E"/>
<path d="M194.665 71.7254C194.972 71.0408 194.759 70.2786 194.188 70.0228C193.618 69.767 192.907 70.1146 192.6 70.7991C192.293 71.4837 192.506 72.2459 193.077 72.5017C193.647 72.7574 194.358 72.4099 194.665 71.7254Z" fill="#F3C9AA"/>
<path d="M192.966 70.0579C192.966 70.0579 192.681 74.4762 191.837 76.1551C191.102 77.617 187.895 79.1254 186.148 75.6578C186.148 75.6578 187.916 76.0272 187.716 75.2781C187.48 74.3967 185.66 74.3872 185.66 74.3872C185.66 74.3872 185.304 74.37 185.24 74.0432C185.146 73.5573 185.383 72.7694 185.383 72.7694C185.383 72.7694 187.791 73.6279 188.829 73.6279C190.005 73.6279 191.073 72.798 192.068 70.0585H192.966V70.0579Z" fill="#03053E"/>
<path d="M177.763 167.468L182.547 140.703L185.797 127.514L189.07 114.299L190.182 109.806L199.567 112.8L197.87 117.106L192.925 129.652C191.281 133.84 189.61 138.026 187.984 142.231L179.945 168.002L179.61 169.077L177.563 168.578L177.762 167.469L177.763 167.468Z" fill="#EEBB8F"/>
<path d="M195.052 109.915L195.426 114.528L197.544 140.663L217.306 149.926L218.326 150.404L217.58 152.351L216.502 152.025L193.841 145.175C193.005 144.92 192.325 144.23 192.13 143.314L192.049 142.938L186.286 115.866L185.322 111.34L195.052 109.916L195.052 109.915Z" fill="#EEBB8F"/>
<path d="M200.942 107.062L183.398 110.47L177.914 162.905L183.798 163.712L200.942 107.062Z" fill="url(#paint3_linear_1_12605)"/>
<path d="M201.8 110.561L184.1 108.088C184.1 108.088 186.813 140.916 192.109 145.103C195.054 147.431 211.424 151.352 211.424 151.352L213.186 146.326C213.186 146.326 200.863 141.337 199.832 139.795C198.711 138.117 201.8 110.561 201.8 110.561Z" fill="url(#paint4_linear_1_12605)"/>
<path d="M191.164 83.7161L175.956 97.0647L178.146 96.9941L166.09 88.6986L164.995 87.945L163.47 90.0219L164.517 90.8403L176.046 99.8551C176.682 100.352 177.559 100.327 178.163 99.8437L178.236 99.7839L194.03 87.1336L195.771 85.739L192.841 82.2446L191.165 83.7161H191.164Z" fill="#FFEEE0"/>
<path d="M196.242 88.392C193.523 92.3271 183.358 100.057 176.895 100.333C173.057 100.496 166.622 93.1468 166.622 93.1468L168.609 89.9259C168.609 89.9259 173.541 95.2784 177.442 93.0463C181.342 90.8149 189.305 82.5626 192.292 82.7285C194.924 82.8748 197.463 86.6242 196.242 88.392Z" fill="#F4EFEF"/>
<path d="M194.398 81.1438C194.398 81.1438 191.667 83.538 188.936 81.9419C188.936 81.9419 188.002 91.9182 186.78 95.9887C185.558 100.059 182.2 110.54 182.2 110.54L201.819 110.754C202.349 101.646 198.908 91.3001 194.398 81.1438Z" fill="#DAC5AE"/>
<path d="M195.345 80.3247C195.345 80.3247 204.834 94.5159 202.902 109.654C202.902 109.654 203.717 112.627 192.95 112.222C182.183 111.816 181.567 110.329 181.567 110.329C184.976 102.206 187.623 93.0113 188.939 81.9412C188.939 81.9412 192.964 82.0894 195.346 80.3247H195.345Z" fill="white"/>
<path d="M192.254 87.3575C193.605 89.6913 194.915 92.1269 196.118 94.5586C196.719 95.7783 197.296 97.0063 197.821 98.2393C198.345 99.4692 198.827 100.715 199.17 101.919C199.255 102.221 199.325 102.508 199.387 102.802L199.57 103.775C199.68 104.436 199.785 105.1 199.876 105.774C200.059 107.121 200.212 108.483 200.349 109.85C200.615 112.584 200.826 115.346 200.985 118.09L201.061 119.417L203.642 119.352L203.641 118.023C203.638 115.218 203.585 112.435 203.473 109.631C203.412 108.23 203.336 106.826 203.225 105.413C203.171 104.707 203.1 103.995 203.023 103.281L202.882 102.198C202.822 101.809 202.747 101.418 202.663 101.046C202.321 99.5601 201.862 98.1878 201.37 96.8365C200.875 95.4883 200.338 94.1726 199.779 92.8715C198.652 90.2662 197.46 87.7441 196.159 85.2017L195.142 83.2151L191.137 85.4262L192.254 87.3568V87.3575Z" fill="#F3C9AA"/>
<path d="M196.937 82.8195C200.359 86.1606 202.329 93.7472 203.785 100.05C205.241 106.352 204.058 115.922 204.058 115.922L200.134 116.095C200.134 116.095 199.909 106.356 198.365 102.135C196.821 97.9143 190.025 88.6782 190.69 85.7619C191.276 83.1922 195.399 81.3188 196.937 82.8195Z" fill="#F4EFEF"/>
<path d="M159.437 85.5954C158.938 86.361 159.579 88.1168 161.218 89.4739C162.729 90.7247 164.377 90.6599 164.929 89.9203C166.162 88.2688 160.207 84.4113 159.437 85.5954Z" fill="#FFEEE0"/>
<path d="M202.387 127.163C203.298 127.092 204.288 125.1 204.35 122.387C204.407 119.886 203.34 118.244 202.417 118.24C200.355 118.231 200.978 127.272 202.387 127.162V127.163Z" fill="#F3C9AA"/>
<path d="M200.364 123.359C199.982 123.233 199.801 122.148 200.107 120.797C200.388 119.552 201.046 118.844 201.443 118.933C202.328 119.132 200.954 123.553 200.364 123.359H200.364Z" fill="#F3C9AA"/>
<path d="M169.923 170.404C169.923 170.404 171.276 170.046 171.651 169.912C173.147 169.374 177.021 167.786 177.021 167.786C177.021 167.786 177.498 168.556 178.695 168.705C179.576 168.815 180.225 168.497 180.251 168.497C180.634 168.485 180.963 169.102 180.986 169.875C180.993 170.128 180.967 170.366 180.914 170.574L180.946 171.646L169.527 171.989L169.494 170.902C169.486 170.651 169.673 170.434 169.923 170.404V170.404Z" fill="#03053E"/>
<path d="M216.861 160.326C216.861 160.326 216.914 158.927 216.895 158.53C216.816 156.942 216.427 152.773 216.427 152.773C216.427 152.773 217.302 152.54 217.793 151.44C218.155 150.629 218.04 149.916 218.047 149.891C218.147 149.522 218.833 149.386 219.579 149.59C219.824 149.657 220.044 149.751 220.226 149.862L221.261 150.144L218.26 161.167L217.212 160.882C216.969 160.816 216.816 160.575 216.86 160.327L216.861 160.326Z" fill="#03053E"/>
<path d="M162.09 85.1915C162.42 84.9626 163.395 85.4745 164.286 86.5339C165.108 87.5107 165.276 88.4633 164.965 88.7247C164.271 89.3097 161.578 85.5444 162.09 85.1909V85.1915Z" fill="#FFEEE0"/>
<defs>
<linearGradient id="paint0_linear_1_12605" x1="-0.000259535" y1="96.4996" x2="234.223" y2="96.4996" gradientUnits="userSpaceOnUse">
<stop stop-color="#7748FF"/>
<stop offset="1" stop-color="#48DEFF" stop-opacity="0.6"/>
</linearGradient>
<linearGradient id="paint1_linear_1_12605" x1="70.9413" y1="130.827" x2="52.5048" y2="132.66" gradientUnits="userSpaceOnUse">
<stop stop-color="#435AC1"/>
<stop offset="1" stop-color="#0F24A3"/>
</linearGradient>
<linearGradient id="paint2_linear_1_12605" x1="52.5085" y1="133.843" x2="38.8935" y2="130.841" gradientUnits="userSpaceOnUse">
<stop stop-color="#435AC1"/>
<stop offset="1" stop-color="#0F24A3"/>
</linearGradient>
<linearGradient id="paint3_linear_1_12605" x1="172.259" y1="135.287" x2="192.214" y2="135.386" gradientUnits="userSpaceOnUse">
<stop stop-color="#435AC1"/>
<stop offset="1" stop-color="#0F24A3"/>
</linearGradient>
<linearGradient id="paint4_linear_1_12605" x1="187.417" y1="133.205" x2="205.981" y2="126.951" gradientUnits="userSpaceOnUse">
<stop stop-color="#435AC1"/>
<stop offset="1" stop-color="#0F24A3"/>
</linearGradient>
</defs>
</svg>
