<svg width="263" height="216" viewBox="0 0 263 216" fill="none" xmlns="http://www.w3.org/2000/svg">
<path opacity="0.4" d="M212.167 60.3323C211.709 60.1431 211.407 59.6979 211.407 59.2C211.407 26.5043 184.99 0 152.405 0C129.562 0 109.751 13.0249 99.9465 32.0762C98.9165 34.0776 96.79 35.264 94.5521 35.0947C92.3497 34.9283 90.1253 34.8436 87.8803 34.8436C39.1542 34.8436 -0.310061 74.6325 0.00183611 123.596C0.311607 172.293 39.6766 211.375 88.2114 211.195C95.4517 211.168 102.486 210.263 109.213 208.58C123.839 204.92 139.243 205.623 153.365 210.915C162.029 214.161 171.399 215.954 181.182 215.999C225.56 216.2 261.884 180.139 262.135 135.612C262.325 101.633 241.624 72.481 212.168 60.333L212.167 60.3323Z" fill="url(#paint0_linear_1_18891)"/>
<g clip-path="url(#clip0_1_18891)">
<path d="M163.392 47.6953H95.279C87.0086 47.6953 80.3042 54.4432 80.3042 62.7671V189.16C80.3042 197.484 87.0086 204.232 95.279 204.232H163.392C171.662 204.232 178.367 197.484 178.367 189.16V62.7671C178.367 54.4432 171.662 47.6953 163.392 47.6953Z" fill="#194281"/>
<path d="M175.364 188.808V61.9155C175.364 56.1672 170.718 51.4907 165.007 51.4907H94.7473C89.036 51.4907 84.3896 56.1672 84.3896 61.9155V188.808H175.364Z" fill="#A7C8FB"/>
<path d="M131.994 193.274H126.891C125.311 193.274 124.03 194.564 124.03 196.154C124.03 197.745 125.311 199.034 126.891 199.034H131.994C133.575 199.034 134.856 197.745 134.856 196.154C134.856 194.564 133.575 193.274 131.994 193.274Z" fill="#A7C8FB"/>
<path d="M127.921 108.094H133.5C151.013 108.094 165.23 122.404 165.23 140.03V168.788H96.1899V140.03C96.1899 122.404 110.408 108.094 127.921 108.094Z" fill="#FFAB48"/>
<path d="M144.225 83.4747C143.84 92.0683 137.374 104.423 129.328 104.057C121.282 103.69 115.207 91.291 115.09 82.1493C114.979 73.5481 122.31 66.8855 130.356 67.2517C138.402 67.6179 144.611 74.8798 144.225 83.4734V83.4747Z" fill="#F09B96"/>
<path d="M139.458 76.0117C139.458 76.0117 128.225 79.9877 124.337 78.2155C120.449 76.4419 121.736 86.9217 120.198 87.5223C120.198 87.5223 120.272 82.792 117.578 82.7997C114.885 82.8074 115.269 89.7415 117.899 92.7046C117.899 92.7046 117.221 92.081 116.673 90.7441C115.23 87.2278 108.106 70.4747 128.383 66.0069C129.728 65.7111 131.105 65.5728 132.455 65.8405C135.452 66.4346 139.888 68.5654 139.457 76.0129L139.458 76.0117Z" fill="#313A78"/>
<path d="M136.287 75.607C136.287 75.607 142.253 78.4511 140.886 85.2622C139.517 92.0721 142.442 91.6341 142.442 91.6341C142.442 91.6341 142.85 88.6172 144.225 83.4759C146.536 74.8362 140.682 69.2672 137.304 68.7396C133.926 68.212 136.287 75.6083 136.287 75.6083V75.607Z" fill="#313A78"/>
<path d="M141.201 87.6874C141.201 87.6874 142.651 83.0404 144.131 84.6641C145.611 86.2878 142.411 94.4153 140.954 93.2078C139.496 92.0002 141.202 87.6887 141.202 87.6887L141.201 87.6874Z" fill="#F09B96"/>
<path d="M122.248 112.363L130.71 127.051L138.902 112.458C138.167 107.481 136.578 102.508 136.363 97.2312L123.799 97.997C123.799 97.997 123.621 106.37 122.247 112.363H122.248Z" fill="#F09B96"/>
<g style="mix-blend-mode:multiply">
<path d="M134.912 102.262C134.912 102.262 128.299 105.27 123.627 101.685C123.627 101.685 123.559 104.067 123.335 105.25C123.335 105.25 128.584 106.437 134.912 102.262Z" fill="#CCCCCC"/>
</g>
<g style="mix-blend-mode:multiply">
<path d="M140.887 90.2511C140.887 90.2511 141.606 85.9588 142.464 86.3493C143.323 86.7399 143.033 88.936 142.291 90.7313C142.291 90.7313 143.226 87.0152 142.341 86.9333C142.341 86.9333 141.589 87.48 140.887 90.2498V90.2511Z" fill="#CCCCCC"/>
</g>
<g style="mix-blend-mode:multiply">
<path d="M119.688 88.0755C119.688 88.0755 118.654 83.5847 117.82 83.7601C116.988 83.9356 116.412 84.969 116.936 87.7234C116.936 87.7234 117.143 83.0994 117.902 84.563C118.66 86.0267 119.687 88.0755 119.687 88.0755H119.688Z" fill="#CCCCCC"/>
</g>
<g style="mix-blend-mode:multiply" opacity="0.54">
<path d="M150.723 168.788V147.706L153.391 131.794L149.388 145.087L147.609 138.441L149.388 168.788H150.723Z" fill="#E6E7E8"/>
</g>
<g style="mix-blend-mode:multiply" opacity="0.54">
<path d="M108.919 168.788V147.706L106.251 131.794L110.254 145.087L112.032 138.441L110.254 168.788H108.919Z" fill="#E6E7E8"/>
</g>
<path d="M138.903 112.458L130.711 127.051L122.247 112.363L123.34 108.094L119.688 114.087L129.124 128.786V152.305L131.723 149.004L132.267 128.919L141.937 112.886L138.081 108.094L138.903 112.458Z" fill="#D6D6D6"/>
<path d="M101.925 68.8459V62.9478H111.667" stroke="white" stroke-miterlimit="10"/>
<path d="M157.877 68.8459V62.9478H148.135" stroke="white" stroke-miterlimit="10"/>
<path d="M101.925 110.641V116.539H111.667" stroke="white" stroke-miterlimit="10"/>
<path d="M157.877 110.641V116.539H148.135" stroke="white" stroke-miterlimit="10"/>
<path opacity="0.31" d="M154.72 65.8967H105.081V67.2387H154.72V65.8967Z" fill="white"/>
<path opacity="0.31" d="M154.72 68.8457H105.081V70.1877H154.72V68.8457Z" fill="white"/>
<path opacity="0.31" d="M154.72 71.7949H105.081V73.1369H154.72V71.7949Z" fill="white"/>
<path opacity="0.31" d="M154.72 74.7439H105.081V76.0859H154.72V74.7439Z" fill="white"/>
<path opacity="0.31" d="M154.72 77.6917H105.081V79.0336H154.72V77.6917Z" fill="white"/>
<path opacity="0.31" d="M154.72 80.6406H105.081V81.9826H154.72V80.6406Z" fill="white"/>
<path opacity="0.31" d="M154.72 83.5898H105.081V84.9318H154.72V83.5898Z" fill="white"/>
<path opacity="0.31" d="M154.72 86.5388H105.081V87.8808H154.72V86.5388Z" fill="white"/>
<path opacity="0.31" d="M154.72 89.4866H105.081V90.8286H154.72V89.4866Z" fill="white"/>
<path opacity="0.31" d="M154.72 92.4355H105.081V93.7775H154.72V92.4355Z" fill="white"/>
<path opacity="0.31" d="M154.72 95.3848H105.081V96.7268H154.72V95.3848Z" fill="white"/>
<path opacity="0.31" d="M154.72 98.3337H105.081V99.6757H154.72V98.3337Z" fill="white"/>
<path opacity="0.31" d="M154.72 101.283H105.081V102.625H154.72V101.283Z" fill="white"/>
<path opacity="0.31" d="M154.72 104.23H105.081V105.572H154.72V104.23Z" fill="white"/>
<path opacity="0.31" d="M154.72 107.18H105.081V108.522H154.72V107.18Z" fill="white"/>
<path opacity="0.31" d="M154.72 110.129H105.081V111.471H154.72V110.129Z" fill="white"/>
<path opacity="0.31" d="M154.72 113.078H105.081V114.42H154.72V113.078Z" fill="white"/>
<path d="M87.1797 105.142L80.9888 104.397V99.7921L87.1797 99.0469V105.142Z" fill="#FEFEFC"/>
<path d="M82.8881 100.997C82.8194 100.997 82.7608 100.943 82.757 100.872C82.7532 100.799 82.8079 100.736 82.8804 100.732L86.3525 100.528C86.425 100.526 86.4874 100.58 86.4912 100.653C86.495 100.726 86.4403 100.788 86.3678 100.792L82.8957 100.996C82.8957 100.996 82.8906 100.996 82.8881 100.996V100.997Z" fill="#7C98C3"/>
<path d="M82.812 101.892C82.7408 101.892 82.681 101.835 82.6797 101.762C82.6797 101.689 82.7369 101.628 82.8095 101.627L86.3579 101.571C86.4316 101.571 86.4902 101.628 86.4914 101.701C86.4914 101.774 86.4342 101.835 86.3617 101.836L82.8133 101.892H82.8107H82.812Z" fill="#7C98C3"/>
<path d="M86.3616 102.876C86.3616 102.876 86.3591 102.876 86.3578 102.876L81.5206 102.747C81.4481 102.746 81.3908 102.685 81.3921 102.612C81.3947 102.54 81.4532 102.482 81.5232 102.482C81.5244 102.482 81.5257 102.482 81.527 102.482L86.3642 102.61C86.4367 102.612 86.494 102.673 86.4927 102.746C86.4901 102.818 86.4316 102.876 86.3616 102.876Z" fill="#7C98C3"/>
<path d="M86.3617 103.873C86.3617 103.873 86.3553 103.873 86.3527 103.873L81.5155 103.548C81.443 103.543 81.3883 103.48 81.3934 103.407C81.3985 103.334 81.4621 103.278 81.5333 103.284L86.3706 103.609C86.4431 103.615 86.4978 103.677 86.494 103.75C86.4889 103.821 86.4316 103.875 86.3629 103.875L86.3617 103.873Z" fill="#7C98C3"/>
<path d="M79.9634 105.54L80.3197 104.704L79.8057 103.111L80.4393 101.28L82.4177 101.24C82.4177 101.24 83.3273 101.958 81.3095 101.958L82.4965 102.197L82.3388 103.59L81.4685 103.63L81.7065 104.706L80.7179 106.338L79.966 105.542L79.9634 105.54Z" fill="#F2B694"/>
<path d="M90.9876 106.095L89.438 105.443L90.8235 97.5345L92.7103 97.3386L90.9876 106.095Z" fill="#7C98C3"/>
<path d="M92.7103 97.3386L90.6149 97.5153L89.2803 105.597L90.5068 105.863L90.5564 105.615L89.5055 105.428L90.8045 97.7458L92.4368 97.5781L92.7103 97.3386Z" fill="#25549B"/>
<path d="M91.0893 105.722L90.3145 105.653L91.9939 97.3681L92.7102 97.3386L91.0893 105.722Z" fill="#25549B"/>
<path d="M90.7457 106.491L92.0332 105.533L92.3335 103.51L91.8844 101.973L91.0752 102.052L91.0879 102.275L91.4989 102.365L91.7113 102.91L90.7139 102.89L90.6706 104.192L91.1897 104.239L90.864 105.074L90.0879 105.822L90.7457 106.491Z" fill="#F2B694"/>
<path d="M90.182 105.562L79.7163 115.837L65.2784 107.294L65.1079 107.273V116.294L78.734 121.947C79.4592 122.248 80.2939 122.04 80.7964 121.436L92.3526 107.541L90.1833 105.564L90.182 105.562Z" fill="white"/>
<path d="M66.2709 96.5398L69.9847 99.2801L72.4173 100.517L71.9389 101.47C71.9389 101.47 73.617 105.224 69.8918 105.551L69.4783 107.39L69.4948 112.352L65.2683 110.372L63.4312 109.975L64.538 106.757C64.538 106.757 64.6373 98.7833 66.2709 96.5411V96.5398Z" fill="#F2B694"/>
<path d="M67.622 97.226C67.622 97.226 65.5381 98.0251 65.3536 98.9023C65.1691 99.7794 68.1475 102.444 68.1475 102.444L67.8065 103.124L65.4375 101.92C65.4375 101.92 64.2085 103.002 65.1564 103.826L66.2404 104.376L64.538 106.754L59.8179 101.625L60.2683 99.0367C60.2683 99.0367 67.0966 92.0079 67.622 97.226Z" fill="#0C3674"/>
<path d="M69.8918 105.551L67.9682 105.393L65.0012 100.78C65.0012 100.78 63.6691 102.125 65.8295 104.951L65.0508 106.04L64.5381 106.756L66.8358 107.924L69.4491 107.595L69.8931 105.551H69.8918Z" fill="#E1A989"/>
<path d="M69.8051 99.1301C69.8051 99.1301 69.1894 98.778 69.0494 99.6808L68.6436 100.344C68.6436 100.344 70.2148 99.5169 69.8051 99.1301Z" fill="#5B628C"/>
<path d="M67.388 153.314L65.7391 200.923L63.1525 200.998L57.8662 169.613L59.3077 157.385L62.879 149.368L67.388 153.314Z" fill="#0C3674"/>
<path d="M64.4236 105.882L69.3206 111.682L72.5764 131.279L67.7646 154.125L51.4819 150.217L54.5074 135.519L54.3789 117.499C54.37 116.247 54.7415 115.023 55.4438 113.989L57.2428 111.345C57.6232 110.45 62.7442 107.046 63.5686 106.537L64.4236 105.882Z" fill="white"/>
<path d="M54.3431 150.903L57.3393 173.27C57.3393 173.27 52.4181 177.415 61.7096 203.063L63.5862 203.278L66.2656 153.764L54.3418 150.902L54.3431 150.903Z" fill="#113380"/>
<path d="M61.6679 202.195L60.9287 203.417L61.561 204.631L62.8091 204.635L62.9936 204.045L63.827 204.808L66.57 204.789L67.1247 204.158L64.042 203.359L62.9326 202.341L61.6679 202.195Z" fill="#0C3674"/>
<path d="M64.0061 200.817L63.2656 202.04L63.8979 203.253L65.1461 203.257L65.3318 202.666L66.1639 203.43L68.9082 203.411L69.4629 202.778L66.3802 201.979L65.2695 200.963L64.0061 200.817Z" fill="#0C3674"/>
<path d="M71.8867 134.302L72.7022 130.573L69.3205 111.682L68.3828 113.277L71.8867 134.302Z" fill="#D6D6D6"/>
<path d="M72.0435 134.882L68.2432 110.309L64.4238 105.882L67.99 119.849L65.9353 119.704L72.0435 134.882Z" fill="white"/>
<path d="M69.3207 111.682L64.4237 105.882L62.897 107.171L67.9123 115.755L69.3207 111.682Z" fill="white"/>
<path d="M69.3206 111.682L68.6094 113.838L69.0928 114.691L70.0292 114.774L70.4936 113.167L69.3206 111.682Z" fill="#D6D6D6"/>
<g style="mix-blend-mode:multiply">
<path d="M65.7785 153.855L54.3433 150.903L54.4501 151.939L65.7785 153.855Z" fill="#CCCCCC"/>
</g>
<path d="M67.3356 142.678L58.7541 140.458L58.3457 141.809L67.4171 143.415L67.3356 142.678Z" fill="#D6D6D6"/>
<path d="M71.1156 152.366L71.8866 134.302L67.7632 154.124L69.108 153.124" fill="white"/>
<path d="M62.028 110.746L72.7024 116.977L79.8946 105.113L82.2623 106.629L75.5205 121.574C74.6083 123.597 72.2469 124.504 70.2278 123.606L55.8052 117.869C55.8052 117.869 55.1386 116.566 54.9732 115.758C54.1551 111.754 58.5152 108.696 62.028 110.746Z" fill="white"/>
<g style="mix-blend-mode:multiply">
<path d="M55.8052 117.869L69.4084 124.664C70.2316 125.075 71.229 124.78 71.7011 123.988L55.8052 117.868V117.869Z" fill="#CCCCCC"/>
</g>
<path d="M180.31 192.699L185.439 190.72C185.098 188.887 184.438 186.836 183.247 185.135C181.79 183.058 179.85 181.897 178.279 181.235C176.708 180.575 175.505 180.419 175.505 180.419C175.505 180.419 175.51 181.884 175.864 183.86C176.033 184.84 176.298 185.957 176.687 187.086C177.068 188.205 177.583 189.348 178.283 190.396C178.89 191.31 179.589 192.066 180.31 192.699Z" fill="#99B0D3"/>
<path d="M187.183 170.473C188.802 172.628 189.671 175.31 190.121 177.455C190.57 179.6 190.605 181.209 190.605 181.209C190.605 181.209 189.364 181.033 187.728 180.308C186.092 179.584 184.06 178.314 182.463 176.169C180.862 174.017 179.989 171.386 179.512 169.266C179.037 167.15 178.966 165.551 178.966 165.551C178.966 165.551 183.944 166.152 187.182 170.472L187.183 170.473Z" fill="#99B0D3"/>
<path d="M191.74 156.45C193.202 158.503 193.953 161.058 194.342 163.104C194.732 165.15 194.751 166.688 194.751 166.688C194.751 166.688 189.957 166.351 186.967 162.313C185.47 160.294 184.721 157.71 184.366 155.606C184.19 154.553 184.107 153.624 184.068 152.961C184.035 152.294 184.045 151.89 184.045 151.89C184.045 151.89 185.243 151.993 186.801 152.62C188.362 153.246 190.268 154.4 191.74 156.45Z" fill="#99B0D3"/>
<path d="M196.497 141.667C197.153 142.767 197.637 143.977 197.997 145.173C198.349 146.368 198.572 147.546 198.728 148.591C199.021 150.674 199.004 152.221 199.004 152.221C199.004 152.221 197.805 152.081 196.242 151.419C194.686 150.755 192.747 149.57 191.345 147.414C190.647 146.336 190.138 145.114 189.784 143.882C189.442 142.65 189.243 141.409 189.133 140.301C188.949 138.08 189.108 136.397 189.108 136.397C189.108 136.397 190.308 136.591 191.82 137.36C193.329 138.126 195.172 139.467 196.494 141.668L196.497 141.667Z" fill="#99B0D3"/>
<path d="M202.798 127.274C203.842 129.644 204.123 132.33 204.217 134.437C204.245 135.484 204.241 136.396 204.213 137.041C204.185 137.687 204.142 138.068 204.142 138.068C204.142 138.068 202.959 137.826 201.466 137.034C199.975 136.239 198.175 134.894 196.987 132.578C195.824 130.269 195.545 127.402 195.657 125.102C195.689 123.951 195.842 122.948 195.964 122.232C196.087 121.515 196.191 121.087 196.191 121.087C196.191 121.087 197.356 121.42 198.753 122.379C200.152 123.333 201.784 124.915 202.798 127.272V127.274Z" fill="#99B0D3"/>
<path d="M198.589 173.718C196.081 174.723 193.933 176.556 192.4 178.127C190.867 179.698 189.954 181.01 189.954 181.01C189.954 181.01 191.083 181.559 192.842 181.869C194.601 182.177 196.991 182.248 199.522 181.245C202.045 180.246 204.217 178.369 205.741 176.762C207.268 175.152 208.156 173.813 208.156 173.813C208.156 173.813 203.596 171.715 198.589 173.718Z" fill="#99B0D3"/>
<path d="M202.024 159.525C199.694 160.39 197.709 162.138 196.308 163.667C194.912 165.198 194.095 166.502 194.095 166.502C194.095 166.502 198.361 168.706 202.999 166.883C205.318 165.97 207.291 164.246 208.687 162.785C209.385 162.058 209.937 161.385 210.316 160.895C210.698 160.411 210.904 160.107 210.904 160.107C210.904 160.107 209.847 159.541 208.209 159.178C206.573 158.817 204.345 158.65 202.024 159.524V159.525Z" fill="#99B0D3"/>
<path d="M206.712 145.504C205.505 145.844 204.38 146.419 203.371 147.093C202.356 147.764 201.453 148.533 200.716 149.265C199.222 150.722 198.356 152.011 198.356 152.011C198.356 152.011 199.413 152.598 201.066 152.974C202.721 153.355 204.957 153.51 207.331 152.741C208.52 152.359 209.621 151.776 210.613 151.135C211.613 150.5 212.496 149.797 213.228 149.141C214.718 147.86 215.602 146.764 215.602 146.764C215.602 146.764 214.576 146.134 212.953 145.644C211.324 145.153 209.116 144.82 206.711 145.504H206.712Z" fill="#99B0D3"/>
<path d="M212.418 132.296C209.989 132.659 207.716 134.001 206.11 135.302C205.29 135.943 204.655 136.577 204.208 137.04C203.763 137.505 203.516 137.803 203.516 137.803C203.516 137.803 204.512 138.483 206.119 139.007C207.724 139.535 209.94 139.907 212.33 139.401C214.743 138.911 216.884 137.687 218.46 136.664C219.233 136.133 219.884 135.67 220.328 135.322C220.771 134.973 221.015 134.749 221.015 134.749C221.015 134.749 220.075 133.996 218.542 133.295C217.005 132.597 214.876 131.949 212.421 132.296H212.418Z" fill="#99B0D3"/>
<path d="M214.165 124.974C213.341 126.194 212.487 127.32 211.577 128.277C210.693 129.251 209.816 130.096 209.006 130.778C207.449 132.177 206.216 132.948 206.216 132.948C206.216 132.948 206.117 131.503 206.403 129.329C206.732 127.184 207.472 124.282 209.226 121.632C210.067 120.29 211.122 119.178 212.127 118.23C213.159 117.298 214.216 116.576 215.119 116.005C217.006 114.923 218.347 114.494 218.347 114.494C218.347 114.494 218.091 115.946 217.409 117.922C216.773 119.949 215.745 122.491 214.165 124.975V124.974Z" fill="#99B0D3"/>
<path d="M188.137 189.679C191.28 180.474 193.728 171.065 196.389 161.752C199.438 151.041 202.874 140.398 207.893 130.493L207.475 130.278C202.433 140.229 198.992 150.902 195.938 161.621C193.241 171.069 190.764 180.6 187.565 189.899L188.137 189.679Z" fill="#99B0D3"/>
<path d="M211.285 108.39L205.493 121.425L198.8 131.705L200.288 132.597L211.453 120.661L211.285 108.39Z" fill="white"/>
<g style="mix-blend-mode:multiply">
<path d="M139.75 127.413C139.75 127.413 128.766 184.316 165.351 201.904H171.238L164.719 143.947L142.163 128.055" fill="#E6E6E6"/>
</g>
<path d="M177.312 201.749C176.841 201.621 165.673 198.468 155.407 187.663C145.985 177.747 135.619 159.243 139.751 127.413L139.939 125.958L141.352 125.6C153.506 122.518 173.816 116.839 176.573 114.718L177.874 113.715L179.176 114.718C181.933 116.84 202.242 122.519 214.397 125.6L215.81 125.958L215.998 127.413C220.129 159.242 209.764 177.747 200.342 187.663C190.076 198.47 178.908 201.621 178.437 201.749L177.873 201.904L177.31 201.749H177.312ZM177.876 118.93C171.536 122.169 150.844 127.619 143.823 129.421C141.074 152.83 145.959 171.362 158.356 184.522C166.547 193.217 175.564 196.636 177.876 197.408C180.194 196.635 189.207 193.214 197.395 184.522C209.792 171.363 214.678 152.83 211.928 129.421C204.908 127.619 184.216 122.169 177.876 118.93Z" fill="#3660A1"/>
<path d="M177.875 116.883C173.773 120.041 142.163 128.055 142.163 128.055C134.441 187.556 177.875 199.455 177.875 199.455V116.883Z" fill="white"/>
<path d="M213.587 128.055C213.587 128.055 181.977 120.04 177.875 116.883V199.455C177.875 199.455 221.309 187.554 213.587 128.055Z" fill="#E6E6E6"/>
<path d="M169.921 179.44C169.895 179.44 169.869 179.44 169.842 179.438C169.26 179.415 168.717 179.136 168.356 178.675L158.407 165.944L161.537 163.466L170.042 174.349L200.578 141.058L203.505 143.777L171.385 178.795C171.007 179.208 170.476 179.441 169.921 179.441V179.44Z" fill="#00005A"/>
<path d="M214.063 95.0582L215.034 94.5767L216.127 95.1491C216.127 95.1491 215.278 94.3001 215.095 94.2092C214.986 94.1554 214.507 94.4704 214.141 94.7316C213.895 94.9071 213.701 95.0582 213.701 95.0582C213.701 95.0582 214.073 95.3207 214.062 95.0582H214.063Z" fill="#1A4583"/>
<path d="M214.684 95.7228C214.684 95.984 214.589 96.1953 214.472 96.1953C214.355 96.1953 214.259 95.984 214.259 95.7228C214.259 95.4615 214.355 95.2502 214.472 95.2502C214.589 95.2502 214.684 95.4615 214.684 95.7228Z" fill="#1A4583"/>
<g style="mix-blend-mode:multiply">
<path d="M218.108 144.431L212.686 141.705L211.874 140.925L210.404 138.204L212.173 138.833L212.898 140.268L218.108 144.431Z" fill="#E6E6E6"/>
</g>
<path d="M224.028 197.943L222.661 202.489L223.483 202.008L224.825 200.081L224.028 197.943Z" fill="#F2B694"/>
<path d="M216.699 197.28L214.773 201.352L214.027 202.008L215.02 201.689L217.1 198.813L216.699 197.28Z" fill="#E2AA8A"/>
<path d="M211.284 108.39L211.73 127.066L209.813 136.747L213.511 138.943L214.926 124.565L215.657 114.047L214.723 111.216L211.284 108.39Z" fill="white"/>
<path d="M225.021 148.514L225.863 145.982C226.604 143.756 226.419 141.323 225.349 139.237L223.37 136.747L225.02 148.514H225.021Z" fill="#FCEE21"/>
<path d="M214.027 137.499L216.134 200.751L217.234 200.034C217.234 200.034 223.173 178.933 218.16 164.829L219.027 137.691L214.027 137.497V137.499Z" fill="#E2AA8A"/>
<path d="M224.582 133.587L225.142 200.057L223.96 199.981C223.96 199.981 220.376 182.364 218.162 170.313L212.099 136.967L224.582 133.588V133.587Z" fill="#F2B694"/>
<path d="M212.099 136.747L213.433 162.816H225.634L225.021 148.514C225.021 148.514 228.858 142.551 224.362 136.747H212.099Z" fill="#113380"/>
<path d="M225.469 196.718L224.67 198.087L223.037 201.909L221.397 202.662C221.054 202.82 220.838 203.188 220.853 203.589L223.716 203.461L224.824 200.078L225.081 202.733L225.184 203.395L225.725 203.37L225.818 200.033L226.113 197.854L225.469 196.715V196.718Z" fill="#00005A"/>
<path d="M218.081 196.66L217.111 197.966L215.02 201.689L213.254 202.257C212.885 202.376 212.623 202.729 212.595 203.142L215.549 203.37L217.054 200.034L217.031 202.794L217.066 203.487L217.624 203.53L218.081 200.114L218.62 197.911L218.082 196.661L218.081 196.66Z" fill="#00005A"/>
<path d="M226.701 140.569L224.077 141.783L222.165 136.747L222.724 134.442L223.37 134.13L226.701 140.569Z" fill="#FF0000"/>
<path d="M225.142 193.146C225.142 193.146 226.984 178.641 224.947 174.138V162.815L218.16 162.801L225.141 193.145L225.142 193.146Z" fill="#F2B694"/>
<g style="mix-blend-mode:multiply">
<path d="M217.1 162.802L214.277 143.069L215.688 162.816L217.1 162.802Z" fill="#E6E6E6"/>
</g>
<path d="M219.992 101.586L216.802 105.582L216.985 102.654L217.094 102.18L216.689 101.407C216.689 101.407 217.408 101.184 217.56 101.184C217.713 101.184 219.672 101.014 219.672 101.014L219.992 101.585V101.586Z" fill="#F2B694"/>
<g style="mix-blend-mode:multiply">
<path d="M216.986 102.656L213.531 108.93L212.561 109.841L214.277 106.491L216.986 102.656Z" fill="#E6E6E6"/>
</g>
<path d="M219.992 101.586L220.777 101.978L218.542 105.978L218.341 114.982L217.396 116.378L217.755 105.583L219.992 101.586Z" fill="#FF4949"/>
<path d="M218.341 122.826L217.375 125.937L217.142 122.536C217.142 122.536 217.794 122.853 218.341 122.825V122.826Z" fill="#FF4949"/>
<path d="M216.985 102.656L213.632 104.931L211.284 108.39L214.723 111.216L215.564 106.249L216.985 102.656Z" fill="white"/>
<path d="M214.034 91.3049C214.034 91.3049 210.736 97.2286 215.654 103.375L217.142 106.249L219.347 103.375L219.087 100.21L214.034 91.3062V91.3049Z" fill="#1A4583"/>
<path d="M213.895 93.2411C213.895 93.2411 213.117 89.8925 216.926 89.0589C220.735 88.2253 223.8 89.1306 223.716 94.1374C223.633 99.1443 225.124 97.8523 227.36 99.6027C229.595 101.353 230.548 101.812 230.3 103.812C230.052 105.812 230.797 105.562 232.495 107.437C234.192 109.313 234.441 114.612 232.785 115.525C231.128 116.439 230.126 115.313 229.406 118.522C228.685 121.731 221.51 116.105 221.51 116.105L218.137 98.3068L216.057 96.5167L213.895 93.2385V93.2411Z" fill="#1A4583"/>
<path d="M219.764 101.267L220.017 101.969L216.848 103.375C217.006 102.649 217.052 102.184 217.052 102.184L217.094 102.182C216.861 101.672 216.622 101.261 216.492 101.148C216.178 100.87 215.043 100.623 214.016 101.028C212.994 101.436 213.208 100.325 213.287 100.056C213.371 99.7871 213.261 99.6962 213.058 99.6066C212.856 99.522 212.749 99.3991 213.004 99.3146C213.26 99.2301 213.303 98.8651 213.073 98.9151C212.848 98.965 212.478 98.7614 212.728 98.6718C212.906 98.6116 212.887 97.7011 212.655 97.6525C212.422 97.6038 211.634 97.162 212.475 96.9699C213.316 96.7766 213.721 95.5857 213.721 95.5857C213.487 94.4793 213.657 93.7238 213.894 93.2411C213.894 93.2411 216.487 93.209 217.256 94.3513L218.137 96.6703C218.137 96.6703 218.846 94.131 219.405 95.1721C219.965 96.208 219.604 97.7959 218.893 97.8471L218.779 99.6168L219.671 101.015L219.763 101.267H219.764Z" fill="#F2B694"/>
<path d="M218.855 97.3311L220.105 99.2403L218.346 100.21L218.855 97.3311Z" fill="#00005A"/>
<path d="M212.099 136.747L213.366 128.275L212.162 116.165C208.457 111.736 212.566 110.229 213.531 108.931L216.985 102.657H218.469L219.992 101.588L225.343 104.099L225.634 118.474L224.328 137.246L212.099 136.748V136.747Z" fill="#FCF7F3"/>
<path d="M217.671 107.52L217.141 124.585C217.164 125.556 217.985 128.267 218.506 129.087L223.37 142.111L231.833 138.194L226.008 125.702L228.624 113.065C229.458 110.077 230.115 108.933 228.746 106.308L228.59 106.087C228.305 105.688 227.926 105.366 227.487 105.151L222.725 102.813L219.993 101.589L217.97 105.575L217.674 107.523L217.671 107.52Z" fill="white"/>
<path d="M221.51 137.13L218.292 128.545C217.996 128.079 217.792 127.178 217.374 125.937L216.76 117.918C216.76 117.918 217.294 117.338 213.075 115.835C210.006 114.741 211.811 116.899 211.811 116.899L212.609 120.67L215.796 123.362L216.632 129.543L220.656 137.095L221.51 137.13Z" fill="#E6E6E6"/>
<path d="M203.153 111.408L201.801 109.485L201.03 108.388C201.03 108.388 200.646 108.569 201.615 110.238L198.988 109.843L200.05 111.353L201.887 111.787L202.873 112.318L203.153 111.409V111.408Z" fill="#F2B694"/>
<g style="mix-blend-mode:multiply">
<path d="M218.346 96.7778L218.997 95.4346C218.997 95.4346 219.596 96.2247 219.226 96.7778L219.039 96.0748L218.346 96.7778Z" fill="#E6E6E6"/>
</g>
<g style="mix-blend-mode:multiply">
<path d="M229.407 108.93C229.407 108.93 225.168 124.33 217.315 125.034L217.142 121.648C217.142 121.648 226.192 112.069 226.311 111.961C226.43 111.854 229.407 108.93 229.407 108.93Z" fill="#E6E6E6"/>
</g>
<path d="M222.866 107.666C223.755 106.338 224.862 105.077 226.465 104.936C227.414 104.853 228.146 105.694 228.745 106.306C231.487 109.103 224.27 118.16 220.792 121.829C219.695 122.985 217.922 123.157 216.623 122.237L201.425 112.714L202.815 110.833C205.584 111.779 208.413 113.242 211.137 114.448C212.493 115.048 213.839 115.668 215.174 116.311C216.236 116.822 217.022 116.974 217.738 115.833C219.116 113.639 220.494 111.442 221.873 109.248C222.181 108.757 222.506 108.207 222.867 107.668L222.866 107.666Z" fill="white"/>
<path d="M214.6 90.319C214.6 90.319 212.73 92.0452 212.951 94.1363L217.705 93.6625C217.705 93.6625 217.918 89.8555 214.6 90.3177V90.319Z" fill="#105F9A"/>
<g style="mix-blend-mode:multiply">
<path d="M213.484 94.0836L213.735 94.2078L217.142 94.2027L218.065 96.4769L217.706 93.6636L213.484 94.0836Z" fill="#E6E6E6"/>
</g>
</g>
<defs>
<linearGradient id="paint0_linear_1_18891" x1="-0.000290465" y1="108" x2="262.135" y2="108" gradientUnits="userSpaceOnUse">
<stop stop-color="#7748FF"/>
<stop offset="1" stop-color="#48DEFF" stop-opacity="0.6"/>
</linearGradient>
<clipPath id="clip0_1_18891">
<rect width="182.425" height="165.637" fill="white" transform="translate(51.4819 39.1709)"/>
</clipPath>
</defs>
</svg>
