<svg width="125" height="36" viewBox="0 0 125 36" fill="none" xmlns="http://www.w3.org/2000/svg">
<rect width="124.069" height="35.1692" rx="17.5846" fill="#FFAB48"/>
<path d="M35.3136 20.329H31.8209L31.2429 22H29.3961L32.5495 13.218H34.5974L37.7509 22H35.8915L35.3136 20.329ZM34.8361 18.9219L33.5672 15.2533L32.2983 18.9219H34.8361ZM38.4773 18.4947C38.4773 17.7912 38.6155 17.1672 38.8919 16.6227C39.1767 16.0783 39.562 15.6595 40.0478 15.3664C40.5336 15.0732 41.0738 14.9266 41.6685 14.9266C42.1208 14.9266 42.5522 15.0272 42.9626 15.2282C43.373 15.4208 43.6997 15.6805 43.9425 16.0071V12.7029H45.7266V22H43.9425V20.9698C43.7248 21.3132 43.4191 21.5896 43.0254 21.799C42.6317 22.0084 42.1753 22.1131 41.656 22.1131C41.0697 22.1131 40.5336 21.9623 40.0478 21.6608C39.562 21.3593 39.1767 20.9363 38.8919 20.3918C38.6155 19.839 38.4773 19.2067 38.4773 18.4947ZM43.9551 18.5199C43.9551 18.0927 43.8714 17.7283 43.7038 17.4268C43.5363 17.1169 43.3102 16.8824 43.0254 16.7233C42.7406 16.5557 42.4349 16.472 42.1083 16.472C41.7816 16.472 41.4801 16.5515 41.2037 16.7107C40.9273 16.8698 40.7011 17.1044 40.5252 17.4143C40.3577 17.7158 40.274 18.0759 40.274 18.4947C40.274 18.9135 40.3577 19.2821 40.5252 19.6003C40.7011 19.9102 40.9273 20.149 41.2037 20.3165C41.4884 20.484 41.79 20.5677 42.1083 20.5677C42.4349 20.5677 42.7406 20.4882 43.0254 20.329C43.3102 20.1615 43.5363 19.927 43.7038 19.6255C43.8714 19.3156 43.9551 18.947 43.9551 18.5199ZM46.9922 18.4947C46.9922 17.7912 47.1304 17.1672 47.4068 16.6227C47.6916 16.0783 48.0769 15.6595 48.5626 15.3664C49.0484 15.0732 49.5887 14.9266 50.1834 14.9266C50.6357 14.9266 51.067 15.0272 51.4774 15.2282C51.8878 15.4208 52.2145 15.6805 52.4574 16.0071V12.7029H54.2414V22H52.4574V20.9698C52.2396 21.3132 51.9339 21.5896 51.5402 21.799C51.1466 22.0084 50.6901 22.1131 50.1708 22.1131C49.5845 22.1131 49.0484 21.9623 48.5626 21.6608C48.0769 21.3593 47.6916 20.9363 47.4068 20.3918C47.1304 19.839 46.9922 19.2067 46.9922 18.4947ZM52.47 18.5199C52.47 18.0927 52.3862 17.7283 52.2187 17.4268C52.0512 17.1169 51.825 16.8824 51.5402 16.7233C51.2555 16.5557 50.9497 16.472 50.6231 16.472C50.2964 16.472 49.9949 16.5515 49.7185 16.7107C49.4421 16.8698 49.216 17.1044 49.0401 17.4143C48.8726 17.7158 48.7888 18.0759 48.7888 18.4947C48.7888 18.9135 48.8726 19.2821 49.0401 19.6003C49.216 19.9102 49.4421 20.149 49.7185 20.3165C50.0033 20.484 50.3048 20.5677 50.6231 20.5677C50.9497 20.5677 51.2555 20.4882 51.5402 20.329C51.825 20.1615 52.0512 19.927 52.2187 19.6255C52.3862 19.3156 52.47 18.947 52.47 18.5199ZM65.3479 15.9443C65.3479 16.4133 65.2349 16.8531 65.0087 17.2635C64.7909 17.6739 64.4433 18.0047 63.9659 18.256C63.4969 18.5073 62.9022 18.6329 62.1819 18.6329H60.7119V22H58.953V13.2305H62.1819C62.8603 13.2305 63.4382 13.3478 63.9157 13.5823C64.3931 13.8169 64.7491 14.1393 64.9836 14.5497C65.2265 14.9601 65.3479 15.425 65.3479 15.9443ZM62.1065 17.2132C62.5923 17.2132 62.9525 17.1044 63.187 16.8866C63.4215 16.6604 63.5388 16.3463 63.5388 15.9443C63.5388 15.09 63.0613 14.6628 62.1065 14.6628H60.7119V17.2132H62.1065ZM70.5166 14.9392C71.0443 14.9392 71.5133 15.0565 71.9237 15.291C72.3342 15.5171 72.6524 15.8564 72.8786 16.3087C73.1131 16.7526 73.2304 17.2886 73.2304 17.9168V22H71.4714V18.1555C71.4714 17.6027 71.3332 17.1797 71.0568 16.8866C70.7804 16.5851 70.4035 16.4343 69.9261 16.4343C69.4403 16.4343 69.055 16.5851 68.7703 16.8866C68.4939 17.1797 68.3557 17.6027 68.3557 18.1555V22H66.5967V12.7029H68.3557V15.9066C68.5818 15.6051 68.8833 15.3706 69.2602 15.203C69.6371 15.0272 70.0559 14.9392 70.5166 14.9392ZM77.9937 22.1131C77.3236 22.1131 76.7205 21.9665 76.1845 21.6733C75.6484 21.3718 75.2255 20.9488 74.9156 20.4044C74.614 19.86 74.4633 19.2318 74.4633 18.5199C74.4633 17.8079 74.6182 17.1797 74.9281 16.6353C75.2464 16.0909 75.6778 15.6721 76.2222 15.3789C76.7666 15.0774 77.3739 14.9266 78.0439 14.9266C78.714 14.9266 79.3212 15.0774 79.8657 15.3789C80.4101 15.6721 80.8372 16.0909 81.1472 16.6353C81.4654 17.1797 81.6246 17.8079 81.6246 18.5199C81.6246 19.2318 81.4612 19.86 81.1346 20.4044C80.8163 20.9488 80.3808 21.3718 79.828 21.6733C79.2835 21.9665 78.6721 22.1131 77.9937 22.1131ZM77.9937 20.5803C78.3119 20.5803 78.6093 20.5049 78.8857 20.3542C79.1705 20.195 79.3966 19.9605 79.5641 19.6506C79.7316 19.3407 79.8154 18.9638 79.8154 18.5199C79.8154 17.8582 79.6395 17.3514 79.2877 16.9997C78.9443 16.6395 78.5213 16.4594 78.0188 16.4594C77.5162 16.4594 77.0933 16.6395 76.7499 16.9997C76.4148 17.3514 76.2473 17.8582 76.2473 18.5199C76.2473 19.1815 76.4106 19.6925 76.7373 20.0526C77.0723 20.4044 77.4911 20.5803 77.9937 20.5803ZM84.9627 16.4845V19.8516C84.9627 20.0861 85.0171 20.2578 85.126 20.3667C85.2433 20.4672 85.4359 20.5175 85.7039 20.5175H86.5206V22H85.415C83.9325 22 83.1912 21.2797 83.1912 19.839V16.4845H82.362V15.0397H83.1912V13.3185H84.9627V15.0397H86.5206V16.4845H84.9627ZM90.8764 22.1131C90.2063 22.1131 89.6032 21.9665 89.0672 21.6733C88.5311 21.3718 88.1082 20.9488 87.7983 20.4044C87.4967 19.86 87.346 19.2318 87.346 18.5199C87.346 17.8079 87.5009 17.1797 87.8108 16.6353C88.1291 16.0909 88.5604 15.6721 89.1049 15.3789C89.6493 15.0774 90.2565 14.9266 90.9266 14.9266C91.5967 14.9266 92.2039 15.0774 92.7483 15.3789C93.2928 15.6721 93.7199 16.0909 94.0298 16.6353C94.3481 17.1797 94.5073 17.8079 94.5073 18.5199C94.5073 19.2318 94.3439 19.86 94.0173 20.4044C93.699 20.9488 93.2635 21.3718 92.7107 21.6733C92.1662 21.9665 91.5548 22.1131 90.8764 22.1131ZM90.8764 20.5803C91.1946 20.5803 91.492 20.5049 91.7684 20.3542C92.0532 20.195 92.2793 19.9605 92.4468 19.6506C92.6143 19.3407 92.6981 18.9638 92.6981 18.5199C92.6981 17.8582 92.5222 17.3514 92.1704 16.9997C91.827 16.6395 91.404 16.4594 90.9015 16.4594C90.3989 16.4594 89.976 16.6395 89.6325 16.9997C89.2975 17.3514 89.13 17.8582 89.13 18.5199C89.13 19.1815 89.2933 19.6925 89.62 20.0526C89.955 20.4044 90.3738 20.5803 90.8764 20.5803Z" fill="black"/>
</svg>
