<svg width="296" height="201" viewBox="0 0 296 201" fill="none" xmlns="http://www.w3.org/2000/svg">
<path d="M290.08 47.3902L285.282 70.6192L282.195 67.6115L276.941 71.356L272.926 66.3734L263.923 72.92L256.234 60.0523L247.647 65.0801L244.243 60.3832L233.346 66.5238L230.067 59.506L237.707 22.5071L278.661 30.9635L290.08 47.3902Z" fill="#13267D" fill-opacity="0.32"/>
<path d="M278.662 30.9634L290.081 47.3901L275.88 44.4576L278.662 30.9634Z" fill="#113380"/>
<path d="M284.261 75.2659L277.228 109.347L222.063 97.9635L229.045 64.1477L232.329 71.1705L243.226 65.0299L246.63 69.7218L255.212 64.6941L262.901 77.5617L271.909 71.0151L275.924 75.9978L281.178 72.2533L284.261 75.2659Z" fill="#13267D" fill-opacity="0.32"/>
<path d="M205.311 71.2708L149.094 74.7497L144.627 2.58155L186.368 0L201.692 12.8526L205.311 71.2708Z" fill="#13267D" fill-opacity="0.32"/>
<path d="M186.368 0L201.692 12.8526L187.22 13.7499L186.368 0Z" fill="#113380"/>
<path d="M170.784 48.5532L170.568 46.9241C170.002 43.5505 170.924 39.776 173.856 35.831C176.498 32.3421 177.932 29.8007 177.776 26.9685C177.596 23.7603 175.466 21.7352 171.5 21.8956C169.235 22.0209 166.763 22.9182 165.26 24.2014L163.53 20.3266C165.52 18.7025 169.049 17.4944 172.383 17.309C179.611 16.9029 183.13 21.1838 183.401 25.9609C183.641 30.2368 181.426 33.4499 178.609 37.2044C176.027 40.6281 175.175 43.4503 175.541 46.6484L175.696 48.2775L170.794 48.5532H170.784ZM169.891 57.4308C169.761 55.1049 171.24 53.3805 173.44 53.2602C175.641 53.1349 177.24 54.6888 177.37 57.0147C177.496 59.2153 176.142 60.9948 173.816 61.1251C171.616 61.2505 170.012 59.6364 169.886 57.4358L169.891 57.4308Z" fill="#113380"/>
<path d="M30.1862 36.2821L24.5268 33.7156L23.7449 35.45C23.5143 35.9613 23.013 36.2821 22.4566 36.3072C22.1458 36.3222 21.84 36.3523 21.5343 36.3974C20.9829 36.4826 20.4315 36.257 20.1056 35.8059L18.9978 34.262L13.945 37.8811L15.0528 39.4251C15.3786 39.8762 15.4087 40.4727 15.1531 40.969C15.0077 41.2447 14.8824 41.5254 14.7721 41.8161C14.5716 42.3375 14.1004 42.7084 13.544 42.7585L11.6492 42.944L12.2607 49.1247L14.1605 48.9342C14.717 48.879 15.2433 49.1547 15.5491 49.6259C15.6293 49.7563 15.7145 49.8816 15.8047 50.0069C15.8949 50.1322 15.9852 50.2525 16.0804 50.3728C16.4263 50.8089 16.5215 51.3954 16.2909 51.9017L15.4989 53.6461L21.1583 56.2127L21.9453 54.4783C22.1759 53.967 22.6771 53.6461 23.2336 53.6211C23.5393 53.606 23.8501 53.576 24.1559 53.5309C24.7073 53.4456 25.2587 53.6712 25.5845 54.1224L26.6923 55.6663L31.7452 52.0471L30.6373 50.5032C30.3115 50.052 30.2814 49.4555 30.5371 48.9593C30.6775 48.6836 30.8078 48.4028 30.9181 48.1171C31.1186 47.5958 31.5898 47.2249 32.1462 47.1697L34.041 46.9842L33.4294 40.8036L31.5296 40.989C30.9732 41.0442 30.4519 40.7685 30.1461 40.2973C30.0659 40.1669 29.9757 40.0416 29.8854 39.9163C29.7952 39.791 29.705 39.6707 29.6097 39.5504C29.2589 39.1143 29.1686 38.5228 29.3992 38.0165L30.1862 36.2821ZM26.9781 42.0016C28.6122 44.2874 28.0909 47.4604 25.8051 49.0996C23.5193 50.7338 20.3412 50.2124 18.7021 47.9316C17.0679 45.6458 17.5892 42.4628 19.875 40.8286C22.1608 39.1945 25.3389 39.7208 26.9731 42.0066L26.9781 42.0016Z" fill="#13267D" fill-opacity="0.32"/>
<path d="M285.79 118.29L282.02 120.466L282.687 121.618C282.883 121.959 282.863 122.375 282.652 122.701C282.532 122.882 282.426 123.072 282.326 123.263C282.151 123.609 281.795 123.834 281.409 123.834H280.075V128.185H281.409C281.8 128.185 282.151 128.411 282.326 128.757C282.426 128.952 282.532 129.138 282.652 129.318C282.868 129.644 282.883 130.065 282.687 130.401L282.02 131.554L285.79 133.729L286.457 132.571C286.652 132.23 287.023 132.045 287.419 132.065C287.524 132.07 287.635 132.075 287.74 132.075C287.845 132.075 287.955 132.075 288.061 132.065C288.452 132.045 288.823 132.23 289.018 132.566L289.69 133.729L293.459 131.554L292.793 130.396C292.597 130.055 292.617 129.639 292.833 129.313C292.953 129.133 293.058 128.947 293.159 128.752C293.334 128.406 293.685 128.18 294.076 128.18H295.409V123.829H294.076C293.685 123.829 293.334 123.604 293.159 123.258C293.058 123.062 292.953 122.877 292.833 122.696C292.617 122.37 292.597 121.949 292.793 121.613L293.459 120.456L289.69 118.28L289.023 119.438C288.828 119.779 288.457 119.964 288.066 119.944C287.96 119.939 287.85 119.934 287.745 119.934C287.64 119.934 287.529 119.934 287.424 119.944C287.033 119.964 286.657 119.779 286.462 119.438L285.795 118.28L285.79 118.29ZM287.74 122.451C289.71 122.451 291.304 124.045 291.304 126.015C291.304 127.985 289.71 129.579 287.74 129.579C285.77 129.579 284.176 127.98 284.176 126.015C284.176 124.05 285.775 122.451 287.74 122.451Z" fill="#13267D" fill-opacity="0.32"/>
<path d="M41.6296 17.7601L38.1708 20.4018L38.9829 21.4594C39.2235 21.7702 39.2586 22.1863 39.0881 22.5422C38.9929 22.7377 38.9127 22.9382 38.8375 23.1437C38.7072 23.5096 38.3863 23.7803 38.0004 23.8305L36.677 24.0009L37.2384 28.3168L38.5618 28.1464C38.9478 28.0963 39.3287 28.2717 39.5493 28.5976C39.6746 28.778 39.8049 28.9485 39.9453 29.1139C40.2009 29.4096 40.2711 29.8207 40.1207 30.1866L39.6094 31.4147L43.6296 33.0839L44.1409 31.8508C44.2913 31.4899 44.6372 31.2543 45.0282 31.2242C45.1335 31.2142 45.2387 31.2042 45.349 31.1891C45.4543 31.1741 45.5595 31.1591 45.6648 31.139C46.0508 31.0688 46.4418 31.2042 46.6774 31.515L47.4944 32.5827L50.9532 29.941L50.1412 28.8783C49.9056 28.5675 49.8705 28.1514 50.0409 27.7955C50.1362 27.6 50.2164 27.3995 50.2915 27.199C50.4219 26.8331 50.7427 26.5624 51.1287 26.5123L52.452 26.3418L51.8906 22.0259L50.5672 22.1963C50.1813 22.2464 49.8003 22.071 49.5797 21.7502C49.4594 21.5697 49.3241 21.3993 49.1837 21.2339C48.9281 20.9381 48.8579 20.5271 49.0083 20.1612L49.5196 18.928L45.4994 17.2588L44.9881 18.4919C44.8377 18.8528 44.4918 19.0834 44.1059 19.1185C44.0006 19.1285 43.8903 19.1386 43.785 19.1536C43.6798 19.1686 43.5745 19.1837 43.4692 19.2037C43.0833 19.2739 42.6873 19.1386 42.4517 18.8278L41.6396 17.7701L41.6296 17.7601ZM44.0958 21.6349C46.0458 21.3792 47.8353 22.7577 48.091 24.7077C48.3466 26.6576 46.9681 28.4522 45.0182 28.7028C43.0682 28.9585 41.2737 27.58 41.023 25.625C40.7674 23.6751 42.1459 21.8855 44.1008 21.6299L44.0958 21.6349Z" fill="#13267D" fill-opacity="0.32"/>
<path d="M20.8574 163.64C99.5822 163.334 187.886 163.329 266.611 163.64C187.886 163.951 99.5822 163.946 20.8574 163.64Z" fill="#263238"/>
<path d="M143.735 201C223.117 201 287.469 193.948 287.469 185.25C287.469 176.551 223.117 169.5 143.735 169.5C64.3522 169.5 0 176.551 0 185.25C0 193.948 64.3522 201 143.735 201Z" fill="#E4E4E4"/>
<path d="M110.272 182.638C109.104 183.034 75.614 183.15 74.3308 182.348C73.8446 182.047 73.5438 177.169 73.3433 171.264C73.2982 169.991 73.2631 168.673 73.233 167.334L70.5161 149.469L92.9029 149.324L95.0183 167.189L94.9331 171.119C94.9331 171.119 107.776 176.808 109.084 177.841C110.387 178.874 111.435 182.232 110.267 182.628L110.272 182.638Z" fill="#EB9481"/>
<path d="M110.271 182.638C109.103 183.034 75.6131 183.149 74.3298 182.347C73.7383 181.976 73.4175 174.853 73.2371 167.339L95.0223 167.199L94.9371 171.129C94.9371 171.129 107.78 176.818 109.088 177.851C110.391 178.884 111.439 182.242 110.271 182.638Z" fill="white"/>
<path d="M110.272 182.638C109.104 183.034 75.6138 183.15 74.3305 182.347C73.8443 182.047 73.5435 177.169 73.343 171.264L94.9378 171.124C94.9378 171.124 107.78 176.813 109.089 177.846C110.392 178.879 111.44 182.237 110.272 182.633V182.638Z" fill="#A6A6A6"/>
<path d="M109.789 181.3C104.175 181.179 81.5175 181.235 75.9584 181.545C75.9133 181.545 75.9133 181.58 75.9584 181.58C81.5225 181.821 104.175 181.58 109.789 181.39C109.91 181.39 109.91 181.3 109.789 181.3Z" fill="#263238"/>
<path d="M106.933 176.653C105.599 176.603 104.301 177.239 103.579 178.036C102.883 178.798 102.291 179.876 102.336 181.039C102.336 181.074 102.401 181.074 102.406 181.039C102.717 178.838 104.712 176.904 106.938 176.723C106.983 176.723 106.983 176.653 106.938 176.653H106.933Z" fill="#263238"/>
<path d="M97.1169 171.68C94.8712 171.655 92.2696 172.457 90.876 174.302C90.8209 174.372 90.9262 174.447 90.9913 174.412C93.0215 173.36 94.9464 172.573 97.157 171.956C97.3124 171.911 97.2773 171.68 97.1169 171.68Z" fill="#263238"/>
<path d="M98.8566 172.352C96.6109 172.327 94.0093 173.129 92.6158 174.974C92.5606 175.044 92.6659 175.119 92.7311 175.084C94.7562 174.031 96.6861 173.244 98.8967 172.628C99.0521 172.582 99.017 172.352 98.8566 172.352Z" fill="#263238"/>
<path d="M100.591 173.024C98.3451 172.999 95.7435 173.801 94.3499 175.645C94.2948 175.716 94.4001 175.791 94.4652 175.756C96.4904 174.703 98.4202 173.916 100.631 173.299C100.786 173.254 100.751 173.024 100.591 173.024Z" fill="#263238"/>
<path d="M102.33 173.69C100.085 173.665 97.483 174.467 96.0894 176.312C96.0343 176.382 96.1395 176.457 96.2047 176.422C98.2298 175.37 100.16 174.583 102.37 173.966C102.526 173.921 102.491 173.69 102.33 173.69Z" fill="#263238"/>
<path d="M77.3675 176.212C74.8461 176.227 74.8661 180.147 77.3926 180.132C79.914 180.117 79.8939 176.197 77.3675 176.212Z" fill="#263238"/>
<path d="M99.5277 165.675C98.3848 164.738 96.9562 165.665 96.2594 166.643C95.1315 168.232 94.3546 170.457 94.2393 172.397C94.2393 172.447 94.2743 172.462 94.3094 172.462C94.3596 172.623 94.5501 172.758 94.7155 172.643C96.3095 171.53 98.1542 170.538 99.3623 168.969C100.069 168.051 100.61 166.562 99.5277 165.675ZM96.7857 170.462C96.0138 171.029 95.2218 171.555 94.4698 172.147C94.8659 171.024 95.2117 169.891 95.723 168.813C95.9686 168.297 96.2243 167.771 96.5401 167.294C97.0263 166.552 99.2269 164.663 99.4575 167.109C99.5878 168.457 97.7081 169.786 96.7857 170.462Z" fill="#263238"/>
<path d="M88.6549 173.254C90.6148 173.55 92.63 172.984 94.5498 172.678C94.7503 172.648 94.7954 172.417 94.7152 172.267C94.7453 172.242 94.7553 172.207 94.7203 172.172C93.2916 170.858 91.1913 169.791 89.2764 169.425C88.0934 169.199 86.4192 169.525 86.2488 170.994C86.0884 172.382 87.512 173.079 88.6549 173.249V173.254ZM87.2914 171.981C85.7625 170.061 88.6549 169.896 89.5221 170.091C90.0785 170.222 90.6299 170.417 91.1612 170.623C92.2791 171.049 93.3117 171.625 94.3794 172.157C93.427 172.247 92.4896 172.422 91.5422 172.548C90.4093 172.698 88.1335 173.044 87.2914 171.981Z" fill="#263238"/>
<path d="M37.6221 66.9047C37.6221 66.9047 63.623 111.137 64.3198 114.24C65.3875 119.012 71.0619 166.136 71.0619 166.136L98.1156 165.65C98.1156 165.65 93.4537 124.1 89.0375 110.41C85.8545 100.55 62.9112 67.8471 62.9112 67.8471L37.6271 66.8997L37.6221 66.9047Z" fill="#37474F"/>
<path d="M95.6538 161.505C91.7689 161.475 77.999 161.319 72.8309 161.805C72.7908 161.805 72.7908 161.876 72.8309 161.881C74.6104 162.136 91.7739 161.74 95.6538 161.615C95.729 161.615 95.7239 161.51 95.6538 161.51V161.505Z" fill="#263238"/>
<path d="M42.0575 70.965C43.7618 73.6367 45.5614 76.2534 47.3008 78.9051C49.0452 81.5568 50.7796 84.2086 52.494 86.8803C55.9177 92.2139 59.2561 97.6025 62.5294 103.026C64.0633 105.568 65.5271 108.139 66.5847 110.911C67.6274 113.658 68.3392 116.521 68.8655 119.403C69.3969 122.305 69.7428 125.238 70.0736 128.17C70.4245 131.293 70.7704 134.411 71.1212 137.534C71.8331 143.92 72.5449 150.306 73.2617 156.692C73.3469 157.474 73.4371 158.261 73.5123 159.043C73.5223 159.159 73.3168 159.179 73.3018 159.063C72.5048 152.717 71.8431 146.356 71.1212 140C70.7603 136.837 70.3994 133.674 70.0435 130.511C69.7077 127.569 69.3919 124.626 68.9357 121.699C68.4896 118.826 67.9031 115.964 67.0309 113.182C66.1186 110.275 64.8203 107.548 63.2914 104.906C60.1584 99.4973 56.84 94.1839 53.5216 88.8804C50.1731 83.5318 46.7995 78.2033 43.2956 72.95C42.8646 72.3033 42.4284 71.6567 41.9773 71.0201C41.9422 70.97 42.0274 70.9248 42.0625 70.975L42.0575 70.965Z" fill="#263238"/>
<path d="M46.1429 185.25C44.9098 185.175 13.059 172.272 12.1717 171.049C12.1416 171.009 12.1266 170.928 12.1216 170.813C12.1266 169.72 14.3322 165.886 16.1769 160.853C16.2922 160.532 17.1142 159.038 18.2571 157.023C21.3951 151.494 26.9442 142.025 26.9442 142.025L47.762 150.296L37.7967 165.214L36.2478 168.823C36.2478 168.823 46.0176 178.919 46.8447 180.367C47.6668 181.811 47.376 185.32 46.1479 185.25H46.1429Z" fill="#EB9481"/>
<path d="M46.1429 185.25C44.9098 185.175 13.059 172.272 12.1717 171.049C12.1416 171.009 12.1266 170.928 12.1216 170.813C12.1266 169.72 14.3322 165.886 16.1769 160.853C16.2922 160.532 17.1143 159.038 18.2572 157.023L37.7967 165.209L36.2478 168.818C36.2478 168.818 46.0176 178.914 46.8447 180.362C47.6668 181.806 47.376 185.315 46.1479 185.245L46.1429 185.25Z" fill="white"/>
<path d="M46.1434 185.245C44.9103 185.175 13.0645 172.267 12.1772 171.044C11.8414 170.583 13.265 166.232 16.1824 160.853L36.2483 168.823C36.2483 168.823 46.0181 178.914 46.8452 180.363C47.6673 181.806 47.3765 185.315 46.1434 185.245Z" fill="#A6A6A6"/>
<path d="M46.1941 183.826C41.036 181.611 20.0126 173.159 14.7443 171.365C14.6991 171.35 14.6891 171.38 14.7292 171.4C19.7971 173.706 40.8856 181.987 46.159 183.917C46.2693 183.957 46.3043 183.876 46.1941 183.831V183.826Z" fill="#263238"/>
<path d="M45.2918 178.448C44.0737 177.901 42.6351 178.006 41.6626 178.473C40.7302 178.919 39.7778 179.691 39.3818 180.789C39.3718 180.819 39.4269 180.844 39.447 180.814C40.5598 178.894 43.1363 177.846 45.2668 178.513C45.3119 178.528 45.3319 178.468 45.2918 178.448Z" fill="#263238"/>
<path d="M38.063 170.152C35.9877 169.289 33.2758 169.054 31.2958 170.242C31.2206 170.287 31.2858 170.397 31.361 170.387C33.6367 170.172 35.717 170.167 37.9978 170.422C38.1582 170.442 38.2134 170.212 38.063 170.152Z" fill="#263238"/>
<path d="M39.4209 171.425C37.3456 170.558 34.6337 170.327 32.6537 171.515C32.5785 171.56 32.6437 171.67 32.7189 171.66C34.9946 171.445 37.0749 171.44 39.3557 171.695C39.5161 171.715 39.5713 171.485 39.4209 171.425Z" fill="#263238"/>
<path d="M40.7805 172.698C38.7052 171.836 35.9934 171.6 34.0133 172.788C33.9381 172.833 34.0033 172.944 34.0785 172.934C36.3543 172.718 38.4345 172.713 40.7153 172.969C40.8757 172.989 40.9309 172.758 40.7805 172.698Z" fill="#263238"/>
<path d="M42.1384 173.971C40.0631 173.104 37.3513 172.874 35.3712 174.062C35.296 174.107 35.3612 174.217 35.4364 174.207C37.7122 173.991 39.7925 173.986 42.0732 174.242C42.2337 174.262 42.2888 174.032 42.1384 173.971Z" fill="#263238"/>
<path d="M18.0528 166.943C15.7119 166.011 14.2582 169.65 16.6041 170.583C18.9451 171.515 20.3987 167.876 18.0528 166.943Z" fill="#263238"/>
<path d="M42.5438 165.49C41.837 164.192 40.1677 164.512 39.1501 165.164C37.506 166.212 35.957 167.986 35.1199 169.741C35.0999 169.786 35.1249 169.816 35.16 169.826C35.145 169.991 35.2703 170.192 35.4658 170.147C37.3606 169.716 39.4459 169.485 41.1502 168.487C42.1478 167.901 43.2104 166.723 42.5438 165.495V165.49ZM38.2078 168.898C37.2804 169.134 36.348 169.325 35.4257 169.59C36.2127 168.698 36.9596 167.781 37.8418 166.969C38.2629 166.583 38.699 166.192 39.1652 165.866C39.892 165.36 42.639 164.437 41.9372 166.788C41.5512 168.086 39.3106 168.613 38.2027 168.893L38.2078 168.898Z" fill="#263238"/>
<path d="M29.6268 168.437C31.3311 169.445 33.4114 169.675 35.3062 170.116C35.5017 170.162 35.632 169.966 35.617 169.801C35.6521 169.791 35.6771 169.761 35.6571 169.715C34.825 167.961 33.281 166.182 31.6369 165.129C30.6243 164.477 28.9501 164.151 28.2433 165.445C27.5716 166.673 28.6292 167.851 29.6268 168.437ZM28.8448 166.743C28.148 164.387 30.895 165.319 31.6218 165.831C32.088 166.156 32.5241 166.547 32.9452 166.938C33.8224 167.75 34.5643 168.673 35.3513 169.565C34.434 169.294 33.5016 169.104 32.5742 168.863C31.4714 168.578 29.2308 168.041 28.8498 166.743H28.8448Z" fill="#263238"/>
<path d="M39.4074 164.377L16.1033 154.968C16.1033 154.968 44.9966 112.49 45.2071 109.327C45.3976 106.525 32.7054 82.1533 32.2041 75.0503C31.6627 67.3859 35.3571 61.4508 39.4124 57.7715L63.4534 67.9874C63.4534 67.9874 60.917 72.0477 56.9218 74.3034C56.9218 74.3034 69.2481 102.475 68.5513 111.137C67.8496 119.844 39.4074 164.377 39.4074 164.377Z" fill="#37474F"/>
<path d="M40.4406 159.946C37.072 158.497 38.0595 158.863 34.6709 157.454C33.0117 156.763 22.1241 152.236 20.4649 151.865C20.4298 151.855 20.4047 151.915 20.4348 151.935C21.8835 152.823 32.8513 157.159 34.5256 157.82C37.9392 159.164 36.9718 158.743 40.4005 160.051C40.4656 160.076 40.5057 159.981 40.4406 159.951V159.946Z" fill="#263238"/>
<path d="M60.8785 73.792C58.3721 74.3284 55.9159 75.2156 53.5549 76.168C53.4647 76.2031 53.5048 76.3435 53.605 76.3134C56.0613 75.5966 58.5626 74.9249 60.9737 74.0777C61.1642 74.0126 61.069 73.7519 60.8785 73.792Z" fill="#263238"/>
<path d="M58.0261 72.8046C57.7905 73.2156 57.59 73.6517 57.4095 74.0928C57.2692 74.4337 57.0938 74.7996 57.0938 75.1706C57.0938 75.2407 57.189 75.2608 57.2341 75.2157C57.5148 74.94 57.6602 74.539 57.8356 74.1981C58.0412 73.8021 58.2517 73.4061 58.4472 73.0051C58.5775 72.7394 58.1665 72.5489 58.0211 72.7995L58.0261 72.8046Z" fill="#263238"/>
<path d="M58.3226 70.5439C58.468 70.1729 58.6184 69.807 58.7738 69.4361C58.9342 69.0551 59.1196 68.6842 59.255 68.2932C59.275 68.233 59.3753 68.2731 59.3502 68.3333C59.2048 68.7042 59.1096 69.1002 58.9893 69.4812C58.869 69.8622 58.7487 70.2431 58.6184 70.6241C58.3828 71.3309 58.097 72.0327 57.7913 72.7144C58.1823 72.7094 58.5883 72.6943 58.9442 72.5139C59.3302 72.3184 59.5658 71.9074 59.7562 71.5364C59.9668 71.1204 60.1623 70.6993 60.3828 70.2882C60.6234 69.8321 60.8891 69.386 61.0495 68.8947C61.0696 68.8346 61.1648 68.8747 61.1448 68.9348C60.7839 69.9474 60.4279 70.965 59.8615 71.8973C59.641 72.2633 59.4605 72.6492 59.0545 72.7896C58.6184 72.945 58.1371 72.9149 57.681 72.8798C57.6258 72.8949 57.5506 72.8598 57.5707 72.7896C57.7862 72.0327 58.0269 71.2657 58.3226 70.5339V70.5439Z" fill="#263238"/>
<path d="M57.2988 75.2258C58.151 77.0354 58.9029 78.8399 59.7049 80.6445C60.4869 82.409 61.2137 84.1935 61.9255 85.9831C63.3592 89.6073 64.6424 93.2966 65.7703 97.0261C66.3267 98.8708 66.843 100.73 67.3042 102.6C67.7704 104.475 68.2215 106.37 68.417 108.3C68.6125 110.235 68.4722 112.144 67.9358 114.014C67.3894 115.909 66.6676 117.568 65.8154 119.343C65.2941 120.425 65.1136 120.28 65.3643 119.734C66.0811 118.18 67.9609 113.473 67.8255 109.518C67.7603 107.608 67.3694 105.728 66.9383 103.873C66.4971 101.979 66.0009 100.099 65.4595 98.2342C64.3918 94.5548 63.1236 90.9507 61.8203 87.3515C61.0884 85.3364 60.3064 83.3414 59.5646 81.3263C58.8177 79.3011 58.0457 77.4765 57.2186 75.2609C57.1986 75.2007 57.2838 75.1706 57.3088 75.2258H57.2988Z" fill="#263238"/>
<path d="M39.6039 69.2406C40.0199 69.0852 40.6014 69.3408 41.0275 69.411C41.5739 69.5012 42.1252 69.5564 42.6766 69.5764C43.223 69.5965 43.7694 69.5764 44.3158 69.5213C44.8572 69.4712 45.4136 69.401 45.8848 69.1052C46.6818 68.609 47.3435 67.7368 47.8849 66.9798C48.4764 66.1527 49.0929 65.2003 49.4438 64.2429C49.4639 64.1827 49.5491 64.2228 49.534 64.283C49.3586 64.8394 49.2283 65.4058 49.0027 65.9522C48.7922 66.4635 48.5215 66.9548 48.2358 67.431C47.6994 68.3132 47.0828 69.2606 46.1605 69.787C45.193 70.3384 43.9499 70.3033 42.8721 70.2431C42.2506 70.208 41.629 70.1228 41.0174 69.9975C40.5763 69.9022 39.8344 69.8321 39.5537 69.4461C39.5036 69.3759 39.5287 69.2706 39.6139 69.2406H39.6039Z" fill="#263238"/>
<path d="M22.7555 150.527C26.5852 144.732 30.3448 138.887 34.0341 133.002C37.7335 127.102 41.3677 121.157 44.9518 115.182C45.809 113.754 46.7965 112.325 47.3479 110.741C47.9494 109.022 47.6086 107.352 47.0622 105.668C46.0646 102.58 44.8265 99.5775 43.4831 96.6251C42.1397 93.6625 40.691 90.7502 39.2674 87.8277C37.8538 84.9304 36.355 82.018 35.2823 78.9703C34.2597 76.0579 33.8687 73.0402 34.6557 70.0226C35.4327 67.025 37.1169 64.3381 38.8764 61.8268C39.3426 61.1651 39.8138 60.5084 40.28 59.8467C40.315 59.7966 40.3902 59.8568 40.3552 59.9069C38.4152 62.5235 36.5254 65.2956 35.3875 68.3684C34.8261 69.8872 34.4602 71.4863 34.4251 73.1054C34.39 74.7495 34.6958 76.3837 35.182 77.9527C36.1244 81.0004 37.6132 83.8877 39.0017 86.75C40.4203 89.6774 41.874 92.5848 43.2425 95.5373C44.616 98.5048 45.9042 101.522 46.9619 104.62C47.4331 105.999 47.9594 107.442 47.9244 108.921C47.8893 110.54 47.1173 111.999 46.3153 113.363C42.8314 119.308 39.2122 125.172 35.553 131.007C31.8786 136.862 28.1291 142.677 24.3195 148.447C23.8382 149.173 23.357 149.9 22.8758 150.627C22.8156 150.717 22.6853 150.612 22.7455 150.522L22.7555 150.527Z" fill="#263238"/>
<path d="M64.7942 40.9685C66.9647 45.7306 77.9225 52.2922 83.0556 52.999C86.7499 53.5053 97.9634 53.6807 101.808 53.0943C106.315 52.4075 102.871 40.2467 100.209 40.5574C92.8905 41.4146 86.6747 42.367 84.7248 42.367C82.3387 42.367 69.431 38.2215 67.872 37.64C64.0674 36.2114 63.5611 38.2716 64.7942 40.9685Z" fill="#EB9481"/>
<path d="M64.8607 42.2319C67.6077 46.2972 76.7408 52.9441 76.7408 52.9441L78.0091 50.137L82.2047 40.8584C82.2047 40.8584 73.8184 38.2117 68.2994 37.0337C67.5525 36.8733 66.8959 36.7781 66.3244 36.753C62.8005 36.5625 62.4947 38.7431 64.8657 42.2369L64.8607 42.2319Z" fill="#113380"/>
<path d="M64.8607 42.2318C67.6077 46.2971 76.7408 52.944 76.7408 52.944L78.0091 50.1368C74.6054 46.1818 69.3471 40.1916 66.3244 36.7479C62.8005 36.5574 62.4947 38.7379 64.8657 42.2318H64.8607Z" fill="#263238"/>
<path d="M75.0922 51.0641C75.789 49.3598 78.8868 42.4773 79.6588 41.0337C79.7139 40.9334 79.7891 40.9435 79.744 41.0537C77.779 46.2118 75.9243 49.45 75.1574 51.0892C75.1373 51.1293 75.0722 51.1092 75.0872 51.0641H75.0922Z" fill="#263238"/>
<path d="M98.8663 40.6928C103.323 40.1063 108.832 39.1088 113.493 41.0888C114.411 41.4748 114.742 42.1615 114.742 42.1615C116.847 43.0137 117.078 44.2619 117.078 44.2619C118.797 45.6554 118.857 46.9687 118.857 46.9687C118.857 46.9687 121.318 47.9963 120.947 49.5854C120.536 51.3699 117.158 49.5854 114.697 49.7307C109.062 50.0766 101.147 52.1469 99.533 52.4126L98.8613 40.6978L98.8663 40.6928Z" fill="#EB9481"/>
<path d="M108.541 45.9461C110.2 45.8759 111.829 45.7656 113.494 45.921C115.318 46.0915 117.043 46.5626 118.807 46.9988C118.862 47.0138 118.887 46.9386 118.832 46.9135C115.754 45.6203 111.809 45.2794 108.536 45.8709C108.456 45.8859 108.456 45.9511 108.536 45.9461H108.541Z" fill="#263238"/>
<path d="M107.833 42.5727C109.452 42.5927 112.3 42.6529 117.062 44.3121C117.077 44.3171 117.092 44.292 117.077 44.287C114.129 42.7982 111.107 42.2669 107.838 42.4975C107.738 42.5025 107.728 42.5727 107.838 42.5727H107.833Z" fill="#263238"/>
<path d="M107.488 40.7581C110.24 40.8984 111.96 41.3396 114.727 42.1717C114.742 42.1717 114.757 42.1516 114.737 42.1416C111.689 40.8633 110.441 40.7481 107.478 40.6628C107.378 40.6628 107.378 40.7531 107.488 40.7581Z" fill="#263238"/>
<path d="M107.934 50.5779C107.217 50.9137 107.388 51.2897 108.761 51.6105C110.145 51.9363 115.819 52.0215 115.619 54.0016C115.423 55.9916 107.393 55.736 105.152 55.0342C102.912 54.3374 99.533 52.4075 99.533 52.4075C101.107 52.1418 104.856 51.1343 107.934 50.5779Z" fill="#EB9481"/>
<path d="M70.7532 48.563C70.7182 49.4202 70.6329 50.2924 70.5126 51.1546C70.5227 51.1245 70.5377 51.0945 70.5477 51.0644C70.7131 50.6132 70.8786 50.1521 71.0791 49.716C71.0891 49.6909 71.1292 49.7009 71.1242 49.726C71.034 50.1972 70.8685 50.6734 70.6881 51.1195C70.6029 51.3351 70.5126 51.5456 70.4224 51.7561C70.3623 52.1421 70.2921 52.5231 70.2119 52.899C70.0615 53.6159 69.3848 56.6636 69.2344 57.1799C69.2043 57.2902 69.074 57.2651 69.079 57.1448C69.1141 56.5834 69.6855 53.4053 69.8008 52.6885C70.0214 51.31 70.3272 49.9014 70.6931 48.553C70.7031 48.5229 70.7482 48.538 70.7482 48.5681L70.7532 48.563Z" fill="#263238"/>
<path d="M65.526 71.3507C64.1876 72.0425 62.4632 73.1102 54.6935 71.5763C54.2073 71.4761 53.721 71.3608 53.2298 71.2154C45.9463 69.0248 37.2041 60.4581 36.7129 59.8566C36.7129 59.8566 48.2822 41.094 63.0848 35.194C64.9144 34.4672 67.9421 35.8707 69.6214 37.6202C70.2179 38.2468 71.5212 42.8484 71.0199 46.5779C70.5187 50.3023 66.8694 70.669 65.521 71.3507H65.526Z" fill="#113380"/>
<path d="M64.4917 46.4077C64.5318 46.8087 64.5017 47.2047 64.4516 47.5957C64.3914 47.9867 64.3162 48.3727 64.1658 48.7487C64.1207 48.3476 64.1558 47.9516 64.2059 47.5606C64.2661 47.1696 64.3413 46.7837 64.4917 46.4077Z" fill="white"/>
<path d="M59.4438 59.1851C59.4839 59.5861 59.4538 59.9821 59.4037 60.3731C59.3436 60.7641 59.2684 61.15 59.118 61.526C59.0729 61.125 59.1079 60.729 59.1581 60.338C59.2182 59.947 59.2934 59.561 59.4438 59.1851Z" fill="white"/>
<path d="M50.8684 49.5308C50.9085 49.9318 50.8784 50.3278 50.8283 50.7188C50.7681 51.1098 50.6929 51.4958 50.5425 51.8717C50.4974 51.4707 50.5325 51.0747 50.5826 50.6837C50.6428 50.2927 50.718 49.9067 50.8684 49.5308Z" fill="white"/>
<path d="M67.7961 58.5386C67.8362 58.9396 67.8061 59.3356 67.756 59.7266C67.6958 60.1176 67.6207 60.5036 67.4703 60.8795C67.4252 60.4785 67.4602 60.0825 67.5104 59.6915C67.5705 59.3005 67.6457 58.9145 67.7961 58.5386Z" fill="white"/>
<path d="M56.7832 47.8714C57.1842 47.8313 57.5802 47.8613 57.9712 47.9115C58.3622 47.9716 58.7482 48.0468 59.1241 48.1972C58.7231 48.2423 58.3271 48.2072 57.9361 48.1571C57.5451 48.0969 57.1592 48.0217 56.7832 47.8714Z" fill="white"/>
<path d="M47.0481 57.105C47.4491 57.0649 47.8451 57.095 48.2361 57.1451C48.6271 57.2053 49.0131 57.2805 49.389 57.4308C48.988 57.476 48.592 57.4409 48.201 57.3907C47.81 57.3306 47.424 57.2554 47.0481 57.105Z" fill="white"/>
<path d="M58.4976 67.0952C58.8986 67.0551 59.2946 67.0852 59.6856 67.1353C60.0766 67.1955 60.4625 67.2707 60.8385 67.4211C60.4375 67.4662 60.0415 67.4311 59.6505 67.381C59.2595 67.3208 58.8735 67.2456 58.4976 67.0952Z" fill="white"/>
<path d="M44.0461 63.4658C44.4472 63.4257 44.8432 63.4558 45.2342 63.506C45.6251 63.5661 46.0111 63.6413 46.3871 63.7917C45.9861 63.8368 45.5901 63.8017 45.1991 63.7516C44.8081 63.6914 44.4221 63.6162 44.0461 63.4658Z" fill="white"/>
<path d="M64.4167 37.43C64.8178 37.3899 65.2138 37.4199 65.6048 37.4701C65.9958 37.5302 66.3817 37.6054 66.7577 37.7558C66.3567 37.8009 65.9607 37.7658 65.5697 37.7157C65.1787 37.6555 64.7927 37.5803 64.4167 37.43Z" fill="white"/>
<path d="M61.5906 40.6282C61.3349 40.944 61.0342 41.1996 60.7234 41.4402C60.4076 41.6758 60.0818 41.8914 59.7058 42.0518C59.9615 41.736 60.2622 41.4803 60.573 41.2397C60.8888 41.0041 61.2197 40.7886 61.5906 40.6282Z" fill="white"/>
<path d="M46.1504 49.7112C45.8948 50.027 45.594 50.2826 45.2832 50.5232C44.9674 50.7588 44.6416 50.9744 44.2656 51.1348C44.5213 50.819 44.822 50.5633 45.1328 50.3227C45.4486 50.0921 45.7795 49.8716 46.1504 49.7112Z" fill="white"/>
<path d="M65.4246 53.8164C65.1689 54.1322 64.8682 54.3879 64.5574 54.6285C64.2416 54.8641 63.9157 55.0796 63.5398 55.24C63.7954 54.9242 64.0962 54.6686 64.407 54.428C64.7228 54.1974 65.0536 53.9768 65.4246 53.8164Z" fill="white"/>
<path d="M52.9431 61.6765C52.6875 61.9923 52.3867 62.248 52.0759 62.4886C51.7601 62.7242 51.4343 62.9397 51.0583 63.1001C51.314 62.7843 51.6148 62.5287 51.9255 62.2881C52.2413 62.0525 52.5722 61.8369 52.9431 61.6765Z" fill="white"/>
<path d="M70.2058 43.0742C69.9502 43.39 69.6494 43.6457 69.3386 43.8863C69.0228 44.1219 68.697 44.3374 68.321 44.4978C68.5767 44.182 68.8775 43.9264 69.1882 43.6858C69.504 43.4552 69.8349 43.2346 70.2058 43.0742Z" fill="white"/>
<path d="M69.9463 52.1875C69.6305 51.9319 69.3749 51.6311 69.1343 51.3203C68.8987 51.0045 68.6831 50.6787 68.5227 50.3027C68.8385 50.5584 69.0942 50.8591 69.3348 51.1699C69.5654 51.4857 69.7859 51.8166 69.9463 52.1875Z" fill="white"/>
<path d="M42.1255 58.4583C41.8097 58.2026 41.5541 57.9019 41.3135 57.5911C41.0779 57.2753 40.8623 56.9494 40.7019 56.5735C41.0177 56.8291 41.2734 57.1299 41.514 57.4407C41.7446 57.7565 41.9651 58.0873 42.1255 58.4583Z" fill="white"/>
<path d="M66.5625 65.9273C66.2467 65.6716 65.9911 65.3708 65.7505 65.0601C65.5149 64.7443 65.2993 64.4184 65.1389 64.0425C65.4547 64.2981 65.7104 64.5989 65.951 64.9097C66.1816 65.2255 66.4021 65.5563 66.5625 65.9273Z" fill="white"/>
<path d="M54.3172 44.6482C54.0014 44.3926 53.7457 44.0918 53.5051 43.781C53.2695 43.4652 53.054 43.1394 52.8936 42.7634C53.2094 43.0191 53.465 43.3198 53.7056 43.6306C53.9362 43.9464 54.1568 44.2773 54.3172 44.6482Z" fill="white"/>
<path d="M54.5313 70.178C54.2155 69.9223 53.9598 69.6216 53.7192 69.3108C53.4836 68.995 53.2681 68.6692 53.1077 68.2932C53.4235 68.5489 53.6791 68.8496 53.9197 69.1604C54.1503 69.4762 54.3709 69.8071 54.5313 70.178Z" fill="white"/>
<path d="M56.6167 55.1148C56.3009 54.8591 56.0453 54.5584 55.8047 54.2476C55.5691 53.9318 55.3535 53.6059 55.1931 53.23C55.5089 53.4856 55.7646 53.7864 56.0052 54.0972C56.2358 54.413 56.4563 54.7438 56.6167 55.1148Z" fill="white"/>
<path d="M66.9057 42.6129C65.0209 42.262 63.2414 38.3571 63.0158 35.7304C63.0008 35.55 63.898 34.1214 64.9056 32.3318C65.5121 31.2441 66.1638 30.0159 66.6751 28.858C66.7804 28.6174 67.3969 29.4144 67.3969 29.4144L68.7403 30.442L73.1766 33.8457C73.1766 33.8457 71.382 35.966 70.4998 37.9962C70.4296 38.1666 70.3745 38.332 70.3394 38.4975C70.3344 38.5225 70.3294 38.5476 70.3143 38.5827C70.0637 39.5552 68.7153 42.9588 66.8957 42.6179L66.9057 42.6129Z" fill="#EB9481"/>
<path d="M70.349 38.4975C70.349 38.4975 70.339 38.5476 70.3239 38.5827C70.0833 38.5125 69.8277 38.4173 69.557 38.2919C64.6997 36.0162 66.8401 29.5046 66.8401 29.5046L68.7399 30.447L73.1762 33.8507C73.1762 33.8507 71.3816 35.971 70.4994 38.0012C70.4292 38.1716 70.3741 38.337 70.339 38.5025L70.349 38.4975Z" fill="#263238"/>
<path d="M78.2776 19.9756C78.2776 19.9756 80.4982 21.3842 80.5133 23.8905C80.5283 26.3969 79.5308 28.8481 79.3002 28.9333C79.0696 29.0185 78.2826 19.9756 78.2826 19.9756H78.2776Z" fill="#263238"/>
<path d="M67.265 21.2739C65.9317 23.9106 65.9968 32.2016 67.6661 34.337C70.0822 37.4349 74.734 38.5026 77.5461 35.4398C80.268 32.4723 79.9923 21.6649 78.0624 19.6498C75.2252 16.6823 69.24 17.384 67.27 21.2739H67.265Z" fill="#EB9481"/>
<path d="M74.3394 27.9209C74.3394 27.9209 74.2943 27.951 74.2993 27.971C74.3294 28.5375 74.2692 29.1891 73.7629 29.3896C73.7479 29.3946 73.7479 29.4247 73.7679 29.4197C74.3895 29.3194 74.4597 28.4522 74.3394 27.9209Z" fill="#263238"/>
<path d="M73.8228 27.3394C72.9105 27.2893 72.8854 29.1189 73.7275 29.159C74.5596 29.2041 74.5847 27.3795 73.8228 27.3394Z" fill="#263238"/>
<path d="M77.4322 27.9009C77.4322 27.9009 77.4773 27.9259 77.4773 27.951C77.4522 28.5174 77.5124 29.1691 78.0237 29.3646C78.0387 29.3696 78.0387 29.3997 78.0187 29.3947C77.3971 29.2994 77.3169 28.4322 77.4372 27.9009H77.4322Z" fill="#263238"/>
<path d="M77.9483 27.3145C78.8606 27.2593 78.9007 29.0839 78.0585 29.1341C77.2264 29.1842 77.1863 27.3596 77.9483 27.3145Z" fill="#263238"/>
<path d="M73.2519 25.9508C73.5025 25.8907 73.7231 25.7954 73.9637 25.7152C74.2344 25.62 74.4599 25.5749 74.6404 25.3343C74.7356 25.2039 74.7006 24.9733 74.5853 24.8681C74.3146 24.6225 73.9537 24.6525 73.6228 24.7528C73.2619 24.8631 73.0113 25.0385 72.8007 25.3493C72.5952 25.6501 72.921 26.031 73.2469 25.9558L73.2519 25.9508Z" fill="#263238"/>
<path d="M78.5802 26.763C78.3295 26.7179 78.104 26.6326 77.8584 26.5625C77.5827 26.4823 77.3521 26.4472 77.1616 26.2166C77.0563 26.0913 77.0814 25.8607 77.1917 25.7454C77.4473 25.4847 77.8082 25.4998 78.1491 25.58C78.515 25.6702 78.7707 25.8306 79.0013 26.1314C79.2218 26.4221 78.9211 26.8181 78.5852 26.758L78.5802 26.763Z" fill="#263238"/>
<path d="M73.0564 33.2745C73.1918 33.4098 73.3221 33.5953 73.5276 33.6154C73.7231 33.6354 73.9537 33.5502 74.1392 33.485C74.1592 33.48 74.1743 33.5001 74.1643 33.5151C74.0139 33.7307 73.7031 33.861 73.4424 33.8109C73.1868 33.7607 73.0665 33.5402 73.0063 33.3046C72.9963 33.2695 73.0414 33.2595 73.0615 33.2795L73.0564 33.2745Z" fill="#263238"/>
<path d="M76.34 30.8584C76.34 30.8584 76.3651 31.7056 76.3199 32.0966C76.3199 32.1317 75.2071 31.9161 74.0141 32.1768C73.8336 32.2169 73.8537 32.0715 74.0592 31.9763C74.4753 31.7858 74.9966 31.6053 76.0192 31.7156C76.0593 31.6103 75.959 30.4123 76.0192 30.4173C76.2347 30.4223 76.6458 30.6128 76.8914 30.7181C76.8914 28.9536 76.6107 27.2042 76.6357 25.4497C76.6357 25.3895 76.731 25.3795 76.741 25.4347C77.1671 27.2493 77.2072 29.2794 77.2573 31.099C77.2673 31.3246 76.4904 30.9436 76.34 30.8584Z" fill="#263238"/>
<path d="M75.212 31.7957C75.212 31.7957 74.816 32.7882 74.1593 33.0539C73.4024 33.3597 73.1417 32.6729 73.9137 32.0664C74.3197 31.7506 75.212 31.7957 75.212 31.7957Z" fill="#263238"/>
<path d="M74.4193 32.8985C74.3341 32.9637 74.2489 33.0188 74.1536 33.0539C73.4569 33.3346 73.1812 32.7782 73.7426 32.2168C74.1236 32.2469 74.5396 32.3872 74.4193 32.8985Z" fill="#FF99BA"/>
<path d="M66.8784 28.3718C67.7957 28.6525 68.8484 25.8955 69.1491 24.8378C69.4098 23.9055 69.7156 20.9429 69.7607 20.7374C69.8058 20.5369 73.7558 23.3591 76.0667 22.6824C78.3776 22.0056 79.9215 19.9354 79.9516 18.9679C79.9816 18.0005 77.1144 15.5442 74.6331 15.4189C72.1518 15.2936 68.7932 18.4466 68.7932 18.4466C68.7932 18.4466 69.9361 17.0831 69.896 16.9729C69.8559 16.8626 68.2519 17.5042 67.9561 18.6421C67.9561 18.6421 68.2719 17.2085 68.1516 17.1834C68.0313 17.1583 66.7831 18.3865 67.0639 19.3138C67.0639 19.3138 65.6202 20.562 65.4899 21.9304C65.3545 23.2989 65.8006 28.0359 66.8784 28.3668V28.3718Z" fill="#263238"/>
<path d="M77.7055 22.2012C77.0037 22.522 76.2969 22.8779 75.525 22.9832C74.6878 23.0934 73.8156 22.8829 73.0336 22.5821C72.2366 22.2764 71.5098 21.8302 70.8481 21.2889C70.2716 20.8126 69.7553 20.2412 69.1388 19.8151C68.9834 19.7098 68.8079 19.9304 68.8982 20.0758C69.8355 21.4793 71.4947 22.6573 73.0888 23.1636C74.768 23.695 76.3521 23.324 77.7105 22.2212C77.7205 22.2162 77.7105 22.1962 77.7005 22.2012H77.7055Z" fill="#263238"/>
<path d="M67.837 28.1261C67.837 28.1261 66.4134 25.2388 65.1301 25.705C63.8468 26.1712 64.6389 30.1663 65.9472 30.8932C67.2555 31.625 67.9573 30.427 67.9573 30.427L67.837 28.1261Z" fill="#EB9481"/>
<path d="M65.3852 26.8429C65.3852 26.8429 65.3551 26.868 65.3702 26.878C66.2825 27.4244 66.6584 28.4069 66.874 29.3944C66.6384 28.9883 66.2775 28.7327 65.7411 29.0034C65.711 29.0184 65.7311 29.0635 65.7612 29.0585C66.1722 29.0335 66.4529 29.1488 66.6685 29.5097C66.8239 29.7653 66.9091 30.0711 67.0093 30.3518C67.0394 30.447 67.2048 30.422 67.1898 30.3167C67.1898 30.3067 67.1898 30.3017 67.1898 30.2917C67.4053 29.0535 66.7086 27.1687 65.3952 26.8379L65.3852 26.8429Z" fill="#263238"/>
<path d="M58.4387 41.0137C57.4562 46.6931 63.5918 65.8267 67.5368 69.4007C73.4067 74.7142 84.2593 78.2081 88.1942 79.346C89.9086 79.8422 94.6506 67.7816 92.9162 66.9846C89.2018 65.2853 77.6625 61.6862 76.5748 60.7588C75.487 59.8365 68.8552 50.2923 65.9077 44.7933C61.9526 37.4096 58.93 38.1414 58.4337 41.0137H58.4387Z" fill="#EB9481"/>
<path d="M89.9972 65.9269C89.9972 65.9269 95.1152 67.2302 98.4236 68.2428C100.268 68.8042 103.346 70.0574 104.514 71.09C106.259 72.6389 112.565 80.2182 110.76 81.7871C109.126 83.2057 104.534 76.0025 104.534 76.0025C104.534 76.0025 109.808 82.8599 107.527 84.2083C105.246 85.5567 101.141 76.7293 101.141 76.7293C101.141 76.7293 106.404 83.8975 103.827 84.9151C101.882 85.682 97.7118 77.8973 97.7118 77.8973C97.7118 77.8973 102.193 84.088 100.228 84.9652C98.0577 85.9327 93.7568 78.99 93.7568 78.99C88.3832 80.3786 85.2602 78.8397 83.1649 77.4812C82.6586 77.1504 90.0023 65.9219 90.0023 65.9219L89.9972 65.9269Z" fill="#EB9481"/>
<path d="M102.856 73.5161C103.502 74.2981 104.164 75.0901 104.745 75.9272C105.322 76.7644 105.868 77.6265 106.365 78.5138C107.583 80.6943 108.004 82.2483 107.969 82.153C107.106 79.9474 105.086 76.9147 104.51 76.0776C103.933 75.2405 103.402 74.3733 102.826 73.5362C102.811 73.5161 102.841 73.4961 102.861 73.5161H102.856Z" fill="#263238"/>
<path d="M99.7931 75.5414C100.906 76.4236 103.237 79.707 104.139 81.9025C104.179 81.9928 104.129 81.9877 104.074 81.9025C103.367 80.8148 100.525 76.6041 99.7681 75.5564C99.7581 75.5414 99.7781 75.5263 99.7931 75.5414Z" fill="#263238"/>
<path d="M96.851 76.8094C98.1393 78.0826 99.217 79.822 100.069 81.8321C100.109 81.9223 100.034 81.9073 99.9839 81.8221C98.9463 80.1328 98.1443 78.7994 96.8009 76.8495C96.7808 76.8194 96.8259 76.7743 96.856 76.8044L96.851 76.8094Z" fill="#263238"/>
<path d="M64.0187 41.4348C59.4421 34.9633 56.7052 37.3594 57.6225 44.3873C58.4797 50.9589 60.7855 58.7888 60.7855 58.7888L72.3349 53.1946C72.3349 53.1946 66.9462 45.5803 64.0187 41.4348Z" fill="#113380"/>
<path d="M66.8152 43.9763C66.9806 44.3473 67.0658 44.7332 67.141 45.1192C67.2062 45.5052 67.2513 45.9012 67.2212 46.3022C67.0558 45.9313 66.9656 45.5503 66.8954 45.1593C66.8352 44.7733 66.7901 44.3773 66.8152 43.9763Z" fill="white"/>
<path d="M59.9829 47.9163C60.3539 47.7509 60.7348 47.6656 61.1258 47.5905C61.5118 47.5253 61.9078 47.4802 62.3088 47.5103C61.9379 47.6757 61.5569 47.7659 61.1659 47.8361C60.7799 47.8962 60.3839 47.9413 59.9829 47.9163Z" fill="white"/>
<path d="M60.2789 37.8457C60.1335 38.2217 59.923 38.5575 59.7024 38.8833C59.4718 39.2041 59.2262 39.5099 58.9204 39.7756C59.0658 39.3996 59.2763 39.0638 59.4969 38.738C59.7275 38.4172 59.9731 38.1114 60.2789 37.8457Z" fill="white"/>
<path d="M70.023 50.939C69.8776 51.3149 69.6671 51.6508 69.4465 51.9766C69.2159 52.2974 68.9703 52.6032 68.6646 52.8689C68.8099 52.4929 69.0205 52.1571 69.241 51.8312C69.4716 51.5104 69.7172 51.2046 70.023 50.939Z" fill="white"/>
<path d="M62.0334 54.8638C61.6575 54.7184 61.3216 54.5079 60.9958 54.2874C60.675 54.0568 60.3692 53.8111 60.1035 53.5054C60.4795 53.6507 60.8153 53.8613 61.1411 54.0818C61.462 54.3124 61.7677 54.558 62.0334 54.8638Z" fill="white"/>
<path d="M65.5534 43.3796C66.17 44.2268 66.8066 45.0539 67.4382 45.886C67.2778 45.4649 67.1374 45.0439 67.0121 44.6078C67.0071 44.5877 67.0372 44.5777 67.0422 44.5977C67.1725 44.9286 67.3129 45.2594 67.4382 45.5902C67.4984 45.7507 67.5585 45.9111 67.6187 46.0715C67.6337 46.1066 67.6437 46.1416 67.6588 46.1767C68.155 46.8234 68.6463 47.475 69.1175 48.1367C69.6839 48.9237 70.2303 49.7308 70.7817 50.5328C71.3481 51.3599 71.8895 52.3324 72.486 53.1394C72.5361 53.2096 71.4634 53.6407 71.3632 53.7008C71.2629 53.756 71.1927 53.6607 71.298 53.6256C71.3983 53.5956 72.2504 53.0742 72.2604 53.0642C71.709 52.2572 71.0724 51.5103 70.496 50.7183C69.9245 49.9313 69.3481 49.1493 68.7916 48.3472C67.6638 46.7231 66.6261 45.0388 65.5083 43.4097C65.4933 43.3897 65.5284 43.3696 65.5434 43.3897L65.5534 43.3796Z" fill="#263238"/>
<path d="M57.9074 49.034C58.0829 49.3749 58.2734 49.7158 58.4288 50.0666C58.4939 50.212 58.5541 50.3574 58.6193 50.5027C58.3536 49.2496 58.0979 48.0014 57.8423 46.7482C57.8423 46.7332 57.8623 46.7282 57.8674 46.7432C58.3987 48.7734 58.93 50.7985 59.4213 52.8387C59.8925 54.7836 60.4539 56.7486 60.7246 58.7336C60.885 58.6785 61.7823 58.3076 61.8073 58.3677C61.8324 58.4279 60.6344 58.9943 60.6143 58.9442C59.9627 57.0093 59.5566 54.8037 59.1105 52.8136C58.9852 52.2522 58.8699 51.6908 58.7496 51.1243C58.6193 50.7835 58.4639 50.4576 58.3085 50.1318C58.143 49.7809 58.0127 49.42 57.8724 49.0591C57.8623 49.039 57.8974 49.024 57.9074 49.044V49.034Z" fill="#263238"/>
<path d="M60.9707 56.8539C62.5748 55.9466 69.2768 52.4778 70.7806 51.8261C70.8859 51.781 70.941 51.8361 70.8357 51.8963C66.0937 54.7235 62.6299 56.107 61.0108 56.919C60.9707 56.9391 60.9306 56.8839 60.9707 56.8589V56.8539Z" fill="#263238"/>
<path d="M244.653 188.639H91.9253L114.011 63.396H266.734L244.653 188.639Z" fill="#FFC727"/>
<path d="M166.278 50.4231H116.296L114.01 63.396H167.501L166.278 50.4231Z" fill="#FFC727"/>
<g opacity="0.1">
<path d="M244.653 188.639H91.9253L114.011 63.396H266.734L244.653 188.639Z" fill="#FFAB48"/>
<path d="M166.278 50.4231H116.296L114.01 63.396H167.501L166.278 50.4231Z" fill="#FFC42A"/>
</g>
<path d="M110.902 55.7163C110.707 54.9894 110.661 54.2626 110.651 53.5358C110.656 52.8089 110.701 52.0821 110.902 51.3552C111.103 52.0821 111.148 52.8089 111.153 53.5358C111.143 54.2626 111.097 54.9894 110.902 55.7163Z" fill="#263238"/>
<path d="M106.461 56.9996C105.924 56.4682 105.523 55.8617 105.152 55.2351C104.797 54.6035 104.471 53.9518 104.28 53.22C104.817 53.7513 105.218 54.3579 105.589 54.9844C105.944 55.6161 106.27 56.2677 106.461 56.9996Z" fill="#263238"/>
<path d="M103.257 60.3331C102.53 60.1426 101.878 59.8168 101.242 59.4609C100.615 59.09 100.009 58.6889 99.4773 58.1526C100.204 58.3431 100.856 58.6689 101.492 59.0248C102.119 59.3957 102.726 59.7968 103.257 60.3331Z" fill="#263238"/>
<path d="M102.144 64.8195C101.417 65.015 100.69 65.0601 99.9632 65.0701C99.2364 65.0651 98.5096 65.02 97.7827 64.8195C98.5096 64.619 99.2364 64.5739 99.9632 64.5688C100.69 64.5789 101.417 64.624 102.144 64.8195Z" fill="#263238"/>
<path d="M103.433 69.2607C102.902 69.7971 102.296 70.1981 101.669 70.5691C101.037 70.925 100.386 71.2508 99.6538 71.4413C100.185 70.9049 100.792 70.5039 101.418 70.133C102.05 69.7771 102.702 69.4512 103.433 69.2607Z" fill="#263238"/>
<path d="M106.767 72.4688C106.576 73.1956 106.251 73.8472 105.895 74.4839C105.524 75.1104 105.123 75.717 104.586 76.2483C104.777 75.5215 105.103 74.8698 105.459 74.2332C105.83 73.6066 106.231 73.0001 106.767 72.4688Z" fill="#263238"/>
<path d="M111.251 73.5767C111.447 74.3035 111.492 75.0304 111.502 75.7572C111.497 76.484 111.452 77.2109 111.251 77.9377C111.051 77.2109 111.006 76.484 111.001 75.7572C111.011 75.0304 111.056 74.3035 111.251 73.5767Z" fill="#263238"/>
<path d="M115.694 72.2935C116.23 72.8248 116.631 73.4313 117.002 74.0579C117.358 74.6895 117.684 75.3412 117.874 76.073C117.338 75.5417 116.937 74.9352 116.566 74.3086C116.21 73.677 115.884 73.0253 115.694 72.2935Z" fill="#263238"/>
<path d="M118.897 68.96C119.624 69.1504 120.276 69.4763 120.913 69.8322C121.539 70.2031 122.146 70.6041 122.677 71.1405C121.95 70.95 121.299 70.6242 120.662 70.2683C120.035 69.8973 119.429 69.4963 118.897 68.96Z" fill="#263238"/>
<path d="M120.009 64.4687C120.735 64.2732 121.462 64.228 122.189 64.218C122.916 64.223 123.643 64.2681 124.37 64.4687C123.643 64.6692 122.916 64.7143 122.189 64.7193C121.462 64.7093 120.735 64.6641 120.009 64.4687Z" fill="#263238"/>
<path d="M118.721 60.0272C119.252 59.4909 119.859 59.0898 120.485 58.7189C121.117 58.363 121.769 58.0372 122.501 57.8467C121.969 58.383 121.363 58.7841 120.736 59.155C120.104 59.5109 119.453 59.8367 118.721 60.0272Z" fill="#263238"/>
<path d="M115.388 56.824C115.578 56.0972 115.904 55.4455 116.26 54.8089C116.631 54.1823 117.032 53.5758 117.568 53.0444C117.378 53.7713 117.052 54.4229 116.696 55.0595C116.325 55.6861 115.924 56.2927 115.388 56.824Z" fill="#263238"/>
<path d="M244.425 188.639H91.3717L69.6416 67.9424H222.695L244.425 188.639Z" fill="#FFAB48"/>
<path d="M122.676 141.725C126.189 141.725 129.037 138.877 129.037 135.364C129.037 131.85 126.189 129.002 122.676 129.002C119.163 129.002 116.315 131.85 116.315 135.364C116.315 138.877 119.163 141.725 122.676 141.725Z" fill="#263238"/>
<path d="M172.969 141.725C176.482 141.725 179.33 138.877 179.33 135.364C179.33 131.85 176.482 129.002 172.969 129.002C169.456 129.002 166.608 131.85 166.608 135.364C166.608 138.877 169.456 141.725 172.969 141.725Z" fill="#263238"/>
<path d="M156.958 142.737L156.607 142.071C156.577 142.011 153.288 135.935 146.677 135.935C140.646 135.935 139.178 141.655 139.117 141.9L138.937 142.627L137.478 142.276L137.654 141.544C137.669 141.474 139.443 134.431 146.677 134.431C153.91 134.431 157.79 141.088 157.94 141.374L158.291 142.041L156.958 142.737Z" fill="#263238"/>
<path d="M234.268 134.631C234.594 134.561 234.92 134.486 235.246 134.401" stroke="#263238" stroke-miterlimit="10"/>
<path d="M237.171 133.834C244.84 131.243 251.262 125.212 251.863 118.164C253.196 102.625 234.268 94.0433 236.223 76.0827C238.088 58.9543 256.054 57.7312 263.257 60.0972C271.212 62.7138 268.485 70.3582 261.282 69.3707C248.795 67.6614 240.945 54.0869 246.875 38.6878C251.307 27.1837 262.35 22.8426 266.836 21.5193" stroke="#263238" stroke-miterlimit="10"/>
<path d="M267.808 21.2585C268.43 21.0981 268.781 21.033 268.781 21.033" stroke="#263238" stroke-miterlimit="10"/>
<path d="M276.732 18.2609C275.453 14.3009 266.892 15.7245 268.561 20.8976C270.23 26.0758 278.01 22.221 276.732 18.2609Z" fill="#263238"/>
<path d="M263.903 16.6619C263.968 14.9225 266.384 13.5891 269.803 14.2057C273.222 14.8223 276.44 17.1231 276.44 17.1231C276.44 17.1231 273.061 19.1883 269.608 19.5543C266.154 19.9202 263.843 18.4064 263.908 16.6619H263.903Z" fill="#EBEBEB"/>
<path d="M276.441 17.1231C274.666 17.1331 272.897 17.078 271.122 17.0228C269.353 16.9476 267.578 16.8774 265.814 16.7321C267.588 16.717 269.358 16.7772 271.132 16.8323C272.902 16.9075 274.676 16.9777 276.441 17.1231Z" fill="#263238"/>
<path d="M267.343 15.123C267.854 15.3536 268.33 15.6444 268.806 15.9301C269.273 16.2359 269.744 16.5366 270.175 16.8975C269.664 16.667 269.187 16.3762 268.711 16.0905C268.245 15.7847 267.774 15.484 267.343 15.123Z" fill="#263238"/>
<path d="M271.985 16.9626C271.534 17.3436 271.047 17.6644 270.561 17.9903C270.065 18.296 269.569 18.6068 269.037 18.8575C269.488 18.4765 269.975 18.1557 270.461 17.8298C270.957 17.5241 271.453 17.2133 271.985 16.9626Z" fill="#263238"/>
<path d="M272.5 15.9802C272.766 16.0955 272.987 16.2659 273.207 16.4314C273.418 16.6118 273.628 16.7923 273.799 17.0279C273.533 16.9126 273.313 16.7422 273.092 16.5767C272.881 16.3963 272.671 16.2158 272.5 15.9802Z" fill="#263238"/>
<path d="M267.162 26.9781C268.229 28.3516 270.971 28.0207 273.382 25.5244C275.794 23.0281 277.057 19.2786 277.057 19.2786C277.057 19.2786 273.107 19.5793 270.094 21.3037C267.081 23.0281 266.089 25.6046 267.162 26.9831V26.9781Z" fill="#EBEBEB"/>
<path d="M277.057 19.2734C275.608 20.301 274.209 21.3838 272.801 22.4665C271.407 23.5643 270.014 24.6571 268.66 25.805C270.109 24.7774 271.508 23.6947 272.916 22.6119C274.31 21.5141 275.703 20.4214 277.057 19.2734Z" fill="#263238"/>
<path d="M270.845 26.216C271.125 25.7298 271.341 25.2135 271.562 24.7022C271.762 24.1809 271.968 23.6646 272.103 23.1182C271.822 23.6044 271.607 24.1207 271.386 24.632C271.186 25.1533 270.98 25.6696 270.845 26.216Z" fill="#263238"/>
<path d="M273.542 22.0104C272.956 21.9653 272.369 21.9903 271.788 22.0104C271.206 22.0505 270.62 22.0856 270.043 22.1959C270.63 22.241 271.216 22.2159 271.798 22.1959C272.379 22.1558 272.966 22.1157 273.542 22.0104Z" fill="#263238"/>
<path d="M274.529 22.5015C274.68 22.2559 274.755 21.9902 274.84 21.7246C274.905 21.4539 274.97 21.1832 274.97 20.8975C274.82 21.1431 274.745 21.4088 274.66 21.6744C274.594 21.9451 274.529 22.2158 274.529 22.5015Z" fill="#263238"/>
<path d="M276.731 18.261C275.944 18.5166 275.096 18.0805 274.841 17.2935C274.585 16.5065 275.021 15.6594 275.808 15.4037C276.595 15.1481 277.442 15.5842 277.698 16.3712C277.954 17.1582 277.518 18.0053 276.731 18.261Z" fill="#455A64"/>
<path d="M277.653 21.1182C276.866 21.3738 276.019 20.9377 275.763 20.1507C275.507 19.3637 275.943 18.5166 276.73 18.2609C277.517 18.0053 278.364 18.4414 278.62 19.2284C278.876 20.0154 278.44 20.8625 277.653 21.1182Z" fill="#455A64"/>
<path d="M113.319 19.8452C112.602 26.7076 106.451 31.6902 99.5938 30.9734C96.8218 30.6827 94.3555 29.5047 92.4457 27.7502L86.1948 28.6676L89.3228 23.2639C88.5658 21.4192 88.245 19.364 88.4656 17.2486C89.1824 10.3862 95.333 5.40354 102.19 6.12035C109.053 6.83717 114.035 12.9878 113.319 19.8452Z" fill="white"/>
<path d="M113.318 19.8452C113.058 22.126 112.226 24.3617 110.797 26.1763C110.471 26.6525 110.045 27.0485 109.664 27.4796C109.228 27.8555 108.827 28.2716 108.346 28.5974C107.433 29.2992 106.406 29.8506 105.333 30.2767C104.265 30.7278 103.117 30.9434 101.97 31.0787C101.393 31.1088 100.812 31.1639 100.235 31.1138C99.6537 31.0988 99.0772 31.0386 98.5057 30.9334C96.2199 30.5173 94.0544 29.4496 92.3251 27.8806L92.4704 27.9257L86.2246 28.8832L85.7734 28.9533L86.004 28.5523L89.1119 23.1386L89.0969 23.3541C87.583 19.7901 87.9239 15.5393 89.8688 12.2209C90.8363 10.5567 92.1897 9.12302 93.7838 8.05531C95.3778 6.98258 97.2225 6.31088 99.1173 6.05523C101.012 5.8046 102.957 5.97503 104.767 6.57655C106.571 7.18309 108.23 8.20569 109.584 9.52905C112.341 12.1507 113.729 16.0857 113.323 19.8452H113.318ZM113.318 19.8452C113.699 16.0807 112.286 12.1707 109.524 9.58419C108.155 8.2909 106.496 7.30841 104.706 6.74197C102.912 6.18055 100.997 6.04521 99.1474 6.32592C97.3027 6.60663 95.5131 7.29839 93.9893 8.3661C92.4654 9.43882 91.1822 10.8374 90.2498 12.4414C89.3024 14.0455 88.8111 15.8852 88.6658 17.7299C88.5505 19.5795 88.8512 21.4543 89.543 23.1737L89.5881 23.2839L89.528 23.3842L86.38 28.7779L86.1544 28.447L92.4103 27.5698L92.4955 27.5598L92.5556 27.6199C94.2098 29.1739 96.3001 30.2566 98.5358 30.7028C99.0922 30.813 99.6587 30.8882 100.23 30.9083C100.802 30.9684 101.368 30.9283 101.939 30.9083C103.072 30.793 104.21 30.6025 105.278 30.1714C106.346 29.7704 107.383 29.2441 108.291 28.5473C108.772 28.2315 109.173 27.8205 109.609 27.4445C109.995 27.0184 110.416 26.6274 110.747 26.1562C112.18 24.3567 113.028 22.131 113.303 19.8502L113.318 19.8452Z" fill="#FFAB48"/>
<path d="M94.781 24.3665C94.781 23.6196 95.2973 23.0832 96.0041 23.0832C96.751 23.0832 97.2272 23.6196 97.2272 24.3665C97.2272 25.1134 96.751 25.6497 96.0041 25.6497C95.2572 25.6497 94.781 25.0883 94.781 24.3665ZM95.2973 21.404L95.0066 11.4587H96.9966L96.7059 21.404H95.2973Z" fill="#FFAB48"/>
<path d="M99.5476 24.3665C99.5476 23.6196 100.064 23.0832 100.771 23.0832C101.518 23.0832 101.994 23.6196 101.994 24.3665C101.994 25.1134 101.518 25.6497 100.771 25.6497C100.024 25.6497 99.5476 25.0883 99.5476 24.3665ZM100.064 21.404L99.7732 11.4587H101.763L101.472 21.404H100.064Z" fill="#FFAB48"/>
<path d="M104.309 24.3665C104.309 23.6196 104.825 23.0832 105.532 23.0832C106.279 23.0832 106.755 23.6196 106.755 24.3665C106.755 25.1134 106.279 25.6497 105.532 25.6497C104.785 25.6497 104.309 25.0883 104.309 24.3665ZM104.825 21.404L104.535 11.4587H106.525L106.234 21.404H104.825Z" fill="#FFAB48"/>
</svg>
