<svg width="263" height="216" viewBox="0 0 263 216" fill="none" xmlns="http://www.w3.org/2000/svg">
<path opacity="0.4" d="M212.167 60.3323C211.709 60.1431 211.407 59.6979 211.407 59.2C211.407 26.5043 184.99 0 152.405 0C129.562 0 109.751 13.0249 99.9465 32.0762C98.9165 34.0776 96.79 35.264 94.5521 35.0947C92.3497 34.9283 90.1253 34.8436 87.8803 34.8436C39.1542 34.8436 -0.310061 74.6325 0.00183611 123.596C0.311607 172.293 39.6766 211.375 88.2114 211.195C95.4517 211.168 102.486 210.263 109.213 208.58C123.839 204.92 139.243 205.623 153.365 210.915C162.029 214.161 171.399 215.954 181.182 215.999C225.56 216.2 261.884 180.139 262.135 135.612C262.325 101.633 241.624 72.481 212.168 60.333L212.167 60.3323Z" fill="url(#paint0_linear_1_19086)"/>
<path d="M158.125 176.233C157.873 176.199 157.648 176.066 157.496 175.862C155.288 172.888 139.23 149.614 160.601 128.34C180.888 108.145 190.085 103.998 191.308 92.1322C191.451 90.7463 193.325 90.4137 193.942 91.6629C198.552 100.999 205.734 122.785 181.966 137.084C155.747 152.858 157.896 170.149 159.164 175.063C159.332 175.713 158.791 176.323 158.125 176.233Z" fill="#5673B6" fill-opacity="0.4"/>
<path d="M161.377 176.675C160.781 176.594 160.308 176.135 160.216 175.54C159.59 171.493 158.053 156.371 169.202 152.36C181.476 147.946 191.386 159.368 200.408 150.428C200.883 149.957 201.681 150.367 201.568 151.026C200.764 155.696 197.188 166.513 181.274 168.69C164.241 171.02 162.324 172.972 162.668 175.394C162.774 176.141 162.125 176.778 161.377 176.676V176.675Z" fill="#5673B6" fill-opacity="0.4"/>
<path opacity="0.47" d="M190.714 104.23C190.506 105.111 190.229 105.937 189.9 106.757C189.576 107.576 189.202 108.374 188.795 109.156C187.989 110.724 187.022 112.207 185.963 113.621C183.832 116.44 181.253 118.917 178.41 121.018C176.992 122.062 175.476 123.021 173.978 123.889C172.519 124.734 171.115 125.68 169.771 126.704C167.08 128.753 164.64 131.13 162.485 133.736C158.193 138.953 155.146 145.249 154.144 151.951C153.632 155.295 153.625 158.719 154.087 162.091C154.542 165.467 155.505 168.772 156.775 171.96C156.844 172.13 156.762 172.323 156.592 172.392C156.428 172.457 156.242 172.382 156.167 172.226C154.682 169.076 153.572 165.727 152.958 162.269C152.644 160.542 152.458 158.788 152.405 157.028C152.363 155.267 152.437 153.499 152.659 151.748C153.086 148.24 154.076 144.805 155.502 141.57C156.932 138.335 158.821 135.312 161.028 132.556C163.234 129.795 165.794 127.325 168.592 125.167C169.994 124.091 171.46 123.095 172.991 122.2C174.488 121.341 175.911 120.468 177.289 119.475C180.038 117.513 182.579 115.247 184.765 112.662C185.871 111.381 186.873 110.009 187.789 108.58C188.686 107.147 189.525 105.636 190.129 104.073L190.137 104.052C190.197 103.896 190.372 103.818 190.529 103.879C190.672 103.934 190.749 104.086 190.714 104.231V104.23Z" fill="white"/>
<path opacity="0.47" d="M160.67 173.93C160.722 173.784 160.705 173.648 160.701 173.508L160.688 173.091L160.678 172.257C160.679 171.701 160.691 171.145 160.715 170.59C160.764 169.48 160.859 168.371 161.008 167.267C161.311 165.064 161.81 162.867 162.701 160.797C163.581 158.742 164.914 156.778 166.849 155.495C167.812 154.865 168.9 154.417 170.027 154.189C171.152 153.952 172.309 153.916 173.441 154.016C177.874 154.53 182.221 155.379 186.578 156.069C188.749 156.392 190.95 156.681 193.081 156.39C193.61 156.312 194.132 156.197 194.639 156.034C195.14 155.859 195.633 155.654 196.093 155.385C197.02 154.856 197.835 154.133 198.563 153.331L198.565 153.329C198.666 153.218 198.837 153.21 198.947 153.31C199.056 153.409 199.065 153.577 198.97 153.688C198.232 154.536 197.389 155.321 196.404 155.912C195.914 156.213 195.386 156.447 194.848 156.647C194.305 156.834 193.747 156.97 193.183 157.065C190.914 157.397 188.664 157.115 186.469 156.814C184.267 156.5 182.093 156.093 179.911 155.74C177.736 155.386 175.536 155.044 173.37 154.79C172.301 154.687 171.22 154.712 170.178 154.922C169.134 155.123 168.135 155.527 167.242 156.098C165.442 157.244 164.136 159.066 163.249 161.039C162.352 163.022 161.818 165.169 161.48 167.335C161.313 168.42 161.2 169.514 161.131 170.612C161.097 171.161 161.075 171.711 161.064 172.26L161.058 173.085L161.063 173.497C161.067 173.633 161.06 173.773 161.128 173.903C161.191 174.026 161.144 174.177 161.02 174.241C160.897 174.304 160.746 174.256 160.682 174.133C160.649 174.069 160.647 173.998 160.669 173.935L160.67 173.93L160.67 173.93Z" fill="white"/>
<path d="M137.503 35.6713C130.823 35.6187 124.084 36.6772 118.123 39.1488C104.245 44.9024 92.4675 60.1268 97.0768 75.6775C98.5742 80.729 97.7874 86.3024 102.824 88.4976C105.549 89.6853 112.97 90.3927 115.791 89.4561C123.291 86.9682 128.22 80.1588 124.141 72.6078C122.835 70.1898 121.144 67.9805 120.017 65.4747C118.889 62.9684 118.375 59.9938 119.524 57.4975C121.782 52.5974 129.28 51.0397 134.142 51.1868C139.882 51.3603 145.082 54.1966 148.17 59.0631C152.02 65.1278 152.995 72.5043 152.431 79.5439C151.829 87.0765 148.65 92.8291 143.887 98.6074C139.785 103.583 135.269 108.358 132.544 114.2C130.041 119.563 129.223 125.505 129.11 131.372C129.088 132.509 123.429 143.226 123.453 146.5C123.456 146.963 129.872 148.495 130.335 148.501C132.75 148.527 139.592 148.604 142.11 148.632C142.628 148.638 143.054 148.224 143.06 147.707C143.24 131.778 148.143 116.591 160.555 105.893C165.071 102.001 169.935 98.8307 173.448 93.9175C178.453 86.9146 180.922 80.0227 180.209 71.3802C179.558 63.4866 176.958 55.5893 171.809 49.4646C166.274 42.8822 158.174 38.7715 149.756 36.9978C145.83 36.1706 141.678 35.7034 137.503 35.6708L137.503 35.6713Z" fill="#F0A700"/>
<path d="M149.822 166.488C149.822 173.813 145.759 180.293 138.429 180.293C136.845 180.293 131.46 180.308 130.052 179.8C124.942 177.955 124.923 174.032 124.923 168.29C124.923 160.965 127.398 153.761 134.729 153.761C142.06 153.761 149.823 159.164 149.823 166.488H149.822Z" fill="#F0A700"/>
<path d="M131.156 34.0021C124.475 33.9496 117.737 35.008 111.775 37.4796C97.8977 43.2332 86.1198 58.4576 90.7292 74.0084C92.2265 79.0598 95.6883 85.4189 100.725 87.6141C103.45 88.8018 106.622 88.723 109.444 87.787C116.943 85.2991 121.872 78.4896 117.794 70.9387C116.488 68.5207 114.797 66.3113 113.669 63.8055C112.541 61.2997 112.027 58.3246 113.177 55.8283C115.434 50.9282 122.932 49.3705 127.795 49.5176C133.534 49.6911 138.734 52.5274 141.823 57.3939C145.672 63.4586 146.647 70.8351 146.084 77.8747C145.481 85.4073 142.302 91.1599 137.539 96.9382C133.438 101.913 128.921 106.689 126.196 112.53C123.694 117.894 122.876 123.836 122.763 129.703C122.741 130.84 123.124 142.715 123.148 145.99C123.152 146.452 123.524 146.826 123.987 146.831C126.403 146.858 133.244 146.934 135.762 146.962C136.28 146.968 136.707 146.554 136.713 146.037C136.892 130.108 141.795 114.922 154.207 104.224C158.724 100.331 163.588 97.161 167.1 92.2478C172.105 85.2449 174.574 78.353 173.862 69.7105C173.211 61.8169 170.61 53.9196 165.461 47.7949C159.927 41.2125 151.827 37.1017 143.408 35.328C139.483 34.5019 135.33 34.0347 131.156 34.0021Z" fill="#FFAB48"/>
<path d="M131.848 179.883C139.179 179.883 145.121 173.945 145.121 166.621C145.121 159.296 139.179 153.358 131.848 153.358C124.518 153.358 118.576 159.296 118.576 166.621C118.576 173.945 124.518 179.883 131.848 179.883Z" fill="#FFAB48"/>
<path opacity="0.63" d="M95.1223 72.4847C95.0439 72.4847 94.9735 72.4306 94.9561 72.3512C94.0257 68.1548 93.8895 61.5829 98.5209 54.1066C103.041 46.81 109.383 41.9272 117.368 39.5948C125.904 37.1017 136.039 37.6356 147.492 41.1814C147.582 41.2093 147.632 41.3044 147.604 41.3943C147.576 41.4841 147.48 41.5346 147.391 41.5067C125.389 34.6942 108.136 39.2327 98.8107 54.2863C94.2392 61.6649 94.3723 68.1432 95.289 72.2782C95.3095 72.3702 95.2512 72.4611 95.1596 72.481C95.1475 72.4837 95.1349 72.4853 95.1228 72.4853L95.1223 72.4847Z" fill="white"/>
<path opacity="0.63" d="M97.9145 79.2369C97.8619 79.2369 97.8104 79.2127 97.7767 79.167C97.7362 79.1118 96.7801 77.7912 95.8902 75.4656C95.8565 75.3779 95.9007 75.2796 95.9885 75.246C96.0759 75.2123 96.1747 75.2559 96.2084 75.3442C97.0804 77.624 98.0418 78.9531 98.0513 78.9663C98.1065 79.0419 98.0902 79.1486 98.0139 79.2038C97.9834 79.2259 97.9482 79.2364 97.9135 79.2364L97.9145 79.2369Z" fill="white"/>
<path opacity="0.63" d="M136.289 158.024C136.263 158.024 136.237 158.019 136.212 158.006C134.852 157.316 133.384 156.967 131.848 156.967C131.754 156.967 131.678 156.891 131.678 156.797C131.678 156.703 131.754 156.626 131.848 156.626C133.438 156.626 134.958 156.989 136.366 157.702C136.45 157.745 136.484 157.847 136.441 157.931C136.411 157.99 136.351 158.024 136.289 158.024V158.024Z" fill="white"/>
<path opacity="0.63" d="M126.351 174.936C126.318 174.936 126.285 174.927 126.256 174.907C123.494 173.043 121.846 169.945 121.846 166.62C121.846 162.934 123.867 159.558 127.119 157.811C127.201 157.767 127.305 157.798 127.35 157.881C127.394 157.964 127.363 158.067 127.28 158.112C124.138 159.799 122.186 163.059 122.186 166.62C122.186 169.832 123.779 172.825 126.446 174.625C126.524 174.678 126.544 174.783 126.492 174.862C126.459 174.91 126.405 174.937 126.35 174.937L126.351 174.936Z" fill="white"/>
<g opacity="0.3">
<path d="M87.6961 58.8122C87.5567 58.9846 87.3037 59.0109 87.1312 58.8716C86.7962 58.6004 86.4443 58.3403 86.0856 58.0975C85.9042 57.9745 85.8553 57.7296 85.9741 57.5467C85.9757 57.5446 85.9768 57.5425 85.9784 57.5404C86.1025 57.357 86.3523 57.3092 86.5364 57.4332C86.914 57.6886 87.2843 57.963 87.6366 58.2483C87.7981 58.3787 87.8318 58.6083 87.7208 58.7786C87.7134 58.7902 87.705 58.8017 87.6961 58.8128V58.8122ZM84.2585 57.0354C83.8704 56.8436 83.4701 56.667 83.0689 56.5098C82.8627 56.4289 82.7607 56.1961 82.8416 55.9895C82.9237 55.7825 83.1556 55.6816 83.3623 55.7625C83.7847 55.9281 84.2059 56.1141 84.6146 56.3154C84.8134 56.4137 84.8949 56.6544 84.7971 56.853C84.7897 56.8672 84.7818 56.8814 84.7734 56.8945C84.664 57.0627 84.4437 57.1263 84.2591 57.0354H84.2585ZM81.0529 55.8781C80.6327 55.7783 80.2035 55.6952 79.7759 55.6311C79.5566 55.5985 79.4052 55.3941 79.4378 55.175C79.4709 54.9558 79.675 54.8045 79.8943 54.837C80.3445 54.9043 80.7968 54.9915 81.2391 55.0972C81.4547 55.1487 81.5878 55.3652 81.5368 55.5807C81.5257 55.6264 81.5073 55.669 81.4831 55.7063C81.3932 55.8445 81.2228 55.9186 81.0529 55.8781ZM77.669 55.4661C77.2367 55.4624 76.7991 55.4771 76.3684 55.5108C76.147 55.5276 75.9539 55.3626 75.9371 55.1413C75.9203 54.9201 76.0859 54.7277 76.3068 54.7104C76.7602 54.6757 77.2209 54.6599 77.6759 54.6636C77.8978 54.6657 78.0761 54.847 78.074 55.0683C78.0735 55.1476 78.0498 55.2212 78.0093 55.2832C77.9373 55.3941 77.8116 55.4672 77.669 55.4661ZM74.2772 55.8177C73.856 55.9097 73.4326 56.0211 73.0187 56.1488C72.8067 56.214 72.5816 56.0957 72.5164 55.8839C72.4507 55.6721 72.5695 55.4472 72.7815 55.382C73.2164 55.2475 73.6624 55.1303 74.1058 55.0336C74.3225 54.9863 74.5365 55.1235 74.5839 55.34C74.6075 55.4493 74.5849 55.5576 74.5281 55.6443C74.4724 55.7299 74.3845 55.794 74.2772 55.8177ZM71.048 56.9108C70.6567 57.0942 70.2685 57.296 69.8946 57.512C69.7026 57.6229 69.457 57.5567 69.346 57.3649C69.2351 57.1731 69.3008 56.9276 69.4933 56.8167C69.8872 56.5897 70.2959 56.3769 70.7077 56.184C70.9086 56.0899 71.1479 56.1766 71.242 56.3774C71.3031 56.5077 71.2878 56.6544 71.2147 56.7668C71.1753 56.8273 71.119 56.8782 71.0485 56.9113L71.048 56.9108ZM61.9955 68.7565C61.7762 68.7234 61.6252 68.519 61.6584 68.2998C61.7262 67.851 61.8146 67.3985 61.9213 66.956C61.9734 66.7405 62.1901 66.6076 62.4057 66.6596C62.6214 66.7111 62.7539 66.9281 62.7024 67.1436C62.6014 67.564 62.5172 67.9934 62.4531 68.4196C62.4441 68.478 62.4231 68.5316 62.3931 68.5783C62.31 68.7061 62.157 68.7807 61.996 68.7565H61.9955ZM68.1437 58.6913C67.8035 58.9567 67.4705 59.24 67.1539 59.5338C66.9914 59.6846 66.7374 59.6752 66.5864 59.5128C66.4355 59.3504 66.4455 59.0971 66.6075 58.9457C66.9404 58.6367 67.2912 58.3382 67.6499 58.0586C67.825 57.9225 68.0769 57.9535 68.2137 58.1285C68.322 58.2672 68.3247 58.4543 68.2337 58.5941C68.21 58.6304 68.18 58.6635 68.1437 58.6919V58.6913ZM62.8175 65.3563C62.6114 65.2748 62.5099 65.042 62.5914 64.8354C62.7581 64.4129 62.9453 63.9925 63.1473 63.5847C63.2451 63.3855 63.4871 63.3051 63.6859 63.4033C63.8847 63.5016 63.9657 63.7428 63.8673 63.9415C63.6753 64.3288 63.4971 64.7288 63.3387 65.1303C63.3288 65.156 63.3161 65.1797 63.3014 65.2017C63.1994 65.3584 62.9979 65.4272 62.8175 65.3563ZM65.7107 61.0747C65.4383 61.4094 65.1769 61.76 64.9339 62.1174C64.8093 62.3008 64.5595 62.3481 64.3759 62.2235C64.195 62.1005 64.1461 61.8556 64.2649 61.6733C64.2665 61.6706 64.2681 61.6685 64.2697 61.6664C64.5258 61.2901 64.8009 60.9207 65.087 60.5686C65.2269 60.3967 65.4798 60.3705 65.6524 60.5102C65.8133 60.6406 65.8464 60.8702 65.736 61.04C65.7281 61.0521 65.7197 61.0636 65.7107 61.0747Z" fill="#5673B6" fill-opacity="0.4"/>
<path d="M62.226 71.3914C62.2691 71.3252 62.2933 71.2453 62.2907 71.1607C62.2844 70.9537 62.2818 70.7435 62.2839 70.5353C62.286 70.3136 62.1077 70.1322 61.8863 70.1301C61.6643 70.128 61.4829 70.3062 61.4808 70.528C61.4786 70.7471 61.4808 70.9684 61.4881 71.186C61.495 71.4072 61.6806 71.5817 61.902 71.5743C62.0388 71.5701 62.1571 71.4981 62.2265 71.3914H62.226Z" fill="#5673B6" fill-opacity="0.4"/>
</g>
<g opacity="0.3">
<path d="M67.359 82.5009C67.4647 82.3385 67.4395 82.1188 67.2912 81.9848C67.1376 81.8461 66.984 81.7015 66.8357 81.556C66.6774 81.4004 66.4228 81.403 66.2677 81.5612C66.1115 81.7199 66.1146 81.9738 66.2729 82.1288C66.4297 82.2823 66.5906 82.4341 66.7526 82.5802C66.9172 82.729 67.1712 82.7164 67.3201 82.5519C67.3348 82.5356 67.3474 82.5188 67.359 82.5009Z" fill="#5673B6" fill-opacity="0.4"/>
<path d="M90.522 80.097C90.3921 80.2768 90.1412 80.3172 89.9613 80.1874C89.7815 80.0576 89.741 79.8075 89.8709 79.6272C90.1181 79.2851 90.3547 78.9272 90.5767 78.5593C90.6903 78.3701 90.938 78.3086 91.1279 78.4227C91.3177 78.5372 91.3787 78.7837 91.2646 78.9734C91.1684 79.1327 91.07 79.2898 90.969 79.4448C90.8255 79.6656 90.675 79.8852 90.522 80.0965V80.097ZM91.7369 77.2381C91.5334 77.1503 91.4392 76.9144 91.5271 76.711C91.6954 76.32 91.8495 75.9179 91.9841 75.5159C92.0535 75.3057 92.2823 75.1922 92.4927 75.2626C92.7031 75.333 92.8161 75.5606 92.7462 75.7708C92.6042 76.1944 92.4422 76.618 92.265 77.0289C92.256 77.0505 92.245 77.0704 92.2329 77.0894C92.1282 77.2502 91.9199 77.3174 91.7374 77.2386L91.7369 77.2381ZM89.1219 81.7788C88.8132 82.1014 88.4866 82.4157 88.1505 82.7126C87.9843 82.8593 87.7303 82.844 87.5836 82.678C87.4368 82.5119 87.4526 82.2586 87.6188 82.1114C87.9381 81.8297 88.2478 81.5318 88.5408 81.2248C88.6938 81.0646 88.9484 81.0588 89.1088 81.2117C89.2508 81.3473 89.2718 81.5617 89.1682 81.7204C89.1546 81.7409 89.1393 81.7609 89.1219 81.7793V81.7788ZM92.8277 73.9734C92.61 73.9324 92.4659 73.7228 92.5069 73.5052C92.5853 73.0874 92.6468 72.6617 92.6899 72.2392C92.712 72.0184 92.9092 71.8581 93.1301 71.8802C93.351 71.9023 93.5114 72.0994 93.4893 72.3201C93.4441 72.7652 93.3794 73.2135 93.2969 73.6534C93.2869 73.7065 93.2669 73.7553 93.239 73.7979C93.1527 73.9303 92.9929 74.0044 92.8277 73.974V73.9734ZM86.416 84.0438C86.0441 84.2908 85.6565 84.5252 85.2636 84.7412C85.069 84.8479 84.825 84.777 84.7182 84.583C84.6115 84.3886 84.6825 84.1447 84.8766 84.0381C85.2494 83.8331 85.6181 83.6103 85.971 83.3759C86.1556 83.2534 86.4049 83.3034 86.528 83.4878C86.6195 83.6255 86.6148 83.7989 86.5301 83.9287C86.5012 83.9734 86.4628 84.0128 86.4155 84.0438H86.416ZM83.2788 85.6609C82.8606 85.8212 82.4309 85.9657 82.0018 86.0903C81.7888 86.1523 81.5658 86.0299 81.5037 85.817C81.4416 85.6036 81.5642 85.3813 81.7772 85.3199C82.1853 85.2011 82.5935 85.0639 82.9905 84.912C83.1978 84.8327 83.4297 84.9362 83.5096 85.1433C83.5575 85.2678 83.5391 85.4018 83.4712 85.5059C83.4265 85.5747 83.3608 85.6299 83.2782 85.6615L83.2788 85.6609ZM79.8633 86.5565C79.4199 86.6221 78.9692 86.6694 78.5232 86.6978C78.3018 86.712 78.1109 86.5438 78.0967 86.3226C78.0825 86.1008 78.2508 85.9106 78.4722 85.8969C78.8961 85.8701 79.3242 85.8249 79.7455 85.7629C79.9648 85.7303 80.1694 85.8822 80.2015 86.1013C80.2162 86.2022 80.1925 86.2995 80.141 86.3788C80.0805 86.4718 79.9816 86.5396 79.8628 86.5575L79.8633 86.5565ZM76.3337 86.6863C75.8872 86.6532 75.4365 86.6011 74.9947 86.5307C74.7759 86.496 74.6265 86.29 74.6612 86.0709C74.6959 85.8522 74.9021 85.703 75.1214 85.7377C75.5406 85.8044 75.9687 85.8543 76.3931 85.8853C76.6146 85.9016 76.7802 86.094 76.7639 86.3152C76.7587 86.3851 76.7361 86.4492 76.7003 86.5039C76.623 86.6227 76.4852 86.6968 76.3337 86.6857V86.6863ZM72.8599 86.0377C72.4323 85.9074 72.0047 85.7576 71.5892 85.591C71.383 85.5085 71.2831 85.2752 71.3652 85.0692C71.4472 84.8642 71.6813 84.7633 71.8874 84.8453C72.2824 85.003 72.6884 85.1459 73.0945 85.2694C73.3064 85.334 73.4263 85.5585 73.3616 85.7702C73.3506 85.807 73.3343 85.8412 73.3143 85.8722C73.2191 86.0183 73.0356 86.0903 72.8604 86.0372L72.8599 86.0377ZM69.6169 84.644C69.3303 84.4816 69.0452 84.3087 68.7697 84.13C68.6697 84.0654 68.5708 83.9997 68.473 83.933C68.29 83.8084 68.2374 83.5582 68.3673 83.3754C68.492 83.1919 68.7418 83.1446 68.9253 83.2697C69.0184 83.3328 69.1126 83.3959 69.2072 83.4573C69.4692 83.6276 69.74 83.7921 70.0124 83.9461C70.2055 84.0554 70.2733 84.3003 70.1639 84.4932C70.1597 84.5005 70.1555 84.5074 70.1508 84.5142C70.0361 84.6908 69.8021 84.7496 69.6164 84.6445L69.6169 84.644Z" fill="#5673B6" fill-opacity="0.4"/>
<path d="M93.4952 70.3556C93.5388 70.2889 93.5625 70.2085 93.5599 70.1228C93.552 69.9058 93.5393 69.6845 93.522 69.4659C93.5046 69.2446 93.3116 69.0796 93.0902 69.097C92.8688 69.1143 92.7036 69.3072 92.721 69.5284C92.7373 69.7365 92.7494 69.9462 92.7567 70.1528C92.7646 70.374 92.9508 70.5474 93.1728 70.539C93.3085 70.5343 93.4263 70.4623 93.4952 70.3561V70.3556Z" fill="#5673B6" fill-opacity="0.4"/>
</g>
<path d="M88.4572 65.6652C88.4325 65.589 88.3625 65.5364 88.2826 65.5349L85.9984 65.4849C85.4499 64.5705 84.7509 63.737 83.9152 63.0254L84.2413 60.7672C84.2528 60.6878 84.2123 60.61 84.1413 60.5738L81.7047 59.3204C81.6337 59.2836 81.5469 59.2962 81.489 59.3514L79.8391 60.929C78.7741 60.6626 77.6891 60.579 76.6257 60.6642L75.2572 58.8358C75.2093 58.7717 75.1257 58.7449 75.0494 58.7696L72.4397 59.6052C72.3634 59.6294 72.3108 59.6998 72.3093 59.7797L72.2593 62.0621C71.3442 62.6102 70.51 63.3087 69.7979 64.1438L67.5379 63.8179C67.4585 63.8064 67.3807 63.8463 67.3444 63.9178L66.09 66.3526C66.0532 66.4236 66.0658 66.5103 66.1216 66.5681L67.7005 68.2167C67.4338 69.2809 67.3502 70.3651 67.4354 71.4278L65.6056 72.7952C65.5415 72.843 65.5147 72.9266 65.5394 73.0028L66.3756 75.6105C66.3998 75.6867 66.4703 75.7393 66.5502 75.7409L68.8344 75.7908C69.3829 76.7052 70.0819 77.5387 70.9176 78.2503L70.5915 80.5086C70.58 80.5879 70.6199 80.6657 70.6915 80.702L73.1282 81.9554C73.1992 81.9922 73.2859 81.9796 73.3438 81.9239L74.9937 80.3462C76.0587 80.6126 77.1437 80.6962 78.2072 80.611L79.5756 82.4394C79.6235 82.5035 79.7071 82.5303 79.7834 82.5056L82.3931 81.67C82.4694 81.6458 82.522 81.5754 82.5235 81.4955L82.5735 79.2131C83.4886 78.665 84.3228 77.9665 85.0349 77.1314L87.2949 77.4573C87.3743 77.4688 87.4521 77.4284 87.4884 77.3574L88.7428 74.9226C88.7796 74.8517 88.767 74.7649 88.7112 74.7071L87.1324 73.0585C87.399 71.9943 87.4826 70.9101 87.3974 69.8475L89.2272 68.48C89.2913 68.4322 89.3182 68.3486 89.2934 68.2724L88.4572 65.6647V65.6652Z" fill="#5673B6" fill-opacity="0.4"/>
<path d="M79.4823 72.4589C78.4777 73.5972 76.7337 73.707 75.594 72.7032C75.0418 72.2171 74.7125 71.545 74.6662 70.8113C74.6199 70.0776 74.8624 69.3697 75.3494 68.8179C76.354 67.6796 78.098 67.5698 79.2377 68.5735C80.2743 69.4869 80.4584 71.0115 79.7268 72.1367C79.6542 72.2481 79.5727 72.3559 79.4823 72.4589ZM75.3079 70.7708C75.3431 71.3337 75.5961 71.8487 76.0189 72.2213C76.8925 72.9907 78.23 72.9066 79 72.0337C79.7705 71.1608 79.6858 69.8243 78.8122 69.0549C77.9386 68.2856 76.6012 68.3696 75.8312 69.2426C75.7612 69.3219 75.6981 69.405 75.6419 69.4917C75.3962 69.869 75.279 70.3131 75.3079 70.7708Z" fill="#BDD0FB"/>
<path d="M83.0325 74.3502C83.1582 74.1568 83.275 73.9561 83.3817 73.7485C83.4154 73.6833 83.448 73.6171 83.4796 73.5509C83.6352 73.2235 83.7646 72.884 83.8656 72.5376C83.8672 72.5329 83.8682 72.5282 83.8698 72.5234C83.8735 72.5103 83.8777 72.4966 83.8814 72.483C83.8887 72.4567 83.8961 72.4304 83.9029 72.4047C83.9213 72.3358 83.8924 72.2654 83.8356 72.2281C83.8219 72.2192 83.8062 72.2123 83.7893 72.2076C83.7036 72.1845 83.6158 72.2354 83.5926 72.3211C83.4738 72.7615 83.3071 73.1925 83.0961 73.6013C82.0501 75.6331 80.0662 76.8739 77.9425 77.0704C76.7612 77.1797 75.5368 76.9653 74.406 76.3841C74.2078 76.2821 74.0158 76.1707 73.8317 76.0509C72.5905 75.2447 71.6722 74.0465 71.2141 72.6186C70.6882 70.9784 70.8328 69.232 71.6217 67.7006C73.2511 64.5384 77.1483 63.2913 80.3118 64.9184C80.5069 65.0187 80.6963 65.1286 80.8788 65.2473C81.6703 65.7618 82.3409 66.4435 82.8395 67.246C82.8526 67.2665 82.8689 67.2833 82.8884 67.2959C82.9389 67.3285 83.0062 67.3316 83.0609 67.2975C83.1361 67.2507 83.1598 67.1519 83.1125 67.0762C82.5891 66.2338 81.8854 65.518 81.0539 64.9777C80.862 64.8532 80.6637 64.7381 80.4591 64.6325C77.1378 62.9244 73.0449 64.2357 71.3361 67.5534C70.5083 69.161 70.3563 70.9946 70.9085 72.7163C71.3893 74.2152 72.3533 75.4733 73.6566 76.3194C73.8501 76.445 74.0516 76.5617 74.2593 76.6689C75.8682 77.4961 77.7032 77.648 79.4261 77.0962C80.9266 76.6158 82.1857 75.652 83.0325 74.3492V74.3502Z" fill="#BDD0FB"/>
<g opacity="0.3">
<path d="M104.065 53.0569C104.124 52.9671 104.119 52.8462 104.045 52.7605C103.908 52.6008 103.765 52.4431 103.618 52.2918C103.523 52.1935 103.366 52.1909 103.267 52.286C103.168 52.3811 103.166 52.5382 103.261 52.6365C103.401 52.7805 103.538 52.9313 103.669 53.0837C103.758 53.1878 103.915 53.1994 104.019 53.1106C104.037 53.0948 104.052 53.0769 104.065 53.0575L104.065 53.0569Z" fill="#5673B6" fill-opacity="0.4"/>
<path d="M102.68 51.7506C102.594 51.8572 102.438 51.8741 102.332 51.7879C102.062 51.5714 101.779 51.3659 101.489 51.1777C101.428 51.1378 101.365 51.0989 101.303 51.06C101.187 50.988 101.151 50.8351 101.223 50.7189C101.296 50.6117 101.449 50.567 101.565 50.639C101.631 50.6795 101.695 50.7205 101.759 50.762C102.063 50.9591 102.361 51.1746 102.643 51.4021C102.743 51.4825 102.764 51.6244 102.696 51.7301C102.691 51.7369 102.686 51.7437 102.681 51.7506H102.68ZM100.194 50.463C99.814 50.2869 99.419 50.133 99.0208 50.0052C98.8904 49.9632 98.8184 49.8239 98.8604 49.6936C98.9025 49.5638 99.0419 49.4913 99.1723 49.5333C99.5894 49.6668 100.003 49.8281 100.402 50.0131C100.527 50.0704 100.581 50.2181 100.523 50.3421C100.518 50.3532 100.512 50.3637 100.506 50.3731C100.44 50.4751 100.307 50.515 100.194 50.463ZM97.7996 49.6968C97.3883 49.6195 96.9676 49.5675 96.5494 49.5412C96.4127 49.5328 96.3086 49.4151 96.317 49.2784C96.3254 49.1413 96.4427 49.0377 96.58 49.0461C97.0186 49.0729 97.4598 49.1281 97.8911 49.2091C98.0258 49.2343 98.1146 49.3641 98.0894 49.4986C98.0831 49.5312 98.071 49.5617 98.0536 49.588C98.0005 49.6694 97.9016 49.7157 97.7996 49.6968ZM95.2893 49.5417C94.8706 49.5675 94.4499 49.62 94.0391 49.6968C93.9045 49.722 93.7746 49.6332 93.7493 49.4986C93.7241 49.3646 93.8125 49.2348 93.9471 49.2091C94.3778 49.1281 94.8191 49.0735 95.2577 49.0467C95.3945 49.0382 95.5123 49.1423 95.5207 49.2789C95.5239 49.3341 95.5091 49.3862 95.4813 49.4293C95.4397 49.4928 95.3703 49.537 95.2882 49.5417H95.2893ZM92.8174 50.0037C92.4182 50.1303 92.0227 50.2833 91.6424 50.4572C91.5183 50.5145 91.3705 50.4598 91.3137 50.3353C91.2564 50.2107 91.3111 50.0636 91.4357 50.0068C91.8344 49.8239 92.2483 49.6642 92.667 49.5312C92.7974 49.4897 92.9373 49.5622 92.9783 49.6925C93.002 49.7661 92.9888 49.8429 92.9499 49.9028C92.9199 49.949 92.8742 49.9858 92.8174 50.0037ZM90.5327 51.0511C90.1766 51.2707 89.8311 51.5151 89.505 51.7768C89.3982 51.8625 89.242 51.8457 89.1563 51.739C89.0706 51.6323 89.0874 51.4768 89.1942 51.3906C89.5355 51.1162 89.8984 50.8598 90.2718 50.6296C90.3886 50.5576 90.5411 50.5938 90.6132 50.71C90.6652 50.7941 90.6605 50.8976 90.61 50.9754C90.5906 51.0053 90.5648 51.0311 90.5322 51.0511H90.5327ZM88.5746 52.6245C88.2843 52.9241 88.0087 53.2457 87.7563 53.581C87.6737 53.6903 87.518 53.7119 87.4086 53.6299C87.2992 53.5474 87.2787 53.3934 87.3597 53.2825C87.6248 52.9315 87.9135 52.5941 88.218 52.2798C88.3132 52.1815 88.4705 52.1789 88.5688 52.274C88.6556 52.3576 88.6677 52.4895 88.6041 52.5867C88.5957 52.5998 88.5857 52.6125 88.5741 52.6245H88.5746ZM86.1748 55.8897C86.0485 55.8361 85.9896 55.6911 86.0433 55.5649C86.1911 55.216 86.3604 54.8691 86.5466 54.5349C86.5745 54.4839 86.6034 54.4334 86.6323 54.3835C86.697 54.2637 86.8527 54.2243 86.9716 54.2931C87.0904 54.3615 87.1304 54.5133 87.062 54.6321C87.0347 54.6789 87.0078 54.7267 86.981 54.7751C86.8033 55.0951 86.6413 55.4257 86.5003 55.7589C86.4945 55.7725 86.4877 55.7857 86.4798 55.7978C86.4156 55.8966 86.2878 55.9381 86.1753 55.8908L86.1748 55.8897Z" fill="#5673B6" fill-opacity="0.4"/>
</g>
<g opacity="0.3">
<path d="M104.815 65.6926C104.574 66.0515 104.31 66.3994 104.029 66.7258C103.939 66.8293 103.783 66.8414 103.679 66.7521C103.575 66.6627 103.565 66.5061 103.653 66.4026C103.921 66.0915 104.173 65.7599 104.402 65.4172C104.478 65.3032 104.633 65.2727 104.746 65.3489C104.859 65.4246 104.89 65.5765 104.817 65.69C104.816 65.691 104.816 65.6921 104.815 65.6926ZM105.137 64.6804C105.015 64.6184 104.966 64.4691 105.028 64.3472C105.214 63.9799 105.38 63.5978 105.521 63.211C105.568 63.0833 105.711 63.016 105.84 63.0628C105.968 63.1096 106.035 63.252 105.988 63.3802C105.84 63.7854 105.667 64.1864 105.471 64.5711C105.467 64.579 105.463 64.5869 105.457 64.5942C105.389 64.6988 105.252 64.7377 105.137 64.6799V64.6804ZM103.123 67.6565C102.802 67.9472 102.462 68.221 102.11 68.4696C101.998 68.5489 101.844 68.5221 101.764 68.4107C101.685 68.2988 101.712 68.1448 101.823 68.0649C102.159 67.8273 102.484 67.5667 102.789 67.2892C102.891 67.1972 103.047 67.2046 103.139 67.306C103.217 67.3911 103.224 67.5157 103.164 67.6077C103.153 67.625 103.139 67.6413 103.123 67.656V67.6565ZM106.058 62.3207C105.925 62.2902 105.842 62.1568 105.872 62.0233C105.965 61.6218 106.033 61.2113 106.076 60.8019C106.091 60.6658 106.213 60.567 106.349 60.5812C106.485 60.5954 106.584 60.7173 106.57 60.8534C106.525 61.2828 106.453 61.7137 106.356 62.1347C106.349 62.1636 106.337 62.1904 106.322 62.214C106.267 62.2987 106.163 62.3444 106.058 62.3207ZM101.006 69.1533C100.627 69.3582 100.23 69.5417 99.8276 69.6993C99.6998 69.7492 99.5562 69.6862 99.5063 69.559C99.4563 69.4313 99.5189 69.2878 99.6467 69.2379C100.03 69.0876 100.408 68.9126 100.771 68.7171C100.891 68.6519 101.041 68.6971 101.107 68.818C101.151 68.9005 101.144 68.9972 101.096 69.0708C101.074 69.1044 101.044 69.1333 101.006 69.1538V69.1533ZM98.5922 70.0993C98.1735 70.2075 97.7444 70.2911 97.3173 70.3478C97.1816 70.3657 97.057 70.2706 97.0385 70.135C97.0201 69.9994 97.1159 69.8748 97.2515 69.8565C97.6592 69.8023 98.0683 69.7224 98.468 69.6194C98.6006 69.5853 98.7363 69.6652 98.7705 69.7976C98.7883 69.8675 98.7747 69.9384 98.7384 69.9947C98.7058 70.0446 98.6548 70.0835 98.5927 70.0998L98.5922 70.0993ZM96.0209 70.4409C95.588 70.4456 95.1515 70.424 94.7228 70.3762C94.5866 70.361 94.4883 70.2385 94.5035 70.1024C94.5188 69.9663 94.6413 69.8685 94.7775 69.8833C95.1862 69.929 95.6027 69.9495 96.0151 69.9447C96.1523 69.9432 96.2644 70.053 96.2659 70.1902C96.2665 70.2411 96.2517 70.2884 96.226 70.3279C96.1823 70.3951 96.1071 70.4398 96.0209 70.4409Z" fill="#5673B6" fill-opacity="0.4"/>
<path d="M106.586 59.6847C106.613 59.6448 106.627 59.5964 106.626 59.5455C106.623 59.3331 106.612 59.1203 106.596 58.9122C106.585 58.7755 106.466 58.6736 106.329 58.6841C106.193 58.6951 106.091 58.8139 106.101 58.9505C106.116 59.1487 106.126 59.3521 106.13 59.5544C106.132 59.691 106.245 59.8003 106.382 59.7977C106.468 59.7961 106.542 59.7515 106.586 59.6847H106.586Z" fill="#5673B6" fill-opacity="0.4"/>
</g>
<path d="M103.227 56.3675C103.211 56.3165 103.164 56.2813 103.111 56.2803L101.582 56.2466C101.215 55.6349 100.748 55.0768 100.188 54.6012L100.406 53.0903C100.414 53.0372 100.387 52.9851 100.339 52.961L98.709 52.1222C98.6611 52.0975 98.6033 52.1059 98.5649 52.1432L97.4609 53.199C96.7483 53.0209 96.0219 52.9646 95.3103 53.0219L94.3947 51.7985C94.3626 51.7554 94.3069 51.738 94.2558 51.7543L92.5092 52.3135C92.4582 52.3298 92.4229 52.3766 92.4219 52.4302L92.3882 53.9574C91.776 54.3242 91.2175 54.7914 90.7415 55.3506L89.2294 55.1325C89.1763 55.1246 89.1242 55.1514 89.1001 55.1992L88.2607 56.8284C88.2359 56.8762 88.2443 56.9341 88.2817 56.9724L89.3383 58.0755C89.16 58.7876 89.1037 59.5134 89.1611 60.2245L87.9367 61.1394C87.8935 61.1715 87.8757 61.2272 87.8925 61.2782L88.4521 63.0235C88.4684 63.0745 88.5152 63.1097 88.5689 63.1107L90.0972 63.1444C90.4643 63.7561 90.9319 64.3142 91.4915 64.7898L91.2732 66.3008C91.2653 66.3538 91.2922 66.4059 91.34 66.43L92.9704 67.2688C93.0183 67.2935 93.0762 67.2851 93.1145 67.2478L94.2185 66.192C94.9311 66.3701 95.6575 66.4264 96.3691 66.3691L97.2847 67.5925C97.3168 67.6356 97.3726 67.653 97.4236 67.6367L99.1702 67.0775C99.2212 67.0612 99.2565 67.0144 99.2575 66.9608L99.2912 65.4336C99.9034 65.0668 100.462 64.5996 100.938 64.0404L102.45 64.2585C102.503 64.2664 102.555 64.2391 102.579 64.1918L103.419 62.5626C103.443 62.5148 103.435 62.457 103.398 62.4186L102.341 61.3155C102.519 60.6034 102.576 59.8776 102.518 59.1666L103.743 58.2516C103.786 58.2195 103.803 58.1638 103.787 58.1128L103.227 56.3675Z" fill="#5673B6" fill-opacity="0.4"/>
<path d="M97.2471 60.935C96.9157 61.3108 96.4577 61.5352 95.957 61.5667C95.4568 61.5982 94.9745 61.4332 94.5985 61.1016C93.8222 60.4179 93.748 59.2328 94.4317 58.455C95.1165 57.6798 96.3041 57.6052 97.0804 58.2884C97.4564 58.6195 97.681 59.0772 97.7125 59.577C97.7383 59.9832 97.6337 60.3779 97.4154 60.7132C97.3654 60.7905 97.3091 60.8646 97.2471 60.9345V60.935ZM94.9266 60.7295C95.2033 60.9734 95.5583 61.0948 95.9265 61.0716C96.2941 61.0485 96.6312 60.8835 96.8752 60.6071C97.1188 60.3306 97.2408 59.9759 97.2176 59.608C97.1945 59.2407 97.0293 58.9038 96.7527 58.6599C96.1821 58.157 95.3079 58.2116 94.8046 58.7824C94.7594 58.8339 94.7184 58.888 94.6821 58.9437C94.3155 59.5076 94.4075 60.2718 94.9272 60.7295H94.9266Z" fill="#BDD0FB"/>
<path d="M99.7176 62.2516C99.8033 62.1202 99.8827 61.983 99.9558 61.8406C100.102 61.5579 100.218 61.2604 100.304 60.9551C100.308 60.9414 100.311 60.9277 100.315 60.9141C100.344 60.8079 100.299 60.6991 100.211 60.6418C100.189 60.6282 100.166 60.6171 100.14 60.6103C100.007 60.5746 99.8722 60.6534 99.8359 60.7853C99.7591 61.0712 99.6508 61.3497 99.5146 61.6141C99.5072 61.6288 99.4993 61.643 99.4919 61.6577C99.1638 62.2799 98.693 62.7966 98.1224 63.1765C97.8126 63.3825 97.4734 63.5481 97.111 63.6679C97.1079 63.669 97.1052 63.67 97.1021 63.6711C97.0931 63.6737 97.0842 63.6768 97.0753 63.68C96.0129 64.02 94.881 63.9265 93.8891 63.4162C93.7608 63.3505 93.6367 63.2785 93.5173 63.2007C92.7136 62.6788 92.1193 61.9031 91.8227 60.9787C91.4824 59.9171 91.576 58.7862 92.0867 57.795C92.5974 56.8043 93.4636 56.0702 94.526 55.7301C95.5884 55.3901 96.7202 55.4837 97.7122 55.994C97.8384 56.0586 97.9609 56.1301 98.0793 56.2068C98.5921 56.54 99.026 56.9809 99.3484 57.5007C99.3683 57.5327 99.3941 57.5585 99.4241 57.5779C99.5019 57.6284 99.6055 57.6331 99.6902 57.5806C99.8065 57.508 99.8427 57.3556 99.7702 57.239C99.4094 56.6577 98.9234 56.1637 98.3501 55.7911C98.2176 55.7049 98.0808 55.6256 97.9394 55.553C96.8291 54.9823 95.5632 54.8777 94.3745 55.2582C93.1859 55.6387 92.2161 56.458 91.6455 57.5685C91.0743 58.6774 90.9691 59.9423 91.3504 61.1306C91.6817 62.1649 92.3471 63.0325 93.2464 63.6164C93.38 63.7031 93.5188 63.7835 93.6624 63.8576C95.8114 64.9628 98.4285 64.236 99.7181 62.2531L99.7176 62.2516Z" fill="#BDD0FB"/>
<path d="M154.309 79.0796L147.095 86.4534L155.749 84.1437L154.309 79.0796Z" fill="#5673B6" fill-opacity="0.4"/>
<path d="M197.236 82.132L156.243 84.1202C155.191 84.1711 154.309 83.3318 154.309 82.2787V65.4272C154.309 63.5957 155.765 62.0953 157.597 62.0385L194.542 60.896C197.294 60.896 199.524 63.1248 199.524 65.8739V79.7329C199.524 81.0142 198.517 82.0705 197.236 82.1326V82.132Z" fill="#5673B6" fill-opacity="0.4"/>
<path opacity="0.85" d="M157.469 83.4431C156.816 83.4431 156.2 83.1972 155.724 82.7431C155.217 82.2607 154.938 81.6095 154.938 80.91V65.7219C154.938 63.9319 156.375 62.4867 158.208 62.4315L193.98 61.3521C196.691 61.3521 198.894 63.502 198.894 66.1439V79.2383C198.894 80.4985 197.884 81.5333 196.594 81.5943L157.593 83.44C157.551 83.4421 157.51 83.4431 157.469 83.4431ZM193.982 61.5297L158.214 62.6091C156.477 62.6617 155.116 64.0292 155.116 65.7224V80.9106C155.116 81.5607 155.376 82.1661 155.846 82.6149C156.317 83.0637 156.934 83.2944 157.584 83.2629L196.586 81.4172C197.78 81.361 198.717 80.4039 198.717 79.2388V66.1445C198.717 63.6003 196.593 61.5302 193.982 61.5302V61.5297Z" fill="white"/>
<path d="M193.862 64.6021L161.084 65.8281C160.762 65.8402 160.509 66.0536 160.52 66.3032L160.532 66.5912C160.542 66.8382 160.808 67.0285 161.126 67.0169L193.906 65.8208C194.228 65.8092 194.482 65.5958 194.471 65.3457L194.458 65.0283C194.447 64.7807 194.182 64.591 193.862 64.6031V64.6021Z" fill="url(#paint1_linear_1_19086)"/>
<path d="M190.929 72.8941L158.151 74.1139C157.829 74.126 157.576 74.3462 157.587 74.6048L157.599 74.9027C157.61 75.1587 157.876 75.3558 158.195 75.3442L190.974 74.1554C191.297 74.1439 191.55 73.9231 191.539 73.664L191.525 73.335C191.514 73.0786 191.247 72.8815 190.929 72.8936L190.929 72.8941Z" fill="url(#paint2_linear_1_19086)"/>
<path d="M194.759 76.3627L158.217 77.7412C157.859 77.7548 157.576 77.9787 157.587 78.2399L157.6 78.5411C157.611 78.7996 157.906 78.9972 158.262 78.9846L194.804 77.6371C195.163 77.624 195.447 77.4001 195.435 77.1384L195.421 76.8062C195.41 76.5477 195.115 76.3496 194.759 76.3632L194.759 76.3627Z" fill="url(#paint3_linear_1_19086)"/>
<path d="M175.891 69.4906L158.025 70.0109C157.85 70.0161 157.719 70.2568 157.733 70.5469L157.749 70.8817C157.763 71.1691 157.915 71.3967 158.089 71.392L175.956 70.9064C176.131 70.9016 176.263 70.6609 176.248 70.3703L176.23 70.0009C176.216 69.7134 176.064 69.4853 175.89 69.4906H175.891Z" fill="url(#paint4_linear_1_19086)"/>
<path d="M195.576 68.8736L178.69 69.3571C178.524 69.3619 178.401 69.602 178.415 69.8927L178.432 70.2274C178.446 70.5149 178.59 70.743 178.754 70.7388L195.643 70.2895C195.809 70.2852 195.932 70.0445 195.918 69.7539L195.9 69.3845C195.885 69.097 195.741 68.8684 195.577 68.8731L195.576 68.8736Z" fill="url(#paint5_linear_1_19086)"/>
<path d="M92.0664 175.079C92.0664 175.079 91.7288 176.99 91.5631 178.882C91.4984 179.621 92.0691 180.264 92.8112 180.295C95.3325 180.4 100.727 180.604 102.662 180.517C102.953 180.504 103.143 180.207 103.035 179.936C102.945 179.71 102.771 179.526 102.549 179.424L93.64 175.332L92.067 175.078L92.0664 175.079Z" fill="url(#paint6_linear_1_19086)"/>
<path d="M91.7891 173.955L92.0604 176.242C92.0604 176.242 93.6214 176.967 94.687 176.15L94.0406 173.602L91.7891 173.955Z" fill="url(#paint7_linear_1_19086)"/>
<path d="M91.993 130.973C91.8758 131.57 91.3635 160.767 94.4871 173.852C94.5381 174.065 94.4297 174.285 94.2262 174.368C93.7471 174.564 92.8083 174.847 91.6827 174.885C91.334 174.896 91.0216 174.67 90.9233 174.336C90.0302 171.3 85.7522 156.09 85.1942 141.56C84.5705 125.325 85.1942 141.007 85.1942 141.007L85.5597 130.972L91.993 130.973Z" fill="url(#paint8_linear_1_19086)"/>
<path d="M81.8172 176.075C81.8172 176.075 81.2792 177.04 80.7585 179.604C80.6644 180.067 80.9883 180.511 81.459 180.557C82.2916 180.639 83.5733 180.744 84.6005 180.737C85.0738 180.733 85.443 180.321 85.3862 179.852C85.2726 178.916 84.9182 177.38 83.8237 176.184L81.8177 176.075L81.8172 176.075Z" fill="url(#paint9_linear_1_19086)"/>
<path d="M81.3443 173.135L81.9786 176.593C81.9786 176.593 82.606 177.059 83.8462 176.721L83.5432 173.001L81.3438 173.136L81.3443 173.135Z" fill="url(#paint10_linear_1_19086)"/>
<path d="M79.6308 131.869C77.0763 147.273 80.1851 169.943 81.2333 174.38C81.2975 174.651 81.5168 174.86 81.7924 174.905C82.2605 174.982 83.031 175.046 83.7905 174.825C84.0524 174.75 84.2359 174.514 84.2465 174.241C84.3869 170.654 84.1339 148.633 86.5143 139.93C86.6347 139.489 86.9045 139.104 87.2774 138.839L91.8973 135.557L92.2513 130.253L79.6308 131.869Z" fill="url(#paint11_linear_1_19086)"/>
<path d="M95.9081 102.68C88.2531 102.554 79.8059 104.688 79.8059 104.688C77.5239 117.993 79.4068 133.339 79.4068 133.339C85.3331 134.892 92.0188 132.389 92.0188 132.389C93.0039 126.828 97.5995 111.178 97.5995 111.178C101.34 110.714 104.421 109.636 106.959 108.21C105.023 105.968 104.111 103.115 103.715 101.429C101.008 102.27 98.2691 102.719 95.9081 102.68Z" fill="white"/>
<path d="M118.521 91.412C117.768 90.5044 116.817 90.9338 116.817 90.9338C115.69 95.6889 109.783 99.5442 103.715 101.429C104.111 103.115 105.023 105.968 106.959 108.209C117.03 102.551 118.52 91.412 118.52 91.412H118.521Z" fill="url(#paint12_linear_1_19086)"/>
<path d="M118.338 91.6427C118.417 91.8929 117.505 92.2734 116.969 91.2512C116.95 90.7614 116.652 88.6624 116.945 88.263C118.505 86.1372 121.53 83.4722 121.53 83.4722C122.041 83.9762 121.62 84.4717 121.62 84.4717L120.152 85.9995C120.459 86.5539 120.834 87.0217 121.009 87.6923C121.142 88.1999 121.061 88.7428 120.804 89.2048C120.546 89.6683 120.195 90.2716 119.863 90.743C119.233 91.6359 118.337 91.6427 118.337 91.6427H118.338Z" fill="url(#paint13_linear_1_19086)"/>
<path d="M119.511 86.9907L118.174 88.1238L117.754 89.2516L118.946 90.5733C118.946 90.5733 119.347 88.3351 119.645 87.851C119.943 87.3665 119.789 87.1326 119.511 86.9907Z" fill="url(#paint14_linear_1_19086)"/>
<path d="M82.7425 112.095L79.8061 104.688C79.8061 104.688 72.6555 109.543 71.48 115.698C72.8311 115.797 75.2894 116.148 77.6961 117.363C78.2246 114.456 82.7425 112.095 82.7425 112.095Z" fill="white"/>
<path d="M88.9911 119.064C88.9911 119.064 80.9631 123.598 78.254 119.727C77.6918 118.923 77.5572 118.124 77.6955 117.363C75.2888 116.149 72.8305 115.797 71.4794 115.698C71.1249 117.553 71.3122 119.527 72.4035 121.522C77.1485 130.195 90.053 121.042 90.053 121.042L88.9906 119.064H88.9911Z" fill="url(#paint15_linear_1_19086)"/>
<path d="M88.0263 124.8L92.4079 109.511C92.4574 109.337 92.6057 109.211 92.7856 109.19C93.5792 109.097 95.8797 108.837 98.5357 108.612C101.735 108.342 105.45 108.123 107.67 108.309C107.985 108.336 108.176 108.669 108.036 108.953C106.773 111.505 101.58 121.887 98.9801 125.287C98.8938 125.4 98.7608 125.466 98.6188 125.464L88.4529 125.37C88.1573 125.367 87.9453 125.083 88.0269 124.799L88.0263 124.8Z" fill="#5673B6" fill-opacity="0.4"/>
<path d="M98.9894 107.287L102.166 106.758C102.335 106.73 102.474 106.892 102.42 107.054L102.106 108.007C102.078 108.09 102.006 108.149 101.919 108.161L98.8627 108.569C98.7044 108.59 98.574 108.446 98.6108 108.291L98.8054 107.46C98.8264 107.371 98.899 107.302 98.99 107.287H98.9894Z" fill="#BDD0FB"/>
<path d="M96.6113 109.975L96.8732 108.612C96.8995 108.476 97.0126 108.373 97.1509 108.359L103.567 107.708C103.783 107.686 103.956 107.884 103.905 108.095L103.497 109.792C103.464 109.928 103.346 110.026 103.207 110.033L96.9369 110.348C96.7328 110.359 96.5729 110.175 96.6118 109.975H96.6113Z" fill="#BDD0FB"/>
<path d="M89.0851 121.106C89.0851 121.106 88.475 118.598 88.7211 117.709C88.9672 116.819 89.4443 115.675 91.0342 115.929C92.6241 116.183 94.4996 116.852 94.4996 116.852C94.4996 116.852 94.4049 118.011 93.1963 117.638L93.9458 118.217C93.9458 118.217 93.8385 119.145 92.8182 118.649L93.515 119.417C93.515 119.417 93.0769 120.179 92.3259 119.69C91.5749 119.202 91.2151 121.408 89.0851 121.106V121.106Z" fill="url(#paint16_linear_1_19086)"/>
<path d="M88.1545 96.4693L85.7189 103.508C85.6784 103.625 85.7262 103.754 85.8346 103.813C86.4983 104.18 88.8908 105.241 91.7735 103.414C92.0738 103.224 92.2784 102.913 92.3236 102.561L93.1125 96.4688H88.1545V96.4693Z" fill="url(#paint17_linear_1_19086)"/>
<path d="M93.4544 89.9512C93.4544 89.9512 96.1293 94.9822 95.7864 97.0144C95.4435 99.0467 92.1285 98.9006 89.2337 97.2504L87.2109 91.8179L93.4544 89.9512Z" fill="url(#paint18_linear_1_19086)"/>
<path d="M89.3613 94.5827C89.4791 94.5306 89.5222 94.3866 89.4517 94.2794C89.2372 93.9525 88.8359 93.2851 88.7075 92.7007C88.7075 92.7007 88.2268 92.3927 89.9314 91.9854C91.636 91.5776 94.1784 90.9449 94.7127 89.4949C95.2339 88.0812 93.8649 84.5264 91.6812 87.3591C91.5981 87.4668 91.4356 87.4695 91.3525 87.3612C90.9943 86.8956 90.0534 85.9291 88.7465 86.5151C87.5236 87.0632 87.3858 87.9587 87.4027 88.4102C87.4074 88.5431 87.2885 88.6461 87.1581 88.6214C86.5401 88.5037 85.0565 88.4023 84.3638 89.9232C83.7932 91.1761 84.1639 91.8851 84.5016 92.2319C84.611 92.3444 84.5631 92.5294 84.4132 92.5751C84.0067 92.6996 83.4823 93.0439 83.5349 93.9951C83.6075 95.31 85.0791 95.1944 85.4977 95.1345C85.5666 95.1245 85.6355 95.1481 85.6818 95.1996C86.041 95.5969 87.6593 97.2834 89.4107 97.4868C89.5622 97.5041 89.68 97.3549 89.63 97.2104L88.8721 95.0083C88.8369 94.9059 88.8858 94.7939 88.9847 94.7503L89.3607 94.5837L89.3613 94.5827Z" fill="url(#paint19_linear_1_19086)"/>
<path d="M89.666 94.8947C89.666 94.8947 87.7616 93.5893 87.6222 94.6887C87.4828 95.7881 89.3373 96.2811 90.2556 95.8712L89.666 94.8947Z" fill="url(#paint20_linear_1_19086)"/>
<defs>
<linearGradient id="paint0_linear_1_19086" x1="-0.000290465" y1="108" x2="262.135" y2="108" gradientUnits="userSpaceOnUse">
<stop stop-color="#7748FF"/>
<stop offset="1" stop-color="#48DEFF" stop-opacity="0.6"/>
</linearGradient>
<linearGradient id="paint1_linear_1_19086" x1="160.519" y1="65.8087" x2="194.471" y2="65.8087" gradientUnits="userSpaceOnUse">
<stop stop-color="#DAE3FE"/>
<stop offset="1" stop-color="#E9EFFD"/>
</linearGradient>
<linearGradient id="paint2_linear_1_19086" x1="157.586" y1="74.1192" x2="191.539" y2="74.1192" gradientUnits="userSpaceOnUse">
<stop stop-color="#DAE3FE"/>
<stop offset="1" stop-color="#E9EFFD"/>
</linearGradient>
<linearGradient id="paint3_linear_1_19086" x1="157.587" y1="77.6734" x2="195.435" y2="77.6734" gradientUnits="userSpaceOnUse">
<stop stop-color="#DAE3FE"/>
<stop offset="1" stop-color="#E9EFFD"/>
</linearGradient>
<linearGradient id="paint4_linear_1_19086" x1="157.732" y1="70.4413" x2="176.25" y2="70.4413" gradientUnits="userSpaceOnUse">
<stop stop-color="#DAE3FE"/>
<stop offset="1" stop-color="#E9EFFD"/>
</linearGradient>
<linearGradient id="paint5_linear_1_19086" x1="178.414" y1="69.806" x2="195.919" y2="69.806" gradientUnits="userSpaceOnUse">
<stop stop-color="#DAE3FE"/>
<stop offset="1" stop-color="#E9EFFD"/>
</linearGradient>
<linearGradient id="paint6_linear_1_19086" x1="102.38" y1="172.437" x2="69.7798" y2="207.923" gradientUnits="userSpaceOnUse">
<stop stop-color="#09005D"/>
<stop offset="1" stop-color="#1A0F91"/>
</linearGradient>
<linearGradient id="paint7_linear_1_19086" x1="91.7896" y1="175.071" x2="94.6875" y2="175.071" gradientUnits="userSpaceOnUse">
<stop stop-color="#FEBBBA"/>
<stop offset="1" stop-color="#FF928E"/>
</linearGradient>
<linearGradient id="paint8_linear_1_19086" x1="104.949" y1="132.333" x2="77.2136" y2="169.953" gradientUnits="userSpaceOnUse">
<stop stop-color="#09005D"/>
<stop offset="1" stop-color="#1A0F91"/>
</linearGradient>
<linearGradient id="paint9_linear_1_19086" x1="95.0604" y1="165.713" x2="62.46" y2="201.199" gradientUnits="userSpaceOnUse">
<stop stop-color="#09005D"/>
<stop offset="1" stop-color="#1A0F91"/>
</linearGradient>
<linearGradient id="paint10_linear_1_19086" x1="81.3448" y1="174.922" x2="83.8467" y2="174.922" gradientUnits="userSpaceOnUse">
<stop stop-color="#FEBBBA"/>
<stop offset="1" stop-color="#FF928E"/>
</linearGradient>
<linearGradient id="paint11_linear_1_19086" x1="100" y1="128.686" x2="72.2655" y2="166.305" gradientUnits="userSpaceOnUse">
<stop stop-color="#09005D"/>
<stop offset="1" stop-color="#1A0F91"/>
</linearGradient>
<linearGradient id="paint12_linear_1_19086" x1="116.237" y1="82.2839" x2="111.131" y2="96.8848" gradientUnits="userSpaceOnUse">
<stop stop-color="#FEBBBA"/>
<stop offset="1" stop-color="#FF928E"/>
</linearGradient>
<linearGradient id="paint13_linear_1_19086" x1="120.607" y1="83.8122" x2="115.501" y2="98.4131" gradientUnits="userSpaceOnUse">
<stop stop-color="#FEBBBA"/>
<stop offset="1" stop-color="#FF928E"/>
</linearGradient>
<linearGradient id="paint14_linear_1_19086" x1="116.679" y1="93.139" x2="120.526" y2="85.3734" gradientUnits="userSpaceOnUse">
<stop stop-color="#FEBBBA"/>
<stop offset="1" stop-color="#FF928E"/>
</linearGradient>
<linearGradient id="paint15_linear_1_19086" x1="71.3169" y1="120.477" x2="90.0535" y2="120.477" gradientUnits="userSpaceOnUse">
<stop stop-color="#FEBBBA"/>
<stop offset="1" stop-color="#FF928E"/>
</linearGradient>
<linearGradient id="paint16_linear_1_19086" x1="88.6622" y1="118.514" x2="94.4996" y2="118.514" gradientUnits="userSpaceOnUse">
<stop stop-color="#FEBBBA"/>
<stop offset="1" stop-color="#FF928E"/>
</linearGradient>
<linearGradient id="paint17_linear_1_19086" x1="85.7041" y1="100.461" x2="93.112" y2="100.461" gradientUnits="userSpaceOnUse">
<stop stop-color="#FEBBBA"/>
<stop offset="1" stop-color="#FF928E"/>
</linearGradient>
<linearGradient id="paint18_linear_1_19086" x1="94.8707" y1="95.761" x2="86.7288" y2="90.791" gradientUnits="userSpaceOnUse">
<stop stop-color="#FEBBBA"/>
<stop offset="1" stop-color="#FF928E"/>
</linearGradient>
<linearGradient id="paint19_linear_1_19086" x1="82.4141" y1="85.5634" x2="92.9302" y2="93.8764" gradientUnits="userSpaceOnUse">
<stop stop-color="#09005D"/>
<stop offset="1" stop-color="#1A0F91"/>
</linearGradient>
<linearGradient id="paint20_linear_1_19086" x1="92.7309" y1="97.6121" x2="85.406" y2="93.1402" gradientUnits="userSpaceOnUse">
<stop stop-color="#FEBBBA"/>
<stop offset="1" stop-color="#FF928E"/>
</linearGradient>
</defs>
</svg>
