<svg width="235" height="193" viewBox="0 0 235 193" fill="none" xmlns="http://www.w3.org/2000/svg">
<path opacity="0.4" d="M189.575 53.908C189.166 53.739 188.896 53.3412 188.896 52.8963C188.896 23.6821 165.292 0 136.177 0C115.766 0 98.065 11.638 89.3041 28.6607C88.3838 30.449 86.4836 31.509 84.4841 31.3578C82.5162 31.209 80.5286 31.1334 78.5227 31.1334C34.985 31.1334 -0.277046 66.6855 0.0016406 110.435C0.278427 153.947 35.4518 188.867 78.8185 188.707C85.2878 188.683 91.5728 187.874 97.5836 186.37C110.652 183.1 124.417 183.728 137.034 188.456C144.776 191.357 153.149 192.959 161.889 192.999C201.542 193.178 233.999 160.958 234.222 121.172C234.393 90.8106 215.895 64.7631 189.576 53.9087L189.575 53.908Z" fill="url(#paint0_linear_1_18780)"/>
<path d="M119.394 67.2275C99.3349 67.2275 83.0745 82.0654 83.0745 100.368C83.0745 118.67 99.3349 133.51 119.394 133.51C122.78 133.51 124.735 133.466 127.08 133.128C129.815 132.734 132.501 134.107 133.772 136.537L136.202 141.179L139.267 135.021C141.06 131.42 143.457 128.143 146.376 125.358C151.955 120.034 154.373 115.976 156.009 106.385C156.393 104.135 156.342 101.974 156.342 100.449C156.342 82.1449 139.452 67.2275 119.393 67.2275H119.394ZM106.522 100.978C106.365 103.418 104.368 105.396 101.907 105.55C98.922 105.737 96.4606 103.299 96.649 100.342C96.8039 97.9033 98.8015 95.9251 101.264 95.77C104.249 95.5841 106.708 98.021 106.522 100.978ZM124.645 100.978C124.488 103.418 122.49 105.396 120.03 105.55C117.045 105.737 114.583 103.299 114.772 100.342C114.927 97.9033 116.924 95.9251 119.387 95.77C122.372 95.5841 124.831 98.021 124.645 100.978ZM142.767 100.978C142.611 103.418 140.613 105.396 138.153 105.55C135.168 105.737 132.706 103.299 132.896 100.342C133.05 97.9033 135.048 95.9251 137.51 95.77C140.495 95.5841 142.955 98.021 142.768 100.978H142.767Z" fill="#113380"/>
<path d="M59.9614 99.6232C59.9614 104.989 63.0791 109.634 67.6185 111.877V87.3691C63.0791 89.612 59.9614 94.2568 59.9614 99.6232Z" fill="#FFAB48"/>
<path d="M171.662 87.3691V111.877C176.201 109.634 179.319 104.99 179.319 99.6232C179.319 94.2568 176.201 89.612 171.662 87.3691Z" fill="#FFAB48"/>
<path d="M171.64 85.6065C171.64 83.1469 169.94 81.0794 167.641 80.495C166.872 78.5849 166.014 76.7187 165.065 74.9094C163.84 72.5715 162.465 70.3255 160.957 68.1873C161.744 66.4437 161.48 64.4574 160.251 62.98C159.826 62.4694 159.388 61.9596 158.949 61.4661C148.419 49.6203 134.364 43.0972 119.376 43.0972C104.388 43.0972 90.336 49.6203 79.8062 61.4661C79.367 61.9596 78.9287 62.4694 78.5042 62.9792C77.2752 64.4574 77.0097 66.4429 77.7971 68.1873C76.2878 70.3255 74.9129 72.5724 73.6871 74.9102C72.7096 76.7756 71.828 78.701 71.0422 80.6727C69.0347 81.4285 67.6066 83.3523 67.6066 85.6057V113.639C67.6066 116.268 69.5493 118.449 72.0902 118.85C74.3607 125.554 78.1454 131.718 83.2206 136.834C90.3516 144.023 99.6097 148.725 109.596 150.298C109.95 153.241 112.478 155.524 115.544 155.524C118.853 155.524 121.536 152.867 121.536 149.588C121.536 146.309 118.853 143.652 115.544 143.652C113.155 143.652 111.092 145.037 110.13 147.042C94.0232 144.494 80.7419 133.184 75.4365 118.297C77.1154 117.409 78.2592 115.656 78.2592 113.639V85.6057C78.2592 84.1478 77.6636 82.8287 76.7 81.8741C76.4361 81.6127 76.1428 81.379 75.8282 81.1768C77.3661 77.5524 79.2335 74.1634 81.3876 71.056C81.7203 71.1234 82.0644 71.1583 82.4151 71.1583C83.9301 71.1583 85.355 70.4902 86.3235 69.3254C91.7396 62.8112 98.5707 57.9845 106.08 55.3675C110.369 53.869 114.842 53.1092 119.376 53.1092C131.787 53.1092 143.835 59.026 152.428 69.3416C153.39 70.4959 154.809 71.1583 156.323 71.1583H156.34C156.69 71.1583 157.034 71.1234 157.366 71.056C159.565 74.2275 161.47 77.7066 163.036 81.448C162.864 81.5803 162.701 81.7223 162.547 81.8741C161.584 82.8287 160.988 84.1478 160.988 85.6057V113.639C160.988 116.553 163.373 118.916 166.315 118.916C169.256 118.916 171.642 116.553 171.642 113.639V85.6057L171.64 85.6065Z" fill="#FFAB48"/>
<path d="M185.616 90.5732H190.822V80.6147H187.641L185.616 90.5732Z" fill="#EEBB8F"/>
<path d="M181.771 75.5731C180.891 79.6608 181.542 83.7828 184.01 84.6769C186.324 85.5157 190.342 83.2976 192.179 79.2564C194.115 75.0014 193.17 71.8218 189.742 70.6378C186.101 69.3799 182.735 71.0924 181.771 75.5731Z" fill="#F3C9AA"/>
<path d="M189.035 69.193C192.82 69.4893 194.914 72.9207 194.671 76.3146C194.444 79.4834 191.056 81.1756 191.056 81.1756C191.056 81.1756 189.939 77.9585 188.107 77.4459C185.552 76.7311 186.656 74.4469 185.463 74.2008C184.218 73.9439 181.513 72.9557 181.558 71.1452C183.31 71.2063 184.782 68.8604 189.035 69.193Z" fill="#03053E"/>
<path d="M190.734 79.051C191.04 78.3665 190.827 77.6043 190.256 77.3485C189.686 77.0927 188.975 77.4403 188.668 78.1248C188.361 78.8094 188.574 79.5716 189.145 79.8274C189.715 80.0831 190.427 79.7356 190.734 79.051Z" fill="#F3C9AA"/>
<path d="M189.035 77.3835C189.035 77.3835 188.75 81.8019 187.906 83.4807C187.171 84.9427 183.964 86.4511 182.216 82.9834C182.216 82.9834 183.985 83.3529 183.784 82.6038C183.548 81.7224 181.728 81.7129 181.728 81.7129C181.728 81.7129 181.372 81.6957 181.309 81.3689C181.215 80.883 181.451 80.0951 181.451 80.0951C181.451 80.0951 183.86 80.9536 184.897 80.9536C186.074 80.9536 187.142 80.1237 188.137 77.3842H189.035V77.3835Z" fill="#03053E"/>
<path d="M173.83 174.794L178.614 148.028L181.864 134.839L185.137 121.624L186.249 117.132L195.634 120.125L193.937 124.432L188.992 136.977C187.348 141.166 185.677 145.352 184.051 149.556L176.012 175.328L175.677 176.402L173.63 175.903L173.829 174.795L173.83 174.794Z" fill="#EEBB8F"/>
<path d="M191.119 117.241L191.493 121.854L193.611 147.989L213.373 157.252L214.393 157.73L213.647 159.677L212.569 159.35L189.908 152.501C189.072 152.246 188.392 151.556 188.197 150.64L188.117 150.264L182.353 123.192L181.389 118.666L191.119 117.242L191.119 117.241Z" fill="#EEBB8F"/>
<path d="M197.01 114.388L179.466 117.795L173.982 170.231L179.866 171.038L197.01 114.388Z" fill="url(#paint1_linear_1_18780)"/>
<path d="M197.869 117.887L180.169 115.414C180.169 115.414 182.882 148.242 188.177 152.428C191.123 154.757 207.493 158.678 207.493 158.678L209.255 153.651C209.255 153.651 196.931 148.663 195.901 147.12C194.779 145.443 197.869 117.887 197.869 117.887Z" fill="url(#paint2_linear_1_18780)"/>
<path d="M187.23 91.0421L172.023 104.391L174.213 104.32L162.156 96.0245L161.061 95.2709L159.537 97.3478L160.584 98.1663L172.113 107.181C172.748 107.678 173.626 107.653 174.229 107.17L174.303 107.11L190.097 94.4595L191.838 93.0649L188.907 89.5706L187.231 91.0421H187.23Z" fill="#FFEEE0"/>
<path d="M192.31 95.7177C189.591 99.6528 179.425 107.382 172.962 107.658C169.125 107.822 162.69 100.472 162.69 100.472L164.676 97.2516C164.676 97.2516 169.608 102.604 173.509 100.372C177.41 98.1406 185.372 89.8883 188.359 90.0542C190.991 90.2005 193.53 93.9499 192.31 95.7177Z" fill="#F4EFEF"/>
<path d="M190.467 88.4695C190.467 88.4695 187.735 90.8637 185.005 89.2676C185.005 89.2676 184.071 99.2439 182.848 103.314C181.627 107.385 178.269 117.866 178.269 117.866L197.887 118.08C198.418 108.972 194.977 98.6257 190.467 88.4695Z" fill="#DAC5AE"/>
<path d="M191.412 87.6506C191.412 87.6506 200.901 101.842 198.969 116.98C198.969 116.98 199.784 119.953 189.017 119.548C178.25 119.142 177.634 117.655 177.634 117.655C181.043 109.532 183.69 100.337 185.006 89.2671C185.006 89.2671 189.031 89.4153 191.413 87.6506H191.412Z" fill="white"/>
<path d="M188.322 94.6831C189.672 97.017 190.983 99.4525 192.186 101.884C192.787 103.104 193.363 104.332 193.889 105.565C194.413 106.795 194.895 108.041 195.238 109.244C195.323 109.546 195.393 109.833 195.455 110.128L195.638 111.101C195.747 111.761 195.852 112.426 195.943 113.1C196.126 114.446 196.28 115.808 196.416 117.176C196.683 119.909 196.893 122.672 197.052 125.415L197.129 126.742L199.71 126.678L199.709 125.348C199.706 122.543 199.653 119.761 199.541 116.957C199.48 115.556 199.403 114.152 199.293 112.739C199.239 112.033 199.167 111.321 199.09 110.607L198.95 109.524C198.889 109.135 198.815 108.743 198.731 108.372C198.389 106.886 197.93 105.513 197.438 104.162C196.943 102.814 196.406 101.498 195.847 100.197C194.72 97.5918 193.527 95.0698 192.226 92.5274L191.21 90.5408L187.204 92.7519L188.322 94.6825V94.6831Z" fill="#F3C9AA"/>
<path d="M193.003 90.1452C196.426 93.4863 198.395 101.073 199.852 107.375C201.308 113.678 200.124 123.248 200.124 123.248L196.2 123.421C196.2 123.421 195.976 113.681 194.432 109.461C192.888 105.24 186.091 96.0039 186.756 93.0876C187.342 90.5179 191.466 88.6444 193.003 90.1452Z" fill="#F4EFEF"/>
<path d="M155.504 92.9211C155.006 93.6867 155.647 95.4425 157.285 96.7996C158.796 98.0504 160.445 97.9855 160.997 97.246C162.23 95.5945 156.275 91.737 155.504 92.9211Z" fill="#FFEEE0"/>
<path d="M198.455 134.489C199.366 134.418 200.357 132.426 200.418 129.713C200.475 127.212 199.408 125.57 198.485 125.566C196.423 125.557 197.046 134.598 198.455 134.488V134.489Z" fill="#F3C9AA"/>
<path d="M196.432 130.684C196.051 130.559 195.869 129.474 196.175 128.123C196.457 126.878 197.115 126.169 197.511 126.258C198.396 126.458 197.023 130.878 196.433 130.684H196.432Z" fill="#F3C9AA"/>
<path d="M165.99 177.73C165.99 177.73 167.343 177.372 167.717 177.238C169.214 176.7 173.088 175.112 173.088 175.112C173.088 175.112 173.565 175.882 174.761 176.031C175.643 176.141 176.292 175.823 176.318 175.823C176.7 175.811 177.03 176.428 177.053 177.201C177.06 177.454 177.034 177.692 176.981 177.9L177.013 178.972L165.593 179.315L165.561 178.228C165.553 177.976 165.74 177.76 165.99 177.73V177.73Z" fill="#03053E"/>
<path d="M212.928 167.652C212.928 167.652 212.981 166.253 212.961 165.855C212.882 164.267 212.493 160.099 212.493 160.099C212.493 160.099 213.369 159.866 213.86 158.766C214.222 157.955 214.107 157.242 214.114 157.217C214.214 156.847 214.9 156.712 215.646 156.915C215.89 156.982 216.11 157.077 216.293 157.188L217.328 157.469L214.327 168.493L213.279 168.208C213.036 168.141 212.883 167.9 212.927 167.652L212.928 167.652Z" fill="#03053E"/>
<path d="M158.159 92.5172C158.49 92.2882 159.464 92.8002 160.355 93.8596C161.178 94.8364 161.345 95.789 161.034 96.0503C160.34 96.6354 157.648 92.8701 158.159 92.5165V92.5172Z" fill="#FFEEE0"/>
<path d="M53.9911 93.694L60.606 113.827L58.6683 112.598L73.9577 111.531L75.3466 111.434L75.6162 114.118L74.2362 114.3L59.0397 116.296C58.2022 116.406 57.4238 115.917 57.137 115.159L57.102 115.067L49.5874 95.2513L48.7588 93.067L53.2617 91.4746L53.9911 93.694Z" fill="#FFEEE0"/>
<path d="M83.6292 112.139C83.6655 113.096 81.7132 114.367 78.8986 114.759C76.3041 115.121 74.4669 114.21 74.3512 113.25C74.0923 111.105 83.5726 110.661 83.6292 112.139Z" fill="#FFEEE0"/>
<path d="M79.4275 110.494C79.2513 110.112 78.0997 110.056 76.7318 110.536C75.4701 110.979 74.8132 111.75 74.9538 112.151C75.2679 113.048 79.7003 111.085 79.4275 110.494Z" fill="#FFEEE0"/>
<path d="M67.9348 110.962L68.4824 119.475C68.4824 119.475 58.8997 118.911 55.7856 115.138C51.4168 109.844 45.7279 94.7909 50.5157 92.5048C55.8333 89.9656 56.1354 102.963 60.0768 108.826C61.7664 111.339 67.9348 110.962 67.9348 110.962V110.962Z" fill="#F4EFEF"/>
<path d="M55.9859 73.3649C51.8041 70.3678 46.7689 72.4103 46.0999 76.7384C45.2319 82.3548 46.3288 86.8781 44.933 90.604C42.7696 96.3794 43.3692 102.054 43.3692 102.054C49.0753 94.2758 54.9729 97.4961 58.2288 89.6813C59.2749 87.1707 59.9922 76.236 55.9859 73.3649Z" fill="#03053E"/>
<path d="M54.3223 92.286H49.3297V82.7351H52.3808L54.3223 92.286Z" fill="#EEBB8F"/>
<path d="M58.0098 77.9002C58.8537 81.8206 58.2299 85.7741 55.863 86.6313C53.643 87.4358 49.79 85.3086 48.0272 81.4327C46.1716 77.352 47.0778 74.3028 50.3648 73.167C53.8567 71.9607 57.0846 73.6026 58.0092 77.9002H58.0098Z" fill="#F3C9AA"/>
<path d="M64.6307 173.378L61.275 149.073L57.7354 124.796L57.0951 120.403L47.8475 122.397L49.0755 126.664L55.8563 150.224L62.5214 173.819L62.8145 174.859L64.7789 174.448L64.6307 173.378Z" fill="#EEBB8F"/>
<path d="M44.3408 120.402L44.1869 124.838L43.2909 150.635L32.0212 167.436L31.4189 168.334L32.9795 169.565L33.7127 168.771L48.1105 153.183C48.3706 152.903 48.5531 152.547 48.6206 152.142L48.6822 151.768L53.002 125.717L53.7283 121.338L44.3408 120.401V120.402Z" fill="#EEBB8F"/>
<path d="M46.0378 119.584H59.134L64.7835 165.156L57.1632 166.264L46.0378 119.584Z" fill="url(#paint3_linear_1_18780)"/>
<path d="M42.4434 119.584H55.0256C55.0256 119.584 52.7204 148.712 50.8432 152.136C48.5927 156.24 39.6816 165.767 39.6816 165.767L33.6295 161.092C33.6295 161.092 40.0033 152.067 41.5442 147.831C43.085 143.594 42.4427 119.584 42.4427 119.584H42.4434Z" fill="url(#paint4_linear_1_18780)"/>
<path d="M49.2077 91.4739C49.2077 91.4739 51.8995 93.8338 54.592 92.2605C54.592 92.2605 55.5128 102.094 56.7172 106.106C57.9217 110.118 61.0485 120.323 61.0485 120.323L41.8933 120.661C41.3706 111.683 44.7626 101.485 49.2077 91.4739Z" fill="#76D2F3"/>
<path d="M51.1461 97.9476C49.892 100.291 48.6806 102.734 47.5748 105.168C47.0228 106.39 46.4956 107.618 46.0174 108.85C45.5417 110.079 45.1074 111.322 44.8091 112.519C44.736 112.819 44.6762 113.104 44.6241 113.397L44.4753 114.361C44.3894 115.016 44.3074 115.674 44.24 116.341C44.1033 117.673 43.9971 119.021 43.9068 120.371C43.7338 123.073 43.6168 125.802 43.55 128.509L43.5176 129.819L40.9733 129.84L40.9307 128.531C40.841 125.767 40.8029 123.024 40.8219 120.258C40.8353 118.876 40.8652 117.49 40.9281 116.094C40.9587 115.397 41.0051 114.693 41.0579 113.987L41.1609 112.915C41.2073 112.531 41.2683 112.143 41.3383 111.774C41.627 110.298 42.034 108.931 42.4753 107.584C42.9186 106.24 43.405 104.927 43.9131 103.626C44.9382 101.022 46.0307 98.499 47.2288 95.9521L48.1649 93.9617L52.1839 96.0087L51.1467 97.947L51.1461 97.9476Z" fill="#F3C9AA"/>
<path d="M48.5348 90.3288C48.5348 90.3288 39.1817 104.317 41.0857 119.238C41.0857 119.238 40.2819 122.169 50.8953 121.769C61.5082 121.37 62.1155 119.904 62.1155 119.904C58.7559 111.897 56.1461 102.833 54.8495 91.9217C54.8495 91.9217 50.8814 92.0674 48.5342 90.3281L48.5348 90.3288Z" fill="white"/>
<path d="M47.5269 122.397L39.3496 123.409C39.3496 123.409 39.6733 114.111 40.886 108.787C42.4103 102.095 45.2535 92.1251 50.3834 93.4828C57.0867 95.257 47.3622 108.689 46.6601 112.372C46.0929 115.346 47.5269 122.397 47.5269 122.397Z" fill="#F4EFEF"/>
<path d="M40.7865 137.255C39.9134 137.034 39.2832 134.934 39.6755 132.288C40.0374 129.849 41.3474 128.432 42.2453 128.582C44.2503 128.917 42.1372 137.596 40.7865 137.254V137.255Z" fill="#F3C9AA"/>
<path d="M43.3874 133.897C43.7791 133.84 44.1358 132.815 44.0646 131.452C43.9985 130.195 43.4777 129.397 43.0777 129.417C42.1848 129.463 42.7813 133.986 43.3874 133.897Z" fill="#F3C9AA"/>
<path d="M72.3006 175.726L70.756 175.452L65.1084 173.266V173.312C65.1084 173.312 65.0403 174.28 63.8671 174.461C63.0028 174.596 62.4426 174.365 62.2067 174.235C62.1507 174.183 62.1043 174.154 62.0789 174.154C61.7018 174.154 61.3959 174.771 61.3959 175.532C61.3959 175.782 61.4296 176.016 61.4868 176.218V177.275H72.7369V176.204C72.7369 175.956 72.5474 175.749 72.3 175.727L72.3006 175.726Z" fill="#03053E"/>
<path d="M37.785 175.586L36.8279 174.343L34.1234 168.925L34.0928 168.958C34.0928 168.958 33.3908 169.628 32.4007 168.973C31.6713 168.49 31.4118 167.943 31.326 167.688C31.319 167.612 31.305 167.559 31.2859 167.542C31.0067 167.288 30.3657 167.538 29.8532 168.101C29.6853 168.286 29.5524 168.481 29.4589 168.67L28.7473 169.451L37.0658 177.025L37.7863 176.233C37.9535 176.049 37.9529 175.769 37.785 175.586V175.586Z" fill="#03053E"/>
<path d="M51.5006 72.0981C50.3655 72.0981 49.5878 72.1999 48.6205 72.701C47.0664 73.5061 45.0162 75.4304 44.6085 79.7909C44.2289 83.8563 45.8568 85.8461 42.3835 89.6813C38.4764 92.6479 31.5131 92.1417 32.3175 98.7985C33.1219 105.455 41.9498 104.587 44.0477 101.259C46.1462 97.9304 45.9103 94.9639 47.0772 92.8653C48.2441 90.7668 50.2701 91.9973 51.2831 89.6819C52.471 87.5039 50.4088 82.6181 50.0374 81.7768C50.286 80.9578 50.6065 80.0586 51.9343 79.6967C54.7826 78.9196 57.1438 76.2233 57.1438 75.3553C57.1438 74.4873 54.539 72.0994 51.5 72.0994L51.5006 72.0981Z" fill="#03053E"/>
<path d="M51.4047 80.337C51.6992 80.9933 51.4938 81.7246 50.9469 81.9694C50.4 82.2149 49.7177 81.881 49.4239 81.2248C49.1294 80.5685 49.3348 79.8378 49.8817 79.5924C50.4286 79.3469 51.111 79.6807 51.4047 80.337Z" fill="#F3C9AA"/>
<defs>
<linearGradient id="paint0_linear_1_18780" x1="-0.000259535" y1="96.4996" x2="234.223" y2="96.4996" gradientUnits="userSpaceOnUse">
<stop stop-color="#7748FF"/>
<stop offset="1" stop-color="#48DEFF" stop-opacity="0.6"/>
</linearGradient>
<linearGradient id="paint1_linear_1_18780" x1="168.327" y1="142.613" x2="188.282" y2="142.712" gradientUnits="userSpaceOnUse">
<stop stop-color="#435AC1"/>
<stop offset="1" stop-color="#0F24A3"/>
</linearGradient>
<linearGradient id="paint2_linear_1_18780" x1="183.486" y1="140.531" x2="202.05" y2="134.277" gradientUnits="userSpaceOnUse">
<stop stop-color="#435AC1"/>
<stop offset="1" stop-color="#0F24A3"/>
</linearGradient>
<linearGradient id="paint3_linear_1_18780" x1="71.5827" y1="140.937" x2="53.1461" y2="142.77" gradientUnits="userSpaceOnUse">
<stop stop-color="#435AC1"/>
<stop offset="1" stop-color="#0F24A3"/>
</linearGradient>
<linearGradient id="paint4_linear_1_18780" x1="53.149" y1="143.953" x2="39.534" y2="140.951" gradientUnits="userSpaceOnUse">
<stop stop-color="#435AC1"/>
<stop offset="1" stop-color="#0F24A3"/>
</linearGradient>
</defs>
</svg>
