<svg width="85" height="80" viewBox="0 0 85 80" fill="none" xmlns="http://www.w3.org/2000/svg">
<mask id="mask0_1_12486" style="mask-type:alpha" maskUnits="userSpaceOnUse" x="2" y="6" width="73" height="68">
<path d="M2 10C2 7.79086 3.79086 6 6 6H71C73.2091 6 75 7.79086 75 10V70C75 72.2091 73.2091 74 71 74H6C3.79086 74 2 72.2091 2 70V10Z" fill="#7748FF"/>
</mask>
<g mask="url(#mask0_1_12486)">
<g filter="url(#filter0_d_1_12486)">
<path d="M2 10C2 7.79086 3.79086 6 6 6H71C73.2091 6 75 7.79086 75 10V70C75 72.2091 73.2091 74 71 74H6C3.79086 74 2 72.2091 2 70V10Z" fill="#13267D"/>
</g>
<circle cx="11" cy="29" r="27" fill="white" fill-opacity="0.1"/>
<circle cx="25.5" cy="4.5" r="29.5" fill="white" fill-opacity="0.1"/>
</g>
<defs>
<filter id="filter0_d_1_12486" x="0" y="0" width="85" height="80" filterUnits="userSpaceOnUse" color-interpolation-filters="sRGB">
<feFlood flood-opacity="0" result="BackgroundImageFix"/>
<feColorMatrix in="SourceAlpha" type="matrix" values="0 0 0 0 0 0 0 0 0 0 0 0 0 0 0 0 0 0 127 0" result="hardAlpha"/>
<feOffset dx="4"/>
<feGaussianBlur stdDeviation="3"/>
<feComposite in2="hardAlpha" operator="out"/>
<feColorMatrix type="matrix" values="0 0 0 0 0 0 0 0 0 0 0 0 0 0 0 0 0 0 0.05 0"/>
<feBlend mode="normal" in2="BackgroundImageFix" result="effect1_dropShadow_1_12486"/>
<feBlend mode="normal" in="SourceGraphic" in2="effect1_dropShadow_1_12486" result="shape"/>
</filter>
</defs>
</svg>
