<svg width="267" height="183" viewBox="0 0 267 183" fill="none" xmlns="http://www.w3.org/2000/svg">
<path d="M185.563 0H80.9866C72.4918 0 65.5811 6.90563 65.5811 15.3951V159.501H200.969V15.3951C200.969 6.90652 194.058 0 185.563 0Z" fill="#00005A"/>
<path d="M80.9867 7.08789H185.562C190.15 7.08789 193.875 10.8097 193.875 15.3941V119.894C193.875 124.478 190.15 128.2 185.562 128.2H80.9867C76.3989 128.2 72.6743 124.478 72.6743 119.894V15.395C72.6743 10.8106 76.3989 7.08878 80.9867 7.08878V7.08789Z" fill="white"/>
<path d="M124.918 62.6333L125.481 62.5841C125.508 62.8094 125.57 62.9944 125.667 63.1392C125.765 63.284 125.916 63.4011 126.122 63.4896C126.327 63.579 126.557 63.6237 126.814 63.6237C127.042 63.6237 127.242 63.5897 127.417 63.5218C127.591 63.4538 127.721 63.3618 127.806 63.2438C127.891 63.1258 127.934 62.9971 127.934 62.8577C127.934 62.7182 127.893 62.5922 127.81 62.4867C127.728 62.3812 127.593 62.2928 127.404 62.2204C127.284 62.173 127.015 62.0997 126.601 62.0005C126.187 61.9013 125.896 61.8074 125.73 61.7189C125.514 61.6063 125.354 61.466 125.248 61.2988C125.142 61.1317 125.089 60.9449 125.089 60.7375C125.089 60.5096 125.154 60.2969 125.284 60.0993C125.413 59.9018 125.602 59.7516 125.85 59.6489C126.098 59.5461 126.374 59.4951 126.678 59.4951C127.013 59.4951 127.308 59.5487 127.563 59.6569C127.818 59.7642 128.014 59.9233 128.152 60.1324C128.29 60.3416 128.363 60.5784 128.374 60.843L127.802 60.8859C127.771 60.6008 127.666 60.3854 127.489 60.2397C127.312 60.094 127.049 60.0216 126.703 60.0216C126.357 60.0216 126.079 60.0877 125.913 60.22C125.748 60.3523 125.666 60.5114 125.666 60.6982C125.666 60.86 125.724 60.9932 125.841 61.0977C125.955 61.2023 126.256 61.3096 126.742 61.4195C127.227 61.5294 127.56 61.6251 127.741 61.7073C128.004 61.828 128.197 61.9817 128.322 62.1667C128.447 62.3527 128.51 62.5663 128.51 62.8076C128.51 63.0489 128.441 63.2733 128.303 63.486C128.166 63.6978 127.968 63.8632 127.711 63.9812C127.454 64.0992 127.164 64.1582 126.842 64.1582C126.433 64.1582 126.091 64.0983 125.815 63.9794C125.538 63.8605 125.322 63.6818 125.165 63.4431C125.009 63.2045 124.926 62.9336 124.918 62.6324V62.6333Z" fill="black"/>
<path d="M132.545 62.5011L133.142 62.6522C133.017 63.142 132.792 63.5156 132.467 63.773C132.142 64.0304 131.744 64.1591 131.275 64.1591C130.805 64.1591 130.393 64.0599 130.088 63.8624C129.783 63.6649 129.551 63.3779 129.392 63.0025C129.233 62.6271 129.153 62.224 129.153 61.7941C129.153 61.3248 129.243 60.9146 129.422 60.5651C129.602 60.2156 129.857 59.9502 130.189 59.7687C130.52 59.5873 130.885 59.4961 131.283 59.4961C131.735 59.4961 132.114 59.6105 132.421 59.8402C132.729 60.0699 132.944 60.3926 133.065 60.8091L132.477 60.9477C132.372 60.6196 132.22 60.381 132.022 60.2308C131.822 60.0815 131.573 60.0065 131.27 60.0065C130.923 60.0065 130.633 60.0896 130.401 60.2558C130.168 60.4221 130.005 60.6446 129.91 60.9244C129.815 61.2042 129.768 61.4929 129.768 61.7905C129.768 62.174 129.824 62.5091 129.937 62.7952C130.048 63.0812 130.222 63.2948 130.458 63.436C130.694 63.5773 130.949 63.6479 131.225 63.6479C131.559 63.6479 131.843 63.5513 132.074 63.3592C132.306 63.1661 132.464 62.8801 132.546 62.5011H132.545Z" fill="black"/>
<path d="M133.382 64.0823L135.115 59.573H135.758L137.605 64.0823H136.925L136.399 62.7165H134.513L134.017 64.0823H133.383H133.382ZM134.684 62.2303H136.214L135.743 60.9817C135.599 60.6027 135.492 60.2907 135.422 60.0467C135.365 60.3354 135.284 60.6232 135.179 60.9084L134.684 62.2312L134.684 62.2303Z" fill="black"/>
<path d="M138.076 64.0823V59.573H138.689L141.059 63.1134V59.573H141.632V64.0823H141.019L138.649 60.5392V64.0823H138.076Z" fill="black"/>
<path d="M124.918 75.7919V67.0781H126.655L128.718 73.2481C128.909 73.8229 129.048 74.2528 129.134 74.5379C129.234 74.2206 129.388 73.7549 129.599 73.1409L131.686 67.0781H133.239V75.7919H132.126V68.4993L129.592 75.7919H128.551L126.029 68.3742V75.7919H124.916H124.918Z" fill="black"/>
<path d="M135.125 75.7919V67.0781H141.43V68.106H136.279V70.775H141.103V71.7975H136.279V74.7632H141.632V75.7911H135.125V75.7919Z" fill="black"/>
<path d="M101.239 32.8486H98.4541V35.632H101.239V32.8486Z" fill="black"/>
<path d="M104.025 32.8486H101.239V35.632H104.025V32.8486Z" fill="black"/>
<path d="M106.81 32.8486H104.025V35.632H106.81V32.8486Z" fill="black"/>
<path d="M109.596 32.8486H106.811V35.632H109.596V32.8486Z" fill="black"/>
<path d="M112.382 32.8486H109.596V35.632H112.382V32.8486Z" fill="black"/>
<path d="M115.167 32.8486H112.382V35.632H115.167V32.8486Z" fill="black"/>
<path d="M117.954 32.8486H115.168V35.632H117.954V32.8486Z" fill="black"/>
<path d="M126.31 35.632V32.8486H123.525V35.632H126.31Z" fill="black"/>
<path d="M134.667 32.8486H131.882V35.632H134.667V32.8486Z" fill="black"/>
<path d="M143.025 32.8486H140.239V35.632H143.025V32.8486Z" fill="black"/>
<path d="M151.382 32.8486H148.597V35.632H151.382V32.8486Z" fill="black"/>
<path d="M151.382 32.8486V35.632H154.167V32.8486H151.382Z" fill="black"/>
<path d="M156.952 32.8486H154.167V35.632H156.952V32.8486Z" fill="black"/>
<path d="M159.739 32.8486H156.953V35.632H159.739V32.8486Z" fill="black"/>
<path d="M159.739 32.8486V35.632H162.524V32.8486H159.739Z" fill="black"/>
<path d="M165.31 32.8486H162.524V35.632H165.31V32.8486Z" fill="black"/>
<path d="M168.096 32.8486H165.311V35.632H168.096V32.8486Z" fill="black"/>
<path d="M101.239 35.6318H98.4541V38.4152H101.239V35.6318Z" fill="black"/>
<path d="M117.954 35.6318H115.168V38.4152H117.954V35.6318Z" fill="black"/>
<path d="M123.525 35.6318H120.739V38.4161H123.525V35.6318Z" fill="black"/>
<path d="M126.311 38.4161H129.096V35.6318H126.311V38.4161Z" fill="black"/>
<path d="M131.882 38.4161V35.6318H129.096V38.4161H131.882Z" fill="black"/>
<path d="M143.025 38.4161H145.81V35.6318H143.025V38.4161Z" fill="black"/>
<path d="M148.597 35.6318V38.4161H151.382V35.6318H148.597Z" fill="black"/>
<path d="M168.096 35.6318H165.311V38.4152H168.096V35.6318Z" fill="black"/>
<path d="M98.4541 38.4163V41.1996H101.239V38.4163H98.4541Z" fill="black"/>
<path d="M106.81 38.4163H104.025V41.1996H106.81V38.4163Z" fill="black"/>
<path d="M109.596 38.4163H106.811V41.1996H109.596V38.4163Z" fill="black"/>
<path d="M112.382 38.4163H109.596V41.1996H112.382V38.4163Z" fill="black"/>
<path d="M115.168 38.4163V41.1996H117.954V38.4163H115.168Z" fill="black"/>
<path d="M126.31 38.4163H123.525V41.1996H126.31V38.4163Z" fill="black"/>
<path d="M131.882 41.1996H134.667V38.4163H131.882V41.1996Z" fill="black"/>
<path d="M134.667 41.1996H137.453V38.4163H134.667V41.1996Z" fill="black"/>
<path d="M143.025 41.1996V38.4163H140.239V41.1996H143.025Z" fill="black"/>
<path d="M148.597 38.4163V41.1996H151.382V38.4163H148.597Z" fill="black"/>
<path d="M156.952 38.4163H154.167V41.1996H156.952V38.4163Z" fill="black"/>
<path d="M159.739 38.4163H156.953V41.1996H159.739V38.4163Z" fill="black"/>
<path d="M159.739 41.1996H162.524V38.4163H159.739V41.1996Z" fill="black"/>
<path d="M165.311 38.4163V41.1996H168.096V38.4163H165.311Z" fill="black"/>
<path d="M101.239 41.1995H98.4541V43.9828H101.239V41.1995Z" fill="black"/>
<path d="M106.81 41.1995H104.025V43.9828H106.81V41.1995Z" fill="black"/>
<path d="M109.596 41.1995H106.811V43.9828H109.596V41.1995Z" fill="black"/>
<path d="M112.382 41.1995H109.596V43.9828H112.382V41.1995Z" fill="black"/>
<path d="M117.954 41.1995H115.168V43.9828H117.954V41.1995Z" fill="black"/>
<path d="M123.524 41.1995H120.739V43.9828H123.524V41.1995Z" fill="black"/>
<path d="M140.239 41.1995H137.453V43.9828H140.239V41.1995Z" fill="black"/>
<path d="M143.025 41.1995H140.239V43.9828H143.025V41.1995Z" fill="black"/>
<path d="M143.025 43.9828H145.81V41.1995H143.025V43.9828Z" fill="black"/>
<path d="M151.382 41.1995H148.597V43.9828H151.382V41.1995Z" fill="black"/>
<path d="M156.952 41.1995H154.167V43.9828H156.952V41.1995Z" fill="black"/>
<path d="M159.739 41.1995H156.953V43.9828H159.739V41.1995Z" fill="black"/>
<path d="M159.739 41.1995V43.9828H162.524V41.1995H159.739Z" fill="black"/>
<path d="M168.096 41.1995H165.311V43.9828H168.096V41.1995Z" fill="black"/>
<path d="M101.239 43.9829H98.4541V46.7663H101.239V43.9829Z" fill="black"/>
<path d="M106.81 43.9829H104.025V46.7663H106.81V43.9829Z" fill="black"/>
<path d="M109.596 43.9829H106.811V46.7663H109.596V43.9829Z" fill="black"/>
<path d="M112.382 43.9829H109.596V46.7663H112.382V43.9829Z" fill="black"/>
<path d="M117.954 43.9829H115.168V46.7663H117.954V43.9829Z" fill="black"/>
<path d="M126.311 46.7671H129.096V43.9829H126.311V46.7671Z" fill="black"/>
<path d="M140.239 43.9829H137.453V46.7663H140.239V43.9829Z" fill="black"/>
<path d="M143.025 43.9829H140.239V46.7663H143.025V43.9829Z" fill="black"/>
<path d="M143.025 43.9829V46.7671H145.81V43.9829H143.025Z" fill="black"/>
<path d="M151.382 43.9829H148.597V46.7663H151.382V43.9829Z" fill="black"/>
<path d="M156.952 43.9829H154.167V46.7663H156.952V43.9829Z" fill="black"/>
<path d="M159.739 43.9829H156.953V46.7663H159.739V43.9829Z" fill="black"/>
<path d="M159.739 43.9829V46.7671H162.524V43.9829H159.739Z" fill="black"/>
<path d="M168.096 43.9829H165.311V46.7663H168.096V43.9829Z" fill="black"/>
<path d="M98.4541 46.7671V49.5504H101.239V46.7671H98.4541Z" fill="black"/>
<path d="M115.168 46.7671V49.5504H117.954V46.7671H115.168Z" fill="black"/>
<path d="M123.525 46.7671H120.739V49.5504H123.525V46.7671Z" fill="black"/>
<path d="M126.31 49.5504V46.7671H123.525V49.5504H126.31Z" fill="black"/>
<path d="M131.882 46.7671H129.097V49.5504H131.882V46.7671Z" fill="black"/>
<path d="M131.882 49.5504H134.667V46.7671H131.882V49.5504Z" fill="black"/>
<path d="M148.597 46.7671V49.5504H151.382V46.7671H148.597Z" fill="black"/>
<path d="M165.311 46.7671V49.5504H168.096V46.7671H165.311Z" fill="black"/>
<path d="M101.239 49.5505H98.4541V52.3339H101.239V49.5505Z" fill="black"/>
<path d="M104.025 49.5505H101.239V52.3339H104.025V49.5505Z" fill="black"/>
<path d="M106.81 49.5505H104.025V52.3339H106.81V49.5505Z" fill="black"/>
<path d="M109.596 49.5505H106.811V52.3339H109.596V49.5505Z" fill="black"/>
<path d="M112.382 49.5505H109.596V52.3339H112.382V49.5505Z" fill="black"/>
<path d="M115.167 49.5505H112.382V52.3339H115.167V49.5505Z" fill="black"/>
<path d="M117.954 49.5505H115.168V52.3339H117.954V49.5505Z" fill="black"/>
<path d="M123.524 49.5505H120.739V52.3339H123.524V49.5505Z" fill="black"/>
<path d="M129.097 49.5505H126.311V52.3348H129.097V49.5505Z" fill="black"/>
<path d="M134.667 49.5505H131.882V52.3348H134.667V49.5505Z" fill="black"/>
<path d="M140.239 49.5505H137.453V52.3339H140.239V49.5505Z" fill="black"/>
<path d="M145.81 52.3339V49.5505H143.025V52.3339H145.81Z" fill="black"/>
<path d="M151.382 49.5505H148.597V52.3339H151.382V49.5505Z" fill="black"/>
<path d="M151.382 49.5505V52.3339H154.167V49.5505H151.382Z" fill="black"/>
<path d="M156.952 49.5505H154.167V52.3339H156.952V49.5505Z" fill="black"/>
<path d="M159.739 49.5505H156.953V52.3339H159.739V49.5505Z" fill="black"/>
<path d="M159.739 49.5505V52.3339H162.524V49.5505H159.739Z" fill="black"/>
<path d="M165.31 49.5505H162.524V52.3339H165.31V49.5505Z" fill="black"/>
<path d="M168.096 49.5505H165.311V52.3339H168.096V49.5505Z" fill="black"/>
<path d="M126.31 52.3337H123.525V55.118H126.31V52.3337Z" fill="black"/>
<path d="M129.097 52.3347H126.311V55.1181H129.097V52.3347Z" fill="black"/>
<path d="M134.667 52.3347H131.882V55.1181H134.667V52.3347Z" fill="black"/>
<path d="M137.453 52.3337H134.667V55.1171H137.453V52.3337Z" fill="black"/>
<path d="M140.239 55.118V52.3337H137.453V55.118H140.239Z" fill="black"/>
<path d="M143.025 55.118V52.3337H140.239V55.118H143.025Z" fill="black"/>
<path d="M101.239 55.1179H98.4541V57.9013H101.239V55.1179Z" fill="black"/>
<path d="M104.025 55.1179H101.239V57.9013H104.025V55.1179Z" fill="black"/>
<path d="M106.81 55.1179H104.025V57.9013H106.81V55.1179Z" fill="black"/>
<path d="M109.596 55.1179H106.811V57.9013H109.596V55.1179Z" fill="black"/>
<path d="M112.382 55.1179H109.596V57.9013H112.382V55.1179Z" fill="black"/>
<path d="M117.954 55.1179H115.168V57.9013H117.954V55.1179Z" fill="black"/>
<path d="M117.954 55.1179V57.9013H120.739V55.1179H117.954Z" fill="black"/>
<path d="M145.81 55.1179V57.9013H148.596V55.1179H145.81Z" fill="black"/>
<path d="M154.167 55.1179H151.382V57.9013H154.167V55.1179Z" fill="black"/>
<path d="M159.739 55.1179H156.953V57.9013H159.739V55.1179Z" fill="black"/>
<path d="M165.31 55.1179H162.524V57.9013H165.31V55.1179Z" fill="black"/>
<path d="M104.025 57.9014H101.239V60.6847H104.025V57.9014Z" fill="black"/>
<path d="M117.954 57.9014V60.6847H120.739V57.9014H117.954Z" fill="black"/>
<path d="M148.595 57.9014H145.81V60.6847H148.595V57.9014Z" fill="black"/>
<path d="M156.952 57.9014H154.167V60.6847H156.952V57.9014Z" fill="black"/>
<path d="M159.739 57.9014H156.953V60.6847H159.739V57.9014Z" fill="black"/>
<path d="M165.31 57.9014H162.524V60.6847H165.31V57.9014Z" fill="black"/>
<path d="M168.096 57.9014H165.311V60.6847H168.096V57.9014Z" fill="black"/>
<path d="M101.239 60.6848H98.4541V63.4682H101.239V60.6848Z" fill="black"/>
<path d="M106.81 60.6848H104.025V63.4682H106.81V60.6848Z" fill="black"/>
<path d="M109.596 60.6848H106.811V63.4682H109.596V60.6848Z" fill="black"/>
<path d="M117.954 60.6848H115.168V63.4682H117.954V60.6848Z" fill="black"/>
<path d="M117.954 60.6848V63.4691H120.739V60.6848H117.954Z" fill="black"/>
<path d="M151.382 60.6848H148.595V63.4691H151.382V60.6848Z" fill="black"/>
<path d="M159.739 63.4691V60.6848H156.953V63.4691H159.739Z" fill="black"/>
<path d="M165.31 60.6848H162.524V63.4682H165.31V60.6848Z" fill="black"/>
<path d="M101.239 63.469H98.4541V66.2523H101.239V63.469Z" fill="black"/>
<path d="M104.025 63.469H101.239V66.2523H104.025V63.469Z" fill="black"/>
<path d="M115.167 63.469H112.382V66.2523H115.167V63.469Z" fill="black"/>
<path d="M117.954 63.469V66.2523H120.739V63.469H117.954Z" fill="black"/>
<path d="M151.382 63.469H148.595V66.2523H151.382V63.469Z" fill="black"/>
<path d="M159.739 63.469H156.953V66.2523H159.739V63.469Z" fill="black"/>
<path d="M159.739 63.469V66.2523H162.524V63.469H159.739Z" fill="black"/>
<path d="M165.31 63.469H162.524V66.2523H165.31V63.469Z" fill="black"/>
<path d="M101.239 66.2522H98.4541V69.0355H101.239V66.2522Z" fill="black"/>
<path d="M109.596 66.2522H106.811V69.0355H109.596V66.2522Z" fill="black"/>
<path d="M112.382 66.2522H109.596V69.0355H112.382V66.2522Z" fill="black"/>
<path d="M115.168 66.2522V69.0355H117.954V66.2522H115.168Z" fill="black"/>
<path d="M148.595 66.2522H145.81V69.0355H148.595V66.2522Z" fill="black"/>
<path d="M151.382 66.2522V69.0355H154.167V66.2522H151.382Z" fill="black"/>
<path d="M162.524 69.0355V66.2522H159.739V69.0355H162.524Z" fill="black"/>
<path d="M168.096 66.2522H165.311V69.0355H168.096V66.2522Z" fill="black"/>
<path d="M101.239 69.0356H98.4541V71.819H101.239V69.0356Z" fill="black"/>
<path d="M104.025 69.0356H101.239V71.819H104.025V69.0356Z" fill="black"/>
<path d="M106.81 69.0356H104.025V71.819H106.81V69.0356Z" fill="black"/>
<path d="M109.596 69.0356H106.811V71.819H109.596V69.0356Z" fill="black"/>
<path d="M148.596 69.0356H145.81V71.8199H148.596V69.0356Z" fill="black"/>
<path d="M151.382 69.0356H148.597V71.8199H151.382V69.0356Z" fill="black"/>
<path d="M151.382 69.0356V71.8199H154.167V69.0356H151.382Z" fill="black"/>
<path d="M156.952 69.0356H154.167V71.819H156.952V69.0356Z" fill="black"/>
<path d="M159.739 71.8199V69.0356H156.953V71.8199H159.739Z" fill="black"/>
<path d="M168.096 69.0356H165.311V71.819H168.096V69.0356Z" fill="black"/>
<path d="M101.239 71.8198H98.4541V74.6032H101.239V71.8198Z" fill="black"/>
<path d="M106.81 71.8198H104.025V74.6032H106.81V71.8198Z" fill="black"/>
<path d="M112.382 71.8198H109.596V74.6032H112.382V71.8198Z" fill="black"/>
<path d="M115.167 71.8198H112.382V74.6032H115.167V71.8198Z" fill="black"/>
<path d="M117.954 71.8198H115.168V74.6032H117.954V71.8198Z" fill="black"/>
<path d="M117.954 71.8198V74.6032H120.739V71.8198H117.954Z" fill="black"/>
<path d="M148.597 71.8198V74.6032H151.382V71.8198H148.597Z" fill="black"/>
<path d="M159.739 74.6032H162.524V71.8198H159.739V74.6032Z" fill="black"/>
<path d="M101.239 74.6033H98.4541V77.3866H101.239V74.6033Z" fill="black"/>
<path d="M106.81 74.6033H104.025V77.3866H106.81V74.6033Z" fill="black"/>
<path d="M112.382 74.6033H109.596V77.3866H112.382V74.6033Z" fill="black"/>
<path d="M115.167 74.6033H112.382V77.3866H115.167V74.6033Z" fill="black"/>
<path d="M148.595 74.6033H145.81V77.3866H148.595V74.6033Z" fill="black"/>
<path d="M151.382 77.3866V74.6033H148.597V77.3866H151.382Z" fill="black"/>
<path d="M162.524 74.6033H159.739V77.3866H162.524V74.6033Z" fill="black"/>
<path d="M165.31 74.6033H162.524V77.3866H165.31V74.6033Z" fill="black"/>
<path d="M168.096 74.6033H165.311V77.3866H168.096V74.6033Z" fill="black"/>
<path d="M101.239 77.3865H98.4541V80.1698H101.239V77.3865Z" fill="black"/>
<path d="M106.81 77.3865H104.025V80.1698H106.81V77.3865Z" fill="black"/>
<path d="M117.954 77.3865H115.168V80.1698H117.954V77.3865Z" fill="black"/>
<path d="M148.596 77.3865H145.81V80.1707H148.596V77.3865Z" fill="black"/>
<path d="M148.597 77.3865V80.1707H151.382V77.3865H148.597Z" fill="black"/>
<path d="M151.382 80.1707H154.167V77.3865H151.382V80.1707Z" fill="black"/>
<path d="M156.952 77.3865H154.167V80.1698H156.952V77.3865Z" fill="black"/>
<path d="M168.096 77.3865H165.311V80.1698H168.096V77.3865Z" fill="black"/>
<path d="M120.739 80.1709V82.9542H123.525V80.1709H120.739Z" fill="black"/>
<path d="M129.096 80.1709H126.311V82.9542H129.096V80.1709Z" fill="black"/>
<path d="M129.096 80.1709V82.9542H131.882V80.1709H129.096Z" fill="black"/>
<path d="M134.667 80.1709H131.882V82.9542H134.667V80.1709Z" fill="black"/>
<path d="M137.453 80.1709H134.667V82.9542H137.453V80.1709Z" fill="black"/>
<path d="M145.81 80.1709H143.025V82.9542H145.81V80.1709Z" fill="black"/>
<path d="M156.952 80.1709H154.167V82.9542H156.952V80.1709Z" fill="black"/>
<path d="M159.739 80.1709H156.953V82.9542H159.739V80.1709Z" fill="black"/>
<path d="M165.31 80.1709H162.524V82.9542H165.31V80.1709Z" fill="black"/>
<path d="M168.096 80.1709H165.311V82.9542H168.096V80.1709Z" fill="black"/>
<path d="M101.239 82.9541H98.4541V85.7374H101.239V82.9541Z" fill="black"/>
<path d="M104.025 82.9541H101.239V85.7374H104.025V82.9541Z" fill="black"/>
<path d="M106.81 82.9541H104.025V85.7374H106.81V82.9541Z" fill="black"/>
<path d="M109.596 82.9541H106.811V85.7374H109.596V82.9541Z" fill="black"/>
<path d="M112.382 82.9541H109.596V85.7374H112.382V82.9541Z" fill="black"/>
<path d="M115.167 82.9541H112.382V85.7374H115.167V82.9541Z" fill="black"/>
<path d="M117.954 82.9541H115.168V85.7374H117.954V82.9541Z" fill="black"/>
<path d="M123.524 82.9541H120.739V85.7374H123.524V82.9541Z" fill="black"/>
<path d="M126.31 82.9541H123.525V85.7374H126.31V82.9541Z" fill="black"/>
<path d="M126.311 82.9541V85.7374H129.096V82.9541H126.311Z" fill="black"/>
<path d="M131.881 82.9541H129.096V85.7374H131.881V82.9541Z" fill="black"/>
<path d="M134.667 82.9541H131.882V85.7374H134.667V82.9541Z" fill="black"/>
<path d="M145.81 82.9541H143.025V85.7374H145.81V82.9541Z" fill="black"/>
<path d="M151.382 82.9541H148.597V85.7374H151.382V82.9541Z" fill="black"/>
<path d="M156.952 82.9541H154.167V85.7374H156.952V82.9541Z" fill="black"/>
<path d="M165.31 82.9541H162.524V85.7374H165.31V82.9541Z" fill="black"/>
<path d="M101.239 85.7375H98.4541V88.5209H101.239V85.7375Z" fill="black"/>
<path d="M117.954 85.7375H115.168V88.5209H117.954V85.7375Z" fill="black"/>
<path d="M126.311 85.7375V88.5218H129.096V85.7375H126.311Z" fill="black"/>
<path d="M134.667 85.7375H131.882V88.5218H134.667V85.7375Z" fill="black"/>
<path d="M137.453 85.7375H134.667V88.5218H137.453V85.7375Z" fill="black"/>
<path d="M143.025 85.7375H140.239V88.5218H143.025V85.7375Z" fill="black"/>
<path d="M143.025 85.7375V88.5218H145.81V85.7375H143.025Z" fill="black"/>
<path d="M156.952 85.7375H154.167V88.5209H156.952V85.7375Z" fill="black"/>
<path d="M159.739 85.7375H156.953V88.5209H159.739V85.7375Z" fill="black"/>
<path d="M159.739 85.7375V88.5218H162.524V85.7375H159.739Z" fill="black"/>
<path d="M165.31 85.7375H162.524V88.5209H165.31V85.7375Z" fill="black"/>
<path d="M101.239 88.5217H98.4541V91.3051H101.239V88.5217Z" fill="black"/>
<path d="M106.81 88.5217H104.025V91.3051H106.81V88.5217Z" fill="black"/>
<path d="M109.596 88.5217H106.811V91.3051H109.596V88.5217Z" fill="black"/>
<path d="M112.382 88.5217H109.596V91.3051H112.382V88.5217Z" fill="black"/>
<path d="M117.954 88.5217H115.168V91.3051H117.954V88.5217Z" fill="black"/>
<path d="M123.524 88.5217H120.739V91.3051H123.524V88.5217Z" fill="black"/>
<path d="M126.31 88.5217H123.525V91.3051H126.31V88.5217Z" fill="black"/>
<path d="M126.311 88.5217V91.3051H129.096V88.5217H126.311Z" fill="black"/>
<path d="M140.239 88.5217H137.453V91.3051H140.239V88.5217Z" fill="black"/>
<path d="M143.025 88.5217V91.3051H145.81V88.5217H143.025Z" fill="black"/>
<path d="M148.595 88.5217H145.81V91.3051H148.595V88.5217Z" fill="black"/>
<path d="M151.382 88.5217H148.597V91.3051H151.382V88.5217Z" fill="black"/>
<path d="M151.382 88.5217V91.3051H154.167V88.5217H151.382Z" fill="black"/>
<path d="M156.952 88.5217H154.167V91.3051H156.952V88.5217Z" fill="black"/>
<path d="M156.953 88.5217V91.3051H159.739V88.5217H156.953Z" fill="black"/>
<path d="M165.31 88.5217H162.524V91.3051H165.31V88.5217Z" fill="black"/>
<path d="M101.239 91.3052H98.4541V94.0885H101.239V91.3052Z" fill="black"/>
<path d="M106.81 91.3052H104.025V94.0885H106.81V91.3052Z" fill="black"/>
<path d="M109.596 91.3052H106.811V94.0885H109.596V91.3052Z" fill="black"/>
<path d="M112.382 91.3052H109.596V94.0885H112.382V91.3052Z" fill="black"/>
<path d="M117.954 91.3052H115.168V94.0885H117.954V91.3052Z" fill="black"/>
<path d="M123.524 91.3052H120.739V94.0885H123.524V91.3052Z" fill="black"/>
<path d="M123.525 91.3052V94.0885H126.31V91.3052H123.525Z" fill="black"/>
<path d="M140.239 91.3052H137.453V94.0885H140.239V91.3052Z" fill="black"/>
<path d="M140.239 91.3052V94.0885H143.025V91.3052H140.239Z" fill="black"/>
<path d="M165.31 91.3052H162.524V94.0885H165.31V91.3052Z" fill="black"/>
<path d="M168.096 91.3052H165.311V94.0885H168.096V91.3052Z" fill="black"/>
<path d="M101.239 94.0884H98.4541V96.8717H101.239V94.0884Z" fill="black"/>
<path d="M106.81 94.0884H104.025V96.8717H106.81V94.0884Z" fill="black"/>
<path d="M109.596 94.0884H106.811V96.8717H109.596V94.0884Z" fill="black"/>
<path d="M112.382 94.0884H109.596V96.8717H112.382V94.0884Z" fill="black"/>
<path d="M117.954 94.0884H115.168V96.8717H117.954V94.0884Z" fill="black"/>
<path d="M123.524 94.0884H120.739V96.8717H123.524V94.0884Z" fill="black"/>
<path d="M131.881 94.0884H129.096V96.8717H131.881V94.0884Z" fill="black"/>
<path d="M143.025 94.0884H140.239V96.8717H143.025V94.0884Z" fill="black"/>
<path d="M151.382 94.0884H148.597V96.8726H151.382V94.0884Z" fill="black"/>
<path d="M156.952 94.0884H154.167V96.8717H156.952V94.0884Z" fill="black"/>
<path d="M159.739 94.0884H156.953V96.8717H159.739V94.0884Z" fill="black"/>
<path d="M162.524 96.8726V94.0884H159.739V96.8726H162.524Z" fill="black"/>
<path d="M168.096 94.0884H165.311V96.8717H168.096V94.0884Z" fill="black"/>
<path d="M101.239 96.8726H98.4541V99.6559H101.239V96.8726Z" fill="black"/>
<path d="M117.954 96.8726H115.168V99.6559H117.954V96.8726Z" fill="black"/>
<path d="M123.524 96.8726H120.739V99.6559H123.524V96.8726Z" fill="black"/>
<path d="M126.31 96.8726H123.525V99.6559H126.31V96.8726Z" fill="black"/>
<path d="M126.311 96.8726V99.6559H129.096V96.8726H126.311Z" fill="black"/>
<path d="M131.881 96.8726H129.096V99.6559H131.881V96.8726Z" fill="black"/>
<path d="M134.667 96.8726H131.882V99.6559H134.667V96.8726Z" fill="black"/>
<path d="M134.667 96.8726V99.6559H137.453V96.8726H134.667Z" fill="black"/>
<path d="M140.239 96.8726H137.453V99.6559H140.239V96.8726Z" fill="black"/>
<path d="M151.382 96.8726V99.6559H154.167V96.8726H151.382Z" fill="black"/>
<path d="M159.739 96.8726V99.6559H162.524V96.8726H159.739Z" fill="black"/>
<path d="M168.096 96.8726H165.311V99.6559H168.096V96.8726Z" fill="black"/>
<path d="M101.239 99.656H98.4541V102.439H101.239V99.656Z" fill="black"/>
<path d="M104.025 99.656H101.239V102.439H104.025V99.656Z" fill="black"/>
<path d="M106.81 99.656H104.025V102.439H106.81V99.656Z" fill="black"/>
<path d="M109.596 99.656H106.811V102.439H109.596V99.656Z" fill="black"/>
<path d="M112.382 99.656H109.596V102.439H112.382V99.656Z" fill="black"/>
<path d="M115.167 99.656H112.382V102.439H115.167V99.656Z" fill="black"/>
<path d="M117.954 99.656H115.168V102.439H117.954V99.656Z" fill="black"/>
<path d="M123.524 99.656H120.739V102.439H123.524V99.656Z" fill="black"/>
<path d="M123.525 99.656V102.439H126.31V99.656H123.525Z" fill="black"/>
<path d="M131.882 99.656V102.439H134.667V99.656H131.882Z" fill="black"/>
<path d="M145.81 99.656H143.025V102.439H145.81V99.656Z" fill="black"/>
<path d="M148.597 99.656V102.439H151.382V99.656H148.597Z" fill="black"/>
<path d="M165.31 99.656H162.524V102.439H165.31V99.656Z" fill="black"/>
<path d="M168.096 99.656H165.311V102.439H168.096V99.656Z" fill="black"/>
<path d="M174.166 108.506H161.623V109.927H175.589V95.9717H174.166V108.506Z" fill="black"/>
<path d="M92.3832 95.9717H90.9609V109.927H104.926V108.506H92.3832V95.9717Z" fill="black"/>
<path d="M161.623 25.3611V26.7831H174.166V39.3171H175.589V25.3611H161.623Z" fill="black"/>
<path d="M90.9609 39.3171H92.3832V26.7831H104.926V25.3611H90.9609V39.3171Z" fill="black"/>
<path d="M266.549 142.106C247.606 148.753 228.291 154.034 208.662 157.895C207.203 146.79 205.744 135.685 204.285 124.579C222.774 120.939 240.965 115.965 258.81 109.707C256.409 116.429 253.904 123.104 251.295 129.739C256.304 133.967 261.388 138.087 266.55 142.106H266.549Z" fill="#113380"/>
<path d="M235.595 134.409C225.96 137.035 216.256 139.313 206.473 141.238C205.744 135.686 205.015 130.132 204.285 124.58C214.594 128.309 225.029 131.583 235.595 134.409Z" fill="#00005A"/>
<path d="M0.000894474 142.106C18.9441 148.753 38.2593 154.034 57.8877 157.895C59.3466 146.79 60.8064 135.685 62.2652 124.579C43.7756 120.939 25.5846 115.965 7.73989 109.707C10.1407 116.429 12.6461 123.104 15.2553 129.739C10.2462 133.967 5.16201 138.087 0 142.106H0.000894474Z" fill="#113380"/>
<path d="M133.439 148.306C98.8889 148.222 64.5635 143.523 31.1191 134.409C29.0797 145.378 27.0394 156.347 25 167.317C60.4391 176.98 96.8263 181.961 133.439 182.045C170.051 181.961 206.439 176.98 241.878 167.317C239.838 156.348 237.798 145.379 235.759 134.409C202.314 143.524 167.989 148.222 133.439 148.306Z" fill="#113380"/>
<path d="M30.9551 134.409C40.5895 137.035 50.2945 139.313 60.0765 141.238C60.8064 135.686 61.5354 130.132 62.2653 124.58C51.9555 128.309 41.5206 131.583 30.9551 134.409Z" fill="#00005A"/>
<path d="M109.648 169.777C109.088 169.777 108.584 169.681 108.136 169.489C107.688 169.289 107.336 169.009 107.08 168.649C106.824 168.289 106.696 167.869 106.696 167.389H108.16C108.192 167.749 108.332 168.045 108.58 168.277C108.836 168.509 109.192 168.625 109.648 168.625C110.12 168.625 110.488 168.513 110.752 168.289C111.016 168.057 111.148 167.761 111.148 167.401C111.148 167.121 111.064 166.893 110.896 166.717C110.736 166.541 110.532 166.405 110.284 166.309C110.044 166.213 109.708 166.109 109.276 165.997C108.732 165.853 108.288 165.709 107.944 165.565C107.608 165.413 107.32 165.181 107.08 164.869C106.84 164.557 106.72 164.141 106.72 163.621C106.72 163.141 106.84 162.721 107.08 162.361C107.32 162.001 107.656 161.725 108.088 161.533C108.52 161.341 109.02 161.245 109.588 161.245C110.396 161.245 111.056 161.449 111.568 161.857C112.088 162.257 112.376 162.809 112.432 163.513H110.92C110.896 163.209 110.752 162.949 110.488 162.733C110.224 162.517 109.876 162.409 109.444 162.409C109.052 162.409 108.732 162.509 108.484 162.709C108.236 162.909 108.112 163.197 108.112 163.573C108.112 163.829 108.188 164.041 108.34 164.209C108.5 164.369 108.7 164.497 108.94 164.593C109.18 164.689 109.508 164.793 109.924 164.905C110.476 165.057 110.924 165.209 111.268 165.361C111.62 165.513 111.916 165.749 112.156 166.069C112.404 166.381 112.528 166.801 112.528 167.329C112.528 167.753 112.412 168.153 112.18 168.529C111.956 168.905 111.624 169.209 111.184 169.441C110.752 169.665 110.24 169.777 109.648 169.777ZM113.686 165.505C113.686 164.689 113.874 163.957 114.25 163.309C114.634 162.661 115.15 162.157 115.798 161.797C116.454 161.429 117.17 161.245 117.946 161.245C118.834 161.245 119.622 161.465 120.31 161.905C121.006 162.337 121.51 162.953 121.822 163.753H120.178C119.962 163.313 119.662 162.985 119.278 162.769C118.894 162.553 118.45 162.445 117.946 162.445C117.394 162.445 116.902 162.569 116.47 162.817C116.038 163.065 115.698 163.421 115.45 163.885C115.21 164.349 115.09 164.889 115.09 165.505C115.09 166.121 115.21 166.661 115.45 167.125C115.698 167.589 116.038 167.949 116.47 168.205C116.902 168.453 117.394 168.577 117.946 168.577C118.45 168.577 118.894 168.469 119.278 168.253C119.662 168.037 119.962 167.709 120.178 167.269H121.822C121.51 168.069 121.006 168.685 120.31 169.117C119.622 169.549 118.834 169.765 117.946 169.765C117.162 169.765 116.446 169.585 115.798 169.225C115.15 168.857 114.634 168.349 114.25 167.701C113.874 167.053 113.686 166.321 113.686 165.505ZM128.452 167.989H124.96L124.36 169.693H122.932L125.92 161.341H127.504L130.492 169.693H129.052L128.452 167.989ZM128.068 166.873L126.712 162.997L125.344 166.873H128.068ZM138.643 169.693H137.275L133.159 163.465V169.693H131.791V161.341H133.159L137.275 167.557V161.341H138.643V169.693ZM152.34 161.353V169.693H150.972V163.981L148.428 169.693H147.48L144.924 163.981V169.693H143.556V161.353H145.032L147.96 167.893L150.876 161.353H152.34ZM155.507 162.457V164.905H158.387V166.021H155.507V168.577H158.747V169.693H154.139V161.341H158.747V162.457H155.507Z" fill="white"/>
</svg>
