<svg width="26" height="26" viewBox="0 0 26 26" fill="none" xmlns="http://www.w3.org/2000/svg">
<g clip-path="url(#clip0_592_994)">
<path d="M23.8146 12.098C22.919 10.1557 21.6073 8.43417 19.9723 7.05528L22.7829 4.24472L21.4712 2.93213L18.4187 5.98185C16.7292 5.00457 14.8086 4.49787 12.8569 4.51446C5.90463 4.51446 2.71308 10.3182 1.89921 12.098C1.78995 12.3365 1.7334 12.5958 1.7334 12.8581C1.7334 13.1204 1.78995 13.3797 1.89921 13.6182C2.79478 15.5605 4.10652 17.282 5.74149 18.6609L2.93185 21.4715L4.24258 22.7822L7.29509 19.7325C8.98461 20.7098 10.9052 21.2165 12.8569 21.1999C19.8092 21.1999 23.0007 15.3961 23.8146 13.6164C23.9236 13.3781 23.9801 13.1192 23.9801 12.8572C23.9801 12.5952 23.9236 12.3362 23.8146 12.098ZM3.58722 12.8674C4.28244 11.3425 7.01051 6.3684 12.8569 6.3684C14.3119 6.35989 15.7478 6.69933 17.0449 7.3584L15.4088 8.9945C14.5189 8.40365 13.4519 8.1389 12.389 8.24518C11.3261 8.35146 10.3326 8.82221 9.57728 9.57756C8.82193 10.3329 8.35118 11.3263 8.2449 12.3893C8.13862 13.4522 8.40337 14.5192 8.99422 15.4091L7.06705 17.3363C5.58425 16.1288 4.39449 14.6009 3.58722 12.8674ZM15.6378 12.8572C15.6378 13.5947 15.3448 14.3021 14.8233 14.8236C14.3018 15.3451 13.5944 15.6381 12.8569 15.6381C12.4439 15.6365 12.0367 15.5414 11.6657 15.36L15.3597 11.666C15.5411 12.037 15.6362 12.4442 15.6378 12.8572ZM10.076 12.8572C10.076 12.1196 10.369 11.4123 10.8905 10.8908C11.412 10.3693 12.1194 10.0763 12.8569 10.0763C13.2698 10.0779 13.6771 10.1729 14.048 10.3544L10.3541 14.0483C10.1727 13.6774 10.0776 13.2701 10.076 12.8572ZM12.8569 19.346C11.4019 19.3545 9.96601 19.015 8.66885 18.3559L10.305 16.7199C11.1949 17.3107 12.2619 17.5754 13.3248 17.4692C14.3877 17.3629 15.3812 16.8921 16.1365 16.1368C16.8919 15.3814 17.3626 14.388 17.4689 13.3251C17.5752 12.2621 17.3104 11.1952 16.7196 10.3052L18.6458 8.37899C20.1315 9.58759 21.322 11.1192 22.1266 12.8572C21.4184 14.3932 18.6894 19.346 12.8569 19.346Z" fill="#100E0E" fill-opacity="0.4"/>
</g>
<defs>
<clipPath id="clip0_592_994">
<rect width="25.7143" height="25.7143" fill="white"/>
</clipPath>
</defs>
</svg>
