<svg width="10" height="16" viewBox="0 0 10 16" fill="none" xmlns="http://www.w3.org/2000/svg">
<path d="M4 14.1176H6V16H4V14.1176ZM5 0C5.6875 0 6.33333 0.122549 6.9375 0.367647C7.54167 0.612745 8.06771 0.95098 8.51562 1.38235C8.96354 1.81373 9.32292 2.31373 9.59375 2.88235C9.86458 3.45098 10 4.05882 10 4.70588C10 5.29412 9.90104 5.80392 9.70312 6.23529C9.50521 6.66667 9.26042 7.06373 8.96875 7.42647C8.67708 7.78922 8.35417 8.10784 8 8.38235C7.64583 8.65686 7.32812 8.94608 7.04688 9.25C6.76562 9.55392 6.51562 9.86275 6.29688 10.1765C6.07812 10.4902 5.97917 10.8627 6 11.2941V12.2353H4V11.2941C4 10.7059 4.09896 10.1961 4.29688 9.76471C4.49479 9.33333 4.73958 8.93627 5.03125 8.57353C5.32292 8.21078 5.64583 7.89216 6 7.61765C6.35417 7.34314 6.67188 7.05392 6.95312 6.75C7.23438 6.44608 7.48438 6.13725 7.70312 5.82353C7.92188 5.5098 8.02083 5.13725 8 4.70588C8 4.31373 7.92188 3.94608 7.76562 3.60294C7.60938 3.2598 7.39583 2.96078 7.125 2.70588C6.85417 2.45098 6.53646 2.25 6.17188 2.10294C5.80729 1.95588 5.41667 1.88235 5 1.88235C4.58333 1.88235 4.19271 1.95588 3.82812 2.10294C3.46354 2.25 3.14583 2.45098 2.875 2.70588C2.60417 2.96078 2.39062 3.2598 2.23438 3.60294C2.07812 3.94608 2 4.31373 2 4.70588H0C0 4.05882 0.130208 3.45098 0.390625 2.88235C0.651042 2.31373 1.00521 1.81863 1.45312 1.39706C1.90104 0.97549 2.43229 0.637255 3.04688 0.382353C3.66146 0.127451 4.3125 0 5 0Z" fill="white"/>
</svg>
