<svg width="36" height="38" viewBox="0 0 36 38" fill="none" xmlns="http://www.w3.org/2000/svg">
<rect width="36" height="38" rx="4" fill="#00005A"/>
<path d="M17 25.1176H19V27H17V25.1176ZM18 11C18.6875 11 19.3333 11.1225 19.9375 11.3676C20.5417 11.6127 21.0677 11.951 21.5156 12.3824C21.9635 12.8137 22.3229 13.3137 22.5938 13.8824C22.8646 14.451 23 15.0588 23 15.7059C23 16.2941 22.901 16.8039 22.7031 17.2353C22.5052 17.6667 22.2604 18.0637 21.9688 18.4265C21.6771 18.7892 21.3542 19.1078 21 19.3824C20.6458 19.6569 20.3281 19.9461 20.0469 20.25C19.7656 20.5539 19.5156 20.8627 19.2969 21.1765C19.0781 21.4902 18.9792 21.8627 19 22.2941V23.2353H17V22.2941C17 21.7059 17.099 21.1961 17.2969 20.7647C17.4948 20.3333 17.7396 19.9363 18.0312 19.5735C18.3229 19.2108 18.6458 18.8922 19 18.6176C19.3542 18.3431 19.6719 18.0539 19.9531 17.75C20.2344 17.4461 20.4844 17.1373 20.7031 16.8235C20.9219 16.5098 21.0208 16.1373 21 15.7059C21 15.3137 20.9219 14.9461 20.7656 14.6029C20.6094 14.2598 20.3958 13.9608 20.125 13.7059C19.8542 13.451 19.5365 13.25 19.1719 13.1029C18.8073 12.9559 18.4167 12.8824 18 12.8824C17.5833 12.8824 17.1927 12.9559 16.8281 13.1029C16.4635 13.25 16.1458 13.451 15.875 13.7059C15.6042 13.9608 15.3906 14.2598 15.2344 14.6029C15.0781 14.9461 15 15.3137 15 15.7059H13C13 15.0588 13.1302 14.451 13.3906 13.8824C13.651 13.3137 14.0052 12.8186 14.4531 12.3971C14.901 11.9755 15.4323 11.6373 16.0469 11.3824C16.6615 11.1275 17.3125 11 18 11Z" fill="white"/>
</svg>
