<svg width="28" height="28" viewBox="0 0 28 28" fill="none" xmlns="http://www.w3.org/2000/svg">
<circle cx="14" cy="14" r="14" fill="#13267D"/>
<path d="M22.4002 8.96044C22.4002 9.28284 22.283 9.6054 22.0487 9.8511L12.4487 19.9311C12.2152 20.1784 11.9077 20.3004 11.6002 20.3004C11.2927 20.3004 10.986 20.1774 10.752 19.9313L5.95197 14.8913C5.71759 14.6462 5.60022 14.3233 5.60022 14.0004C5.60022 13.2807 6.16084 12.7404 6.80022 12.7404C7.10727 12.7404 7.41447 12.8635 7.64847 13.1096L11.6002 17.2607L20.3527 8.07056C20.5852 7.82368 20.8927 7.70044 21.2002 7.70044C21.8415 7.70044 22.4002 8.23988 22.4002 8.96044Z" fill="white"/>
</svg>
