<svg width="20" height="24" viewBox="0 0 20 24" fill="none" xmlns="http://www.w3.org/2000/svg">
<path d="M1 17.875C1 16.7478 1.44777 15.6668 2.2448 14.8698C3.04183 14.0728 4.12283 13.625 5.25 13.625H13.75C14.8772 13.625 15.9582 14.0728 16.7552 14.8698C17.5522 15.6668 18 16.7478 18 17.875C18 18.4386 17.7761 18.9791 17.3776 19.3776C16.9791 19.7761 16.4386 20 15.875 20H3.125C2.56141 20 2.02091 19.7761 1.6224 19.3776C1.22388 18.9791 1 18.4386 1 17.875Z" stroke="black" stroke-width="1.6" stroke-linejoin="round"/>
<path d="M9.5 9.375C11.2604 9.375 12.6875 7.94791 12.6875 6.1875C12.6875 4.42709 11.2604 3 9.5 3C7.73959 3 6.3125 4.42709 6.3125 6.1875C6.3125 7.94791 7.73959 9.375 9.5 9.375Z" stroke="black" stroke-width="1.6"/>
</svg>
