<svg width="103" height="138" viewBox="0 0 103 138" fill="none" xmlns="http://www.w3.org/2000/svg">
<path d="M103 18.2098C102.98 18.1898 103 18.2098 103 18.2098L39.2134 111.892L0 64.622C2.45333 66.0979 36.1717 80.7376 38.6848 82.0939" fill="#00005A"/>
<path d="M80.3815 65.8786V121.166C80.3815 130.441 72.1738 138 62.0812 138H22.3991C12.2966 138 4.08887 130.451 4.08887 121.166V80.9471L11.0699 87.6686V121.166C11.0699 126.911 16.1461 131.578 22.3991 131.578H62.0812C68.3242 131.578 73.4005 126.911 73.4005 121.166V74.0362C80.2219 65.8686 73.3007 73.9763 80.3815 65.8687V65.8786Z" fill="#00005A"/>
<path d="M80.3815 18.2996V30.8052C73.4005 36.2701 80.7305 30.6356 73.4005 36.2701V18.2996C73.4005 12.0568 68.3242 6.98078 62.0812 6.98078H22.3991C16.1461 6.98078 11.0699 12.0568 11.0699 18.2996V63.0564C4.23846 60.5034 11.0699 63.0564 4.08887 60.4436V18.2996C4.08887 8.2074 12.2966 0 22.3991 0H62.0812C72.1738 0 80.3815 8.2074 80.3815 18.2996Z" fill="#00005A"/>
</svg>
